<?xml version="1.0" encoding="us-ascii" standalone="no"?><svg xmlns="http://www.w3.org/2000/svg" xmlns:xlink="http://www.w3.org/1999/xlink" contentStyleType="text/css" height="236px" preserveAspectRatio="none" style="width:597px;height:236px;background:#FFFFFF;" version="1.1" viewBox="0 0 597 236" width="597px" zoomAndPan="magnify"><defs/><g><!--class Observable--><g id="elem_Observable"><rect codeLine="1" fill="#F1F1F1" height="96.8906" id="Observable" rx="2.5" ry="2.5" style="stroke:#181818;stroke-width:0.5;" width="236" x="138" y="7"/><ellipse cx="212.75" cy="23" fill="#B4A7E5" rx="11" ry="11" style="stroke:#181818;stroke-width:1.0;"/><path d="M208.6719,18.7656 L208.6719,16.6094 L216.0625,16.6094 L216.0625,18.7656 L213.5938,18.7656 L213.5938,26.8438 L216.0625,26.8438 L216.0625,29 L208.6719,29 L208.6719,26.8438 L211.1406,26.8438 L211.1406,18.7656 L208.6719,18.7656 Z " fill="#000000"/><text fill="#000000" font-family="sans-serif" font-size="14" font-style="italic" lengthAdjust="spacing" textLength="78" x="233.25" y="27.8467">Observable</text><line style="stroke:#181818;stroke-width:0.5;" x1="139" x2="373" y1="39" y2="39"/><line style="stroke:#181818;stroke-width:0.5;" x1="139" x2="373" y1="47" y2="47"/><text fill="#000000" font-family="sans-serif" font-size="14" lengthAdjust="spacing" textLength="168" x="144" y="63.9951">publish(String message)</text><text fill="#000000" font-family="sans-serif" font-size="14" lengthAdjust="spacing" textLength="206" x="144" y="80.292">subscribe(Observer observer)</text><text fill="#000000" font-family="sans-serif" font-size="14" lengthAdjust="spacing" textLength="224" x="144" y="96.5889">unsubscribe(Observer observer)</text></g><!--class Observer--><g id="elem_Observer"><rect codeLine="6" fill="#F1F1F1" height="64.2969" id="Observer" rx="2.5" ry="2.5" style="stroke:#181818;stroke-width:0.5;" width="156" x="434" y="23.5"/><ellipse cx="476.45" cy="39.5" fill="#B4A7E5" rx="11" ry="11" style="stroke:#181818;stroke-width:1.0;"/><path d="M472.3719,35.2656 L472.3719,33.1094 L479.7625,33.1094 L479.7625,35.2656 L477.2938,35.2656 L477.2938,43.3438 L479.7625,43.3438 L479.7625,45.5 L472.3719,45.5 L472.3719,43.3438 L474.8406,43.3438 L474.8406,35.2656 L472.3719,35.2656 Z " fill="#000000"/><text fill="#000000" font-family="sans-serif" font-size="14" font-style="italic" lengthAdjust="spacing" textLength="63" x="496.55" y="44.3467">Observer</text><line style="stroke:#181818;stroke-width:0.5;" x1="435" x2="589" y1="55.5" y2="55.5"/><line style="stroke:#181818;stroke-width:0.5;" x1="435" x2="589" y1="63.5" y2="63.5"/><text fill="#000000" font-family="sans-serif" font-size="14" lengthAdjust="spacing" textLength="144" x="440" y="80.4951">update(String article)</text></g><!--class Newsletter--><g id="elem_Newsletter"><rect codeLine="9" fill="#F1F1F1" height="64.2969" id="Newsletter" rx="2.5" ry="2.5" style="stroke:#181818;stroke-width:0.5;" width="237" x="137.5" y="165"/><ellipse cx="214.75" cy="181" fill="#ADD1B2" rx="11" ry="11" style="stroke:#181818;stroke-width:1.0;"/><path d="M217.7188,186.6406 Q217.1406,186.9375 216.5,187.0781 Q215.8594,187.2344 215.1563,187.2344 Q212.6563,187.2344 211.3281,185.5938 Q210.0156,183.9375 210.0156,180.8125 Q210.0156,177.6875 211.3281,176.0313 Q212.6563,174.375 215.1563,174.375 Q215.8594,174.375 216.5,174.5313 Q217.1563,174.6875 217.7188,174.9844 L217.7188,177.7031 Q217.0938,177.125 216.5,176.8594 Q215.9063,176.5781 215.2813,176.5781 Q213.9375,176.5781 213.25,177.6563 Q212.5625,178.7188 212.5625,180.8125 Q212.5625,182.9063 213.25,183.9844 Q213.9375,185.0469 215.2813,185.0469 Q215.9063,185.0469 216.5,184.7813 Q217.0938,184.5 217.7188,183.9219 L217.7188,186.6406 Z " fill="#000000"/><text fill="#000000" font-family="sans-serif" font-size="14" lengthAdjust="spacing" textLength="74" x="235.25" y="185.8467">Newsletter</text><line style="stroke:#181818;stroke-width:0.5;" x1="138.5" x2="373.5" y1="197" y2="197"/><rect fill="none" height="6" style="stroke:#C82930;stroke-width:1.0;" width="6" x="145.5" y="207.6484"/><text fill="#000000" font-family="sans-serif" font-size="14" lengthAdjust="spacing" textLength="211" x="157.5" y="213.9951">subscribers: List&lt;Subscriber&gt;</text><line style="stroke:#181818;stroke-width:0.5;" x1="138.5" x2="373.5" y1="221.2969" y2="221.2969"/></g><!--class Subscriber--><g id="elem_Subscriber"><rect codeLine="12" fill="#F1F1F1" height="48" id="Subscriber" rx="2.5" ry="2.5" style="stroke:#181818;stroke-width:0.5;" width="106" x="459" y="173"/><ellipse cx="474" cy="189" fill="#ADD1B2" rx="11" ry="11" style="stroke:#181818;stroke-width:1.0;"/><path d="M476.9688,194.6406 Q476.3906,194.9375 475.75,195.0781 Q475.1094,195.2344 474.4063,195.2344 Q471.9063,195.2344 470.5781,193.5938 Q469.2656,191.9375 469.2656,188.8125 Q469.2656,185.6875 470.5781,184.0313 Q471.9063,182.375 474.4063,182.375 Q475.1094,182.375 475.75,182.5313 Q476.4063,182.6875 476.9688,182.9844 L476.9688,185.7031 Q476.3438,185.125 475.75,184.8594 Q475.1563,184.5781 474.5313,184.5781 Q473.1875,184.5781 472.5,185.6563 Q471.8125,186.7188 471.8125,188.8125 Q471.8125,190.9063 472.5,191.9844 Q473.1875,193.0469 474.5313,193.0469 Q475.1563,193.0469 475.75,192.7813 Q476.3438,192.5 476.9688,191.9219 L476.9688,194.6406 Z " fill="#000000"/><text fill="#000000" font-family="sans-serif" font-size="14" lengthAdjust="spacing" textLength="74" x="488" y="193.8467">Subscriber</text><line style="stroke:#181818;stroke-width:0.5;" x1="460" x2="564" y1="205" y2="205"/><line style="stroke:#181818;stroke-width:0.5;" x1="460" x2="564" y1="213" y2="213"/></g><!--class Main--><g id="elem_Main"><rect codeLine="14" fill="#F1F1F1" height="48" id="Main" rx="2.5" ry="2.5" style="stroke:#181818;stroke-width:0.5;" width="64" x="7" y="31.5"/><ellipse cx="22" cy="47.5" fill="#ADD1B2" rx="11" ry="11" style="stroke:#181818;stroke-width:1.0;"/><path d="M24.9688,53.1406 Q24.3906,53.4375 23.75,53.5781 Q23.1094,53.7344 22.4063,53.7344 Q19.9063,53.7344 18.5781,52.0938 Q17.2656,50.4375 17.2656,47.3125 Q17.2656,44.1875 18.5781,42.5313 Q19.9063,40.875 22.4063,40.875 Q23.1094,40.875 23.75,41.0313 Q24.4063,41.1875 24.9688,41.4844 L24.9688,44.2031 Q24.3438,43.625 23.75,43.3594 Q23.1563,43.0781 22.5313,43.0781 Q21.1875,43.0781 20.5,44.1563 Q19.8125,45.2188 19.8125,47.3125 Q19.8125,49.4063 20.5,50.4844 Q21.1875,51.5469 22.5313,51.5469 Q23.1563,51.5469 23.75,51.2813 Q24.3438,51 24.9688,50.4219 L24.9688,53.1406 Z " fill="#000000"/><text fill="#000000" font-family="sans-serif" font-size="14" lengthAdjust="spacing" textLength="32" x="36" y="52.3467">Main</text><line style="stroke:#181818;stroke-width:0.5;" x1="8" x2="70" y1="63.5" y2="63.5"/><line style="stroke:#181818;stroke-width:0.5;" x1="8" x2="70" y1="71.5" y2="71.5"/></g><!--reverse link Observable to Newsletter--><g id="link_Observable_Newsletter"><path d="M256,122.12 C256,142.17 256,146.94 256,164.79 " fill="none" id="Observable-backto-Newsletter" style="stroke:#181818;stroke-width:1.0;stroke-dasharray:7.0,7.0;"/><polygon fill="none" points="256,104.12,250,122.12,262,122.12,256,104.12" style="stroke:#181818;stroke-width:1.0;"/></g><!--reverse link Observer to Subscriber--><g id="link_Observer_Subscriber"><path d="M512,105.81 C512,131.51 512,149.35 512,172.61 " fill="none" id="Observer-backto-Subscriber" style="stroke:#181818;stroke-width:1.0;stroke-dasharray:7.0,7.0;"/><polygon fill="none" points="512,87.81,506,105.81,518,105.81,512,87.81" style="stroke:#181818;stroke-width:1.0;"/></g><!--reverse link Observable to Observer--><g id="link_Observable_Observer"><path codeLine="13" d="M386.26,55.5 C406.43,55.5 414.93,55.5 433.74,55.5 " fill="none" id="Observable-backto-Observer" style="stroke:#181818;stroke-width:1.0;"/><polygon fill="none" points="374.26,55.5,380.26,59.5,386.26,55.5,380.26,51.5,374.26,55.5" style="stroke:#181818;stroke-width:1.0;"/><text fill="#000000" font-family="sans-serif" font-size="13" lengthAdjust="spacing" textLength="23" x="392.5" y="48.5669">0..*</text></g><!--link Main to Observable--><g id="link_Main_Observable"><path codeLine="15" d="M71.02,55.5 C89.17,55.5 107.14,55.5 131.79,55.5 " fill="none" id="Main-to-Observable" style="stroke:#181818;stroke-width:1.0;"/><polygon fill="#181818" points="137.79,55.5,128.79,51.5,132.79,55.5,128.79,59.5,137.79,55.5" style="stroke:#181818;stroke-width:1.0;"/><text fill="#000000" font-family="sans-serif" font-size="13" lengthAdjust="spacing" textLength="30" x="89.5" y="48.5669">uses</text></g><!--SRC=[VKxB2i903BplLmHFLcZnNAHVuEFW5-okiGrirv9azI3-kzLMAmhc4CBCP6OeAlBHUeIT4-IpTG7XQg2VBhb0qiptoXHhQ574rfWzEKbEF9F3-V263AVnoE2fIF6_vcReAxhdX-3K7QpYAzUoaWzzxituO4LWYnS9gFqpKDi5R36g_DRFfv8i9Qn9TBL_8zNRRi9-xP3DX-yfPweRpQU-9SoMHR6OZLORIz4y5epAwhDM2KbGxW00]--></g></svg>