<?xml version="1.0" encoding="us-ascii" standalone="no"?><svg xmlns="http://www.w3.org/2000/svg" xmlns:xlink="http://www.w3.org/1999/xlink" contentStyleType="text/css" height="219px" preserveAspectRatio="none" style="width:784px;height:219px;background:#FFFFFF;" version="1.1" viewBox="0 0 784 219" width="784px" zoomAndPan="magnify"><defs/><g><!--class UserRepository--><g id="elem_UserRepository"><rect codeLine="1" fill="#F1F1F1" height="64.2969" id="UserRepository" rx="2.5" ry="2.5" style="stroke:#181818;stroke-width:0.5;" width="280" x="138" y="7"/><ellipse cx="221.25" cy="23" fill="#B4A7E5" rx="11" ry="11" style="stroke:#181818;stroke-width:1.0;"/><path d="M217.1719,18.7656 L217.1719,16.6094 L224.5625,16.6094 L224.5625,18.7656 L222.0938,18.7656 L222.0938,26.8438 L224.5625,26.8438 L224.5625,29 L217.1719,29 L217.1719,26.8438 L219.6406,26.8438 L219.6406,18.7656 L217.1719,18.7656 Z " fill="#000000"/><text fill="#000000" font-family="sans-serif" font-size="14" font-style="italic" lengthAdjust="spacing" textLength="105" x="241.75" y="27.8467">UserRepository</text><line style="stroke:#181818;stroke-width:0.5;" x1="139" x2="417" y1="39" y2="39"/><line style="stroke:#181818;stroke-width:0.5;" x1="139" x2="417" y1="47" y2="47"/><ellipse cx="149" cy="60.6484" fill="#84BE84" rx="3" ry="3" style="stroke:#038048;stroke-width:1.0;"/><text fill="#000000" font-family="sans-serif" font-size="14" lengthAdjust="spacing" textLength="254" x="158" y="63.9951">String: getUserByName(String name)</text></g><!--class UserRepositoryImpl--><g id="elem_UserRepositoryImpl"><rect codeLine="4" fill="#F1F1F1" height="64.2969" id="UserRepositoryImpl" rx="2.5" ry="2.5" style="stroke:#181818;stroke-width:0.5;" width="186" x="185" y="148"/><ellipse cx="209" cy="164" fill="#ADD1B2" rx="11" ry="11" style="stroke:#181818;stroke-width:1.0;"/><path d="M211.9688,169.6406 Q211.3906,169.9375 210.75,170.0781 Q210.1094,170.2344 209.4063,170.2344 Q206.9063,170.2344 205.5781,168.5938 Q204.2656,166.9375 204.2656,163.8125 Q204.2656,160.6875 205.5781,159.0313 Q206.9063,157.375 209.4063,157.375 Q210.1094,157.375 210.75,157.5313 Q211.4063,157.6875 211.9688,157.9844 L211.9688,160.7031 Q211.3438,160.125 210.75,159.8594 Q210.1563,159.5781 209.5313,159.5781 Q208.1875,159.5781 207.5,160.6563 Q206.8125,161.7188 206.8125,163.8125 Q206.8125,165.9063 207.5,166.9844 Q208.1875,168.0469 209.5313,168.0469 Q210.1563,168.0469 210.75,167.7813 Q211.3438,167.5 211.9688,166.9219 L211.9688,169.6406 Z " fill="#000000"/><text fill="#000000" font-family="sans-serif" font-size="14" lengthAdjust="spacing" textLength="134" x="225" y="168.8467">UserRepositoryImpl</text><line style="stroke:#181818;stroke-width:0.5;" x1="186" x2="370" y1="180" y2="180"/><rect fill="none" height="6" style="stroke:#C82930;stroke-width:1.0;" width="6" x="193" y="190.6484"/><text fill="#000000" font-family="sans-serif" font-size="14" lengthAdjust="spacing" textLength="160" x="205" y="196.9951">database: List&lt;String&gt;</text><line style="stroke:#181818;stroke-width:0.5;" x1="186" x2="370" y1="204.2969" y2="204.2969"/></g><!--class UserRepositoryDecorator--><g id="elem_UserRepositoryDecorator"><rect codeLine="7" fill="#F1F1F1" height="64.2969" id="UserRepositoryDecorator" rx="2.5" ry="2.5" style="stroke:#181818;stroke-width:0.5;" width="246" x="531" y="7"/><ellipse cx="563.55" cy="23" fill="#ADD1B2" rx="11" ry="11" style="stroke:#181818;stroke-width:1.0;"/><path d="M566.5188,28.6406 Q565.9406,28.9375 565.3,29.0781 Q564.6594,29.2344 563.9563,29.2344 Q561.4563,29.2344 560.1281,27.5938 Q558.8156,25.9375 558.8156,22.8125 Q558.8156,19.6875 560.1281,18.0313 Q561.4563,16.375 563.9563,16.375 Q564.6594,16.375 565.3,16.5313 Q565.9563,16.6875 566.5188,16.9844 L566.5188,19.7031 Q565.8938,19.125 565.3,18.8594 Q564.7063,18.5781 564.0813,18.5781 Q562.7375,18.5781 562.05,19.6563 Q561.3625,20.7188 561.3625,22.8125 Q561.3625,24.9063 562.05,25.9844 Q562.7375,27.0469 564.0813,27.0469 Q564.7063,27.0469 565.3,26.7813 Q565.8938,26.5 566.5188,25.9219 L566.5188,28.6406 Z " fill="#000000"/><text fill="#000000" font-family="sans-serif" font-size="14" lengthAdjust="spacing" textLength="175" x="581.45" y="27.8467">UserRepositoryDecorator</text><line style="stroke:#181818;stroke-width:0.5;" x1="532" x2="776" y1="39" y2="39"/><rect fill="none" height="6" style="stroke:#C82930;stroke-width:1.0;" width="6" x="539" y="49.6484"/><text fill="#000000" font-family="sans-serif" font-size="14" lengthAdjust="spacing" textLength="220" x="551" y="55.9951">userRepository: UserRepository</text><line style="stroke:#181818;stroke-width:0.5;" x1="532" x2="776" y1="63.2969" y2="63.2969"/></g><!--class RedisUserRepository--><g id="elem_RedisUserRepository"><rect codeLine="10" fill="#F1F1F1" height="64.2969" id="RedisUserRepository" rx="2.5" ry="2.5" style="stroke:#181818;stroke-width:0.5;" width="188" x="560" y="148"/><ellipse cx="579.95" cy="164" fill="#ADD1B2" rx="11" ry="11" style="stroke:#181818;stroke-width:1.0;"/><path d="M582.9188,169.6406 Q582.3406,169.9375 581.7,170.0781 Q581.0594,170.2344 580.3563,170.2344 Q577.8563,170.2344 576.5281,168.5938 Q575.2156,166.9375 575.2156,163.8125 Q575.2156,160.6875 576.5281,159.0313 Q577.8563,157.375 580.3563,157.375 Q581.0594,157.375 581.7,157.5313 Q582.3563,157.6875 582.9188,157.9844 L582.9188,160.7031 Q582.2938,160.125 581.7,159.8594 Q581.1063,159.5781 580.4813,159.5781 Q579.1375,159.5781 578.45,160.6563 Q577.7625,161.7188 577.7625,163.8125 Q577.7625,165.9063 578.45,166.9844 Q579.1375,168.0469 580.4813,168.0469 Q581.1063,168.0469 581.7,167.7813 Q582.2938,167.5 582.9188,166.9219 L582.9188,169.6406 Z " fill="#000000"/><text fill="#000000" font-family="sans-serif" font-size="14" lengthAdjust="spacing" textLength="145" x="595.05" y="168.8467">RedisUserRepository</text><line style="stroke:#181818;stroke-width:0.5;" x1="561" x2="747" y1="180" y2="180"/><rect fill="none" height="6" style="stroke:#C82930;stroke-width:1.0;" width="6" x="568" y="190.6484"/><text fill="#000000" font-family="sans-serif" font-size="14" lengthAdjust="spacing" textLength="162" x="580" y="196.9951">redisData: List&lt;String&gt;</text><line style="stroke:#181818;stroke-width:0.5;" x1="561" x2="747" y1="204.2969" y2="204.2969"/></g><!--class Main--><g id="elem_Main"><rect codeLine="13" fill="#F1F1F1" height="48" id="Main" rx="2.5" ry="2.5" style="stroke:#181818;stroke-width:0.5;" width="64" x="7" y="15"/><ellipse cx="22" cy="31" fill="#ADD1B2" rx="11" ry="11" style="stroke:#181818;stroke-width:1.0;"/><path d="M24.9688,36.6406 Q24.3906,36.9375 23.75,37.0781 Q23.1094,37.2344 22.4063,37.2344 Q19.9063,37.2344 18.5781,35.5938 Q17.2656,33.9375 17.2656,30.8125 Q17.2656,27.6875 18.5781,26.0313 Q19.9063,24.375 22.4063,24.375 Q23.1094,24.375 23.75,24.5313 Q24.4063,24.6875 24.9688,24.9844 L24.9688,27.7031 Q24.3438,27.125 23.75,26.8594 Q23.1563,26.5781 22.5313,26.5781 Q21.1875,26.5781 20.5,27.6563 Q19.8125,28.7188 19.8125,30.8125 Q19.8125,32.9063 20.5,33.9844 Q21.1875,35.0469 22.5313,35.0469 Q23.1563,35.0469 23.75,34.7813 Q24.3438,34.5 24.9688,33.9219 L24.9688,36.6406 Z " fill="#000000"/><text fill="#000000" font-family="sans-serif" font-size="14" lengthAdjust="spacing" textLength="32" x="36" y="35.8467">Main</text><line style="stroke:#181818;stroke-width:0.5;" x1="8" x2="70" y1="47" y2="47"/><line style="stroke:#181818;stroke-width:0.5;" x1="8" x2="70" y1="55" y2="55"/></g><!--reverse link UserRepositoryDecorator to RedisUserRepository--><g id="link_UserRepositoryDecorator_RedisUserRepository"><path d="M654,89.19 C654,112.09 654,125.04 654,147.91 " fill="none" id="UserRepositoryDecorator-backto-RedisUserRepository" style="stroke:#181818;stroke-width:1.0;"/><polygon fill="none" points="654,71.19,648,89.19,660,89.19,654,71.19" style="stroke:#181818;stroke-width:1.0;"/></g><!--link Main to UserRepository--><g id="link_Main_UserRepository"><path codeLine="14" d="M71.23,39 C89.2,39 106.95,39 131.94,39 " fill="none" id="Main-to-UserRepository" style="stroke:#181818;stroke-width:1.0;"/><polygon fill="#181818" points="137.94,39,128.94,35,132.94,39,128.94,43,137.94,39" style="stroke:#181818;stroke-width:1.0;"/><text fill="#000000" font-family="sans-serif" font-size="13" lengthAdjust="spacing" textLength="30" x="89.5" y="32.0669">uses</text></g><!--reverse link UserRepository to UserRepositoryImpl--><g id="link_UserRepository_UserRepositoryImpl"><path codeLine="15" d="M278,89.19 C278,112.09 278,125.04 278,147.91 " fill="none" id="UserRepository-backto-UserRepositoryImpl" style="stroke:#181818;stroke-width:1.0;stroke-dasharray:7.0,7.0;"/><polygon fill="none" points="278,71.19,272,89.19,284,89.19,278,71.19" style="stroke:#181818;stroke-width:1.0;"/><text fill="#000000" font-family="sans-serif" font-size="13" lengthAdjust="spacing" textLength="76" x="279" y="114.0669">implements</text></g><!--reverse link UserRepository to UserRepositoryDecorator--><g id="link_UserRepository_UserRepositoryDecorator"><path codeLine="16" d="M436.01,39 C473.07,39 494.8,39 530.89,39 " fill="none" id="UserRepository-backto-UserRepositoryDecorator" style="stroke:#181818;stroke-width:1.0;stroke-dasharray:7.0,7.0;"/><polygon fill="none" points="418.01,39,436.01,45,436.01,33,418.01,39" style="stroke:#181818;stroke-width:1.0;"/><text fill="#000000" font-family="sans-serif" font-size="13" lengthAdjust="spacing" textLength="76" x="436.5" y="32.0669">implements</text></g><!--link UserRepositoryDecorator to UserRepository--><g id="link_UserRepositoryDecorator_UserRepository"><path codeLine="17" d="M518.6495,57.1331 C506.1395,58.3831 505.55,58.25 493.5,59 C469.12,60.51 449.2169,60.3666 424.1569,58.7066 " fill="none" id="UserRepositoryDecorator-UserRepository" style="stroke:#181818;stroke-width:1.0;"/><polygon fill="none" points="530.59,55.94,524.222,52.5564,518.6495,57.1331,525.0174,60.5167,530.59,55.94" style="stroke:#181818;stroke-width:1.0;"/><polygon fill="#181818" points="418.17,58.31,426.8859,62.8961,423.1591,58.6405,427.4147,54.9136,418.17,58.31" style="stroke:#181818;stroke-width:1.0;"/><text fill="#000000" font-family="sans-serif" font-size="13" lengthAdjust="spacing" textLength="36" x="456.5" y="55.0669">has-a</text></g><!--SRC=[bP31YW8n38RlVOem9qNw0aNc85w4NGykdiH3dCQPWjEH9WiEwhlRuZ9YMLssXpOa-R_-YVD2OOyLmPefhEZOiPCkz71M4Cy4lYGuNnkeILB7h5zYIwDx5doCn-gggWCoPuH5UppyK3HO5DmXau4FnpAzoyjKUw6UKzK5ZD60-7wgcwn_mAp8EivcePEGjtz_4P9s7gq-snpOd-YyIXVeuEf6T9blpIIRhBBizA8t5haXkzM_RSb0uU9BBNdXuX_gnmXl4O-sxhNnea7MMDm0]--></g></svg>