<?xml version="1.0" encoding="us-ascii" standalone="no"?><svg xmlns="http://www.w3.org/2000/svg" xmlns:xlink="http://www.w3.org/1999/xlink" contentStyleType="text/css" height="219px" preserveAspectRatio="none" style="width:764px;height:219px;background:#FFFFFF;" version="1.1" viewBox="0 0 764 219" width="764px" zoomAndPan="magnify"><defs/><g><!--class UserRepository--><g id="elem_UserRepository"><rect codeLine="1" fill="#F1F1F1" height="64.2969" id="UserRepository" rx="2.5" ry="2.5" style="stroke:#181818;stroke-width:0.5;" width="261" x="137.5" y="7"/><ellipse cx="211.25" cy="23" fill="#B4A7E5" rx="11" ry="11" style="stroke:#181818;stroke-width:1.0;"/><path d="M207.1719,18.7656 L207.1719,16.6094 L214.5625,16.6094 L214.5625,18.7656 L212.0938,18.7656 L212.0938,26.8438 L214.5625,26.8438 L214.5625,29 L207.1719,29 L207.1719,26.8438 L209.6406,26.8438 L209.6406,18.7656 L207.1719,18.7656 Z " fill="#000000"/><text fill="#000000" font-family="sans-serif" font-size="14" font-style="italic" lengthAdjust="spacing" textLength="105" x="231.75" y="27.8467">UserRepository</text><line style="stroke:#181818;stroke-width:0.5;" x1="138.5" x2="397.5" y1="39" y2="39"/><line style="stroke:#181818;stroke-width:0.5;" x1="138.5" x2="397.5" y1="47" y2="47"/><text fill="#000000" font-family="sans-serif" font-size="14" lengthAdjust="spacing" textLength="249" x="143.5" y="63.9951">String getUserByName(String name)</text></g><!--class UserRepositoryImpl--><g id="elem_UserRepositoryImpl"><rect codeLine="4" fill="#F1F1F1" height="64.2969" id="UserRepositoryImpl" rx="2.5" ry="2.5" style="stroke:#181818;stroke-width:0.5;" width="186" x="175" y="148"/><ellipse cx="199" cy="164" fill="#ADD1B2" rx="11" ry="11" style="stroke:#181818;stroke-width:1.0;"/><path d="M201.9688,169.6406 Q201.3906,169.9375 200.75,170.0781 Q200.1094,170.2344 199.4063,170.2344 Q196.9063,170.2344 195.5781,168.5938 Q194.2656,166.9375 194.2656,163.8125 Q194.2656,160.6875 195.5781,159.0313 Q196.9063,157.375 199.4063,157.375 Q200.1094,157.375 200.75,157.5313 Q201.4063,157.6875 201.9688,157.9844 L201.9688,160.7031 Q201.3438,160.125 200.75,159.8594 Q200.1563,159.5781 199.5313,159.5781 Q198.1875,159.5781 197.5,160.6563 Q196.8125,161.7188 196.8125,163.8125 Q196.8125,165.9063 197.5,166.9844 Q198.1875,168.0469 199.5313,168.0469 Q200.1563,168.0469 200.75,167.7813 Q201.3438,167.5 201.9688,166.9219 L201.9688,169.6406 Z " fill="#000000"/><text fill="#000000" font-family="sans-serif" font-size="14" lengthAdjust="spacing" textLength="134" x="215" y="168.8467">UserRepositoryImpl</text><line style="stroke:#181818;stroke-width:0.5;" x1="176" x2="360" y1="180" y2="180"/><rect fill="none" height="6" style="stroke:#C82930;stroke-width:1.0;" width="6" x="183" y="190.6484"/><text fill="#000000" font-family="sans-serif" font-size="14" lengthAdjust="spacing" textLength="160" x="195" y="196.9951">database: List&lt;String&gt;</text><line style="stroke:#181818;stroke-width:0.5;" x1="176" x2="360" y1="204.2969" y2="204.2969"/></g><!--class UserRepositoryDecorator--><g id="elem_UserRepositoryDecorator"><rect codeLine="7" fill="#F1F1F1" height="64.2969" id="UserRepositoryDecorator" rx="2.5" ry="2.5" style="stroke:#181818;stroke-width:0.5;" width="246" x="511" y="7"/><ellipse cx="543.55" cy="23" fill="#ADD1B2" rx="11" ry="11" style="stroke:#181818;stroke-width:1.0;"/><path d="M546.5188,28.6406 Q545.9406,28.9375 545.3,29.0781 Q544.6594,29.2344 543.9563,29.2344 Q541.4563,29.2344 540.1281,27.5938 Q538.8156,25.9375 538.8156,22.8125 Q538.8156,19.6875 540.1281,18.0313 Q541.4563,16.375 543.9563,16.375 Q544.6594,16.375 545.3,16.5313 Q545.9563,16.6875 546.5188,16.9844 L546.5188,19.7031 Q545.8938,19.125 545.3,18.8594 Q544.7063,18.5781 544.0813,18.5781 Q542.7375,18.5781 542.05,19.6563 Q541.3625,20.7188 541.3625,22.8125 Q541.3625,24.9063 542.05,25.9844 Q542.7375,27.0469 544.0813,27.0469 Q544.7063,27.0469 545.3,26.7813 Q545.8938,26.5 546.5188,25.9219 L546.5188,28.6406 Z " fill="#000000"/><text fill="#000000" font-family="sans-serif" font-size="14" lengthAdjust="spacing" textLength="175" x="561.45" y="27.8467">UserRepositoryDecorator</text><line style="stroke:#181818;stroke-width:0.5;" x1="512" x2="756" y1="39" y2="39"/><rect fill="none" height="6" style="stroke:#C82930;stroke-width:1.0;" width="6" x="519" y="49.6484"/><text fill="#000000" font-family="sans-serif" font-size="14" lengthAdjust="spacing" textLength="220" x="531" y="55.9951">userRepository: UserRepository</text><line style="stroke:#181818;stroke-width:0.5;" x1="512" x2="756" y1="63.2969" y2="63.2969"/></g><!--class RedisUserRepository--><g id="elem_RedisUserRepository"><rect codeLine="10" fill="#F1F1F1" height="64.2969" id="RedisUserRepository" rx="2.5" ry="2.5" style="stroke:#181818;stroke-width:0.5;" width="188" x="540" y="148"/><ellipse cx="559.95" cy="164" fill="#ADD1B2" rx="11" ry="11" style="stroke:#181818;stroke-width:1.0;"/><path d="M562.9188,169.6406 Q562.3406,169.9375 561.7,170.0781 Q561.0594,170.2344 560.3563,170.2344 Q557.8563,170.2344 556.5281,168.5938 Q555.2156,166.9375 555.2156,163.8125 Q555.2156,160.6875 556.5281,159.0313 Q557.8563,157.375 560.3563,157.375 Q561.0594,157.375 561.7,157.5313 Q562.3563,157.6875 562.9188,157.9844 L562.9188,160.7031 Q562.2938,160.125 561.7,159.8594 Q561.1063,159.5781 560.4813,159.5781 Q559.1375,159.5781 558.45,160.6563 Q557.7625,161.7188 557.7625,163.8125 Q557.7625,165.9063 558.45,166.9844 Q559.1375,168.0469 560.4813,168.0469 Q561.1063,168.0469 561.7,167.7813 Q562.2938,167.5 562.9188,166.9219 L562.9188,169.6406 Z " fill="#000000"/><text fill="#000000" font-family="sans-serif" font-size="14" lengthAdjust="spacing" textLength="145" x="575.05" y="168.8467">RedisUserRepository</text><line style="stroke:#181818;stroke-width:0.5;" x1="541" x2="727" y1="180" y2="180"/><rect fill="none" height="6" style="stroke:#C82930;stroke-width:1.0;" width="6" x="548" y="190.6484"/><text fill="#000000" font-family="sans-serif" font-size="14" lengthAdjust="spacing" textLength="162" x="560" y="196.9951">redisData: List&lt;String&gt;</text><line style="stroke:#181818;stroke-width:0.5;" x1="541" x2="727" y1="204.2969" y2="204.2969"/></g><!--class Main--><g id="elem_Main"><rect codeLine="13" fill="#F1F1F1" height="48" id="Main" rx="2.5" ry="2.5" style="stroke:#181818;stroke-width:0.5;" width="64" x="7" y="15"/><ellipse cx="22" cy="31" fill="#ADD1B2" rx="11" ry="11" style="stroke:#181818;stroke-width:1.0;"/><path d="M24.9688,36.6406 Q24.3906,36.9375 23.75,37.0781 Q23.1094,37.2344 22.4063,37.2344 Q19.9063,37.2344 18.5781,35.5938 Q17.2656,33.9375 17.2656,30.8125 Q17.2656,27.6875 18.5781,26.0313 Q19.9063,24.375 22.4063,24.375 Q23.1094,24.375 23.75,24.5313 Q24.4063,24.6875 24.9688,24.9844 L24.9688,27.7031 Q24.3438,27.125 23.75,26.8594 Q23.1563,26.5781 22.5313,26.5781 Q21.1875,26.5781 20.5,27.6563 Q19.8125,28.7188 19.8125,30.8125 Q19.8125,32.9063 20.5,33.9844 Q21.1875,35.0469 22.5313,35.0469 Q23.1563,35.0469 23.75,34.7813 Q24.3438,34.5 24.9688,33.9219 L24.9688,36.6406 Z " fill="#000000"/><text fill="#000000" font-family="sans-serif" font-size="14" lengthAdjust="spacing" textLength="32" x="36" y="35.8467">Main</text><line style="stroke:#181818;stroke-width:0.5;" x1="8" x2="70" y1="47" y2="47"/><line style="stroke:#181818;stroke-width:0.5;" x1="8" x2="70" y1="55" y2="55"/></g><!--reverse link UserRepositoryDecorator to RedisUserRepository--><g id="link_UserRepositoryDecorator_RedisUserRepository"><path d="M634,89.19 C634,112.09 634,125.04 634,147.91 " fill="none" id="UserRepositoryDecorator-backto-RedisUserRepository" style="stroke:#181818;stroke-width:1.0;"/><polygon fill="none" points="634,71.19,628,89.19,640,89.19,634,71.19" style="stroke:#181818;stroke-width:1.0;"/></g><!--link Main to UserRepository--><g id="link_Main_UserRepository"><path codeLine="14" d="M71.32,39 C89.2,39 106.73,39 131.27,39 " fill="none" id="Main-to-UserRepository" style="stroke:#181818;stroke-width:1.0;"/><polygon fill="#181818" points="137.27,39,128.27,35,132.27,39,128.27,43,137.27,39" style="stroke:#181818;stroke-width:1.0;"/><text fill="#000000" font-family="sans-serif" font-size="13" lengthAdjust="spacing" textLength="30" x="89.25" y="32.0669">uses</text></g><!--reverse link UserRepository to UserRepositoryImpl--><g id="link_UserRepository_UserRepositoryImpl"><path codeLine="15" d="M268,89.19 C268,112.09 268,125.04 268,147.91 " fill="none" id="UserRepository-backto-UserRepositoryImpl" style="stroke:#181818;stroke-width:1.0;stroke-dasharray:7.0,7.0;"/><polygon fill="none" points="268,71.19,262,89.19,274,89.19,268,71.19" style="stroke:#181818;stroke-width:1.0;"/><text fill="#000000" font-family="sans-serif" font-size="13" lengthAdjust="spacing" textLength="76" x="269" y="114.0669">implements</text></g><!--reverse link UserRepository to UserRepositoryDecorator--><g id="link_UserRepository_UserRepositoryDecorator"><path codeLine="16" d="M416.58,39 C453.13,39 474.71,39 510.81,39 " fill="none" id="UserRepository-backto-UserRepositoryDecorator" style="stroke:#181818;stroke-width:1.0;stroke-dasharray:7.0,7.0;"/><polygon fill="none" points="398.58,39,416.58,45,416.58,33,398.58,39" style="stroke:#181818;stroke-width:1.0;"/><text fill="#000000" font-family="sans-serif" font-size="13" lengthAdjust="spacing" textLength="76" x="416.75" y="32.0669">implements</text></g><!--link UserRepositoryDecorator to UserRepository--><g id="link_UserRepositoryDecorator_UserRepository"><path codeLine="17" d="M498.8396,57.135 C486.3496,58.385 485.78,58.25 473.75,59 C449.39,60.51 429.4438,60.2511 404.4838,58.4111 " fill="none" id="UserRepositoryDecorator-UserRepository" style="stroke:#181818;stroke-width:1.0;"/><polygon fill="none" points="510.78,55.94,504.4115,52.5574,498.8396,57.135,505.2082,60.5176,510.78,55.94" style="stroke:#181818;stroke-width:1.0;"/><polygon fill="#181818" points="398.5,57.97,407.1816,62.6208,403.4865,58.3376,407.7697,54.6425,398.5,57.97" style="stroke:#181818;stroke-width:1.0;"/><text fill="#000000" font-family="sans-serif" font-size="13" lengthAdjust="spacing" textLength="36" x="436.75" y="55.0669">has-a</text></g><!--SRC=[bL312i8m3BttAyfEUkWFZE51l0ZgOU99FCGrReMj6qq4HVrtMvI9nIdcq8IylDUN6Cle3b2Wt12w7BkM3BVkB2z2-bYpCxQK9NA0f-SLD3XwDgsln-8cYXg88lgywUgdX98Q6FP0cCg58SuUz4d01jWpB5e7lkebZczu6ittCZbgGz4YU6Aq-lSNBd1dtkgxpLvx2SQAy4ZbJ5cnciGdIuDD4b4tkwgj1gfGxzIdAwKoCJvZWvOf-OFzMk6hn6ki7JQUL40AaZi0]--></g></svg>