<?xml version="1.0" encoding="us-ascii" standalone="no"?><svg xmlns="http://www.w3.org/2000/svg" xmlns:xlink="http://www.w3.org/1999/xlink" contentStyleType="text/css" height="452px" preserveAspectRatio="none" style="width:1264px;height:452px;background:#FFFFFF;" version="1.1" viewBox="0 0 1264 452" width="1264px" zoomAndPan="magnify"><defs/><g><!--class Ligth--><g id="elem_Ligth"><rect codeLine="1" fill="#F1F1F1" height="194.6719" id="Ligth" rx="2.5" ry="2.5" style="stroke:#181818;stroke-width:0.5;" width="164" x="525" y="65.0659"/><ellipse cx="586.25" cy="81.0659" fill="#ADD1B2" rx="11" ry="11" style="stroke:#181818;stroke-width:1.0;"/><path d="M589.2188,86.7065 Q588.6406,87.0034 588,87.144 Q587.3594,87.3003 586.6563,87.3003 Q584.1563,87.3003 582.8281,85.6597 Q581.5156,84.0034 581.5156,80.8784 Q581.5156,77.7534 582.8281,76.0972 Q584.1563,74.4409 586.6563,74.4409 Q587.3594,74.4409 588,74.5972 Q588.6563,74.7534 589.2188,75.0503 L589.2188,77.769 Q588.5938,77.1909 588,76.9253 Q587.4063,76.644 586.7813,76.644 Q585.4375,76.644 584.75,77.7222 Q584.0625,78.7847 584.0625,80.8784 Q584.0625,82.9722 584.75,84.0503 Q585.4375,85.1128 586.7813,85.1128 Q587.4063,85.1128 588,84.8472 Q588.5938,84.5659 589.2188,83.9878 L589.2188,86.7065 Z " fill="#000000"/><text fill="#000000" font-family="sans-serif" font-size="14" lengthAdjust="spacing" textLength="33" x="606.75" y="85.9126">Ligth</text><line style="stroke:#181818;stroke-width:0.5;" x1="526" x2="688" y1="97.0659" y2="97.0659"/><rect fill="none" height="6" style="stroke:#C82930;stroke-width:1.0;" width="6" x="533" y="107.7144"/><text fill="#000000" font-family="sans-serif" font-size="14" lengthAdjust="spacing" textLength="88" x="545" y="114.061">intensity : int</text><rect fill="none" height="6" style="stroke:#C82930;stroke-width:1.0;" width="6" x="533" y="124.0112"/><text fill="#000000" font-family="sans-serif" font-size="14" lengthAdjust="spacing" textLength="138" x="545" y="130.3579">MAX_INTENSITY : int</text><rect fill="none" height="6" style="stroke:#C82930;stroke-width:1.0;" width="6" x="533" y="140.3081"/><text fill="#000000" font-family="sans-serif" font-size="14" lengthAdjust="spacing" textLength="133" x="545" y="146.6548">MIN_INTENSITY : int</text><rect fill="none" height="6" style="stroke:#C82930;stroke-width:1.0;" width="6" x="533" y="156.605"/><text fill="#000000" font-family="sans-serif" font-size="14" lengthAdjust="spacing" textLength="99" x="545" y="162.9517">DIM_STEP : int</text><line style="stroke:#181818;stroke-width:0.5;" x1="526" x2="688" y1="170.2534" y2="170.2534"/><ellipse cx="536" cy="183.9019" fill="#84BE84" rx="3" ry="3" style="stroke:#038048;stroke-width:1.0;"/><text fill="#000000" font-family="sans-serif" font-size="14" lengthAdjust="spacing" textLength="90" x="545" y="187.2485">void turnOn()</text><ellipse cx="536" cy="200.1987" fill="#84BE84" rx="3" ry="3" style="stroke:#038048;stroke-width:1.0;"/><text fill="#000000" font-family="sans-serif" font-size="14" lengthAdjust="spacing" textLength="89" x="545" y="203.5454">void turnOff()</text><ellipse cx="536" cy="216.4956" fill="#84BE84" rx="3" ry="3" style="stroke:#038048;stroke-width:1.0;"/><text fill="#000000" font-family="sans-serif" font-size="14" lengthAdjust="spacing" textLength="86" x="545" y="219.8423">void dimUp()</text><ellipse cx="536" cy="232.7925" fill="#84BE84" rx="3" ry="3" style="stroke:#038048;stroke-width:1.0;"/><text fill="#000000" font-family="sans-serif" font-size="14" lengthAdjust="spacing" textLength="107" x="545" y="236.1392">void dimDown()</text><rect fill="#F24D5C" height="6" style="stroke:#C82930;stroke-width:1.0;" width="6" x="533" y="246.0894"/><text fill="#000000" font-family="sans-serif" font-size="14" lengthAdjust="spacing" textLength="131" x="545" y="252.436">void printIntensity()</text></g><!--class Command--><g id="elem_Command"><rect codeLine="12" fill="#F1F1F1" height="80.5938" id="Command" rx="2.5" ry="2.5" style="stroke:#181818;stroke-width:0.5;" width="110" x="780" y="122.0659"/><ellipse cx="798.15" cy="138.0659" fill="#B4A7E5" rx="11" ry="11" style="stroke:#181818;stroke-width:1.0;"/><path d="M794.0719,133.8315 L794.0719,131.6753 L801.4625,131.6753 L801.4625,133.8315 L798.9938,133.8315 L798.9938,141.9097 L801.4625,141.9097 L801.4625,144.0659 L794.0719,144.0659 L794.0719,141.9097 L796.5406,141.9097 L796.5406,133.8315 L794.0719,133.8315 Z " fill="#000000"/><text fill="#000000" font-family="sans-serif" font-size="14" font-style="italic" lengthAdjust="spacing" textLength="71" x="812.85" y="142.9126">Command</text><line style="stroke:#181818;stroke-width:0.5;" x1="781" x2="889" y1="154.0659" y2="154.0659"/><line style="stroke:#181818;stroke-width:0.5;" x1="781" x2="889" y1="162.0659" y2="162.0659"/><text fill="#000000" font-family="sans-serif" font-size="14" lengthAdjust="spacing" textLength="98" x="786" y="179.061">void execute()</text><text fill="#000000" font-family="sans-serif" font-size="14" lengthAdjust="spacing" textLength="78" x="786" y="195.3579">void undo()</text></g><!--class CommandHistory--><g id="elem_CommandHistory"><rect codeLine="16" fill="#F1F1F1" height="96.8906" id="CommandHistory" rx="2.5" ry="2.5" style="stroke:#181818;stroke-width:0.5;" width="305" x="134.5" y="348.5659"/><ellipse cx="223.75" cy="364.5659" fill="#ADD1B2" rx="11" ry="11" style="stroke:#181818;stroke-width:1.0;"/><path d="M226.7188,370.2065 Q226.1406,370.5034 225.5,370.644 Q224.8594,370.8003 224.1563,370.8003 Q221.6563,370.8003 220.3281,369.1597 Q219.0156,367.5034 219.0156,364.3784 Q219.0156,361.2534 220.3281,359.5972 Q221.6563,357.9409 224.1563,357.9409 Q224.8594,357.9409 225.5,358.0972 Q226.1563,358.2534 226.7188,358.5503 L226.7188,361.269 Q226.0938,360.6909 225.5,360.4253 Q224.9063,360.144 224.2813,360.144 Q222.9375,360.144 222.25,361.2222 Q221.5625,362.2847 221.5625,364.3784 Q221.5625,366.4722 222.25,367.5503 Q222.9375,368.6128 224.2813,368.6128 Q224.9063,368.6128 225.5,368.3472 Q226.0938,368.0659 226.7188,367.4878 L226.7188,370.2065 Z " fill="#000000"/><text fill="#000000" font-family="sans-serif" font-size="14" lengthAdjust="spacing" textLength="118" x="244.25" y="369.4126">CommandHistory</text><line style="stroke:#181818;stroke-width:0.5;" x1="135.5" x2="438.5" y1="380.5659" y2="380.5659"/><rect fill="none" height="6" style="stroke:#C82930;stroke-width:1.0;" width="6" x="142.5" y="391.2144"/><text fill="#000000" font-family="sans-serif" font-size="14" lengthAdjust="spacing" textLength="279" x="154.5" y="397.561">commandsHistory : Deque&lt;Command&gt;</text><line style="stroke:#181818;stroke-width:0.5;" x1="135.5" x2="438.5" y1="404.8628" y2="404.8628"/><ellipse cx="145.5" cy="418.5112" fill="#84BE84" rx="3" ry="3" style="stroke:#038048;stroke-width:1.0;"/><text fill="#000000" font-family="sans-serif" font-size="14" lengthAdjust="spacing" textLength="189" x="154.5" y="421.8579">push(Command command)</text><ellipse cx="145.5" cy="434.8081" fill="#84BE84" rx="3" ry="3" style="stroke:#038048;stroke-width:1.0;"/><text fill="#000000" font-family="sans-serif" font-size="14" lengthAdjust="spacing" textLength="193" x="154.5" y="438.1548">Optional&lt;Command&gt; pop()</text></g><!--class RemoteControl--><g id="elem_RemoteControl"><rect codeLine="21" fill="#F1F1F1" height="210.9688" id="RemoteControl" rx="2.5" ry="2.5" style="stroke:#181818;stroke-width:0.5;" width="281" x="145.5" y="57.5659"/><ellipse cx="229.25" cy="73.5659" fill="#ADD1B2" rx="11" ry="11" style="stroke:#181818;stroke-width:1.0;"/><path d="M232.2188,79.2065 Q231.6406,79.5034 231,79.644 Q230.3594,79.8003 229.6563,79.8003 Q227.1563,79.8003 225.8281,78.1597 Q224.5156,76.5034 224.5156,73.3784 Q224.5156,70.2534 225.8281,68.5972 Q227.1563,66.9409 229.6563,66.9409 Q230.3594,66.9409 231,67.0972 Q231.6563,67.2534 232.2188,67.5503 L232.2188,70.269 Q231.5938,69.6909 231,69.4253 Q230.4063,69.144 229.7813,69.144 Q228.4375,69.144 227.75,70.2222 Q227.0625,71.2847 227.0625,73.3784 Q227.0625,75.4722 227.75,76.5503 Q228.4375,77.6128 229.7813,77.6128 Q230.4063,77.6128 231,77.3472 Q231.5938,77.0659 232.2188,76.4878 L232.2188,79.2065 Z " fill="#000000"/><text fill="#000000" font-family="sans-serif" font-size="14" lengthAdjust="spacing" textLength="105" x="249.75" y="78.4126">RemoteControl</text><line style="stroke:#181818;stroke-width:0.5;" x1="146.5" x2="425.5" y1="89.5659" y2="89.5659"/><rect fill="none" height="6" style="stroke:#C82930;stroke-width:1.0;" width="6" x="153.5" y="100.2144"/><text fill="#000000" font-family="sans-serif" font-size="14" lengthAdjust="spacing" textLength="132" x="165.5" y="106.561">turnOn : Command</text><rect fill="none" height="6" style="stroke:#C82930;stroke-width:1.0;" width="6" x="153.5" y="116.5112"/><text fill="#000000" font-family="sans-serif" font-size="14" lengthAdjust="spacing" textLength="131" x="165.5" y="122.8579">turnOff : Command</text><rect fill="none" height="6" style="stroke:#C82930;stroke-width:1.0;" width="6" x="153.5" y="132.8081"/><text fill="#000000" font-family="sans-serif" font-size="14" lengthAdjust="spacing" textLength="128" x="165.5" y="139.1548">dimUp : Command</text><rect fill="none" height="6" style="stroke:#C82930;stroke-width:1.0;" width="6" x="153.5" y="149.105"/><text fill="#000000" font-family="sans-serif" font-size="14" lengthAdjust="spacing" textLength="149" x="165.5" y="155.4517">dimDown : Command</text><rect fill="none" height="6" style="stroke:#C82930;stroke-width:1.0;" width="6" x="153.5" y="165.4019"/><text fill="#000000" font-family="sans-serif" font-size="14" lengthAdjust="spacing" textLength="255" x="165.5" y="171.7485">commandsHistory : CommandHistory</text><line style="stroke:#181818;stroke-width:0.5;" x1="146.5" x2="425.5" y1="179.0503" y2="179.0503"/><ellipse cx="156.5" cy="192.6987" fill="#84BE84" rx="3" ry="3" style="stroke:#038048;stroke-width:1.0;"/><text fill="#000000" font-family="sans-serif" font-size="14" lengthAdjust="spacing" textLength="90" x="165.5" y="196.0454">void turnOn()</text><ellipse cx="156.5" cy="208.9956" fill="#84BE84" rx="3" ry="3" style="stroke:#038048;stroke-width:1.0;"/><text fill="#000000" font-family="sans-serif" font-size="14" lengthAdjust="spacing" textLength="78" x="165.5" y="212.3423">void turnff()</text><ellipse cx="156.5" cy="225.2925" fill="#84BE84" rx="3" ry="3" style="stroke:#038048;stroke-width:1.0;"/><text fill="#000000" font-family="sans-serif" font-size="14" lengthAdjust="spacing" textLength="86" x="165.5" y="228.6392">void dimUp()</text><ellipse cx="156.5" cy="241.5894" fill="#84BE84" rx="3" ry="3" style="stroke:#038048;stroke-width:1.0;"/><text fill="#000000" font-family="sans-serif" font-size="14" lengthAdjust="spacing" textLength="107" x="165.5" y="244.936">void dimDown()</text><ellipse cx="156.5" cy="257.8862" fill="#84BE84" rx="3" ry="3" style="stroke:#038048;stroke-width:1.0;"/><text fill="#000000" font-family="sans-serif" font-size="14" lengthAdjust="spacing" textLength="78" x="165.5" y="261.2329">void undo()</text></g><!--class TurnOnCommand--><g id="elem_TurnOnCommand"><rect codeLine="33" fill="#F1F1F1" height="96.8906" id="TurnOnCommand" rx="2.5" ry="2.5" style="stroke:#181818;stroke-width:0.5;" width="155" x="1102.5" y="348.5659"/><ellipse cx="1117.5" cy="364.5659" fill="#ADD1B2" rx="11" ry="11" style="stroke:#181818;stroke-width:1.0;"/><path d="M1120.4688,370.2065 Q1119.8906,370.5034 1119.25,370.644 Q1118.6094,370.8003 1117.9063,370.8003 Q1115.4063,370.8003 1114.0781,369.1597 Q1112.7656,367.5034 1112.7656,364.3784 Q1112.7656,361.2534 1114.0781,359.5972 Q1115.4063,357.9409 1117.9063,357.9409 Q1118.6094,357.9409 1119.25,358.0972 Q1119.9063,358.2534 1120.4688,358.5503 L1120.4688,361.269 Q1119.8438,360.6909 1119.25,360.4253 Q1118.6563,360.144 1118.0313,360.144 Q1116.6875,360.144 1116,361.2222 Q1115.3125,362.2847 1115.3125,364.3784 Q1115.3125,366.4722 1116,367.5503 Q1116.6875,368.6128 1118.0313,368.6128 Q1118.6563,368.6128 1119.25,368.3472 Q1119.8438,368.0659 1120.4688,367.4878 L1120.4688,370.2065 Z " fill="#000000"/><text fill="#000000" font-family="sans-serif" font-size="14" lengthAdjust="spacing" textLength="123" x="1131.5" y="369.4126">TurnOnCommand</text><line style="stroke:#181818;stroke-width:0.5;" x1="1103.5" x2="1256.5" y1="380.5659" y2="380.5659"/><rect fill="none" height="6" style="stroke:#C82930;stroke-width:1.0;" width="6" x="1110.5" y="391.2144"/><text fill="#000000" font-family="sans-serif" font-size="14" lengthAdjust="spacing" textLength="75" x="1122.5" y="397.561">light : Ligth</text><line style="stroke:#181818;stroke-width:0.5;" x1="1103.5" x2="1256.5" y1="404.8628" y2="404.8628"/><ellipse cx="1113.5" cy="418.5112" fill="#84BE84" rx="3" ry="3" style="stroke:#038048;stroke-width:1.0;"/><text fill="#000000" font-family="sans-serif" font-size="14" lengthAdjust="spacing" textLength="98" x="1122.5" y="421.8579">void execute()</text><ellipse cx="1113.5" cy="434.8081" fill="#84BE84" rx="3" ry="3" style="stroke:#038048;stroke-width:1.0;"/><text fill="#000000" font-family="sans-serif" font-size="14" lengthAdjust="spacing" textLength="78" x="1122.5" y="438.1548">void undo()</text></g><!--class TurnOffCommand--><g id="elem_TurnOffCommand"><rect codeLine="38" fill="#F1F1F1" height="96.8906" id="TurnOffCommand" rx="2.5" ry="2.5" style="stroke:#181818;stroke-width:0.5;" width="154" x="523" y="348.5659"/><ellipse cx="538" cy="364.5659" fill="#ADD1B2" rx="11" ry="11" style="stroke:#181818;stroke-width:1.0;"/><path d="M540.9688,370.2065 Q540.3906,370.5034 539.75,370.644 Q539.1094,370.8003 538.4063,370.8003 Q535.9063,370.8003 534.5781,369.1597 Q533.2656,367.5034 533.2656,364.3784 Q533.2656,361.2534 534.5781,359.5972 Q535.9063,357.9409 538.4063,357.9409 Q539.1094,357.9409 539.75,358.0972 Q540.4063,358.2534 540.9688,358.5503 L540.9688,361.269 Q540.3438,360.6909 539.75,360.4253 Q539.1563,360.144 538.5313,360.144 Q537.1875,360.144 536.5,361.2222 Q535.8125,362.2847 535.8125,364.3784 Q535.8125,366.4722 536.5,367.5503 Q537.1875,368.6128 538.5313,368.6128 Q539.1563,368.6128 539.75,368.3472 Q540.3438,368.0659 540.9688,367.4878 L540.9688,370.2065 Z " fill="#000000"/><text fill="#000000" font-family="sans-serif" font-size="14" lengthAdjust="spacing" textLength="122" x="552" y="369.4126">TurnOffCommand</text><line style="stroke:#181818;stroke-width:0.5;" x1="524" x2="676" y1="380.5659" y2="380.5659"/><rect fill="none" height="6" style="stroke:#C82930;stroke-width:1.0;" width="6" x="531" y="391.2144"/><text fill="#000000" font-family="sans-serif" font-size="14" lengthAdjust="spacing" textLength="75" x="543" y="397.561">light : Ligth</text><line style="stroke:#181818;stroke-width:0.5;" x1="524" x2="676" y1="404.8628" y2="404.8628"/><ellipse cx="534" cy="418.5112" fill="#84BE84" rx="3" ry="3" style="stroke:#038048;stroke-width:1.0;"/><text fill="#000000" font-family="sans-serif" font-size="14" lengthAdjust="spacing" textLength="98" x="543" y="421.8579">void execute()</text><ellipse cx="534" cy="434.8081" fill="#84BE84" rx="3" ry="3" style="stroke:#038048;stroke-width:1.0;"/><text fill="#000000" font-family="sans-serif" font-size="14" lengthAdjust="spacing" textLength="78" x="543" y="438.1548">void undo()</text></g><!--class DimUpCommand--><g id="elem_DimUpCommand"><rect codeLine="43" fill="#F1F1F1" height="96.8906" id="DimUpCommand" rx="2.5" ry="2.5" style="stroke:#181818;stroke-width:0.5;" width="149" x="712.5" y="348.5659"/><ellipse cx="727.5" cy="364.5659" fill="#ADD1B2" rx="11" ry="11" style="stroke:#181818;stroke-width:1.0;"/><path d="M730.4688,370.2065 Q729.8906,370.5034 729.25,370.644 Q728.6094,370.8003 727.9063,370.8003 Q725.4063,370.8003 724.0781,369.1597 Q722.7656,367.5034 722.7656,364.3784 Q722.7656,361.2534 724.0781,359.5972 Q725.4063,357.9409 727.9063,357.9409 Q728.6094,357.9409 729.25,358.0972 Q729.9063,358.2534 730.4688,358.5503 L730.4688,361.269 Q729.8438,360.6909 729.25,360.4253 Q728.6563,360.144 728.0313,360.144 Q726.6875,360.144 726,361.2222 Q725.3125,362.2847 725.3125,364.3784 Q725.3125,366.4722 726,367.5503 Q726.6875,368.6128 728.0313,368.6128 Q728.6563,368.6128 729.25,368.3472 Q729.8438,368.0659 730.4688,367.4878 L730.4688,370.2065 Z " fill="#000000"/><text fill="#000000" font-family="sans-serif" font-size="14" lengthAdjust="spacing" textLength="117" x="741.5" y="369.4126">DimUpCommand</text><line style="stroke:#181818;stroke-width:0.5;" x1="713.5" x2="860.5" y1="380.5659" y2="380.5659"/><rect fill="none" height="6" style="stroke:#C82930;stroke-width:1.0;" width="6" x="720.5" y="391.2144"/><text fill="#000000" font-family="sans-serif" font-size="14" lengthAdjust="spacing" textLength="75" x="732.5" y="397.561">light : Ligth</text><line style="stroke:#181818;stroke-width:0.5;" x1="713.5" x2="860.5" y1="404.8628" y2="404.8628"/><ellipse cx="723.5" cy="418.5112" fill="#84BE84" rx="3" ry="3" style="stroke:#038048;stroke-width:1.0;"/><text fill="#000000" font-family="sans-serif" font-size="14" lengthAdjust="spacing" textLength="98" x="732.5" y="421.8579">void execute()</text><ellipse cx="723.5" cy="434.8081" fill="#84BE84" rx="3" ry="3" style="stroke:#038048;stroke-width:1.0;"/><text fill="#000000" font-family="sans-serif" font-size="14" lengthAdjust="spacing" textLength="78" x="732.5" y="438.1548">void undo()</text></g><!--class DimDownCommand--><g id="elem_DimDownCommand"><rect codeLine="48" fill="#F1F1F1" height="96.8906" id="DimDownCommand" rx="2.5" ry="2.5" style="stroke:#181818;stroke-width:0.5;" width="170" x="897" y="348.5659"/><ellipse cx="912" cy="364.5659" fill="#ADD1B2" rx="11" ry="11" style="stroke:#181818;stroke-width:1.0;"/><path d="M914.9688,370.2065 Q914.3906,370.5034 913.75,370.644 Q913.1094,370.8003 912.4063,370.8003 Q909.9063,370.8003 908.5781,369.1597 Q907.2656,367.5034 907.2656,364.3784 Q907.2656,361.2534 908.5781,359.5972 Q909.9063,357.9409 912.4063,357.9409 Q913.1094,357.9409 913.75,358.0972 Q914.4063,358.2534 914.9688,358.5503 L914.9688,361.269 Q914.3438,360.6909 913.75,360.4253 Q913.1563,360.144 912.5313,360.144 Q911.1875,360.144 910.5,361.2222 Q909.8125,362.2847 909.8125,364.3784 Q909.8125,366.4722 910.5,367.5503 Q911.1875,368.6128 912.5313,368.6128 Q913.1563,368.6128 913.75,368.3472 Q914.3438,368.0659 914.9688,367.4878 L914.9688,370.2065 Z " fill="#000000"/><text fill="#000000" font-family="sans-serif" font-size="14" lengthAdjust="spacing" textLength="138" x="926" y="369.4126">DimDownCommand</text><line style="stroke:#181818;stroke-width:0.5;" x1="898" x2="1066" y1="380.5659" y2="380.5659"/><rect fill="none" height="6" style="stroke:#C82930;stroke-width:1.0;" width="6" x="905" y="391.2144"/><text fill="#000000" font-family="sans-serif" font-size="14" lengthAdjust="spacing" textLength="75" x="917" y="397.561">light : Ligth</text><line style="stroke:#181818;stroke-width:0.5;" x1="898" x2="1066" y1="404.8628" y2="404.8628"/><ellipse cx="908" cy="418.5112" fill="#84BE84" rx="3" ry="3" style="stroke:#038048;stroke-width:1.0;"/><text fill="#000000" font-family="sans-serif" font-size="14" lengthAdjust="spacing" textLength="98" x="917" y="421.8579">void execute()</text><ellipse cx="908" cy="434.8081" fill="#84BE84" rx="3" ry="3" style="stroke:#038048;stroke-width:1.0;"/><text fill="#000000" font-family="sans-serif" font-size="14" lengthAdjust="spacing" textLength="78" x="917" y="438.1548">void undo()</text></g><!--class Main--><g id="elem_Main"><rect codeLine="53" fill="#F1F1F1" height="48" id="Main" rx="2.5" ry="2.5" style="stroke:#181818;stroke-width:0.5;" width="64" x="7" y="138.5659"/><ellipse cx="22" cy="154.5659" fill="#ADD1B2" rx="11" ry="11" style="stroke:#181818;stroke-width:1.0;"/><path d="M24.9688,160.2065 Q24.3906,160.5034 23.75,160.644 Q23.1094,160.8003 22.4063,160.8003 Q19.9063,160.8003 18.5781,159.1597 Q17.2656,157.5034 17.2656,154.3784 Q17.2656,151.2534 18.5781,149.5972 Q19.9063,147.9409 22.4063,147.9409 Q23.1094,147.9409 23.75,148.0972 Q24.4063,148.2534 24.9688,148.5503 L24.9688,151.269 Q24.3438,150.6909 23.75,150.4253 Q23.1563,150.144 22.5313,150.144 Q21.1875,150.144 20.5,151.2222 Q19.8125,152.2847 19.8125,154.3784 Q19.8125,156.4722 20.5,157.5503 Q21.1875,158.6128 22.5313,158.6128 Q23.1563,158.6128 23.75,158.3472 Q24.3438,158.0659 24.9688,157.4878 L24.9688,160.2065 Z " fill="#000000"/><text fill="#000000" font-family="sans-serif" font-size="14" lengthAdjust="spacing" textLength="32" x="36" y="159.4126">Main</text><line style="stroke:#181818;stroke-width:0.5;" x1="8" x2="70" y1="170.5659" y2="170.5659"/><line style="stroke:#181818;stroke-width:0.5;" x1="8" x2="70" y1="178.5659" y2="178.5659"/></g><!--reverse link Command to TurnOnCommand--><g id="link_Command_TurnOnCommand"><path d="M904.9773,210.7246 C964.4273,250.7846 1044.39,304.6759 1109.32,348.4359 " fill="none" id="Command-backto-TurnOnCommand" style="stroke:#181818;stroke-width:1.0;stroke-dasharray:7.0,7.0;"/><polygon fill="none" points="890.05,200.6659,901.6244,215.7003,908.3302,205.7488,890.05,200.6659" style="stroke:#181818;stroke-width:1.0;"/></g><!--reverse link Command to TurnOffCommand--><g id="link_Command_TurnOffCommand"><path d="M782.0746,215.926 C741.4346,256.136 691.37,305.6759 648.09,348.4959 " fill="none" id="Command-backto-TurnOffCommand" style="stroke:#181818;stroke-width:1.0;stroke-dasharray:7.0,7.0;"/><polygon fill="none" points="794.87,203.2659,777.8545,211.6608,786.2946,220.1911,794.87,203.2659" style="stroke:#181818;stroke-width:1.0;"/></g><!--reverse link Command to DimUpCommand--><g id="link_Command_DimUpCommand"><path d="M823.1612,220.8943 C814.8612,261.1043 805.66,305.6759 796.82,348.4959 " fill="none" id="Command-backto-DimUpCommand" style="stroke:#181818;stroke-width:1.0;stroke-dasharray:7.0,7.0;"/><polygon fill="none" points="826.8,203.2659,817.2851,219.6814,829.0373,222.1072,826.8,203.2659" style="stroke:#181818;stroke-width:1.0;"/></g><!--reverse link Command to DimDownCommand--><g id="link_Command_DimDownCommand"><path d="M869.7184,218.4806 C895.1384,258.6906 924.85,305.6759 951.92,348.4959 " fill="none" id="Command-backto-DimDownCommand" style="stroke:#181818;stroke-width:1.0;stroke-dasharray:7.0,7.0;"/><polygon fill="none" points="860.1,203.2659,864.6469,221.6867,874.79,215.2744,860.1,203.2659" style="stroke:#181818;stroke-width:1.0;"/></g><!--link Main to RemoteControl--><g id="link_Main_RemoteControl"><path codeLine="54" d="M71.04,162.5659 C88.86,162.5659 106.45,162.5659 131.48,162.5659 " fill="none" id="Main-to-RemoteControl" style="stroke:#181818;stroke-width:1.0;"/><polygon fill="#181818" points="137.48,162.5659,128.48,158.5659,132.48,162.5659,128.48,166.5659,137.48,162.5659" style="stroke:#181818;stroke-width:1.0;"/><text fill="#000000" font-family="sans-serif" font-size="13" lengthAdjust="spacing" textLength="30" x="89.25" y="155.6328">uses</text></g><!--link RemoteControl to Command--><g id="link_RemoteControl_Command"><path codeLine="55" d="M434.88,68.8759 C495.01,40.9859 566.04,20.2559 633.5,30.5659 C667.34,35.7359 677.03,37.0259 707,53.5659 C739.84,71.6859 767.6221,94.9408 791.4721,117.7308 " fill="none" id="RemoteControl-to-Command" style="stroke:#181818;stroke-width:1.0;stroke-dasharray:1.0,3.0;"/><polygon fill="#181818" points="795.81,121.8759,792.0665,112.7662,792.195,118.4216,786.5397,118.5502,795.81,121.8759" style="stroke:#181818;stroke-width:1.0;"/><text fill="#000000" font-family="sans-serif" font-size="13" lengthAdjust="spacing" textLength="51" x="581.5" y="19.6328">execute</text></g><!--link RemoteControl to CommandHistory--><g id="link_RemoteControl_CommandHistory"><path codeLine="56" d="M440,166.5659 C486.67,166.5659 446.32,229.0859 427,271.5659 C413.13,302.0659 392.4431,324.425 367.0731,344.745 " fill="none" id="RemoteControl-CommandHistory" style="stroke:#181818;stroke-width:1.0;"/><polygon fill="none" points="428,166.5659,434,170.5659,440,166.5659,434,162.5659,428,166.5659" style="stroke:#181818;stroke-width:1.0;"/><polygon fill="#181818" points="362.39,348.4959,371.9152,345.9916,366.2925,345.3702,366.914,339.7476,362.39,348.4959" style="stroke:#181818;stroke-width:1.0;"/><text fill="#000000" font-family="sans-serif" font-size="13" lengthAdjust="spacing" textLength="36" x="409" y="314.6328">has-a</text></g><!--link RemoteControl to Ligth--><g id="link_RemoteControl_Ligth"><path codeLine="57" d="M434.75,162.5659 C465.75,162.5659 491.33,162.5659 518.85,162.5659 " fill="none" id="RemoteControl-to-Ligth" style="stroke:#181818;stroke-width:1.0;stroke-dasharray:1.0,3.0;"/><polygon fill="#181818" points="524.85,162.5659,515.85,158.5659,519.85,162.5659,515.85,166.5659,524.85,162.5659" style="stroke:#181818;stroke-width:1.0;"/><text fill="#000000" font-family="sans-serif" font-size="13" lengthAdjust="spacing" textLength="54" x="452.75" y="155.6328">modifies</text></g><!--reverse link Ligth to Command--><g id="link_Ligth_Command"><path codeLine="58" d="M695.31,162.5659 C725.42,162.5659 752.72,162.5659 779.88,162.5659 " fill="none" id="Ligth-backto-Command" style="stroke:#181818;stroke-width:1.0;stroke-dasharray:1.0,3.0;"/><polygon fill="#181818" points="689.31,162.5659,698.31,166.5659,694.31,162.5659,698.31,158.5659,689.31,162.5659" style="stroke:#181818;stroke-width:1.0;"/><text fill="#000000" font-family="sans-serif" font-size="13" lengthAdjust="spacing" textLength="54" x="707.5" y="155.6328">modifies</text></g><!--SRC=[lLHHIyCm47xlhxZ7oSWV23AGTM31RU8gA28ZjCaQQ9BQfEeG_xjfcspjEgS-p3wKyjrzzzrzTpJ9YTPmmpScWuy0x8E0IqEbvcOBkFvswFpgOHqjujbY5SMF_KYq-2OIHlFrAfxTTi0nl2gUWgbAkPIZYm76M1zCkRWl1b2etZmPjM1HMeN8TsvZdq4zHyb8Gc6gX20oTHCs-VIT9fMXhaW3LJ9L3J5fJ76aQwwDAhSxTv8MrXx74DANYbwwz8dhjAXqDlAwZkEdM1Q6Aqdo7GSALNIKxwXGXawLDANATyAjPLRFiRemOmEyCUuOMditm8TJzSV_pUx-lBhnKT_ZfhotZeiYfu9Aem-sY23dcypOJflhxHRix_Q42cFdbWbh3_v1f7Rrt39pmcLGlm2XiYw49WUdYg7IL0TziCrzIfKnD7ss7DyKzgfz0iQ7nwZGdhK_q8neH7xIQlzi68HAEUEsDo-ESifE9Nu1]--></g></svg>