<?xml version="1.0" encoding="us-ascii" standalone="no"?><svg xmlns="http://www.w3.org/2000/svg" xmlns:xlink="http://www.w3.org/1999/xlink" contentStyleType="text/css" height="333px" preserveAspectRatio="none" style="width:663px;height:333px;background:#FFFFFF;" version="1.1" viewBox="0 0 663 333" width="663px" zoomAndPan="magnify"><defs/><g><!--class Trip--><g id="elem_Trip"><rect codeLine="1" fill="#F1F1F1" height="178.375" id="Trip" rx="2.5" ry="2.5" style="stroke:#181818;stroke-width:0.5;" width="203" x="453.5" y="7"/><ellipse cx="537.75" cy="23" fill="#ADD1B2" rx="11" ry="11" style="stroke:#181818;stroke-width:1.0;"/><path d="M540.7188,28.6406 Q540.1406,28.9375 539.5,29.0781 Q538.8594,29.2344 538.1563,29.2344 Q535.6563,29.2344 534.3281,27.5938 Q533.0156,25.9375 533.0156,22.8125 Q533.0156,19.6875 534.3281,18.0313 Q535.6563,16.375 538.1563,16.375 Q538.8594,16.375 539.5,16.5313 Q540.1563,16.6875 540.7188,16.9844 L540.7188,19.7031 Q540.0938,19.125 539.5,18.8594 Q538.9063,18.5781 538.2813,18.5781 Q536.9375,18.5781 536.25,19.6563 Q535.5625,20.7188 535.5625,22.8125 Q535.5625,24.9063 536.25,25.9844 Q536.9375,27.0469 538.2813,27.0469 Q538.9063,27.0469 539.5,26.7813 Q540.0938,26.5 540.7188,25.9219 L540.7188,28.6406 Z " fill="#000000"/><text fill="#000000" font-family="sans-serif" font-size="14" lengthAdjust="spacing" textLength="26" x="558.25" y="27.8467">Trip</text><line style="stroke:#181818;stroke-width:0.5;" x1="454.5" x2="655.5" y1="39" y2="39"/><rect fill="none" height="6" style="stroke:#C82930;stroke-width:1.0;" width="6" x="461.5" y="49.6484"/><text fill="#000000" font-family="sans-serif" font-size="14" lengthAdjust="spacing" textLength="59" x="473.5" y="55.9951">id : UUID</text><rect fill="none" height="6" style="stroke:#C82930;stroke-width:1.0;" width="6" x="461.5" y="65.9453"/><text fill="#000000" font-family="sans-serif" font-size="14" lengthAdjust="spacing" textLength="149" x="473.5" y="72.292">flightBookingId : UUID</text><rect fill="none" height="6" style="stroke:#C82930;stroke-width:1.0;" width="6" x="461.5" y="82.2422"/><text fill="#000000" font-family="sans-serif" font-size="14" lengthAdjust="spacing" textLength="151" x="473.5" y="88.5889">hotelBookingId : UUID</text><rect fill="none" height="6" style="stroke:#C82930;stroke-width:1.0;" width="6" x="461.5" y="98.5391"/><text fill="#000000" font-family="sans-serif" font-size="14" lengthAdjust="spacing" textLength="137" x="473.5" y="104.8857">carBookingId : UUID</text><line style="stroke:#181818;stroke-width:0.5;" x1="454.5" x2="655.5" y1="112.1875" y2="112.1875"/><ellipse cx="464.5" cy="125.8359" fill="#84BE84" rx="3" ry="3" style="stroke:#038048;stroke-width:1.0;"/><text fill="#000000" font-family="sans-serif" font-size="14" lengthAdjust="spacing" textLength="83" x="473.5" y="129.1826">UUID getId()</text><ellipse cx="464.5" cy="142.1328" fill="#84BE84" rx="3" ry="3" style="stroke:#038048;stroke-width:1.0;"/><text fill="#000000" font-family="sans-serif" font-size="14" lengthAdjust="spacing" textLength="177" x="473.5" y="145.4795">UUID getFlightBookingId()</text><ellipse cx="464.5" cy="158.4297" fill="#84BE84" rx="3" ry="3" style="stroke:#038048;stroke-width:1.0;"/><text fill="#000000" font-family="sans-serif" font-size="14" lengthAdjust="spacing" textLength="176" x="473.5" y="161.7764">UUID getHotelBookingId()</text><ellipse cx="464.5" cy="174.7266" fill="#84BE84" rx="3" ry="3" style="stroke:#038048;stroke-width:1.0;"/><text fill="#000000" font-family="sans-serif" font-size="14" lengthAdjust="spacing" textLength="163" x="473.5" y="178.0732">UUID getCarBookingId()</text></g><!--class HotelBooking--><g id="elem_HotelBooking"><rect codeLine="11" fill="#F1F1F1" height="64.2969" id="HotelBooking" rx="2.5" ry="2.5" style="stroke:#181818;stroke-width:0.5;" width="145" x="34.5" y="262"/><ellipse cx="58.5" cy="278" fill="#ADD1B2" rx="11" ry="11" style="stroke:#181818;stroke-width:1.0;"/><path d="M61.4688,283.6406 Q60.8906,283.9375 60.25,284.0781 Q59.6094,284.2344 58.9063,284.2344 Q56.4063,284.2344 55.0781,282.5938 Q53.7656,280.9375 53.7656,277.8125 Q53.7656,274.6875 55.0781,273.0313 Q56.4063,271.375 58.9063,271.375 Q59.6094,271.375 60.25,271.5313 Q60.9063,271.6875 61.4688,271.9844 L61.4688,274.7031 Q60.8438,274.125 60.25,273.8594 Q59.6563,273.5781 59.0313,273.5781 Q57.6875,273.5781 57,274.6563 Q56.3125,275.7188 56.3125,277.8125 Q56.3125,279.9063 57,280.9844 Q57.6875,282.0469 59.0313,282.0469 Q59.6563,282.0469 60.25,281.7813 Q60.8438,281.5 61.4688,280.9219 L61.4688,283.6406 Z " fill="#000000"/><text fill="#000000" font-family="sans-serif" font-size="14" lengthAdjust="spacing" textLength="93" x="74.5" y="282.8467">HotelBooking</text><line style="stroke:#181818;stroke-width:0.5;" x1="35.5" x2="178.5" y1="294" y2="294"/><line style="stroke:#181818;stroke-width:0.5;" x1="35.5" x2="178.5" y1="302" y2="302"/><ellipse cx="45.5" cy="315.6484" fill="#84BE84" rx="3" ry="3" style="stroke:#038048;stroke-width:1.0;"/><text fill="#000000" font-family="sans-serif" font-size="14" lengthAdjust="spacing" textLength="119" x="54.5" y="318.9951">UUID bookHotel()</text></g><!--class CarRental--><g id="elem_CarRental"><rect codeLine="14" fill="#F1F1F1" height="64.2969" id="CarRental" rx="2.5" ry="2.5" style="stroke:#181818;stroke-width:0.5;" width="125" x="214.5" y="262"/><ellipse cx="241.2" cy="278" fill="#ADD1B2" rx="11" ry="11" style="stroke:#181818;stroke-width:1.0;"/><path d="M244.1688,283.6406 Q243.5906,283.9375 242.95,284.0781 Q242.3094,284.2344 241.6063,284.2344 Q239.1063,284.2344 237.7781,282.5938 Q236.4656,280.9375 236.4656,277.8125 Q236.4656,274.6875 237.7781,273.0313 Q239.1063,271.375 241.6063,271.375 Q242.3094,271.375 242.95,271.5313 Q243.6063,271.6875 244.1688,271.9844 L244.1688,274.7031 Q243.5438,274.125 242.95,273.8594 Q242.3563,273.5781 241.7313,273.5781 Q240.3875,273.5781 239.7,274.6563 Q239.0125,275.7188 239.0125,277.8125 Q239.0125,279.9063 239.7,280.9844 Q240.3875,282.0469 241.7313,282.0469 Q242.3563,282.0469 242.95,281.7813 Q243.5438,281.5 244.1688,280.9219 L244.1688,283.6406 Z " fill="#000000"/><text fill="#000000" font-family="sans-serif" font-size="14" lengthAdjust="spacing" textLength="67" x="257.8" y="282.8467">CarRental</text><line style="stroke:#181818;stroke-width:0.5;" x1="215.5" x2="338.5" y1="294" y2="294"/><line style="stroke:#181818;stroke-width:0.5;" x1="215.5" x2="338.5" y1="302" y2="302"/><ellipse cx="225.5" cy="315.6484" fill="#84BE84" rx="3" ry="3" style="stroke:#038048;stroke-width:1.0;"/><text fill="#000000" font-family="sans-serif" font-size="14" lengthAdjust="spacing" textLength="99" x="234.5" y="318.9951">UUID rentCar()</text></g><!--class FlightBooking--><g id="elem_FlightBooking"><rect codeLine="17" fill="#F1F1F1" height="64.2969" id="FlightBooking" rx="2.5" ry="2.5" style="stroke:#181818;stroke-width:0.5;" width="146" x="375" y="262"/><ellipse cx="399" cy="278" fill="#ADD1B2" rx="11" ry="11" style="stroke:#181818;stroke-width:1.0;"/><path d="M401.9688,283.6406 Q401.3906,283.9375 400.75,284.0781 Q400.1094,284.2344 399.4063,284.2344 Q396.9063,284.2344 395.5781,282.5938 Q394.2656,280.9375 394.2656,277.8125 Q394.2656,274.6875 395.5781,273.0313 Q396.9063,271.375 399.4063,271.375 Q400.1094,271.375 400.75,271.5313 Q401.4063,271.6875 401.9688,271.9844 L401.9688,274.7031 Q401.3438,274.125 400.75,273.8594 Q400.1563,273.5781 399.5313,273.5781 Q398.1875,273.5781 397.5,274.6563 Q396.8125,275.7188 396.8125,277.8125 Q396.8125,279.9063 397.5,280.9844 Q398.1875,282.0469 399.5313,282.0469 Q400.1563,282.0469 400.75,281.7813 Q401.3438,281.5 401.9688,280.9219 L401.9688,283.6406 Z " fill="#000000"/><text fill="#000000" font-family="sans-serif" font-size="14" lengthAdjust="spacing" textLength="94" x="415" y="282.8467">FlightBooking</text><line style="stroke:#181818;stroke-width:0.5;" x1="376" x2="520" y1="294" y2="294"/><line style="stroke:#181818;stroke-width:0.5;" x1="376" x2="520" y1="302" y2="302"/><ellipse cx="386" cy="315.6484" fill="#84BE84" rx="3" ry="3" style="stroke:#038048;stroke-width:1.0;"/><text fill="#000000" font-family="sans-serif" font-size="14" lengthAdjust="spacing" textLength="120" x="395" y="318.9951">UUID bookFlight()</text></g><!--class TravelAgencyFacade--><g id="elem_TravelAgencyFacade"><rect codeLine="20" fill="#F1F1F1" height="113.1875" id="TravelAgencyFacade" rx="2.5" ry="2.5" style="stroke:#181818;stroke-width:0.5;" width="224" x="165" y="39.5"/><ellipse cx="202.5" cy="55.5" fill="#ADD1B2" rx="11" ry="11" style="stroke:#181818;stroke-width:1.0;"/><path d="M205.4688,61.1406 Q204.8906,61.4375 204.25,61.5781 Q203.6094,61.7344 202.9063,61.7344 Q200.4063,61.7344 199.0781,60.0938 Q197.7656,58.4375 197.7656,55.3125 Q197.7656,52.1875 199.0781,50.5313 Q200.4063,48.875 202.9063,48.875 Q203.6094,48.875 204.25,49.0313 Q204.9063,49.1875 205.4688,49.4844 L205.4688,52.2031 Q204.8438,51.625 204.25,51.3594 Q203.6563,51.0781 203.0313,51.0781 Q201.6875,51.0781 201,52.1563 Q200.3125,53.2188 200.3125,55.3125 Q200.3125,57.4063 201,58.4844 Q201.6875,59.5469 203.0313,59.5469 Q203.6563,59.5469 204.25,59.2813 Q204.8438,59 205.4688,58.4219 L205.4688,61.1406 Z " fill="#000000"/><text fill="#000000" font-family="sans-serif" font-size="14" lengthAdjust="spacing" textLength="142" x="221.5" y="60.3467">TravelAgencyFacade</text><line style="stroke:#181818;stroke-width:0.5;" x1="166" x2="388" y1="71.5" y2="71.5"/><rect fill="none" height="6" style="stroke:#C82930;stroke-width:1.0;" width="6" x="173" y="82.1484"/><text fill="#000000" font-family="sans-serif" font-size="14" lengthAdjust="spacing" textLength="197" x="185" y="88.4951">flightBooking : FlightBooking</text><rect fill="none" height="6" style="stroke:#C82930;stroke-width:1.0;" width="6" x="173" y="98.4453"/><text fill="#000000" font-family="sans-serif" font-size="14" lengthAdjust="spacing" textLength="198" x="185" y="104.792">hotelBooking : HotelBooking</text><rect fill="none" height="6" style="stroke:#C82930;stroke-width:1.0;" width="6" x="173" y="114.7422"/><text fill="#000000" font-family="sans-serif" font-size="14" lengthAdjust="spacing" textLength="145" x="185" y="121.0889">carRental : CarRental</text><line style="stroke:#181818;stroke-width:0.5;" x1="166" x2="388" y1="128.3906" y2="128.3906"/><ellipse cx="176" cy="142.0391" fill="#84BE84" rx="3" ry="3" style="stroke:#038048;stroke-width:1.0;"/><text fill="#000000" font-family="sans-serif" font-size="14" lengthAdjust="spacing" textLength="101" x="185" y="145.3857">Trip bookTrip()</text></g><!--class Main--><g id="elem_Main"><rect codeLine="26" fill="#F1F1F1" height="48" id="Main" rx="2.5" ry="2.5" style="stroke:#181818;stroke-width:0.5;" width="64" x="7" y="72"/><ellipse cx="22" cy="88" fill="#ADD1B2" rx="11" ry="11" style="stroke:#181818;stroke-width:1.0;"/><path d="M24.9688,93.6406 Q24.3906,93.9375 23.75,94.0781 Q23.1094,94.2344 22.4063,94.2344 Q19.9063,94.2344 18.5781,92.5938 Q17.2656,90.9375 17.2656,87.8125 Q17.2656,84.6875 18.5781,83.0313 Q19.9063,81.375 22.4063,81.375 Q23.1094,81.375 23.75,81.5313 Q24.4063,81.6875 24.9688,81.9844 L24.9688,84.7031 Q24.3438,84.125 23.75,83.8594 Q23.1563,83.5781 22.5313,83.5781 Q21.1875,83.5781 20.5,84.6563 Q19.8125,85.7188 19.8125,87.8125 Q19.8125,89.9063 20.5,90.9844 Q21.1875,92.0469 22.5313,92.0469 Q23.1563,92.0469 23.75,91.7813 Q24.3438,91.5 24.9688,90.9219 L24.9688,93.6406 Z " fill="#000000"/><text fill="#000000" font-family="sans-serif" font-size="14" lengthAdjust="spacing" textLength="32" x="36" y="92.8467">Main</text><line style="stroke:#181818;stroke-width:0.5;" x1="8" x2="70" y1="104" y2="104"/><line style="stroke:#181818;stroke-width:0.5;" x1="8" x2="70" y1="112" y2="112"/></g><!--link Main to TravelAgencyFacade--><g id="link_Main_TravelAgencyFacade"><path codeLine="27" d="M71.1,96 C95.46,96 124.5,96 158.8,96 " fill="none" id="Main-to-TravelAgencyFacade" style="stroke:#181818;stroke-width:1.0;"/><polygon fill="#181818" points="164.8,96,155.8,92,159.8,96,155.8,100,164.8,96" style="stroke:#181818;stroke-width:1.0;"/><text fill="#000000" font-family="sans-serif" font-size="13" lengthAdjust="spacing" textLength="57" x="89.5" y="89.0669">operates</text></g><!--link TravelAgencyFacade to Trip--><g id="link_TravelAgencyFacade_Trip"><path codeLine="28" d="M389.27,96 C410.37,96 426.32,96 447.08,96 " fill="none" id="TravelAgencyFacade-to-Trip" style="stroke:#181818;stroke-width:1.0;stroke-dasharray:1.0,3.0;"/><polygon fill="#181818" points="453.08,96,444.08,92,448.08,96,444.08,100,453.08,96" style="stroke:#181818;stroke-width:1.0;"/><text fill="#000000" font-family="sans-serif" font-size="13" lengthAdjust="spacing" textLength="28" x="407.25" y="89.0669">sells</text></g><!--link TravelAgencyFacade to FlightBooking--><g id="link_TravelAgencyFacade_FlightBooking"><path codeLine="29" d="M333.4289,161.6825 C364.3389,197.1125 391.3858,228.1086 416.9458,257.4086 " fill="none" id="TravelAgencyFacade-FlightBooking" style="stroke:#181818;stroke-width:1.0;"/><polygon fill="#181818" points="325.54,152.64,326.4703,159.7908,333.4289,161.6825,332.4986,154.5316,325.54,152.64" style="stroke:#181818;stroke-width:1.0;"/><polygon fill="#181818" points="420.89,261.93,417.9879,252.5184,417.6031,258.1622,411.9594,257.7774,420.89,261.93" style="stroke:#181818;stroke-width:1.0;"/><text fill="#000000" font-family="sans-serif" font-size="13" lengthAdjust="spacing" textLength="81" x="393" y="228.0669">books-flights</text></g><!--link TravelAgencyFacade to CarRental--><g id="link_TravelAgencyFacade_CarRental"><path codeLine="30" d="M277,164.64 C277,200.07 277,226.63 277,255.93 " fill="none" id="TravelAgencyFacade-CarRental" style="stroke:#181818;stroke-width:1.0;"/><polygon fill="#181818" points="277,152.64,273,158.64,277,164.64,281,158.64,277,152.64" style="stroke:#181818;stroke-width:1.0;"/><polygon fill="#181818" points="277,261.93,281,252.93,277,256.93,273,252.93,277,261.93" style="stroke:#181818;stroke-width:1.0;"/><text fill="#000000" font-family="sans-serif" font-size="13" lengthAdjust="spacing" textLength="70" x="278" y="228.0669">books-cars</text></g><!--link TravelAgencyFacade to HotelBooking--><g id="link_TravelAgencyFacade_HotelBooking"><path codeLine="31" d="M220.8773,161.7052 C190.1473,197.1352 163.2911,228.0971 137.8811,257.3971 " fill="none" id="TravelAgencyFacade-HotelBooking" style="stroke:#181818;stroke-width:1.0;"/><polygon fill="#181818" points="228.74,152.64,221.7869,154.5517,220.8773,161.7052,227.8304,159.7935,228.74,152.64" style="stroke:#181818;stroke-width:1.0;"/><polygon fill="#181818" points="133.95,261.93,142.8685,257.7514,137.2259,258.1526,136.8247,252.51,133.95,261.93" style="stroke:#181818;stroke-width:1.0;"/><text fill="#000000" font-family="sans-serif" font-size="13" lengthAdjust="spacing" textLength="82" x="173" y="228.0669">books-hotels</text></g><!--SRC=[TL6xQiGm4Epz5LlcWNx0HI2vOCv5cd1NXHIAjF694zOXYK08-VUi7kGaMtPXPCtCxinOQEuS7Aowm4y7z31G4deu7iVd_FsfrNJoJyQSrJoD2_1aFEeDJ73RHExZ4IRqexovNLmDzROLlgyMhk1TiPF0tqx4WAKg1ysQ3xgCQC6c8QyuUwvhggKxWWfYPNOzDy45_s3v5-h72MVnFN319VwtNhLCRLMZ6sKJfGnrhJmxxwyfigtuauEjS2XClN0rT-45ZDcmb3sqZFPWBcYvHzSrqAHyayPxbEzn0cthmQ7MJS4T8zAm21tSEPQgs5RjYf19GR6twVkwjQI8LRe_]--></g></svg>