<?xml version="1.0" encoding="us-ascii" standalone="no"?><svg xmlns="http://www.w3.org/2000/svg" xmlns:xlink="http://www.w3.org/1999/xlink" contentStyleType="text/css" height="447px" preserveAspectRatio="none" style="width:422px;height:447px;background:#FFFFFF;" version="1.1" viewBox="0 0 422 447" width="422px" zoomAndPan="magnify"><defs/><g><!--class Menu--><g id="elem_Menu"><rect codeLine="2" fill="#F1F1F1" height="178.375" id="Menu" rx="2.5" ry="2.5" style="stroke:#181818;stroke-width:0.5;" width="184" x="144" y="7"/><ellipse cx="212.25" cy="23" fill="#A9DCDF" rx="11" ry="11" style="stroke:#181818;stroke-width:1.0;"/><path d="M212.3594,18.3438 L211.2031,23.4219 L213.5313,23.4219 L212.3594,18.3438 Z M210.875,16.1094 L213.8594,16.1094 L217.2188,28.5 L214.7656,28.5 L214,25.4375 L210.7188,25.4375 L209.9688,28.5 L207.5313,28.5 L210.875,16.1094 Z " fill="#000000"/><text fill="#000000" font-family="sans-serif" font-size="14" font-style="italic" lengthAdjust="spacing" textLength="39" x="232.75" y="27.8467">Menu</text><line style="stroke:#181818;stroke-width:0.5;" x1="145" x2="327" y1="39" y2="39"/><rect fill="none" height="6" style="stroke:#C82930;stroke-width:1.0;" width="6" x="152" y="49.6484"/><text fill="#000000" font-family="sans-serif" font-size="14" lengthAdjust="spacing" textLength="105" x="164" y="55.9951">drinks : String[]</text><rect fill="none" height="6" style="stroke:#C82930;stroke-width:1.0;" width="6" x="152" y="65.9453"/><text fill="#000000" font-family="sans-serif" font-size="14" lengthAdjust="spacing" textLength="158" x="164" y="72.292">menuTemplate : String</text><line style="stroke:#181818;stroke-width:0.5;" x1="145" x2="327" y1="79.5938" y2="79.5938"/><polygon fill="#4177AF" points="155,89.2422,151,95.2422,159,95.2422" style="stroke:#1963A0;stroke-width:1.0;"/><text fill="#000000" font-family="sans-serif" font-size="14" lengthAdjust="spacing" textLength="93" x="164" y="96.5889">String name()</text><polygon fill="#4177AF" points="155,105.5391,151,111.5391,159,111.5391" style="stroke:#1963A0;stroke-width:1.0;"/><text fill="#000000" font-family="sans-serif" font-size="14" lengthAdjust="spacing" textLength="127" x="164" y="112.8857">String appetizers()</text><polygon fill="#4177AF" points="155,121.8359,151,127.8359,159,127.8359" style="stroke:#1963A0;stroke-width:1.0;"/><text fill="#000000" font-family="sans-serif" font-size="14" lengthAdjust="spacing" textLength="95" x="164" y="129.1826">String mains()</text><polygon fill="#4177AF" points="155,138.1328,151,144.1328,159,144.1328" style="stroke:#1963A0;stroke-width:1.0;"/><text fill="#000000" font-family="sans-serif" font-size="14" lengthAdjust="spacing" textLength="115" x="164" y="145.4795">String desserts()</text><polygon fill="#4177AF" points="155,154.4297,151,160.4297,159,160.4297" style="stroke:#1963A0;stroke-width:1.0;"/><text fill="#000000" font-family="sans-serif" font-size="14" lengthAdjust="spacing" textLength="88" x="164" y="161.7764">String price()</text><ellipse cx="155" cy="174.7266" fill="#84BE84" rx="3" ry="3" style="stroke:#038048;stroke-width:1.0;"/><text fill="#000000" font-family="sans-serif" font-size="14" lengthAdjust="spacing" textLength="124" x="164" y="178.0732">String printMenu()</text></g><!--class StandardMenu--><g id="elem_StandardMenu"><rect codeLine="12" fill="#F1F1F1" height="194.6719" id="StandardMenu" rx="2.5" ry="2.5" style="stroke:#181818;stroke-width:0.5;" width="162" x="56" y="246"/><ellipse cx="84.05" cy="262" fill="#ADD1B2" rx="11" ry="11" style="stroke:#181818;stroke-width:1.0;"/><path d="M87.0188,267.6406 Q86.4406,267.9375 85.8,268.0781 Q85.1594,268.2344 84.4563,268.2344 Q81.9563,268.2344 80.6281,266.5938 Q79.3156,264.9375 79.3156,261.8125 Q79.3156,258.6875 80.6281,257.0313 Q81.9563,255.375 84.4563,255.375 Q85.1594,255.375 85.8,255.5313 Q86.4563,255.6875 87.0188,255.9844 L87.0188,258.7031 Q86.3938,258.125 85.8,257.8594 Q85.2063,257.5781 84.5813,257.5781 Q83.2375,257.5781 82.55,258.6563 Q81.8625,259.7188 81.8625,261.8125 Q81.8625,263.9063 82.55,264.9844 Q83.2375,266.0469 84.5813,266.0469 Q85.2063,266.0469 85.8,265.7813 Q86.3938,265.5 87.0188,264.9219 L87.0188,267.6406 Z " fill="#000000"/><text fill="#000000" font-family="sans-serif" font-size="14" lengthAdjust="spacing" textLength="101" x="100.95" y="266.8467">StandardMenu</text><line style="stroke:#181818;stroke-width:0.5;" x1="57" x2="217" y1="278" y2="278"/><rect fill="none" height="6" style="stroke:#C82930;stroke-width:1.0;" width="6" x="64" y="288.6484"/><text fill="#000000" font-family="sans-serif" font-size="14" lengthAdjust="spacing" textLength="136" x="76" y="294.9951">appetizers : String[]</text><rect fill="none" height="6" style="stroke:#C82930;stroke-width:1.0;" width="6" x="64" y="304.9453"/><text fill="#000000" font-family="sans-serif" font-size="14" lengthAdjust="spacing" textLength="104" x="76" y="311.292">mains : String[]</text><rect fill="none" height="6" style="stroke:#C82930;stroke-width:1.0;" width="6" x="64" y="321.2422"/><text fill="#000000" font-family="sans-serif" font-size="14" lengthAdjust="spacing" textLength="124" x="76" y="327.5889">desserts : String[]</text><rect fill="none" height="6" style="stroke:#C82930;stroke-width:1.0;" width="6" x="64" y="337.5391"/><text fill="#000000" font-family="sans-serif" font-size="14" lengthAdjust="spacing" textLength="95" x="76" y="343.8857">price : double</text><line style="stroke:#181818;stroke-width:0.5;" x1="57" x2="217" y1="351.1875" y2="351.1875"/><polygon fill="#4177AF" points="67,360.8359,63,366.8359,71,366.8359" style="stroke:#1963A0;stroke-width:1.0;"/><text fill="#000000" font-family="sans-serif" font-size="14" lengthAdjust="spacing" textLength="93" x="76" y="368.1826">String name()</text><polygon fill="#4177AF" points="67,377.1328,63,383.1328,71,383.1328" style="stroke:#1963A0;stroke-width:1.0;"/><text fill="#000000" font-family="sans-serif" font-size="14" lengthAdjust="spacing" textLength="127" x="76" y="384.4795">String appetizers()</text><polygon fill="#4177AF" points="67,393.4297,63,399.4297,71,399.4297" style="stroke:#1963A0;stroke-width:1.0;"/><text fill="#000000" font-family="sans-serif" font-size="14" lengthAdjust="spacing" textLength="95" x="76" y="400.7764">String mains()</text><polygon fill="#4177AF" points="67,409.7266,63,415.7266,71,415.7266" style="stroke:#1963A0;stroke-width:1.0;"/><text fill="#000000" font-family="sans-serif" font-size="14" lengthAdjust="spacing" textLength="115" x="76" y="417.0732">String desserts()</text><polygon fill="#4177AF" points="67,426.0234,63,432.0234,71,432.0234" style="stroke:#1963A0;stroke-width:1.0;"/><text fill="#000000" font-family="sans-serif" font-size="14" lengthAdjust="spacing" textLength="88" x="76" y="433.3701">String price()</text></g><!--class VegetarianMenu--><g id="elem_VegetarianMenu"><rect codeLine="23" fill="#F1F1F1" height="194.6719" id="VegetarianMenu" rx="2.5" ry="2.5" style="stroke:#181818;stroke-width:0.5;" width="162" x="253" y="246"/><ellipse cx="275.65" cy="262" fill="#ADD1B2" rx="11" ry="11" style="stroke:#181818;stroke-width:1.0;"/><path d="M278.6188,267.6406 Q278.0406,267.9375 277.4,268.0781 Q276.7594,268.2344 276.0563,268.2344 Q273.5563,268.2344 272.2281,266.5938 Q270.9156,264.9375 270.9156,261.8125 Q270.9156,258.6875 272.2281,257.0313 Q273.5563,255.375 276.0563,255.375 Q276.7594,255.375 277.4,255.5313 Q278.0563,255.6875 278.6188,255.9844 L278.6188,258.7031 Q277.9938,258.125 277.4,257.8594 Q276.8063,257.5781 276.1813,257.5781 Q274.8375,257.5781 274.15,258.6563 Q273.4625,259.7188 273.4625,261.8125 Q273.4625,263.9063 274.15,264.9844 Q274.8375,266.0469 276.1813,266.0469 Q276.8063,266.0469 277.4,265.7813 Q277.9938,265.5 278.6188,264.9219 L278.6188,267.6406 Z " fill="#000000"/><text fill="#000000" font-family="sans-serif" font-size="14" lengthAdjust="spacing" textLength="113" x="291.35" y="266.8467">VegetarianMenu</text><line style="stroke:#181818;stroke-width:0.5;" x1="254" x2="414" y1="278" y2="278"/><rect fill="none" height="6" style="stroke:#C82930;stroke-width:1.0;" width="6" x="261" y="288.6484"/><text fill="#000000" font-family="sans-serif" font-size="14" lengthAdjust="spacing" textLength="136" x="273" y="294.9951">appetizers : String[]</text><rect fill="none" height="6" style="stroke:#C82930;stroke-width:1.0;" width="6" x="261" y="304.9453"/><text fill="#000000" font-family="sans-serif" font-size="14" lengthAdjust="spacing" textLength="104" x="273" y="311.292">mains : String[]</text><rect fill="none" height="6" style="stroke:#C82930;stroke-width:1.0;" width="6" x="261" y="321.2422"/><text fill="#000000" font-family="sans-serif" font-size="14" lengthAdjust="spacing" textLength="124" x="273" y="327.5889">desserts : String[]</text><rect fill="none" height="6" style="stroke:#C82930;stroke-width:1.0;" width="6" x="261" y="337.5391"/><text fill="#000000" font-family="sans-serif" font-size="14" lengthAdjust="spacing" textLength="95" x="273" y="343.8857">price : double</text><line style="stroke:#181818;stroke-width:0.5;" x1="254" x2="414" y1="351.1875" y2="351.1875"/><polygon fill="#4177AF" points="264,360.8359,260,366.8359,268,366.8359" style="stroke:#1963A0;stroke-width:1.0;"/><text fill="#000000" font-family="sans-serif" font-size="14" lengthAdjust="spacing" textLength="93" x="273" y="368.1826">String name()</text><polygon fill="#4177AF" points="264,377.1328,260,383.1328,268,383.1328" style="stroke:#1963A0;stroke-width:1.0;"/><text fill="#000000" font-family="sans-serif" font-size="14" lengthAdjust="spacing" textLength="127" x="273" y="384.4795">String appetizers()</text><polygon fill="#4177AF" points="264,393.4297,260,399.4297,268,399.4297" style="stroke:#1963A0;stroke-width:1.0;"/><text fill="#000000" font-family="sans-serif" font-size="14" lengthAdjust="spacing" textLength="95" x="273" y="400.7764">String mains()</text><polygon fill="#4177AF" points="264,409.7266,260,415.7266,268,415.7266" style="stroke:#1963A0;stroke-width:1.0;"/><text fill="#000000" font-family="sans-serif" font-size="14" lengthAdjust="spacing" textLength="115" x="273" y="417.0732">String desserts()</text><polygon fill="#4177AF" points="264,426.0234,260,432.0234,268,432.0234" style="stroke:#1963A0;stroke-width:1.0;"/><text fill="#000000" font-family="sans-serif" font-size="14" lengthAdjust="spacing" textLength="88" x="273" y="433.3701">String price()</text></g><!--class Main--><g id="elem_Main"><rect codeLine="34" fill="#F1F1F1" height="48" id="Main" rx="2.5" ry="2.5" style="stroke:#181818;stroke-width:0.5;" width="64" x="7" y="72"/><ellipse cx="22" cy="88" fill="#ADD1B2" rx="11" ry="11" style="stroke:#181818;stroke-width:1.0;"/><path d="M24.9688,93.6406 Q24.3906,93.9375 23.75,94.0781 Q23.1094,94.2344 22.4063,94.2344 Q19.9063,94.2344 18.5781,92.5938 Q17.2656,90.9375 17.2656,87.8125 Q17.2656,84.6875 18.5781,83.0313 Q19.9063,81.375 22.4063,81.375 Q23.1094,81.375 23.75,81.5313 Q24.4063,81.6875 24.9688,81.9844 L24.9688,84.7031 Q24.3438,84.125 23.75,83.8594 Q23.1563,83.5781 22.5313,83.5781 Q21.1875,83.5781 20.5,84.6563 Q19.8125,85.7188 19.8125,87.8125 Q19.8125,89.9063 20.5,90.9844 Q21.1875,92.0469 22.5313,92.0469 Q23.1563,92.0469 23.75,91.7813 Q24.3438,91.5 24.9688,90.9219 L24.9688,93.6406 Z " fill="#000000"/><text fill="#000000" font-family="sans-serif" font-size="14" lengthAdjust="spacing" textLength="32" x="36" y="92.8467">Main</text><line style="stroke:#181818;stroke-width:0.5;" x1="8" x2="70" y1="104" y2="104"/><line style="stroke:#181818;stroke-width:0.5;" x1="8" x2="70" y1="112" y2="112"/></g><!--reverse link Menu to StandardMenu--><g id="link_Menu_StandardMenu"><path d="M193.6667,201.9732 C185.7367,221.6332 184.03,225.88 175.97,245.86 " fill="none" id="Menu-backto-StandardMenu" style="stroke:#181818;stroke-width:1.0;"/><polygon fill="none" points="200.4,185.28,188.1023,199.7287,199.2311,204.2176,200.4,185.28" style="stroke:#181818;stroke-width:1.0;"/></g><!--reverse link Menu to VegetarianMenu--><g id="link_Menu_VegetarianMenu"><path d="M277.9148,201.9967 C285.7648,221.6567 287.45,225.88 295.42,245.86 " fill="none" id="Menu-backto-VegetarianMenu" style="stroke:#181818;stroke-width:1.0;"/><polygon fill="none" points="271.24,185.28,272.3425,204.2216,283.487,199.7718,271.24,185.28" style="stroke:#181818;stroke-width:1.0;"/></g><!--link Main to Menu--><g id="link_Main_Menu"><path codeLine="35" d="M83.09,96 C103.04,96 111.8,96 137.95,96 " fill="none" id="Main-Menu" style="stroke:#181818;stroke-width:1.0;"/><polygon fill="none" points="71.09,96,77.09,100,83.09,96,77.09,92,71.09,96" style="stroke:#181818;stroke-width:1.0;"/><polygon fill="#181818" points="143.95,96,134.95,92,138.95,96,134.95,100,143.95,96" style="stroke:#181818;stroke-width:1.0;"/><text fill="#000000" font-family="sans-serif" font-size="13" lengthAdjust="spacing" textLength="36" x="89.5" y="89.0669">offers</text></g><!--SRC=[vP0v3i8m44Nxd69A4Ce5ABX1gY0QH3699y4YTgBnH48WE3lEnX9Jqv32Yj_tyfynSyAO2-GLEWS9sHQk4VWl1iNQdXoi8HN_L-uF8pT-qPPCKw7GC-sp-pW1YuOMoq-6JKEYByHkdXZKDe2Ad2EMW3Uiy-dirHkqqfNtmIqQN591gv1LxqHd8QjcWgz6NoIxJY6UMeL9tyjZLRTPHJz_ZibwHoK9iaRxNzw9tnnr0zGnw_8eyMQGNaDT5Fws1m00]--></g></svg>