<?xml version="1.0" encoding="us-ascii" standalone="no"?><svg xmlns="http://www.w3.org/2000/svg" xmlns:xlink="http://www.w3.org/1999/xlink" contentStyleType="text/css" height="564px" preserveAspectRatio="none" style="width:696px;height:564px;background:#FFFFFF;" version="1.1" viewBox="0 0 696 564" width="696px" zoomAndPan="magnify"><defs/><g><!--class Photographable--><g id="elem_Photographable"><rect codeLine="1" fill="#F1F1F1" height="64.2969" id="Photographable" rx="2.5" ry="2.5" style="stroke:#181818;stroke-width:0.5;" width="295" x="394" y="116"/><ellipse cx="482.75" cy="132" fill="#B4A7E5" rx="11" ry="11" style="stroke:#181818;stroke-width:1.0;"/><path d="M478.6719,127.7656 L478.6719,125.6094 L486.0625,125.6094 L486.0625,127.7656 L483.5938,127.7656 L483.5938,135.8438 L486.0625,135.8438 L486.0625,138 L478.6719,138 L478.6719,135.8438 L481.1406,135.8438 L481.1406,127.7656 L478.6719,127.7656 Z " fill="#000000"/><text fill="#000000" font-family="sans-serif" font-size="14" font-style="italic" lengthAdjust="spacing" textLength="109" x="503.25" y="136.8467">Photographable</text><line style="stroke:#181818;stroke-width:0.5;" x1="395" x2="688" y1="148" y2="148"/><line style="stroke:#181818;stroke-width:0.5;" x1="395" x2="688" y1="156" y2="156"/><text fill="#000000" font-family="sans-serif" font-size="14" lengthAdjust="spacing" textLength="283" x="400" y="172.9951">void accept(Photographer photographer)</text></g><!--class Animal--><g id="elem_Animal"><rect codeLine="4" fill="#F1F1F1" height="80.5938" id="Animal" rx="2.5" ry="2.5" style="stroke:#181818;stroke-width:0.5;" width="309" x="355" y="249"/><ellipse cx="482.75" cy="265" fill="#ADD1B2" rx="11" ry="11" style="stroke:#181818;stroke-width:1.0;"/><path d="M485.7188,270.6406 Q485.1406,270.9375 484.5,271.0781 Q483.8594,271.2344 483.1563,271.2344 Q480.6563,271.2344 479.3281,269.5938 Q478.0156,267.9375 478.0156,264.8125 Q478.0156,261.6875 479.3281,260.0313 Q480.6563,258.375 483.1563,258.375 Q483.8594,258.375 484.5,258.5313 Q485.1563,258.6875 485.7188,258.9844 L485.7188,261.7031 Q485.0938,261.125 484.5,260.8594 Q483.9063,260.5781 483.2813,260.5781 Q481.9375,260.5781 481.25,261.6563 Q480.5625,262.7188 480.5625,264.8125 Q480.5625,266.9063 481.25,267.9844 Q481.9375,269.0469 483.2813,269.0469 Q483.9063,269.0469 484.5,268.7813 Q485.0938,268.5 485.7188,267.9219 L485.7188,270.6406 Z " fill="#000000"/><text fill="#000000" font-family="sans-serif" font-size="14" lengthAdjust="spacing" textLength="45" x="503.25" y="269.8467">Animal</text><line style="stroke:#181818;stroke-width:0.5;" x1="356" x2="663" y1="281" y2="281"/><line style="stroke:#181818;stroke-width:0.5;" x1="356" x2="663" y1="289" y2="289"/><ellipse cx="366" cy="302.6484" fill="#84BE84" rx="3" ry="3" style="stroke:#038048;stroke-width:1.0;"/><text fill="#000000" font-family="sans-serif" font-size="14" lengthAdjust="spacing" textLength="90" x="375" y="305.9951">String smile()</text><ellipse cx="366" cy="318.9453" fill="#84BE84" rx="3" ry="3" style="stroke:#038048;stroke-width:1.0;"/><text fill="#000000" font-family="sans-serif" font-size="14" lengthAdjust="spacing" textLength="283" x="375" y="322.292">void accept(Photographer photographer)</text></g><!--class Dog--><g id="elem_Dog"><rect codeLine="8" fill="#F1F1F1" height="80.5938" id="Dog" rx="2.5" ry="2.5" style="stroke:#181818;stroke-width:0.5;" width="309" x="7" y="477"/><ellipse cx="142.75" cy="493" fill="#ADD1B2" rx="11" ry="11" style="stroke:#181818;stroke-width:1.0;"/><path d="M145.7188,498.6406 Q145.1406,498.9375 144.5,499.0781 Q143.8594,499.2344 143.1563,499.2344 Q140.6563,499.2344 139.3281,497.5938 Q138.0156,495.9375 138.0156,492.8125 Q138.0156,489.6875 139.3281,488.0313 Q140.6563,486.375 143.1563,486.375 Q143.8594,486.375 144.5,486.5313 Q145.1563,486.6875 145.7188,486.9844 L145.7188,489.7031 Q145.0938,489.125 144.5,488.8594 Q143.9063,488.5781 143.2813,488.5781 Q141.9375,488.5781 141.25,489.6563 Q140.5625,490.7188 140.5625,492.8125 Q140.5625,494.9063 141.25,495.9844 Q141.9375,497.0469 143.2813,497.0469 Q143.9063,497.0469 144.5,496.7813 Q145.0938,496.5 145.7188,495.9219 L145.7188,498.6406 Z " fill="#000000"/><text fill="#000000" font-family="sans-serif" font-size="14" lengthAdjust="spacing" textLength="29" x="163.25" y="497.8467">Dog</text><line style="stroke:#181818;stroke-width:0.5;" x1="8" x2="315" y1="509" y2="509"/><line style="stroke:#181818;stroke-width:0.5;" x1="8" x2="315" y1="517" y2="517"/><ellipse cx="18" cy="530.6484" fill="#84BE84" rx="3" ry="3" style="stroke:#038048;stroke-width:1.0;"/><text fill="#000000" font-family="sans-serif" font-size="14" lengthAdjust="spacing" textLength="90" x="27" y="533.9951">String smile()</text><ellipse cx="18" cy="546.9453" fill="#84BE84" rx="3" ry="3" style="stroke:#038048;stroke-width:1.0;"/><text fill="#000000" font-family="sans-serif" font-size="14" lengthAdjust="spacing" textLength="283" x="27" y="550.292">void accept(Photographer photographer)</text></g><!--class Cat--><g id="elem_Cat"><rect codeLine="12" fill="#F1F1F1" height="80.5938" id="Cat" rx="2.5" ry="2.5" style="stroke:#181818;stroke-width:0.5;" width="309" x="353" y="477"/><ellipse cx="491.75" cy="493" fill="#ADD1B2" rx="11" ry="11" style="stroke:#181818;stroke-width:1.0;"/><path d="M494.7188,498.6406 Q494.1406,498.9375 493.5,499.0781 Q492.8594,499.2344 492.1563,499.2344 Q489.6563,499.2344 488.3281,497.5938 Q487.0156,495.9375 487.0156,492.8125 Q487.0156,489.6875 488.3281,488.0313 Q489.6563,486.375 492.1563,486.375 Q492.8594,486.375 493.5,486.5313 Q494.1563,486.6875 494.7188,486.9844 L494.7188,489.7031 Q494.0938,489.125 493.5,488.8594 Q492.9063,488.5781 492.2813,488.5781 Q490.9375,488.5781 490.25,489.6563 Q489.5625,490.7188 489.5625,492.8125 Q489.5625,494.9063 490.25,495.9844 Q490.9375,497.0469 492.2813,497.0469 Q492.9063,497.0469 493.5,496.7813 Q494.0938,496.5 494.7188,495.9219 L494.7188,498.6406 Z " fill="#000000"/><text fill="#000000" font-family="sans-serif" font-size="14" lengthAdjust="spacing" textLength="23" x="512.25" y="497.8467">Cat</text><line style="stroke:#181818;stroke-width:0.5;" x1="354" x2="661" y1="509" y2="509"/><line style="stroke:#181818;stroke-width:0.5;" x1="354" x2="661" y1="517" y2="517"/><ellipse cx="364" cy="530.6484" fill="#84BE84" rx="3" ry="3" style="stroke:#038048;stroke-width:1.0;"/><text fill="#000000" font-family="sans-serif" font-size="14" lengthAdjust="spacing" textLength="90" x="373" y="533.9951">String smile()</text><ellipse cx="364" cy="546.9453" fill="#84BE84" rx="3" ry="3" style="stroke:#038048;stroke-width:1.0;"/><text fill="#000000" font-family="sans-serif" font-size="14" lengthAdjust="spacing" textLength="283" x="373" y="550.292">void accept(Photographer photographer)</text></g><!--class Photographer--><g id="elem_Photographer"><rect codeLine="16" fill="#F1F1F1" height="96.8906" id="Photographer" rx="2.5" ry="2.5" style="stroke:#181818;stroke-width:0.5;" width="232" x="36.5" y="241"/><ellipse cx="100.75" cy="257" fill="#ADD1B2" rx="11" ry="11" style="stroke:#181818;stroke-width:1.0;"/><path d="M103.7188,262.6406 Q103.1406,262.9375 102.5,263.0781 Q101.8594,263.2344 101.1563,263.2344 Q98.6563,263.2344 97.3281,261.5938 Q96.0156,259.9375 96.0156,256.8125 Q96.0156,253.6875 97.3281,252.0313 Q98.6563,250.375 101.1563,250.375 Q101.8594,250.375 102.5,250.5313 Q103.1563,250.6875 103.7188,250.9844 L103.7188,253.7031 Q103.0938,253.125 102.5,252.8594 Q101.9063,252.5781 101.2813,252.5781 Q99.9375,252.5781 99.25,253.6563 Q98.5625,254.7188 98.5625,256.8125 Q98.5625,258.9063 99.25,259.9844 Q99.9375,261.0469 101.2813,261.0469 Q101.9063,261.0469 102.5,260.7813 Q103.0938,260.5 103.7188,259.9219 L103.7188,262.6406 Z " fill="#000000"/><text fill="#000000" font-family="sans-serif" font-size="14" lengthAdjust="spacing" textLength="95" x="121.25" y="261.8467">Photographer</text><line style="stroke:#181818;stroke-width:0.5;" x1="37.5" x2="267.5" y1="273" y2="273"/><line style="stroke:#181818;stroke-width:0.5;" x1="37.5" x2="267.5" y1="281" y2="281"/><ellipse cx="47.5" cy="294.6484" fill="#84BE84" rx="3" ry="3" style="stroke:#038048;stroke-width:1.0;"/><text fill="#000000" font-family="sans-serif" font-size="14" lengthAdjust="spacing" textLength="206" x="56.5" y="297.9951">void takePhoto(Animal animal)</text><ellipse cx="47.5" cy="310.9453" fill="#84BE84" rx="3" ry="3" style="stroke:#038048;stroke-width:1.0;"/><text fill="#000000" font-family="sans-serif" font-size="14" lengthAdjust="spacing" textLength="173" x="56.5" y="314.292">void takePhoto(Dog dog)</text><ellipse cx="47.5" cy="327.2422" fill="#84BE84" rx="3" ry="3" style="stroke:#038048;stroke-width:1.0;"/><text fill="#000000" font-family="sans-serif" font-size="14" lengthAdjust="spacing" textLength="161" x="56.5" y="330.5889">void takePhoto(Cat cat)</text></g><!--class Main--><g id="elem_Main"><rect codeLine="21" fill="#F1F1F1" height="48" id="Main" rx="2.5" ry="2.5" style="stroke:#181818;stroke-width:0.5;" width="64" x="198.5" y="7"/><ellipse cx="213.5" cy="23" fill="#ADD1B2" rx="11" ry="11" style="stroke:#181818;stroke-width:1.0;"/><path d="M216.4688,28.6406 Q215.8906,28.9375 215.25,29.0781 Q214.6094,29.2344 213.9063,29.2344 Q211.4063,29.2344 210.0781,27.5938 Q208.7656,25.9375 208.7656,22.8125 Q208.7656,19.6875 210.0781,18.0313 Q211.4063,16.375 213.9063,16.375 Q214.6094,16.375 215.25,16.5313 Q215.9063,16.6875 216.4688,16.9844 L216.4688,19.7031 Q215.8438,19.125 215.25,18.8594 Q214.6563,18.5781 214.0313,18.5781 Q212.6875,18.5781 212,19.6563 Q211.3125,20.7188 211.3125,22.8125 Q211.3125,24.9063 212,25.9844 Q212.6875,27.0469 214.0313,27.0469 Q214.6563,27.0469 215.25,26.7813 Q215.8438,26.5 216.4688,25.9219 L216.4688,28.6406 Z " fill="#000000"/><text fill="#000000" font-family="sans-serif" font-size="14" lengthAdjust="spacing" textLength="32" x="227.5" y="27.8467">Main</text><line style="stroke:#181818;stroke-width:0.5;" x1="199.5" x2="261.5" y1="39" y2="39"/><line style="stroke:#181818;stroke-width:0.5;" x1="199.5" x2="261.5" y1="47" y2="47"/></g><!--reverse link Photographable to Animal--><g id="link_Photographable_Animal"><path d="M530.2896,197.853 C525.6396,218.093 523.59,227.08 518.61,248.8 " fill="none" id="Photographable-backto-Animal" style="stroke:#181818;stroke-width:1.0;stroke-dasharray:7.0,7.0;"/><polygon fill="none" points="534.32,180.31,524.442,196.5095,536.1373,199.1964,534.32,180.31" style="stroke:#181818;stroke-width:1.0;"/></g><!--reverse link Animal to Dog--><g id="link_Animal_Dog"><path d="M439.198,340.4468 C403.448,365.5968 370.53,388.18 327.5,416 C295.53,436.67 259.44,458.68 229.1,476.81 " fill="none" id="Animal-backto-Dog" style="stroke:#181818;stroke-width:1.0;"/><polygon fill="none" points="453.92,330.09,435.7458,335.5395,442.6503,345.3542,453.92,330.09" style="stroke:#181818;stroke-width:1.0;"/></g><!--reverse link Animal to Cat--><g id="link_Animal_Cat"><path d="M508.9886,348.1193 C508.6186,389.3893 508.22,435.67 507.85,476.92 " fill="none" id="Animal-backto-Cat" style="stroke:#181818;stroke-width:1.0;"/><polygon fill="none" points="509.15,330.12,502.9889,348.0655,514.9884,348.1731,509.15,330.12" style="stroke:#181818;stroke-width:1.0;"/></g><!--link Main to Animal--><g id="link_Main_Animal"><path codeLine="22" d="M241.25,55.12 C256.65,86.39 287.52,142.55 326.5,180 C355,207.38 386.384,227.9444 419.384,245.9644 " fill="none" id="Main-to-Animal" style="stroke:#181818;stroke-width:1.0;stroke-dasharray:1.0,3.0;"/><polygon fill="#181818" points="424.65,248.84,418.668,241.016,420.2616,246.4437,414.8339,248.0373,424.65,248.84" style="stroke:#181818;stroke-width:1.0;"/><text fill="#000000" font-family="sans-serif" font-size="13" lengthAdjust="spacing" textLength="48" x="327.5" y="152.5669">creates</text></g><!--link Main to Photographer--><g id="link_Main_Photographer"><path codeLine="23" d="M212.89,55.35 C201.57,71.53 187.52,94.05 179.5,116 C164.67,156.57 158.489,199.4416 155.479,234.7916 " fill="none" id="Main-to-Photographer" style="stroke:#181818;stroke-width:1.0;stroke-dasharray:1.0,3.0;"/><polygon fill="#181818" points="154.97,240.77,159.7192,232.1418,155.3942,235.788,151.748,231.4631,154.97,240.77" style="stroke:#181818;stroke-width:1.0;"/><text fill="#000000" font-family="sans-serif" font-size="13" lengthAdjust="spacing" textLength="84" x="180.5" y="152.5669">takes-photos</text></g><!--reverse link Photographer to Animal--><g id="link_Photographer_Animal"><path codeLine="24" d="M274.9,289.5 C302.37,289.5 326.08,289.5 354.94,289.5 " fill="none" id="Photographer-backto-Animal" style="stroke:#181818;stroke-width:1.0;stroke-dasharray:1.0,3.0;"/><polygon fill="#181818" points="268.9,289.5,277.9,293.5,273.9,289.5,277.9,285.5,268.9,289.5" style="stroke:#181818;stroke-width:1.0;"/><text fill="#000000" font-family="sans-serif" font-size="13" lengthAdjust="spacing" textLength="50" x="286.75" y="282.5669">accepts</text></g><!--link Photographer to Dog--><g id="link_Photographer_Dog"><path codeLine="25" d="M154.4,338.15 C156.04,379.33 158.1412,432.1648 159.6812,470.8348 " fill="none" id="Photographer-to-Dog" style="stroke:#181818;stroke-width:1.0;stroke-dasharray:1.0,3.0;"/><polygon fill="#181818" points="159.92,476.83,163.5587,467.678,159.721,471.834,155.565,467.9963,159.92,476.83" style="stroke:#181818;stroke-width:1.0;"/><text fill="#000000" font-family="sans-serif" font-size="13" lengthAdjust="spacing" textLength="32" x="158.5" y="412.0669">visits</text></g><!--link Photographer to Cat--><g id="link_Photographer_Cat"><path codeLine="26" d="M227.35,338.15 C292.04,379.33 379.3787,434.9377 440.1187,473.6077 " fill="none" id="Photographer-to-Cat" style="stroke:#181818;stroke-width:1.0;stroke-dasharray:1.0,3.0;"/><polygon fill="#181818" points="445.18,476.83,439.7362,468.6224,440.9622,474.1448,435.4398,475.3708,445.18,476.83" style="stroke:#181818;stroke-width:1.0;"/><text fill="#000000" font-family="sans-serif" font-size="13" lengthAdjust="spacing" textLength="32" x="349.5" y="412.0669">visits</text></g><!--SRC=[jP31QiCm38RlVWeT4uPV88T1wQw3Gezb1yrMKp773fOeWz9tRvscQmFfOB3wO6Ffq__xDqUbl4L7iDebJMt6VeUVWU1WuBpsYJsWSzHhTGCeGtztgStHk80Yi8ZSOG3k-a0THPLvrHTOQ-ROWdGSgAh7uX_Dtb8BzAqK_O_nVyelKPyfFq4EzngANpHqgz4MXwEUPyel-DG-w9OG3lLc-uuSJTd0serFgkG_xEirO0Ck4oh9339vS3DuY1soYHd7hGsqrSSpbzyHCobFJ4gQ1lOi_2jMObsn4m00]--></g></svg>