<?xml version="1.0" encoding="us-ascii" standalone="no"?><svg xmlns="http://www.w3.org/2000/svg" xmlns:xlink="http://www.w3.org/1999/xlink" contentStyleType="text/css" height="252px" preserveAspectRatio="none" style="width:387px;height:252px;background:#FFFFFF;" version="1.1" viewBox="0 0 387 252" width="387px" zoomAndPan="magnify"><defs/><g><!--class Database--><g id="elem_Database"><rect codeLine="1" fill="#F1F1F1" height="113.1875" id="Database" rx="2.5" ry="2.5" style="stroke:#181818;stroke-width:0.5;" width="373" x="7" y="132"/><ellipse cx="156.25" cy="148" fill="#ADD1B2" rx="11" ry="11" style="stroke:#181818;stroke-width:1.0;"/><path d="M159.2188,153.6406 Q158.6406,153.9375 158,154.0781 Q157.3594,154.2344 156.6563,154.2344 Q154.1563,154.2344 152.8281,152.5938 Q151.5156,150.9375 151.5156,147.8125 Q151.5156,144.6875 152.8281,143.0313 Q154.1563,141.375 156.6563,141.375 Q157.3594,141.375 158,141.5313 Q158.6563,141.6875 159.2188,141.9844 L159.2188,144.7031 Q158.5938,144.125 158,143.8594 Q157.4063,143.5781 156.7813,143.5781 Q155.4375,143.5781 154.75,144.6563 Q154.0625,145.7188 154.0625,147.8125 Q154.0625,149.9063 154.75,150.9844 Q155.4375,152.0469 156.7813,152.0469 Q157.4063,152.0469 158,151.7813 Q158.5938,151.5 159.2188,150.9219 L159.2188,153.6406 Z " fill="#000000"/><text fill="#000000" font-family="sans-serif" font-size="14" lengthAdjust="spacing" textLength="66" x="176.75" y="152.8467">Database</text><line style="stroke:#181818;stroke-width:0.5;" x1="8" x2="379" y1="164" y2="164"/><rect fill="none" height="6" style="stroke:#C82930;stroke-width:1.0;" width="6" x="15" y="174.6484"/><text fill="#000000" font-family="sans-serif" font-size="14" lengthAdjust="spacing" textLength="126" x="27" y="180.9951">data: List&lt;String&gt;</text><rect fill="none" height="6" style="stroke:#C82930;stroke-width:1.0;" width="6" x="15" y="190.9453"/><text fill="#000000" font-family="sans-serif" font-size="14" lengthAdjust="spacing" textLength="193" x="27" y="197.292">&#171;static&#187; instance: Database</text><line style="stroke:#181818;stroke-width:0.5;" x1="8" x2="379" y1="204.5938" y2="204.5938"/><ellipse cx="18" cy="218.2422" fill="#84BE84" rx="3" ry="3" style="stroke:#038048;stroke-width:1.0;"/><text fill="#000000" font-family="sans-serif" font-size="14" lengthAdjust="spacing" textLength="197" x="27" y="221.5889">Database(List&lt;String&gt; data)</text><ellipse cx="18" cy="234.5391" fill="#84BE84" rx="3" ry="3" style="stroke:#038048;stroke-width:1.0;"/><text fill="#000000" font-family="sans-serif" font-size="14" lengthAdjust="spacing" textLength="347" x="27" y="237.8857">&#171;static&#187; getInstance(List&lt;String&gt; data): Database</text></g><!--class Main--><g id="elem_Main"><rect codeLine="7" fill="#F1F1F1" height="48" id="Main" rx="2.5" ry="2.5" style="stroke:#181818;stroke-width:0.5;" width="64" x="161.5" y="7"/><ellipse cx="176.5" cy="23" fill="#ADD1B2" rx="11" ry="11" style="stroke:#181818;stroke-width:1.0;"/><path d="M179.4688,28.6406 Q178.8906,28.9375 178.25,29.0781 Q177.6094,29.2344 176.9063,29.2344 Q174.4063,29.2344 173.0781,27.5938 Q171.7656,25.9375 171.7656,22.8125 Q171.7656,19.6875 173.0781,18.0313 Q174.4063,16.375 176.9063,16.375 Q177.6094,16.375 178.25,16.5313 Q178.9063,16.6875 179.4688,16.9844 L179.4688,19.7031 Q178.8438,19.125 178.25,18.8594 Q177.6563,18.5781 177.0313,18.5781 Q175.6875,18.5781 175,19.6563 Q174.3125,20.7188 174.3125,22.8125 Q174.3125,24.9063 175,25.9844 Q175.6875,27.0469 177.0313,27.0469 Q177.6563,27.0469 178.25,26.7813 Q178.8438,26.5 179.4688,25.9219 L179.4688,28.6406 Z " fill="#000000"/><text fill="#000000" font-family="sans-serif" font-size="14" lengthAdjust="spacing" textLength="32" x="190.5" y="27.8467">Main</text><line style="stroke:#181818;stroke-width:0.5;" x1="162.5" x2="224.5" y1="39" y2="39"/><line style="stroke:#181818;stroke-width:0.5;" x1="162.5" x2="224.5" y1="47" y2="47"/></g><!--link Main to Database--><g id="link_Main_Database"><path codeLine="8" d="M193.5,55.28 C193.5,75.44 193.5,99.43 193.5,125.75 " fill="none" id="Main-to-Database" style="stroke:#181818;stroke-width:1.0;"/><polygon fill="#181818" points="193.5,131.75,197.5,122.75,193.5,126.75,189.5,122.75,193.5,131.75" style="stroke:#181818;stroke-width:1.0;"/><text fill="#000000" font-family="sans-serif" font-size="13" lengthAdjust="spacing" textLength="30" x="194.5" y="98.0669">uses</text></g><!--SRC=[Iyv9B2vMS4aiIKnAB4vLgEPI009TXHIWW9M2JsPnYKrmIL5cNheTLCB6fhWaiIGpsSvE8JCFoCnBJhM2QmUhqOPpDP3rWutKXAf0CYKzjSGJQX0MzKXcrt8bWztgcvYPnmKY57HrxH0kjr8eBKuj1W00]--></g></svg>