<?xml version="1.0" encoding="us-ascii" standalone="no"?><svg xmlns="http://www.w3.org/2000/svg" xmlns:xlink="http://www.w3.org/1999/xlink" contentStyleType="text/css" height="453px" preserveAspectRatio="none" style="width:402px;height:453px;background:#FFFFFF;" version="1.1" viewBox="0 0 402 453" width="402px" zoomAndPan="magnify"><defs/><g><!--class QuackBehaviour--><g id="elem_QuackBehaviour"><rect codeLine="1" fill="#F1F1F1" height="64.2969" id="QuackBehaviour" rx="2.5" ry="2.5" style="stroke:#181818;stroke-width:0.5;" width="146" x="134" y="273"/><ellipse cx="149" cy="289" fill="#B4A7E5" rx="11" ry="11" style="stroke:#181818;stroke-width:1.0;"/><path d="M144.9219,284.7656 L144.9219,282.6094 L152.3125,282.6094 L152.3125,284.7656 L149.8438,284.7656 L149.8438,292.8438 L152.3125,292.8438 L152.3125,295 L144.9219,295 L144.9219,292.8438 L147.3906,292.8438 L147.3906,284.7656 L144.9219,284.7656 Z " fill="#000000"/><text fill="#000000" font-family="sans-serif" font-size="14" font-style="italic" lengthAdjust="spacing" textLength="114" x="163" y="293.8467">QuackBehaviour</text><line style="stroke:#181818;stroke-width:0.5;" x1="135" x2="279" y1="305" y2="305"/><line style="stroke:#181818;stroke-width:0.5;" x1="135" x2="279" y1="313" y2="313"/><ellipse cx="145" cy="326.6484" fill="#84BE84" rx="3" ry="3" style="stroke:#038048;stroke-width:1.0;"/><text fill="#000000" font-family="sans-serif" font-size="14" lengthAdjust="spacing" textLength="89" x="154" y="329.9951">quack(): void</text></g><!--class RubberDuckBehaviour--><g id="elem_RubberDuckBehaviour"><rect codeLine="4" fill="#F1F1F1" height="48" id="RubberDuckBehaviour" rx="2.5" ry="2.5" style="stroke:#181818;stroke-width:0.5;" width="188" x="7" y="398"/><ellipse cx="22" cy="414" fill="#ADD1B2" rx="11" ry="11" style="stroke:#181818;stroke-width:1.0;"/><path d="M24.9688,419.6406 Q24.3906,419.9375 23.75,420.0781 Q23.1094,420.2344 22.4063,420.2344 Q19.9063,420.2344 18.5781,418.5938 Q17.2656,416.9375 17.2656,413.8125 Q17.2656,410.6875 18.5781,409.0313 Q19.9063,407.375 22.4063,407.375 Q23.1094,407.375 23.75,407.5313 Q24.4063,407.6875 24.9688,407.9844 L24.9688,410.7031 Q24.3438,410.125 23.75,409.8594 Q23.1563,409.5781 22.5313,409.5781 Q21.1875,409.5781 20.5,410.6563 Q19.8125,411.7188 19.8125,413.8125 Q19.8125,415.9063 20.5,416.9844 Q21.1875,418.0469 22.5313,418.0469 Q23.1563,418.0469 23.75,417.7813 Q24.3438,417.5 24.9688,416.9219 L24.9688,419.6406 Z " fill="#000000"/><text fill="#000000" font-family="sans-serif" font-size="14" lengthAdjust="spacing" textLength="156" x="36" y="418.8467">RubberDuckBehaviour</text><line style="stroke:#181818;stroke-width:0.5;" x1="8" x2="194" y1="430" y2="430"/><line style="stroke:#181818;stroke-width:0.5;" x1="8" x2="194" y1="438" y2="438"/></g><!--class WildDuckBehaviour--><g id="elem_WildDuckBehaviour"><rect codeLine="5" fill="#F1F1F1" height="48" id="WildDuckBehaviour" rx="2.5" ry="2.5" style="stroke:#181818;stroke-width:0.5;" width="165" x="230.5" y="398"/><ellipse cx="245.5" cy="414" fill="#ADD1B2" rx="11" ry="11" style="stroke:#181818;stroke-width:1.0;"/><path d="M248.4688,419.6406 Q247.8906,419.9375 247.25,420.0781 Q246.6094,420.2344 245.9063,420.2344 Q243.4063,420.2344 242.0781,418.5938 Q240.7656,416.9375 240.7656,413.8125 Q240.7656,410.6875 242.0781,409.0313 Q243.4063,407.375 245.9063,407.375 Q246.6094,407.375 247.25,407.5313 Q247.9063,407.6875 248.4688,407.9844 L248.4688,410.7031 Q247.8438,410.125 247.25,409.8594 Q246.6563,409.5781 246.0313,409.5781 Q244.6875,409.5781 244,410.6563 Q243.3125,411.7188 243.3125,413.8125 Q243.3125,415.9063 244,416.9844 Q244.6875,418.0469 246.0313,418.0469 Q246.6563,418.0469 247.25,417.7813 Q247.8438,417.5 248.4688,416.9219 L248.4688,419.6406 Z " fill="#000000"/><text fill="#000000" font-family="sans-serif" font-size="14" lengthAdjust="spacing" textLength="133" x="259.5" y="418.8467">WildDuckBehaviour</text><line style="stroke:#181818;stroke-width:0.5;" x1="231.5" x2="394.5" y1="430" y2="430"/><line style="stroke:#181818;stroke-width:0.5;" x1="231.5" x2="394.5" y1="438" y2="438"/></g><!--class Duck--><g id="elem_Duck"><rect codeLine="6" fill="#F1F1F1" height="48" id="Duck" rx="2.5" ry="2.5" style="stroke:#181818;stroke-width:0.5;" width="68" x="173" y="148"/><ellipse cx="188" cy="164" fill="#ADD1B2" rx="11" ry="11" style="stroke:#181818;stroke-width:1.0;"/><path d="M190.9688,169.6406 Q190.3906,169.9375 189.75,170.0781 Q189.1094,170.2344 188.4063,170.2344 Q185.9063,170.2344 184.5781,168.5938 Q183.2656,166.9375 183.2656,163.8125 Q183.2656,160.6875 184.5781,159.0313 Q185.9063,157.375 188.4063,157.375 Q189.1094,157.375 189.75,157.5313 Q190.4063,157.6875 190.9688,157.9844 L190.9688,160.7031 Q190.3438,160.125 189.75,159.8594 Q189.1563,159.5781 188.5313,159.5781 Q187.1875,159.5781 186.5,160.6563 Q185.8125,161.7188 185.8125,163.8125 Q185.8125,165.9063 186.5,166.9844 Q187.1875,168.0469 188.5313,168.0469 Q189.1563,168.0469 189.75,167.7813 Q190.3438,167.5 190.9688,166.9219 L190.9688,169.6406 Z " fill="#000000"/><text fill="#000000" font-family="sans-serif" font-size="14" lengthAdjust="spacing" textLength="36" x="202" y="168.8467">Duck</text><line style="stroke:#181818;stroke-width:0.5;" x1="174" x2="240" y1="180" y2="180"/><line style="stroke:#181818;stroke-width:0.5;" x1="174" x2="240" y1="188" y2="188"/></g><!--class Main--><g id="elem_Main"><rect codeLine="7" fill="#F1F1F1" height="64.2969" id="Main" rx="2.5" ry="2.5" style="stroke:#181818;stroke-width:0.5;" width="160" x="127" y="7"/><ellipse cx="186.75" cy="23" fill="#ADD1B2" rx="11" ry="11" style="stroke:#181818;stroke-width:1.0;"/><path d="M189.7188,28.6406 Q189.1406,28.9375 188.5,29.0781 Q187.8594,29.2344 187.1563,29.2344 Q184.6563,29.2344 183.3281,27.5938 Q182.0156,25.9375 182.0156,22.8125 Q182.0156,19.6875 183.3281,18.0313 Q184.6563,16.375 187.1563,16.375 Q187.8594,16.375 188.5,16.5313 Q189.1563,16.6875 189.7188,16.9844 L189.7188,19.7031 Q189.0938,19.125 188.5,18.8594 Q187.9063,18.5781 187.2813,18.5781 Q185.9375,18.5781 185.25,19.6563 Q184.5625,20.7188 184.5625,22.8125 Q184.5625,24.9063 185.25,25.9844 Q185.9375,27.0469 187.2813,27.0469 Q187.9063,27.0469 188.5,26.7813 Q189.0938,26.5 189.7188,25.9219 L189.7188,28.6406 Z " fill="#000000"/><text fill="#000000" font-family="sans-serif" font-size="14" lengthAdjust="spacing" textLength="32" x="207.25" y="27.8467">Main</text><line style="stroke:#181818;stroke-width:0.5;" x1="128" x2="286" y1="39" y2="39"/><rect fill="none" height="6" style="stroke:#C82930;stroke-width:1.0;" width="6" x="135" y="49.6484"/><text fill="#000000" font-family="sans-serif" font-size="14" lengthAdjust="spacing" textLength="134" x="147" y="55.9951">ducks: List&lt;Duck&gt;</text><line style="stroke:#181818;stroke-width:0.5;" x1="128" x2="286" y1="63.2969" y2="63.2969"/></g><!--reverse link QuackBehaviour to RubberDuckBehaviour--><g id="link_QuackBehaviour_RubberDuckBehaviour"><path d="M166.1145,350.3589 C148.4645,369.5189 138.4,380.42 122.31,397.88 " fill="none" id="QuackBehaviour-backto-RubberDuckBehaviour" style="stroke:#181818;stroke-width:1.0;stroke-dasharray:7.0,7.0;"/><polygon fill="none" points="178.31,337.12,161.7015,346.2937,170.5274,354.4241,178.31,337.12" style="stroke:#181818;stroke-width:1.0;"/></g><!--reverse link QuackBehaviour to WildDuckBehaviour--><g id="link_QuackBehaviour_WildDuckBehaviour"><path d="M247.8855,350.3589 C265.5355,369.5189 275.6,380.42 291.69,397.88 " fill="none" id="QuackBehaviour-backto-WildDuckBehaviour" style="stroke:#181818;stroke-width:1.0;stroke-dasharray:7.0,7.0;"/><polygon fill="none" points="235.69,337.12,243.4726,354.4241,252.2985,346.2937,235.69,337.12" style="stroke:#181818;stroke-width:1.0;"/></g><!--link Duck to QuackBehaviour--><g id="link_Duck_QuackBehaviour"><path codeLine="10" d="M207,208.12 C207,229.42 207,243.2 207,266.76 " fill="none" id="Duck-QuackBehaviour" style="stroke:#181818;stroke-width:1.0;"/><polygon fill="#181818" points="207,196.12,203,202.12,207,208.12,211,202.12,207,196.12" style="stroke:#181818;stroke-width:1.0;"/><polygon fill="#181818" points="207,272.76,211,263.76,207,267.76,203,263.76,207,272.76" style="stroke:#181818;stroke-width:1.0;"/><text fill="#000000" font-family="sans-serif" font-size="13" lengthAdjust="spacing" textLength="36" x="208" y="239.0669">has-a</text></g><!--link Main to Duck--><g id="link_Main_Duck"><path codeLine="11" d="M207,71.05 C207,94.65 207,120.6 207,141.97 " fill="none" id="Main-to-Duck" style="stroke:#181818;stroke-width:1.0;"/><polygon fill="#181818" points="207,147.97,211,138.97,207,142.97,203,138.97,207,147.97" style="stroke:#181818;stroke-width:1.0;"/><text fill="#000000" font-family="sans-serif" font-size="13" lengthAdjust="spacing" textLength="30" x="208" y="114.0669">uses</text></g><!--SRC=[bKyx3i8m3Drp2ezyb0j4g0DYX04MPhSngaMQqZZfWhWxIPK1TSEBhVVJC_j8uO4TmJLXzpnIZpEFAS1RGPuzJ0NUR0tC8rlrKPr34RYbjgLmIhyE7bwE1l9HLbdLSsTd_tCKTJqloBvsqc0pBWREBF5GD4tkLJRij6xMZnZeKJIg9Q7mYz904f8l]--></g></svg>