<?xml version="1.0" encoding="us-ascii" standalone="no"?><svg xmlns="http://www.w3.org/2000/svg" xmlns:xlink="http://www.w3.org/1999/xlink" contentStyleType="text/css" height="187px" preserveAspectRatio="none" style="width:643px;height:187px;background:#FFFFFF;" version="1.1" viewBox="0 0 643 187" width="643px" zoomAndPan="magnify"><defs/><g><!--class QuackBehaviour--><g id="elem_QuackBehaviour"><rect codeLine="1" fill="#F1F1F1" height="64.2969" id="QuackBehaviour" rx="2.5" ry="2.5" style="stroke:#181818;stroke-width:0.5;" width="146" x="375" y="7"/><ellipse cx="390" cy="23" fill="#B4A7E5" rx="11" ry="11" style="stroke:#181818;stroke-width:1.0;"/><path d="M385.9219,18.7656 L385.9219,16.6094 L393.3125,16.6094 L393.3125,18.7656 L390.8438,18.7656 L390.8438,26.8438 L393.3125,26.8438 L393.3125,29 L385.9219,29 L385.9219,26.8438 L388.3906,26.8438 L388.3906,18.7656 L385.9219,18.7656 Z " fill="#000000"/><text fill="#000000" font-family="sans-serif" font-size="14" font-style="italic" lengthAdjust="spacing" textLength="114" x="404" y="27.8467">QuackBehaviour</text><line style="stroke:#181818;stroke-width:0.5;" x1="376" x2="520" y1="39" y2="39"/><line style="stroke:#181818;stroke-width:0.5;" x1="376" x2="520" y1="47" y2="47"/><text fill="#000000" font-family="sans-serif" font-size="14" lengthAdjust="spacing" textLength="89" x="381" y="63.9951">quack(): void</text></g><!--class RubberDuckBehaviour--><g id="elem_RubberDuckBehaviour"><rect codeLine="4" fill="#F1F1F1" height="48" id="RubberDuckBehaviour" rx="2.5" ry="2.5" style="stroke:#181818;stroke-width:0.5;" width="188" x="248" y="132"/><ellipse cx="263" cy="148" fill="#ADD1B2" rx="11" ry="11" style="stroke:#181818;stroke-width:1.0;"/><path d="M265.9688,153.6406 Q265.3906,153.9375 264.75,154.0781 Q264.1094,154.2344 263.4063,154.2344 Q260.9063,154.2344 259.5781,152.5938 Q258.2656,150.9375 258.2656,147.8125 Q258.2656,144.6875 259.5781,143.0313 Q260.9063,141.375 263.4063,141.375 Q264.1094,141.375 264.75,141.5313 Q265.4063,141.6875 265.9688,141.9844 L265.9688,144.7031 Q265.3438,144.125 264.75,143.8594 Q264.1563,143.5781 263.5313,143.5781 Q262.1875,143.5781 261.5,144.6563 Q260.8125,145.7188 260.8125,147.8125 Q260.8125,149.9063 261.5,150.9844 Q262.1875,152.0469 263.5313,152.0469 Q264.1563,152.0469 264.75,151.7813 Q265.3438,151.5 265.9688,150.9219 L265.9688,153.6406 Z " fill="#000000"/><text fill="#000000" font-family="sans-serif" font-size="14" lengthAdjust="spacing" textLength="156" x="277" y="152.8467">RubberDuckBehaviour</text><line style="stroke:#181818;stroke-width:0.5;" x1="249" x2="435" y1="164" y2="164"/><line style="stroke:#181818;stroke-width:0.5;" x1="249" x2="435" y1="172" y2="172"/></g><!--class WildDuckBehaviour--><g id="elem_WildDuckBehaviour"><rect codeLine="5" fill="#F1F1F1" height="48" id="WildDuckBehaviour" rx="2.5" ry="2.5" style="stroke:#181818;stroke-width:0.5;" width="165" x="471.5" y="132"/><ellipse cx="486.5" cy="148" fill="#ADD1B2" rx="11" ry="11" style="stroke:#181818;stroke-width:1.0;"/><path d="M489.4688,153.6406 Q488.8906,153.9375 488.25,154.0781 Q487.6094,154.2344 486.9063,154.2344 Q484.4063,154.2344 483.0781,152.5938 Q481.7656,150.9375 481.7656,147.8125 Q481.7656,144.6875 483.0781,143.0313 Q484.4063,141.375 486.9063,141.375 Q487.6094,141.375 488.25,141.5313 Q488.9063,141.6875 489.4688,141.9844 L489.4688,144.7031 Q488.8438,144.125 488.25,143.8594 Q487.6563,143.5781 487.0313,143.5781 Q485.6875,143.5781 485,144.6563 Q484.3125,145.7188 484.3125,147.8125 Q484.3125,149.9063 485,150.9844 Q485.6875,152.0469 487.0313,152.0469 Q487.6563,152.0469 488.25,151.7813 Q488.8438,151.5 489.4688,150.9219 L489.4688,153.6406 Z " fill="#000000"/><text fill="#000000" font-family="sans-serif" font-size="14" lengthAdjust="spacing" textLength="133" x="500.5" y="152.8467">WildDuckBehaviour</text><line style="stroke:#181818;stroke-width:0.5;" x1="472.5" x2="635.5" y1="164" y2="164"/><line style="stroke:#181818;stroke-width:0.5;" x1="472.5" x2="635.5" y1="172" y2="172"/></g><!--class Duck--><g id="elem_Duck"><rect codeLine="6" fill="#F1F1F1" height="48" id="Duck" rx="2.5" ry="2.5" style="stroke:#181818;stroke-width:0.5;" width="68" x="234" y="15"/><ellipse cx="249" cy="31" fill="#ADD1B2" rx="11" ry="11" style="stroke:#181818;stroke-width:1.0;"/><path d="M251.9688,36.6406 Q251.3906,36.9375 250.75,37.0781 Q250.1094,37.2344 249.4063,37.2344 Q246.9063,37.2344 245.5781,35.5938 Q244.2656,33.9375 244.2656,30.8125 Q244.2656,27.6875 245.5781,26.0313 Q246.9063,24.375 249.4063,24.375 Q250.1094,24.375 250.75,24.5313 Q251.4063,24.6875 251.9688,24.9844 L251.9688,27.7031 Q251.3438,27.125 250.75,26.8594 Q250.1563,26.5781 249.5313,26.5781 Q248.1875,26.5781 247.5,27.6563 Q246.8125,28.7188 246.8125,30.8125 Q246.8125,32.9063 247.5,33.9844 Q248.1875,35.0469 249.5313,35.0469 Q250.1563,35.0469 250.75,34.7813 Q251.3438,34.5 251.9688,33.9219 L251.9688,36.6406 Z " fill="#000000"/><text fill="#000000" font-family="sans-serif" font-size="14" lengthAdjust="spacing" textLength="36" x="263" y="35.8467">Duck</text><line style="stroke:#181818;stroke-width:0.5;" x1="235" x2="301" y1="47" y2="47"/><line style="stroke:#181818;stroke-width:0.5;" x1="235" x2="301" y1="55" y2="55"/></g><!--class Main--><g id="elem_Main"><rect codeLine="7" fill="#F1F1F1" height="64.2969" id="Main" rx="2.5" ry="2.5" style="stroke:#181818;stroke-width:0.5;" width="160" x="7" y="7"/><ellipse cx="66.75" cy="23" fill="#ADD1B2" rx="11" ry="11" style="stroke:#181818;stroke-width:1.0;"/><path d="M69.7188,28.6406 Q69.1406,28.9375 68.5,29.0781 Q67.8594,29.2344 67.1563,29.2344 Q64.6563,29.2344 63.3281,27.5938 Q62.0156,25.9375 62.0156,22.8125 Q62.0156,19.6875 63.3281,18.0313 Q64.6563,16.375 67.1563,16.375 Q67.8594,16.375 68.5,16.5313 Q69.1563,16.6875 69.7188,16.9844 L69.7188,19.7031 Q69.0938,19.125 68.5,18.8594 Q67.9063,18.5781 67.2813,18.5781 Q65.9375,18.5781 65.25,19.6563 Q64.5625,20.7188 64.5625,22.8125 Q64.5625,24.9063 65.25,25.9844 Q65.9375,27.0469 67.2813,27.0469 Q67.9063,27.0469 68.5,26.7813 Q69.0938,26.5 69.7188,25.9219 L69.7188,28.6406 Z " fill="#000000"/><text fill="#000000" font-family="sans-serif" font-size="14" lengthAdjust="spacing" textLength="32" x="87.25" y="27.8467">Main</text><line style="stroke:#181818;stroke-width:0.5;" x1="8" x2="166" y1="39" y2="39"/><rect fill="none" height="6" style="stroke:#C82930;stroke-width:1.0;" width="6" x="15" y="49.6484"/><text fill="#000000" font-family="sans-serif" font-size="14" lengthAdjust="spacing" textLength="134" x="27" y="55.9951">ducks: List&lt;Duck&gt;</text><line style="stroke:#181818;stroke-width:0.5;" x1="8" x2="166" y1="63.2969" y2="63.2969"/></g><!--reverse link QuackBehaviour to RubberDuckBehaviour--><g id="link_QuackBehaviour_RubberDuckBehaviour"><path d="M407.1145,84.3589 C389.4645,103.5189 379.4,114.42 363.31,131.88 " fill="none" id="QuackBehaviour-backto-RubberDuckBehaviour" style="stroke:#181818;stroke-width:1.0;stroke-dasharray:7.0,7.0;"/><polygon fill="none" points="419.31,71.12,402.7015,80.2937,411.5274,88.4241,419.31,71.12" style="stroke:#181818;stroke-width:1.0;"/></g><!--reverse link QuackBehaviour to WildDuckBehaviour--><g id="link_QuackBehaviour_WildDuckBehaviour"><path d="M488.8855,84.3589 C506.5355,103.5189 516.6,114.42 532.69,131.88 " fill="none" id="QuackBehaviour-backto-WildDuckBehaviour" style="stroke:#181818;stroke-width:1.0;stroke-dasharray:7.0,7.0;"/><polygon fill="none" points="476.69,71.12,484.4726,88.4241,493.2985,80.2937,476.69,71.12" style="stroke:#181818;stroke-width:1.0;"/></g><!--link Duck to QuackBehaviour--><g id="link_Duck_QuackBehaviour"><path codeLine="10" d="M314.28,39 C334.78,39 343.65,39 368.72,39 " fill="none" id="Duck-QuackBehaviour" style="stroke:#181818;stroke-width:1.0;"/><polygon fill="#181818" points="302.28,39,308.28,43,314.28,39,308.28,35,302.28,39" style="stroke:#181818;stroke-width:1.0;"/><polygon fill="#181818" points="374.72,39,365.72,35,369.72,39,365.72,43,374.72,39" style="stroke:#181818;stroke-width:1.0;"/><text fill="#000000" font-family="sans-serif" font-size="13" lengthAdjust="spacing" textLength="36" x="320.5" y="32.0669">has-a</text></g><!--link Main to Duck--><g id="link_Main_Duck"><path codeLine="11" d="M167.18,39 C190.63,39 209.02,39 227.93,39 " fill="none" id="Main-to-Duck" style="stroke:#181818;stroke-width:1.0;"/><polygon fill="#181818" points="233.93,39,224.93,35,228.93,39,224.93,43,233.93,39" style="stroke:#181818;stroke-width:1.0;"/><text fill="#000000" font-family="sans-serif" font-size="13" lengthAdjust="spacing" textLength="30" x="185.5" y="32.0669">uses</text></g><!--SRC=[bO-n3i8m34JtV8L7GCeFHAW3OeG15cOtDSIYJI5EkY3-dQIA4Eg65rkdTwSp-qZXYfRWbD3UT-HmuZ45U2d8yopYQcrW6hbJRsLx585pQbiA-_JBy_3eQI0VPP5KFHVkk_ySXQxd4TdNHXgwh8k10qlS5gR9lSg6ZGvySr4toryCE1IDQexvGhF7G1AI3m00]--></g></svg>