<?xml version="1.0" encoding="us-ascii" standalone="no"?><svg xmlns="http://www.w3.org/2000/svg" xmlns:xlink="http://www.w3.org/1999/xlink" contentStyleType="text/css" height="285px" preserveAspectRatio="none" style="width:830px;height:285px;background:#FFFFFF;" version="1.1" viewBox="0 0 830 285" width="830px" zoomAndPan="magnify"><defs/><g><!--class TrafficLight--><g id="elem_TrafficLight"><rect codeLine="1" fill="#F1F1F1" height="162.0781" id="TrafficLight" rx="2.5" ry="2.5" style="stroke:#181818;stroke-width:0.5;" width="240" x="138" y="7"/><ellipse cx="216.75" cy="23" fill="#ADD1B2" rx="11" ry="11" style="stroke:#181818;stroke-width:1.0;"/><path d="M219.7188,28.6406 Q219.1406,28.9375 218.5,29.0781 Q217.8594,29.2344 217.1563,29.2344 Q214.6563,29.2344 213.3281,27.5938 Q212.0156,25.9375 212.0156,22.8125 Q212.0156,19.6875 213.3281,18.0313 Q214.6563,16.375 217.1563,16.375 Q217.8594,16.375 218.5,16.5313 Q219.1563,16.6875 219.7188,16.9844 L219.7188,19.7031 Q219.0938,19.125 218.5,18.8594 Q217.9063,18.5781 217.2813,18.5781 Q215.9375,18.5781 215.25,19.6563 Q214.5625,20.7188 214.5625,22.8125 Q214.5625,24.9063 215.25,25.9844 Q215.9375,27.0469 217.2813,27.0469 Q217.9063,27.0469 218.5,26.7813 Q219.0938,26.5 219.7188,25.9219 L219.7188,28.6406 Z " fill="#000000"/><text fill="#000000" font-family="sans-serif" font-size="14" lengthAdjust="spacing" textLength="74" x="237.25" y="27.8467">TrafficLight</text><line style="stroke:#181818;stroke-width:0.5;" x1="139" x2="377" y1="39" y2="39"/><rect fill="none" height="6" style="stroke:#C82930;stroke-width:1.0;" width="6" x="146" y="49.6484"/><text fill="#000000" font-family="sans-serif" font-size="14" lengthAdjust="spacing" textLength="126" x="158" y="55.9951">State currentState</text><rect fill="none" height="6" style="stroke:#C82930;stroke-width:1.0;" width="6" x="146" y="65.9453"/><text fill="#000000" font-family="sans-serif" font-size="14" lengthAdjust="spacing" textLength="135" x="158" y="72.292">State previousState</text><line style="stroke:#181818;stroke-width:0.5;" x1="139" x2="377" y1="79.5938" y2="79.5938"/><ellipse cx="149" cy="93.2422" fill="#84BE84" rx="3" ry="3" style="stroke:#038048;stroke-width:1.0;"/><text fill="#000000" font-family="sans-serif" font-size="14" lengthAdjust="spacing" textLength="214" x="158" y="96.5889">setState(State newState) : void</text><ellipse cx="149" cy="109.5391" fill="#84BE84" rx="3" ry="3" style="stroke:#038048;stroke-width:1.0;"/><text fill="#000000" font-family="sans-serif" font-size="14" lengthAdjust="spacing" textLength="177" x="158" y="112.8857">getPreviousState() : State</text><ellipse cx="149" cy="125.8359" fill="#84BE84" rx="3" ry="3" style="stroke:#038048;stroke-width:1.0;"/><text fill="#000000" font-family="sans-serif" font-size="14" lengthAdjust="spacing" textLength="170" x="158" y="129.1826">getCurrentState() : State</text><ellipse cx="149" cy="142.1328" fill="#84BE84" rx="3" ry="3" style="stroke:#038048;stroke-width:1.0;"/><text fill="#000000" font-family="sans-serif" font-size="14" lengthAdjust="spacing" textLength="117" x="158" y="145.4795">nextState() : void</text><ellipse cx="149" cy="158.4297" fill="#84BE84" rx="3" ry="3" style="stroke:#038048;stroke-width:1.0;"/><text fill="#000000" font-family="sans-serif" font-size="14" lengthAdjust="spacing" textLength="118" x="158" y="161.7764">printState() : void</text></g><!--class State--><g id="elem_State"><rect codeLine="10" fill="#F1F1F1" height="80.5938" id="State" rx="2.5" ry="2.5" style="stroke:#181818;stroke-width:0.5;" width="267" x="487.5" y="47.5"/><ellipse cx="598.75" cy="63.5" fill="#B4A7E5" rx="11" ry="11" style="stroke:#181818;stroke-width:1.0;"/><path d="M594.6719,59.2656 L594.6719,57.1094 L602.0625,57.1094 L602.0625,59.2656 L599.5938,59.2656 L599.5938,67.3438 L602.0625,67.3438 L602.0625,69.5 L594.6719,69.5 L594.6719,67.3438 L597.1406,67.3438 L597.1406,59.2656 L594.6719,59.2656 Z " fill="#000000"/><text fill="#000000" font-family="sans-serif" font-size="14" font-style="italic" lengthAdjust="spacing" textLength="36" x="619.25" y="68.3467">State</text><line style="stroke:#181818;stroke-width:0.5;" x1="488.5" x2="753.5" y1="79.5" y2="79.5"/><line style="stroke:#181818;stroke-width:0.5;" x1="488.5" x2="753.5" y1="87.5" y2="87.5"/><text fill="#000000" font-family="sans-serif" font-size="14" lengthAdjust="spacing" textLength="255" x="493.5" y="104.4951">void nextstate(TrafficLight trafficLight)</text><text fill="#000000" font-family="sans-serif" font-size="14" lengthAdjust="spacing" textLength="109" x="493.5" y="120.792">void printState()</text></g><!--class StateRed--><g id="elem_StateRed"><rect codeLine="15" fill="#F1F1F1" height="48" id="StateRed" rx="2.5" ry="2.5" style="stroke:#181818;stroke-width:0.5;" width="96" x="434" y="230"/><ellipse cx="449" cy="246" fill="#ADD1B2" rx="11" ry="11" style="stroke:#181818;stroke-width:1.0;"/><path d="M451.9688,251.6406 Q451.3906,251.9375 450.75,252.0781 Q450.1094,252.2344 449.4063,252.2344 Q446.9063,252.2344 445.5781,250.5938 Q444.2656,248.9375 444.2656,245.8125 Q444.2656,242.6875 445.5781,241.0313 Q446.9063,239.375 449.4063,239.375 Q450.1094,239.375 450.75,239.5313 Q451.4063,239.6875 451.9688,239.9844 L451.9688,242.7031 Q451.3438,242.125 450.75,241.8594 Q450.1563,241.5781 449.5313,241.5781 Q448.1875,241.5781 447.5,242.6563 Q446.8125,243.7188 446.8125,245.8125 Q446.8125,247.9063 447.5,248.9844 Q448.1875,250.0469 449.5313,250.0469 Q450.1563,250.0469 450.75,249.7813 Q451.3438,249.5 451.9688,248.9219 L451.9688,251.6406 Z " fill="#000000"/><text fill="#000000" font-family="sans-serif" font-size="14" lengthAdjust="spacing" textLength="64" x="463" y="250.8467">StateRed</text><line style="stroke:#181818;stroke-width:0.5;" x1="435" x2="529" y1="262" y2="262"/><line style="stroke:#181818;stroke-width:0.5;" x1="435" x2="529" y1="270" y2="270"/></g><!--class StateYellow--><g id="elem_StateYellow"><rect codeLine="16" fill="#F1F1F1" height="48" id="StateYellow" rx="2.5" ry="2.5" style="stroke:#181818;stroke-width:0.5;" width="112" x="565" y="230"/><ellipse cx="580" cy="246" fill="#ADD1B2" rx="11" ry="11" style="stroke:#181818;stroke-width:1.0;"/><path d="M582.9688,251.6406 Q582.3906,251.9375 581.75,252.0781 Q581.1094,252.2344 580.4063,252.2344 Q577.9063,252.2344 576.5781,250.5938 Q575.2656,248.9375 575.2656,245.8125 Q575.2656,242.6875 576.5781,241.0313 Q577.9063,239.375 580.4063,239.375 Q581.1094,239.375 581.75,239.5313 Q582.4063,239.6875 582.9688,239.9844 L582.9688,242.7031 Q582.3438,242.125 581.75,241.8594 Q581.1563,241.5781 580.5313,241.5781 Q579.1875,241.5781 578.5,242.6563 Q577.8125,243.7188 577.8125,245.8125 Q577.8125,247.9063 578.5,248.9844 Q579.1875,250.0469 580.5313,250.0469 Q581.1563,250.0469 581.75,249.7813 Q582.3438,249.5 582.9688,248.9219 L582.9688,251.6406 Z " fill="#000000"/><text fill="#000000" font-family="sans-serif" font-size="14" lengthAdjust="spacing" textLength="80" x="594" y="250.8467">StateYellow</text><line style="stroke:#181818;stroke-width:0.5;" x1="566" x2="676" y1="262" y2="262"/><line style="stroke:#181818;stroke-width:0.5;" x1="566" x2="676" y1="270" y2="270"/></g><!--class StateGreen--><g id="elem_StateGreen"><rect codeLine="17" fill="#F1F1F1" height="48" id="StateGreen" rx="2.5" ry="2.5" style="stroke:#181818;stroke-width:0.5;" width="111" x="712.5" y="230"/><ellipse cx="727.5" cy="246" fill="#ADD1B2" rx="11" ry="11" style="stroke:#181818;stroke-width:1.0;"/><path d="M730.4688,251.6406 Q729.8906,251.9375 729.25,252.0781 Q728.6094,252.2344 727.9063,252.2344 Q725.4063,252.2344 724.0781,250.5938 Q722.7656,248.9375 722.7656,245.8125 Q722.7656,242.6875 724.0781,241.0313 Q725.4063,239.375 727.9063,239.375 Q728.6094,239.375 729.25,239.5313 Q729.9063,239.6875 730.4688,239.9844 L730.4688,242.7031 Q729.8438,242.125 729.25,241.8594 Q728.6563,241.5781 728.0313,241.5781 Q726.6875,241.5781 726,242.6563 Q725.3125,243.7188 725.3125,245.8125 Q725.3125,247.9063 726,248.9844 Q726.6875,250.0469 728.0313,250.0469 Q728.6563,250.0469 729.25,249.7813 Q729.8438,249.5 730.4688,248.9219 L730.4688,251.6406 Z " fill="#000000"/><text fill="#000000" font-family="sans-serif" font-size="14" lengthAdjust="spacing" textLength="79" x="741.5" y="250.8467">StateGreen</text><line style="stroke:#181818;stroke-width:0.5;" x1="713.5" x2="822.5" y1="262" y2="262"/><line style="stroke:#181818;stroke-width:0.5;" x1="713.5" x2="822.5" y1="270" y2="270"/></g><!--class Main--><g id="elem_Main"><rect codeLine="18" fill="#F1F1F1" height="48" id="Main" rx="2.5" ry="2.5" style="stroke:#181818;stroke-width:0.5;" width="64" x="7" y="64"/><ellipse cx="22" cy="80" fill="#ADD1B2" rx="11" ry="11" style="stroke:#181818;stroke-width:1.0;"/><path d="M24.9688,85.6406 Q24.3906,85.9375 23.75,86.0781 Q23.1094,86.2344 22.4063,86.2344 Q19.9063,86.2344 18.5781,84.5938 Q17.2656,82.9375 17.2656,79.8125 Q17.2656,76.6875 18.5781,75.0313 Q19.9063,73.375 22.4063,73.375 Q23.1094,73.375 23.75,73.5313 Q24.4063,73.6875 24.9688,73.9844 L24.9688,76.7031 Q24.3438,76.125 23.75,75.8594 Q23.1563,75.5781 22.5313,75.5781 Q21.1875,75.5781 20.5,76.6563 Q19.8125,77.7188 19.8125,79.8125 Q19.8125,81.9063 20.5,82.9844 Q21.1875,84.0469 22.5313,84.0469 Q23.1563,84.0469 23.75,83.7813 Q24.3438,83.5 24.9688,82.9219 L24.9688,85.6406 Z " fill="#000000"/><text fill="#000000" font-family="sans-serif" font-size="14" lengthAdjust="spacing" textLength="32" x="36" y="84.8467">Main</text><line style="stroke:#181818;stroke-width:0.5;" x1="8" x2="70" y1="96" y2="96"/><line style="stroke:#181818;stroke-width:0.5;" x1="8" x2="70" y1="104" y2="104"/></g><!--link TrafficLight to State--><g id="link_TrafficLight_State"><path codeLine="14" d="M378.12,88 C413.11,88 445.55,88 481.33,88 " fill="none" id="TrafficLight-to-State" style="stroke:#181818;stroke-width:1.0;"/><polygon fill="#181818" points="487.33,88,478.33,84,482.33,88,478.33,92,487.33,88" style="stroke:#181818;stroke-width:1.0;"/><text fill="#000000" font-family="sans-serif" font-size="13" lengthAdjust="spacing" textLength="73" x="396.25" y="81.0669">has-a state</text></g><!--reverse link State to StateRed--><g id="link_State_StateRed"><path d="M575.7127,142.4322 C548.8827,174.0922 523.86,203.61 501.62,229.86 " fill="none" id="State-backto-StateRed" style="stroke:#181818;stroke-width:1.0;stroke-dasharray:7.0,7.0;"/><polygon fill="none" points="587.35,128.7,571.1353,138.5531,580.2901,146.3113,587.35,128.7" style="stroke:#181818;stroke-width:1.0;"/></g><!--reverse link State to StateYellow--><g id="link_State_StateYellow"><path d="M621,146.7 C621,178.36 621,203.61 621,229.86 " fill="none" id="State-backto-StateYellow" style="stroke:#181818;stroke-width:1.0;stroke-dasharray:7.0,7.0;"/><polygon fill="none" points="621,128.7,615,146.7,627,146.7,621,128.7" style="stroke:#181818;stroke-width:1.0;"/></g><!--reverse link State to StateGreen--><g id="link_State_StateGreen"><path d="M668.5947,142.1033 C696.9747,173.7633 723.73,203.61 747.26,229.86 " fill="none" id="State-backto-StateGreen" style="stroke:#181818;stroke-width:1.0;stroke-dasharray:7.0,7.0;"/><polygon fill="none" points="656.58,128.7,664.1269,146.1082,673.0624,138.0984,656.58,128.7" style="stroke:#181818;stroke-width:1.0;"/></g><!--link Main to TrafficLight--><g id="link_Main_TrafficLight"><path codeLine="19" d="M71.31,88 C89.4,88 107.2,88 131.73,88 " fill="none" id="Main-to-TrafficLight" style="stroke:#181818;stroke-width:1.0;"/><polygon fill="#181818" points="137.73,88,128.73,84,132.73,88,128.73,92,137.73,88" style="stroke:#181818;stroke-width:1.0;"/><text fill="#000000" font-family="sans-serif" font-size="13" lengthAdjust="spacing" textLength="30" x="89.5" y="81.0669">uses</text></g><!--SRC=[VP2n3i8W48PtdkBYrCRq1JguEBXeOjJ5aT1hIq9f0xGrCRwxG4aA6cK0xhwVdxjZWceDDqNhchCZRre3Jm9s5N0rr22mKIcKnWS961HEl1_rIhQWSH5cYqJYx2yvb33rl0gg1iqvVfmv7jjOmJxwzejBV4GaSXuKbv_aHMmELKqPXigN1XtqJjhhan6OACXNTMnlVPCdXN97iGj_bB1fgIueUFSDONxEdbsm0juD0ZlROCZ5_8v2zFDVoK4Xob-A4-MIk6sjAQcqX56ZVWC0]--></g></svg>