<?xml version="1.0" encoding="us-ascii" standalone="no"?><svg xmlns="http://www.w3.org/2000/svg" xmlns:xlink="http://www.w3.org/1999/xlink" contentStyleType="text/css" height="285px" preserveAspectRatio="none" style="width:609px;height:285px;background:#FFFFFF;" version="1.1" viewBox="0 0 609 285" width="609px" zoomAndPan="magnify"><defs/><g><!--class Tree--><g id="elem_Tree"><rect codeLine="1" fill="#F1F1F1" height="113.1875" id="Tree" rx="2.5" ry="2.5" style="stroke:#181818;stroke-width:0.5;" width="135" x="61.5" y="165"/><ellipse cx="108.75" cy="181" fill="#ADD1B2" rx="11" ry="11" style="stroke:#181818;stroke-width:1.0;"/><path d="M111.7188,186.6406 Q111.1406,186.9375 110.5,187.0781 Q109.8594,187.2344 109.1563,187.2344 Q106.6563,187.2344 105.3281,185.5938 Q104.0156,183.9375 104.0156,180.8125 Q104.0156,177.6875 105.3281,176.0313 Q106.6563,174.375 109.1563,174.375 Q109.8594,174.375 110.5,174.5313 Q111.1563,174.6875 111.7188,174.9844 L111.7188,177.7031 Q111.0938,177.125 110.5,176.8594 Q109.9063,176.5781 109.2813,176.5781 Q107.9375,176.5781 107.25,177.6563 Q106.5625,178.7188 106.5625,180.8125 Q106.5625,182.9063 107.25,183.9844 Q107.9375,185.0469 109.2813,185.0469 Q109.9063,185.0469 110.5,184.7813 Q111.0938,184.5 111.7188,183.9219 L111.7188,186.6406 Z " fill="#000000"/><text fill="#000000" font-family="sans-serif" font-size="14" lengthAdjust="spacing" textLength="32" x="129.25" y="185.8467">Tree</text><line style="stroke:#181818;stroke-width:0.5;" x1="62.5" x2="195.5" y1="197" y2="197"/><rect fill="none" height="6" style="stroke:#C82930;stroke-width:1.0;" width="6" x="69.5" y="207.6484"/><text fill="#000000" font-family="sans-serif" font-size="14" lengthAdjust="spacing" textLength="37" x="81.5" y="213.9951">x : int</text><rect fill="none" height="6" style="stroke:#C82930;stroke-width:1.0;" width="6" x="69.5" y="223.9453"/><text fill="#000000" font-family="sans-serif" font-size="14" lengthAdjust="spacing" textLength="37" x="81.5" y="230.292">y : int</text><rect fill="none" height="6" style="stroke:#C82930;stroke-width:1.0;" width="6" x="69.5" y="240.2422"/><text fill="#000000" font-family="sans-serif" font-size="14" lengthAdjust="spacing" textLength="109" x="81.5" y="246.5889">type : TreeType</text><line style="stroke:#181818;stroke-width:0.5;" x1="62.5" x2="195.5" y1="253.8906" y2="253.8906"/><ellipse cx="72.5" cy="267.5391" fill="#84BE84" rx="3" ry="3" style="stroke:#038048;stroke-width:1.0;"/><text fill="#000000" font-family="sans-serif" font-size="14" lengthAdjust="spacing" textLength="75" x="81.5" y="270.8857">void draw()</text></g><!--class TreeType--><g id="elem_TreeType"><rect codeLine="7" fill="#F1F1F1" height="113.1875" id="TreeType" rx="2.5" ry="2.5" style="stroke:#181818;stroke-width:0.5;" width="128" x="291" y="165"/><ellipse cx="319.5" cy="181" fill="#ADD1B2" rx="11" ry="11" style="stroke:#181818;stroke-width:1.0;"/><path d="M322.4688,186.6406 Q321.8906,186.9375 321.25,187.0781 Q320.6094,187.2344 319.9063,187.2344 Q317.4063,187.2344 316.0781,185.5938 Q314.7656,183.9375 314.7656,180.8125 Q314.7656,177.6875 316.0781,176.0313 Q317.4063,174.375 319.9063,174.375 Q320.6094,174.375 321.25,174.5313 Q321.9063,174.6875 322.4688,174.9844 L322.4688,177.7031 Q321.8438,177.125 321.25,176.8594 Q320.6563,176.5781 320.0313,176.5781 Q318.6875,176.5781 318,177.6563 Q317.3125,178.7188 317.3125,180.8125 Q317.3125,182.9063 318,183.9844 Q318.6875,185.0469 320.0313,185.0469 Q320.6563,185.0469 321.25,184.7813 Q321.8438,184.5 322.4688,183.9219 L322.4688,186.6406 Z " fill="#000000"/><text fill="#000000" font-family="sans-serif" font-size="14" lengthAdjust="spacing" textLength="66" x="336.5" y="185.8467">TreeType</text><line style="stroke:#181818;stroke-width:0.5;" x1="292" x2="418" y1="197" y2="197"/><rect fill="none" height="6" style="stroke:#C82930;stroke-width:1.0;" width="6" x="299" y="207.6484"/><text fill="#000000" font-family="sans-serif" font-size="14" lengthAdjust="spacing" textLength="92" x="311" y="213.9951">name : String</text><rect fill="none" height="6" style="stroke:#C82930;stroke-width:1.0;" width="6" x="299" y="223.9453"/><text fill="#000000" font-family="sans-serif" font-size="14" lengthAdjust="spacing" textLength="87" x="311" y="230.292">color : String</text><rect fill="none" height="6" style="stroke:#C82930;stroke-width:1.0;" width="6" x="299" y="240.2422"/><text fill="#000000" font-family="sans-serif" font-size="14" lengthAdjust="spacing" textLength="102" x="311" y="246.5889">texture : String</text><line style="stroke:#181818;stroke-width:0.5;" x1="292" x2="418" y1="253.8906" y2="253.8906"/><ellipse cx="302" cy="267.5391" fill="#84BE84" rx="3" ry="3" style="stroke:#038048;stroke-width:1.0;"/><text fill="#000000" font-family="sans-serif" font-size="14" lengthAdjust="spacing" textLength="75" x="311" y="270.8857">void draw()</text></g><!--class TreeFactory--><g id="elem_TreeFactory"><rect codeLine="13" fill="#F1F1F1" height="80.5938" id="TreeFactory" rx="2.5" ry="2.5" style="stroke:#181818;stroke-width:0.5;" width="465" x="137.5" y="7"/><ellipse cx="324.75" cy="23" fill="#ADD1B2" rx="11" ry="11" style="stroke:#181818;stroke-width:1.0;"/><path d="M327.7188,28.6406 Q327.1406,28.9375 326.5,29.0781 Q325.8594,29.2344 325.1563,29.2344 Q322.6563,29.2344 321.3281,27.5938 Q320.0156,25.9375 320.0156,22.8125 Q320.0156,19.6875 321.3281,18.0313 Q322.6563,16.375 325.1563,16.375 Q325.8594,16.375 326.5,16.5313 Q327.1563,16.6875 327.7188,16.9844 L327.7188,19.7031 Q327.0938,19.125 326.5,18.8594 Q325.9063,18.5781 325.2813,18.5781 Q323.9375,18.5781 323.25,19.6563 Q322.5625,20.7188 322.5625,22.8125 Q322.5625,24.9063 323.25,25.9844 Q323.9375,27.0469 325.2813,27.0469 Q325.9063,27.0469 326.5,26.7813 Q327.0938,26.5 327.7188,25.9219 L327.7188,28.6406 Z " fill="#000000"/><text fill="#000000" font-family="sans-serif" font-size="14" lengthAdjust="spacing" textLength="82" x="345.25" y="27.8467">TreeFactory</text><line style="stroke:#181818;stroke-width:0.5;" x1="138.5" x2="601.5" y1="39" y2="39"/><rect fill="none" height="6" style="stroke:#C82930;stroke-width:1.0;" width="6" x="145.5" y="49.6484"/><text fill="#000000" font-family="sans-serif" font-size="14" lengthAdjust="spacing" text-decoration="underline" textLength="250" x="157.5" y="55.9951">treeTypes : Map&lt;String, TreeType&gt;</text><line style="stroke:#181818;stroke-width:0.5;" x1="138.5" x2="601.5" y1="63.2969" y2="63.2969"/><ellipse cx="148.5" cy="76.9453" fill="#84BE84" rx="3" ry="3" style="stroke:#038048;stroke-width:1.0;"/><text fill="#000000" font-family="sans-serif" font-size="14" lengthAdjust="spacing" text-decoration="underline" textLength="439" x="157.5" y="80.292">TreeType getTreeType(String name, String color, String texture)</text></g><!--class Main--><g id="elem_Main"><rect codeLine="17" fill="#F1F1F1" height="48" id="Main" rx="2.5" ry="2.5" style="stroke:#181818;stroke-width:0.5;" width="64" x="7" y="23.5"/><ellipse cx="22" cy="39.5" fill="#ADD1B2" rx="11" ry="11" style="stroke:#181818;stroke-width:1.0;"/><path d="M24.9688,45.1406 Q24.3906,45.4375 23.75,45.5781 Q23.1094,45.7344 22.4063,45.7344 Q19.9063,45.7344 18.5781,44.0938 Q17.2656,42.4375 17.2656,39.3125 Q17.2656,36.1875 18.5781,34.5313 Q19.9063,32.875 22.4063,32.875 Q23.1094,32.875 23.75,33.0313 Q24.4063,33.1875 24.9688,33.4844 L24.9688,36.2031 Q24.3438,35.625 23.75,35.3594 Q23.1563,35.0781 22.5313,35.0781 Q21.1875,35.0781 20.5,36.1563 Q19.8125,37.2188 19.8125,39.3125 Q19.8125,41.4063 20.5,42.4844 Q21.1875,43.5469 22.5313,43.5469 Q23.1563,43.5469 23.75,43.2813 Q24.3438,43 24.9688,42.4219 L24.9688,45.1406 Z " fill="#000000"/><text fill="#000000" font-family="sans-serif" font-size="14" lengthAdjust="spacing" textLength="32" x="36" y="44.3467">Main</text><line style="stroke:#181818;stroke-width:0.5;" x1="8" x2="70" y1="55.5" y2="55.5"/><line style="stroke:#181818;stroke-width:0.5;" x1="8" x2="70" y1="63.5" y2="63.5"/></g><!--link Main to Tree--><g id="link_Main_Tree"><path codeLine="18" d="M56.7009,82.3337 C69.1209,106.0837 80.5568,127.9346 97.0768,159.4846 " fill="none" id="Main-Tree" style="stroke:#181818;stroke-width:1.0;"/><polygon fill="none" points="51.14,71.7,50.3759,78.8705,56.7009,82.3337,57.465,75.1632,51.14,71.7" style="stroke:#181818;stroke-width:1.0;"/><polygon fill="#181818" points="99.86,164.8,99.2288,154.9714,97.5406,160.3705,92.1416,158.6824,99.86,164.8" style="stroke:#181818;stroke-width:1.0;"/><text fill="#000000" font-family="sans-serif" font-size="13" lengthAdjust="spacing" textLength="48" x="85" y="131.0669">creates</text></g><!--link Main to TreeFactory--><g id="link_Main_TreeFactory"><path codeLine="19" d="M71.04,47.5 C88.4,47.5 105.56,47.5 131.34,47.5 " fill="none" id="Main-to-TreeFactory" style="stroke:#181818;stroke-width:1.0;"/><polygon fill="#181818" points="137.34,47.5,128.34,43.5,132.34,47.5,128.34,51.5,137.34,47.5" style="stroke:#181818;stroke-width:1.0;"/><text fill="#000000" font-family="sans-serif" font-size="13" lengthAdjust="spacing" textLength="30" x="89.25" y="40.5669">uses</text></g><!--link Tree to TreeType--><g id="link_Tree_TreeType"><path codeLine="20" d="M196.5,221.5 C226.42,221.5 255.44,221.5 284.94,221.5 " fill="none" id="Tree-to-TreeType" style="stroke:#181818;stroke-width:1.0;"/><polygon fill="#181818" points="290.94,221.5,281.94,217.5,285.94,221.5,281.94,225.5,290.94,221.5" style="stroke:#181818;stroke-width:1.0;"/><text fill="#000000" font-family="sans-serif" font-size="13" lengthAdjust="spacing" textLength="43" x="222.25" y="214.5669">shares</text></g><!--link TreeFactory to TreeType--><g id="link_TreeFactory_TreeType"><path codeLine="21" d="M365.4786,100.3447 C363.4986,123.0747 362.5529,133.9628 360.3729,158.8828 " fill="none" id="TreeFactory-TreeType" style="stroke:#181818;stroke-width:1.0;"/><polygon fill="none" points="366.52,88.39,362.0144,94.0202,365.4786,100.3447,369.9842,94.7145,366.52,88.39" style="stroke:#181818;stroke-width:1.0;"/><polygon fill="#181818" points="359.85,164.86,364.6191,156.2428,360.2857,159.879,356.6495,155.5457,359.85,164.86" style="stroke:#181818;stroke-width:1.0;"/><text fill="#000000" font-family="sans-serif" font-size="13" lengthAdjust="spacing" textLength="97" x="364" y="131.0669">creates/caches</text></g><!--SRC=[TL313e8m3Btp5JrgX7WdXgCtJl83pLnW2JBI5PKO_zt1oWWaxh2ihw_llLMrw1nKf3Ly4l0dWpVaO3gMQjnKFFRQ0nE_yiyPFS7JcZlS2L-7O_9DL9ISA56smySqUcCoNIsOigsbFSZwpGFjkFzDhgZOqXXzM8mTV1mZ6_NrIYNsbw2MncI52Az95twjUG4FOMfEdqgW43jMadTDLQBfaka2csL5M6uEYZIoTg6HaQaRbkRoWnm6vmapVqEemjPTWoJzPIGQ24LCpWfLezqF]--></g></svg>