<?xml version="1.0" encoding="us-ascii" standalone="no"?><svg xmlns="http://www.w3.org/2000/svg" xmlns:xlink="http://www.w3.org/1999/xlink" contentStyleType="text/css" height="313px" preserveAspectRatio="none" style="width:902px;height:313px;background:#FFFFFF;" version="1.1" viewBox="0 0 902 313" width="902px" zoomAndPan="magnify"><defs/><g><!--class Character--><g id="elem_Character"><rect codeLine="1" fill="#F1F1F1" height="64.2969" id="Character" rx="2.5" ry="2.5" style="stroke:#181818;stroke-width:0.5;" width="109" x="590" y="15.5"/><ellipse cx="609.5" cy="31.5" fill="#A9DCDF" rx="11" ry="11" style="stroke:#181818;stroke-width:1.0;"/><path d="M609.6094,26.8438 L608.4531,31.9219 L610.7813,31.9219 L609.6094,26.8438 Z M608.125,24.6094 L611.1094,24.6094 L614.4688,37 L612.0156,37 L611.25,33.9375 L607.9688,33.9375 L607.2188,37 L604.7813,37 L608.125,24.6094 Z " fill="#000000"/><text fill="#000000" font-family="sans-serif" font-size="14" font-style="italic" lengthAdjust="spacing" textLength="67" x="624.5" y="36.3467">Character</text><line style="stroke:#181818;stroke-width:0.5;" x1="591" x2="698" y1="47.5" y2="47.5"/><polygon fill="none" points="601,57.1484,597,63.1484,605,63.1484" style="stroke:#1963A0;stroke-width:1.0;"/><text fill="#000000" font-family="sans-serif" font-size="14" lengthAdjust="spacing" textLength="83" x="610" y="64.4951">int lifepoints</text><line style="stroke:#181818;stroke-width:0.5;" x1="591" x2="698" y1="71.7969" y2="71.7969"/></g><!--class Soldier--><g id="elem_Soldier"><rect codeLine="4" fill="#F1F1F1" height="48" id="Soldier" rx="2.5" ry="2.5" style="stroke:#181818;stroke-width:0.5;" width="79" x="793" y="149"/><ellipse cx="808" cy="165" fill="#ADD1B2" rx="11" ry="11" style="stroke:#181818;stroke-width:1.0;"/><path d="M810.9688,170.6406 Q810.3906,170.9375 809.75,171.0781 Q809.1094,171.2344 808.4063,171.2344 Q805.9063,171.2344 804.5781,169.5938 Q803.2656,167.9375 803.2656,164.8125 Q803.2656,161.6875 804.5781,160.0313 Q805.9063,158.375 808.4063,158.375 Q809.1094,158.375 809.75,158.5313 Q810.4063,158.6875 810.9688,158.9844 L810.9688,161.7031 Q810.3438,161.125 809.75,160.8594 Q809.1563,160.5781 808.5313,160.5781 Q807.1875,160.5781 806.5,161.6563 Q805.8125,162.7188 805.8125,164.8125 Q805.8125,166.9063 806.5,167.9844 Q807.1875,169.0469 808.5313,169.0469 Q809.1563,169.0469 809.75,168.7813 Q810.3438,168.5 810.9688,167.9219 L810.9688,170.6406 Z " fill="#000000"/><text fill="#000000" font-family="sans-serif" font-size="14" lengthAdjust="spacing" textLength="47" x="822" y="169.8467">Soldier</text><line style="stroke:#181818;stroke-width:0.5;" x1="794" x2="871" y1="181" y2="181"/><line style="stroke:#181818;stroke-width:0.5;" x1="794" x2="871" y1="189" y2="189"/></g><!--class Mage--><g id="elem_Mage"><rect codeLine="5" fill="#F1F1F1" height="48" id="Mage" rx="2.5" ry="2.5" style="stroke:#181818;stroke-width:0.5;" width="70" x="215.5" y="149"/><ellipse cx="230.5" cy="165" fill="#ADD1B2" rx="11" ry="11" style="stroke:#181818;stroke-width:1.0;"/><path d="M233.4688,170.6406 Q232.8906,170.9375 232.25,171.0781 Q231.6094,171.2344 230.9063,171.2344 Q228.4063,171.2344 227.0781,169.5938 Q225.7656,167.9375 225.7656,164.8125 Q225.7656,161.6875 227.0781,160.0313 Q228.4063,158.375 230.9063,158.375 Q231.6094,158.375 232.25,158.5313 Q232.9063,158.6875 233.4688,158.9844 L233.4688,161.7031 Q232.8438,161.125 232.25,160.8594 Q231.6563,160.5781 231.0313,160.5781 Q229.6875,160.5781 229,161.6563 Q228.3125,162.7188 228.3125,164.8125 Q228.3125,166.9063 229,167.9844 Q229.6875,169.0469 231.0313,169.0469 Q231.6563,169.0469 232.25,168.7813 Q232.8438,168.5 233.4688,167.9219 L233.4688,170.6406 Z " fill="#000000"/><text fill="#000000" font-family="sans-serif" font-size="14" lengthAdjust="spacing" textLength="38" x="244.5" y="169.8467">Mage</text><line style="stroke:#181818;stroke-width:0.5;" x1="216.5" x2="284.5" y1="181" y2="181"/><line style="stroke:#181818;stroke-width:0.5;" x1="216.5" x2="284.5" y1="189" y2="189"/></g><!--class SoldierHuman--><g id="elem_SoldierHuman"><rect codeLine="6" fill="#F1F1F1" height="48" id="SoldierHuman" rx="2.5" ry="2.5" style="stroke:#181818;stroke-width:0.5;" width="128" x="614.5" y="258"/><ellipse cx="629.5" cy="274" fill="#ADD1B2" rx="11" ry="11" style="stroke:#181818;stroke-width:1.0;"/><path d="M632.4688,279.6406 Q631.8906,279.9375 631.25,280.0781 Q630.6094,280.2344 629.9063,280.2344 Q627.4063,280.2344 626.0781,278.5938 Q624.7656,276.9375 624.7656,273.8125 Q624.7656,270.6875 626.0781,269.0313 Q627.4063,267.375 629.9063,267.375 Q630.6094,267.375 631.25,267.5313 Q631.9063,267.6875 632.4688,267.9844 L632.4688,270.7031 Q631.8438,270.125 631.25,269.8594 Q630.6563,269.5781 630.0313,269.5781 Q628.6875,269.5781 628,270.6563 Q627.3125,271.7188 627.3125,273.8125 Q627.3125,275.9063 628,276.9844 Q628.6875,278.0469 630.0313,278.0469 Q630.6563,278.0469 631.25,277.7813 Q631.8438,277.5 632.4688,276.9219 L632.4688,279.6406 Z " fill="#000000"/><text fill="#000000" font-family="sans-serif" font-size="14" lengthAdjust="spacing" textLength="96" x="643.5" y="278.8467">SoldierHuman</text><line style="stroke:#181818;stroke-width:0.5;" x1="615.5" x2="741.5" y1="290" y2="290"/><line style="stroke:#181818;stroke-width:0.5;" x1="615.5" x2="741.5" y1="298" y2="298"/></g><!--class SoldierElf--><g id="elem_SoldierElf"><rect codeLine="7" fill="#F1F1F1" height="48" id="SoldierElf" rx="2.5" ry="2.5" style="stroke:#181818;stroke-width:0.5;" width="95" x="484" y="258"/><ellipse cx="499" cy="274" fill="#ADD1B2" rx="11" ry="11" style="stroke:#181818;stroke-width:1.0;"/><path d="M501.9688,279.6406 Q501.3906,279.9375 500.75,280.0781 Q500.1094,280.2344 499.4063,280.2344 Q496.9063,280.2344 495.5781,278.5938 Q494.2656,276.9375 494.2656,273.8125 Q494.2656,270.6875 495.5781,269.0313 Q496.9063,267.375 499.4063,267.375 Q500.1094,267.375 500.75,267.5313 Q501.4063,267.6875 501.9688,267.9844 L501.9688,270.7031 Q501.3438,270.125 500.75,269.8594 Q500.1563,269.5781 499.5313,269.5781 Q498.1875,269.5781 497.5,270.6563 Q496.8125,271.7188 496.8125,273.8125 Q496.8125,275.9063 497.5,276.9844 Q498.1875,278.0469 499.5313,278.0469 Q500.1563,278.0469 500.75,277.7813 Q501.3438,277.5 501.9688,276.9219 L501.9688,279.6406 Z " fill="#000000"/><text fill="#000000" font-family="sans-serif" font-size="14" lengthAdjust="spacing" textLength="63" x="513" y="278.8467">SoldierElf</text><line style="stroke:#181818;stroke-width:0.5;" x1="485" x2="578" y1="290" y2="290"/><line style="stroke:#181818;stroke-width:0.5;" x1="485" x2="578" y1="298" y2="298"/></g><!--class SoldierDwarf--><g id="elem_SoldierDwarf"><rect codeLine="8" fill="#F1F1F1" height="48" id="SoldierDwarf" rx="2.5" ry="2.5" style="stroke:#181818;stroke-width:0.5;" width="118" x="777.5" y="258"/><ellipse cx="792.5" cy="274" fill="#ADD1B2" rx="11" ry="11" style="stroke:#181818;stroke-width:1.0;"/><path d="M795.4688,279.6406 Q794.8906,279.9375 794.25,280.0781 Q793.6094,280.2344 792.9063,280.2344 Q790.4063,280.2344 789.0781,278.5938 Q787.7656,276.9375 787.7656,273.8125 Q787.7656,270.6875 789.0781,269.0313 Q790.4063,267.375 792.9063,267.375 Q793.6094,267.375 794.25,267.5313 Q794.9063,267.6875 795.4688,267.9844 L795.4688,270.7031 Q794.8438,270.125 794.25,269.8594 Q793.6563,269.5781 793.0313,269.5781 Q791.6875,269.5781 791,270.6563 Q790.3125,271.7188 790.3125,273.8125 Q790.3125,275.9063 791,276.9844 Q791.6875,278.0469 793.0313,278.0469 Q793.6563,278.0469 794.25,277.7813 Q794.8438,277.5 795.4688,276.9219 L795.4688,279.6406 Z " fill="#000000"/><text fill="#000000" font-family="sans-serif" font-size="14" lengthAdjust="spacing" textLength="86" x="806.5" y="278.8467">SoldierDwarf</text><line style="stroke:#181818;stroke-width:0.5;" x1="778.5" x2="894.5" y1="290" y2="290"/><line style="stroke:#181818;stroke-width:0.5;" x1="778.5" x2="894.5" y1="298" y2="298"/></g><!--class MageHuman--><g id="elem_MageHuman"><rect codeLine="9" fill="#F1F1F1" height="48" id="MageHuman" rx="2.5" ry="2.5" style="stroke:#181818;stroke-width:0.5;" width="119" x="186" y="258"/><ellipse cx="201" cy="274" fill="#ADD1B2" rx="11" ry="11" style="stroke:#181818;stroke-width:1.0;"/><path d="M203.9688,279.6406 Q203.3906,279.9375 202.75,280.0781 Q202.1094,280.2344 201.4063,280.2344 Q198.9063,280.2344 197.5781,278.5938 Q196.2656,276.9375 196.2656,273.8125 Q196.2656,270.6875 197.5781,269.0313 Q198.9063,267.375 201.4063,267.375 Q202.1094,267.375 202.75,267.5313 Q203.4063,267.6875 203.9688,267.9844 L203.9688,270.7031 Q203.3438,270.125 202.75,269.8594 Q202.1563,269.5781 201.5313,269.5781 Q200.1875,269.5781 199.5,270.6563 Q198.8125,271.7188 198.8125,273.8125 Q198.8125,275.9063 199.5,276.9844 Q200.1875,278.0469 201.5313,278.0469 Q202.1563,278.0469 202.75,277.7813 Q203.3438,277.5 203.9688,276.9219 L203.9688,279.6406 Z " fill="#000000"/><text fill="#000000" font-family="sans-serif" font-size="14" lengthAdjust="spacing" textLength="87" x="215" y="278.8467">MageHuman</text><line style="stroke:#181818;stroke-width:0.5;" x1="187" x2="304" y1="290" y2="290"/><line style="stroke:#181818;stroke-width:0.5;" x1="187" x2="304" y1="298" y2="298"/></g><!--class MageElf--><g id="elem_MageElf"><rect codeLine="10" fill="#F1F1F1" height="48" id="MageElf" rx="2.5" ry="2.5" style="stroke:#181818;stroke-width:0.5;" width="86" x="60.5" y="258"/><ellipse cx="75.5" cy="274" fill="#ADD1B2" rx="11" ry="11" style="stroke:#181818;stroke-width:1.0;"/><path d="M78.4688,279.6406 Q77.8906,279.9375 77.25,280.0781 Q76.6094,280.2344 75.9063,280.2344 Q73.4063,280.2344 72.0781,278.5938 Q70.7656,276.9375 70.7656,273.8125 Q70.7656,270.6875 72.0781,269.0313 Q73.4063,267.375 75.9063,267.375 Q76.6094,267.375 77.25,267.5313 Q77.9063,267.6875 78.4688,267.9844 L78.4688,270.7031 Q77.8438,270.125 77.25,269.8594 Q76.6563,269.5781 76.0313,269.5781 Q74.6875,269.5781 74,270.6563 Q73.3125,271.7188 73.3125,273.8125 Q73.3125,275.9063 74,276.9844 Q74.6875,278.0469 76.0313,278.0469 Q76.6563,278.0469 77.25,277.7813 Q77.8438,277.5 78.4688,276.9219 L78.4688,279.6406 Z " fill="#000000"/><text fill="#000000" font-family="sans-serif" font-size="14" lengthAdjust="spacing" textLength="54" x="89.5" y="278.8467">MageElf</text><line style="stroke:#181818;stroke-width:0.5;" x1="61.5" x2="145.5" y1="290" y2="290"/><line style="stroke:#181818;stroke-width:0.5;" x1="61.5" x2="145.5" y1="298" y2="298"/></g><!--class MageDwarf--><g id="elem_MageDwarf"><rect codeLine="11" fill="#F1F1F1" height="48" id="MageDwarf" rx="2.5" ry="2.5" style="stroke:#181818;stroke-width:0.5;" width="109" x="340" y="258"/><ellipse cx="355" cy="274" fill="#ADD1B2" rx="11" ry="11" style="stroke:#181818;stroke-width:1.0;"/><path d="M357.9688,279.6406 Q357.3906,279.9375 356.75,280.0781 Q356.1094,280.2344 355.4063,280.2344 Q352.9063,280.2344 351.5781,278.5938 Q350.2656,276.9375 350.2656,273.8125 Q350.2656,270.6875 351.5781,269.0313 Q352.9063,267.375 355.4063,267.375 Q356.1094,267.375 356.75,267.5313 Q357.4063,267.6875 357.9688,267.9844 L357.9688,270.7031 Q357.3438,270.125 356.75,269.8594 Q356.1563,269.5781 355.5313,269.5781 Q354.1875,269.5781 353.5,270.6563 Q352.8125,271.7188 352.8125,273.8125 Q352.8125,275.9063 353.5,276.9844 Q354.1875,278.0469 355.5313,278.0469 Q356.1563,278.0469 356.75,277.7813 Q357.3438,277.5 357.9688,276.9219 L357.9688,279.6406 Z " fill="#000000"/><text fill="#000000" font-family="sans-serif" font-size="14" lengthAdjust="spacing" textLength="77" x="369" y="278.8467">MageDwarf</text><line style="stroke:#181818;stroke-width:0.5;" x1="341" x2="448" y1="290" y2="290"/><line style="stroke:#181818;stroke-width:0.5;" x1="341" x2="448" y1="298" y2="298"/></g><!--class CharactersFactory--><g id="elem_CharactersFactory"><rect codeLine="12" fill="#F1F1F1" height="80.5938" id="CharactersFactory" rx="2.5" ry="2.5" style="stroke:#181818;stroke-width:0.5;" width="164" x="341.5" y="7"/><ellipse cx="359.65" cy="23" fill="#B4A7E5" rx="11" ry="11" style="stroke:#181818;stroke-width:1.0;"/><path d="M355.5719,18.7656 L355.5719,16.6094 L362.9625,16.6094 L362.9625,18.7656 L360.4938,18.7656 L360.4938,26.8438 L362.9625,26.8438 L362.9625,29 L355.5719,29 L355.5719,26.8438 L358.0406,26.8438 L358.0406,18.7656 L355.5719,18.7656 Z " fill="#000000"/><text fill="#000000" font-family="sans-serif" font-size="14" font-style="italic" lengthAdjust="spacing" textLength="125" x="374.35" y="27.8467">CharactersFactory</text><line style="stroke:#181818;stroke-width:0.5;" x1="342.5" x2="504.5" y1="39" y2="39"/><line style="stroke:#181818;stroke-width:0.5;" x1="342.5" x2="504.5" y1="47" y2="47"/><text fill="#000000" font-family="sans-serif" font-size="14" lengthAdjust="spacing" textLength="152" x="347.5" y="63.9951">Soldier createSoldier()</text><text fill="#000000" font-family="sans-serif" font-size="14" lengthAdjust="spacing" textLength="134" x="347.5" y="80.292">Mage createMage()</text></g><!--class HumansCharacterFactory--><g id="elem_HumansCharacterFactory"><rect codeLine="16" fill="#F1F1F1" height="48" id="HumansCharacterFactory" rx="2.5" ry="2.5" style="stroke:#181818;stroke-width:0.5;" width="206" x="320.5" y="149"/><ellipse cx="335.5" cy="165" fill="#ADD1B2" rx="11" ry="11" style="stroke:#181818;stroke-width:1.0;"/><path d="M338.4688,170.6406 Q337.8906,170.9375 337.25,171.0781 Q336.6094,171.2344 335.9063,171.2344 Q333.4063,171.2344 332.0781,169.5938 Q330.7656,167.9375 330.7656,164.8125 Q330.7656,161.6875 332.0781,160.0313 Q333.4063,158.375 335.9063,158.375 Q336.6094,158.375 337.25,158.5313 Q337.9063,158.6875 338.4688,158.9844 L338.4688,161.7031 Q337.8438,161.125 337.25,160.8594 Q336.6563,160.5781 336.0313,160.5781 Q334.6875,160.5781 334,161.6563 Q333.3125,162.7188 333.3125,164.8125 Q333.3125,166.9063 334,167.9844 Q334.6875,169.0469 336.0313,169.0469 Q336.6563,169.0469 337.25,168.7813 Q337.8438,168.5 338.4688,167.9219 L338.4688,170.6406 Z " fill="#000000"/><text fill="#000000" font-family="sans-serif" font-size="14" lengthAdjust="spacing" textLength="174" x="349.5" y="169.8467">HumansCharacterFactory</text><line style="stroke:#181818;stroke-width:0.5;" x1="321.5" x2="525.5" y1="181" y2="181"/><line style="stroke:#181818;stroke-width:0.5;" x1="321.5" x2="525.5" y1="189" y2="189"/></g><!--class ElfCharactersFactory--><g id="elem_ElfCharactersFactory"><rect codeLine="17" fill="#F1F1F1" height="48" id="ElfCharactersFactory" rx="2.5" ry="2.5" style="stroke:#181818;stroke-width:0.5;" width="173" x="7" y="149"/><ellipse cx="22" cy="165" fill="#ADD1B2" rx="11" ry="11" style="stroke:#181818;stroke-width:1.0;"/><path d="M24.9688,170.6406 Q24.3906,170.9375 23.75,171.0781 Q23.1094,171.2344 22.4063,171.2344 Q19.9063,171.2344 18.5781,169.5938 Q17.2656,167.9375 17.2656,164.8125 Q17.2656,161.6875 18.5781,160.0313 Q19.9063,158.375 22.4063,158.375 Q23.1094,158.375 23.75,158.5313 Q24.4063,158.6875 24.9688,158.9844 L24.9688,161.7031 Q24.3438,161.125 23.75,160.8594 Q23.1563,160.5781 22.5313,160.5781 Q21.1875,160.5781 20.5,161.6563 Q19.8125,162.7188 19.8125,164.8125 Q19.8125,166.9063 20.5,167.9844 Q21.1875,169.0469 22.5313,169.0469 Q23.1563,169.0469 23.75,168.7813 Q24.3438,168.5 24.9688,167.9219 L24.9688,170.6406 Z " fill="#000000"/><text fill="#000000" font-family="sans-serif" font-size="14" lengthAdjust="spacing" textLength="141" x="36" y="169.8467">ElfCharactersFactory</text><line style="stroke:#181818;stroke-width:0.5;" x1="8" x2="179" y1="181" y2="181"/><line style="stroke:#181818;stroke-width:0.5;" x1="8" x2="179" y1="189" y2="189"/></g><!--class DwarfCharactersFactory--><g id="elem_DwarfCharactersFactory"><rect codeLine="18" fill="#F1F1F1" height="48" id="DwarfCharactersFactory" rx="2.5" ry="2.5" style="stroke:#181818;stroke-width:0.5;" width="196" x="561.5" y="149"/><ellipse cx="576.5" cy="165" fill="#ADD1B2" rx="11" ry="11" style="stroke:#181818;stroke-width:1.0;"/><path d="M579.4688,170.6406 Q578.8906,170.9375 578.25,171.0781 Q577.6094,171.2344 576.9063,171.2344 Q574.4063,171.2344 573.0781,169.5938 Q571.7656,167.9375 571.7656,164.8125 Q571.7656,161.6875 573.0781,160.0313 Q574.4063,158.375 576.9063,158.375 Q577.6094,158.375 578.25,158.5313 Q578.9063,158.6875 579.4688,158.9844 L579.4688,161.7031 Q578.8438,161.125 578.25,160.8594 Q577.6563,160.5781 577.0313,160.5781 Q575.6875,160.5781 575,161.6563 Q574.3125,162.7188 574.3125,164.8125 Q574.3125,166.9063 575,167.9844 Q575.6875,169.0469 577.0313,169.0469 Q577.6563,169.0469 578.25,168.7813 Q578.8438,168.5 579.4688,167.9219 L579.4688,170.6406 Z " fill="#000000"/><text fill="#000000" font-family="sans-serif" font-size="14" lengthAdjust="spacing" textLength="164" x="590.5" y="169.8467">DwarfCharactersFactory</text><line style="stroke:#181818;stroke-width:0.5;" x1="562.5" x2="756.5" y1="181" y2="181"/><line style="stroke:#181818;stroke-width:0.5;" x1="562.5" x2="756.5" y1="189" y2="189"/></g><!--class Main--><g id="elem_Main"><rect codeLine="25" fill="#F1F1F1" height="48" id="Main" rx="2.5" ry="2.5" style="stroke:#181818;stroke-width:0.5;" width="64" x="210.5" y="23.5"/><ellipse cx="225.5" cy="39.5" fill="#ADD1B2" rx="11" ry="11" style="stroke:#181818;stroke-width:1.0;"/><path d="M228.4688,45.1406 Q227.8906,45.4375 227.25,45.5781 Q226.6094,45.7344 225.9063,45.7344 Q223.4063,45.7344 222.0781,44.0938 Q220.7656,42.4375 220.7656,39.3125 Q220.7656,36.1875 222.0781,34.5313 Q223.4063,32.875 225.9063,32.875 Q226.6094,32.875 227.25,33.0313 Q227.9063,33.1875 228.4688,33.4844 L228.4688,36.2031 Q227.8438,35.625 227.25,35.3594 Q226.6563,35.0781 226.0313,35.0781 Q224.6875,35.0781 224,36.1563 Q223.3125,37.2188 223.3125,39.3125 Q223.3125,41.4063 224,42.4844 Q224.6875,43.5469 226.0313,43.5469 Q226.6563,43.5469 227.25,43.2813 Q227.8438,43 228.4688,42.4219 L228.4688,45.1406 Z " fill="#000000"/><text fill="#000000" font-family="sans-serif" font-size="14" lengthAdjust="spacing" textLength="32" x="239.5" y="44.3467">Main</text><line style="stroke:#181818;stroke-width:0.5;" x1="211.5" x2="273.5" y1="55.5" y2="55.5"/><line style="stroke:#181818;stroke-width:0.5;" x1="211.5" x2="273.5" y1="63.5" y2="63.5"/></g><!--reverse link Character to Soldier--><g id="link_Character_Soldier"><path d="M706.9837,89.5436 C739.7237,111.0536 767.51,129.3 797.24,148.84 " fill="none" id="Character-backto-Soldier" style="stroke:#181818;stroke-width:1.0;"/><polygon fill="none" points="691.94,79.66,703.6892,94.5582,710.2783,84.5291,691.94,79.66" style="stroke:#181818;stroke-width:1.0;"/></g><!--reverse link Character to Mage--><g id="link_Character_Mage"><path d="M572.7548,72.5551 C552.0348,79.3851 545.29,81.43 523.5,88 C426.36,117.31 399.16,115.17 303.5,149 C297.64,151.07 291.51,153.49 285.58,155.97 " fill="none" id="Character-backto-Mage" style="stroke:#181818;stroke-width:1.0;"/><polygon fill="none" points="589.85,66.92,570.8764,66.8567,574.6332,78.2535,589.85,66.92" style="stroke:#181818;stroke-width:1.0;"/></g><!--reverse link Soldier to SoldierHuman--><g id="link_Soldier_SoldierHuman"><path d="M784.296,207.4881 C758.466,225.4281 737.67,239.89 711.85,257.83 " fill="none" id="Soldier-backto-SoldierHuman" style="stroke:#181818;stroke-width:1.0;"/><polygon fill="none" points="799.08,197.22,780.8733,202.5601,787.7187,212.4161,799.08,197.22" style="stroke:#181818;stroke-width:1.0;"/></g><!--reverse link Soldier to SoldierElf--><g id="link_Soldier_SoldierElf"><path d="M776.0035,196.9849 C770.2435,199.2649 781.1,194.91 775.5,197 C697.14,226.21 676.54,230.68 597.5,258 C591.54,260.06 585.27,262.23 579.08,264.39 " fill="none" id="Soldier-backto-SoldierElf" style="stroke:#181818;stroke-width:1.0;"/><polygon fill="none" points="792.74,190.36,773.7952,191.406,778.2118,202.5637,792.74,190.36" style="stroke:#181818;stroke-width:1.0;"/></g><!--reverse link Soldier to SoldierDwarf--><g id="link_Soldier_SoldierDwarf"><path d="M834.0418,215.2075 C834.7118,233.1475 834.96,239.89 835.63,257.83 " fill="none" id="Soldier-backto-SoldierDwarf" style="stroke:#181818;stroke-width:1.0;"/><polygon fill="none" points="833.37,197.22,828.046,215.4314,840.0376,214.9835,833.37,197.22" style="stroke:#181818;stroke-width:1.0;"/></g><!--reverse link Mage to MageHuman--><g id="link_Mage_MageHuman"><path d="M248.5781,215.2003 C247.7381,233.1403 247.42,239.89 246.58,257.83 " fill="none" id="Mage-backto-MageHuman" style="stroke:#181818;stroke-width:1.0;"/><polygon fill="none" points="249.42,197.22,242.5847,214.9197,254.5715,215.4809,249.42,197.22" style="stroke:#181818;stroke-width:1.0;"/></g><!--reverse link Mage to MageElf--><g id="link_Mage_MageElf"><path d="M204.0463,207.812 C179.3963,225.752 159.98,239.89 135.33,257.83 " fill="none" id="Mage-backto-MageElf" style="stroke:#181818;stroke-width:1.0;"/><polygon fill="none" points="218.6,197.22,200.5157,202.9608,207.577,212.6632,218.6,197.22" style="stroke:#181818;stroke-width:1.0;"/></g><!--reverse link Mage to MageDwarf--><g id="link_Mage_MageDwarf"><path d="M296.1994,207.9538 C320.3494,225.8938 339.18,239.89 363.32,257.83 " fill="none" id="Mage-backto-MageDwarf" style="stroke:#181818;stroke-width:1.0;"/><polygon fill="none" points="281.75,197.22,292.6214,212.7703,299.7773,203.1374,281.75,197.22" style="stroke:#181818;stroke-width:1.0;"/></g><!--reverse link CharactersFactory to HumansCharacterFactory--><g id="link_CharactersFactory_HumansCharacterFactory"><path d="M423.5,106.26 C423.5,126.28 423.5,131.86 423.5,148.88 " fill="none" id="CharactersFactory-backto-HumansCharacterFactory" style="stroke:#181818;stroke-width:1.0;stroke-dasharray:7.0,7.0;"/><polygon fill="none" points="423.5,88.26,417.5,106.26,429.5,106.26,423.5,88.26" style="stroke:#181818;stroke-width:1.0;"/></g><!--reverse link CharactersFactory to ElfCharactersFactory--><g id="link_CharactersFactory_ElfCharactersFactory"><path d="M324.221,85.6568 C266.561,107.2268 207.65,129.28 155.19,148.91 " fill="none" id="CharactersFactory-backto-ElfCharactersFactory" style="stroke:#181818;stroke-width:1.0;stroke-dasharray:7.0,7.0;"/><polygon fill="none" points="341.08,79.35,322.1188,80.0371,326.3233,91.2764,341.08,79.35" style="stroke:#181818;stroke-width:1.0;"/></g><!--reverse link CharactersFactory to DwarfCharactersFactory--><g id="link_CharactersFactory_DwarfCharactersFactory"><path d="M515.0992,96.4341 C553.5192,116.5341 582.9,131.92 615.55,149 " fill="none" id="CharactersFactory-backto-DwarfCharactersFactory" style="stroke:#181818;stroke-width:1.0;stroke-dasharray:7.0,7.0;"/><polygon fill="none" points="499.15,88.09,512.3178,101.7505,517.8805,91.1177,499.15,88.09" style="stroke:#181818;stroke-width:1.0;"/></g><!--link HumansCharacterFactory to SoldierHuman--><g id="link_HumansCharacterFactory_SoldierHuman"><path codeLine="19" d="M478.52,197.09 C521.42,215.09 575.1774,237.6483 618.0474,255.6383 " fill="none" id="HumansCharacterFactory-to-SoldierHuman" style="stroke:#0000FF;stroke-width:1.0;stroke-dasharray:1.0,3.0;"/><polygon fill="#0000FF" points="623.58,257.96,616.8289,250.789,618.9695,256.0252,613.7333,258.1658,623.58,257.96" style="stroke:#0000FF;stroke-width:1.0;"/></g><!--link HumansCharacterFactory to MageHuman--><g id="link_HumansCharacterFactory_MageHuman"><path codeLine="20" d="M384.88,197.22 C355.02,215.16 319.0322,236.7985 289.1922,254.7385 " fill="none" id="HumansCharacterFactory-to-MageHuman" style="stroke:#0000FF;stroke-width:1.0;stroke-dasharray:1.0,3.0;"/><polygon fill="#0000FF" points="284.05,257.83,293.8244,256.6208,288.3352,255.2537,289.7023,249.7646,284.05,257.83" style="stroke:#0000FF;stroke-width:1.0;"/></g><!--link ElfCharactersFactory to SoldierElf--><g id="link_ElfCharactersFactory_SoldierElf"><path codeLine="21" d="M180.44,193.31 C286.26,216.85 452.67,254.01 466.5,258 C472.14,259.63 472.305,259.5815 478.095,261.5015 " fill="none" id="ElfCharactersFactory-to-SoldierElf" style="stroke:#008000;stroke-width:1.0;stroke-dasharray:1.0,3.0;"/><polygon fill="#008000" points="483.79,263.39,476.5064,256.7605,479.0441,261.8162,473.9884,264.3539,483.79,263.39" style="stroke:#008000;stroke-width:1.0;"/></g><!--link ElfCharactersFactory to MageElf--><g id="link_ElfCharactersFactory_MageElf"><path codeLine="22" d="M95.67,197.22 C97.35,215.16 99.1039,233.9158 100.7739,251.8558 " fill="none" id="ElfCharactersFactory-to-MageElf" style="stroke:#008000;stroke-width:1.0;stroke-dasharray:1.0,3.0;"/><polygon fill="#008000" points="101.33,257.83,104.4786,248.498,100.8666,252.8515,96.513,249.2395,101.33,257.83" style="stroke:#008000;stroke-width:1.0;"/></g><!--link DwarfCharactersFactory to SoldierDwarf--><g id="link_DwarfCharactersFactory_SoldierDwarf"><path codeLine="23" d="M697.91,197.22 C727.6,215.16 763.3656,236.7855 793.0356,254.7255 " fill="none" id="DwarfCharactersFactory-to-SoldierDwarf" style="stroke:#FF0000;stroke-width:1.0;stroke-dasharray:1.0,3.0;"/><polygon fill="#FF0000" points="798.17,257.83,792.5381,249.7503,793.8913,255.2429,788.3987,256.5962,798.17,257.83" style="stroke:#FF0000;stroke-width:1.0;"/></g><!--link DwarfCharactersFactory to MageDwarf--><g id="link_DwarfCharactersFactory_MageDwarf"><path codeLine="24" d="M602.33,197.09 C556.98,215.39 499.5837,238.5739 454.8737,256.6239 " fill="none" id="DwarfCharactersFactory-to-MageDwarf" style="stroke:#FF0000;stroke-width:1.0;stroke-dasharray:1.0,3.0;"/><polygon fill="#FF0000" points="449.31,258.87,459.153,259.2099,453.9464,256.9982,456.1581,251.7917,449.31,258.87" style="stroke:#FF0000;stroke-width:1.0;"/></g><!--link Main to CharactersFactory--><g id="link_Main_CharactersFactory"><path codeLine="26" d="M274.86,47.5 C293.47,47.5 311.76,47.5 335.3,47.5 " fill="none" id="Main-to-CharactersFactory" style="stroke:#181818;stroke-width:1.0;"/><polygon fill="#181818" points="341.3,47.5,332.3,43.5,336.3,47.5,332.3,51.5,341.3,47.5" style="stroke:#181818;stroke-width:1.0;"/><text fill="#000000" font-family="sans-serif" font-size="13" lengthAdjust="spacing" textLength="30" x="293" y="40.5669">uses</text></g><!--link CharactersFactory to Character--><g id="link_CharactersFactory_Character"><path codeLine="27" d="M505.79,47.5 C533.9,47.5 558.61,47.5 583.97,47.5 " fill="none" id="CharactersFactory-to-Character" style="stroke:#181818;stroke-width:1.0;"/><polygon fill="#181818" points="589.97,47.5,580.97,43.5,584.97,47.5,580.97,51.5,589.97,47.5" style="stroke:#181818;stroke-width:1.0;"/><text fill="#000000" font-family="sans-serif" font-size="13" lengthAdjust="spacing" textLength="48" x="523.75" y="40.5669">creates</text></g><!--SRC=[bLAxJiGm4Epz5PPeG28_G473GpHKbEYAlNYJi-GufxKZ3Y7uTjQEOn9yGI65O-_Cx1lspXFKNjO6d9Dt1mWl9FaX97zVKbilZMxmsFFDYKyn4bzwepJJyEJHgfamuS_GuYgOn4z31pQJad59UJ3DtuJxDw0rIiXX6IDOPk3S-ozewJU2N3zI0pN-rECU-TVJU-hMr9IQ43ocr-LLn693HY1SsJgrCgReii_9fUwE1ZlaffVnafBpBrFPe8l5_LEvacNrUh4t0rwhtdjKk-fsCTpjgZmhSROe5hI4QCiuJDyiIJCNA_MpWb2L8I9zioXlJzucRKKuP4MwFNYcb5vkvE3GYJFk2mrpnpLotm00]--></g></svg>