<?xml version="1.0" encoding="us-ascii" standalone="no"?><svg xmlns="http://www.w3.org/2000/svg" xmlns:xlink="http://www.w3.org/1999/xlink" contentStyleType="text/css" height="255px" preserveAspectRatio="none" style="width:1294px;height:255px;background:#FFFFFF;" version="1.1" viewBox="0 0 1294 255" width="1294px" zoomAndPan="magnify"><defs/><g><!--class Animal--><g id="elem_Animal"><rect codeLine="1" fill="#F1F1F1" height="96.8906" id="Animal" rx="2.5" ry="2.5" style="stroke:#181818;stroke-width:0.5;" width="266" x="159.5" y="7"/><ellipse cx="265.25" cy="23" fill="#A9DCDF" rx="11" ry="11" style="stroke:#181818;stroke-width:1.0;"/><path d="M265.3594,18.3438 L264.2031,23.4219 L266.5313,23.4219 L265.3594,18.3438 Z M263.875,16.1094 L266.8594,16.1094 L270.2188,28.5 L267.7656,28.5 L267,25.4375 L263.7188,25.4375 L262.9688,28.5 L260.5313,28.5 L263.875,16.1094 Z " fill="#000000"/><text fill="#000000" font-family="sans-serif" font-size="14" font-style="italic" lengthAdjust="spacing" textLength="46" x="285.75" y="27.8467">Animal</text><line style="stroke:#181818;stroke-width:0.5;" x1="160.5" x2="424.5" y1="39" y2="39"/><rect fill="none" height="6" style="stroke:#C82930;stroke-width:1.0;" width="6" x="167.5" y="49.6484"/><text fill="#000000" font-family="sans-serif" font-size="14" lengthAdjust="spacing" textLength="240" x="179.5" y="55.9951">soundBehaviour : SoundBehaviour</text><line style="stroke:#181818;stroke-width:0.5;" x1="160.5" x2="424.5" y1="63.2969" y2="63.2969"/><ellipse cx="170.5" cy="76.9453" fill="#84BE84" rx="3" ry="3" style="stroke:#038048;stroke-width:1.0;"/><text fill="#000000" font-family="sans-serif" font-size="14" font-style="italic" lengthAdjust="spacing" textLength="91" x="179.5" y="80.292">String sayHi()</text><ellipse cx="170.5" cy="93.2422" fill="#84BE84" rx="3" ry="3" style="stroke:#038048;stroke-width:1.0;"/><text fill="#000000" font-family="sans-serif" font-size="14" lengthAdjust="spacing" textLength="141" x="179.5" y="96.5889">void performSound()</text></g><!--class Dog--><g id="elem_Dog"><rect codeLine="6" fill="#F1F1F1" height="80.5938" id="Dog" rx="2.5" ry="2.5" style="stroke:#181818;stroke-width:0.5;" width="167" x="7" y="168"/><ellipse cx="71.75" cy="184" fill="#ADD1B2" rx="11" ry="11" style="stroke:#181818;stroke-width:1.0;"/><path d="M74.7188,189.6406 Q74.1406,189.9375 73.5,190.0781 Q72.8594,190.2344 72.1563,190.2344 Q69.6563,190.2344 68.3281,188.5938 Q67.0156,186.9375 67.0156,183.8125 Q67.0156,180.6875 68.3281,179.0313 Q69.6563,177.375 72.1563,177.375 Q72.8594,177.375 73.5,177.5313 Q74.1563,177.6875 74.7188,177.9844 L74.7188,180.7031 Q74.0938,180.125 73.5,179.8594 Q72.9063,179.5781 72.2813,179.5781 Q70.9375,179.5781 70.25,180.6563 Q69.5625,181.7188 69.5625,183.8125 Q69.5625,185.9063 70.25,186.9844 Q70.9375,188.0469 72.2813,188.0469 Q72.9063,188.0469 73.5,187.7813 Q74.0938,187.5 74.7188,186.9219 L74.7188,189.6406 Z " fill="#000000"/><text fill="#000000" font-family="sans-serif" font-size="14" lengthAdjust="spacing" textLength="29" x="92.25" y="188.8467">Dog</text><line style="stroke:#181818;stroke-width:0.5;" x1="8" x2="173" y1="200" y2="200"/><line style="stroke:#181818;stroke-width:0.5;" x1="8" x2="173" y1="208" y2="208"/><ellipse cx="18" cy="221.6484" fill="#84BE84" rx="3" ry="3" style="stroke:#038048;stroke-width:1.0;"/><text fill="#000000" font-family="sans-serif" font-size="14" lengthAdjust="spacing" textLength="90" x="27" y="224.9951">String sayHi()</text><ellipse cx="18" cy="237.9453" fill="#84BE84" rx="3" ry="3" style="stroke:#038048;stroke-width:1.0;"/><text fill="#000000" font-family="sans-serif" font-size="14" lengthAdjust="spacing" textLength="141" x="27" y="241.292">void performSound()</text></g><!--class Cat--><g id="elem_Cat"><rect codeLine="10" fill="#F1F1F1" height="80.5938" id="Cat" rx="2.5" ry="2.5" style="stroke:#181818;stroke-width:0.5;" width="167" x="209" y="168"/><ellipse cx="276.75" cy="184" fill="#ADD1B2" rx="11" ry="11" style="stroke:#181818;stroke-width:1.0;"/><path d="M279.7188,189.6406 Q279.1406,189.9375 278.5,190.0781 Q277.8594,190.2344 277.1563,190.2344 Q274.6563,190.2344 273.3281,188.5938 Q272.0156,186.9375 272.0156,183.8125 Q272.0156,180.6875 273.3281,179.0313 Q274.6563,177.375 277.1563,177.375 Q277.8594,177.375 278.5,177.5313 Q279.1563,177.6875 279.7188,177.9844 L279.7188,180.7031 Q279.0938,180.125 278.5,179.8594 Q277.9063,179.5781 277.2813,179.5781 Q275.9375,179.5781 275.25,180.6563 Q274.5625,181.7188 274.5625,183.8125 Q274.5625,185.9063 275.25,186.9844 Q275.9375,188.0469 277.2813,188.0469 Q277.9063,188.0469 278.5,187.7813 Q279.0938,187.5 279.7188,186.9219 L279.7188,189.6406 Z " fill="#000000"/><text fill="#000000" font-family="sans-serif" font-size="14" lengthAdjust="spacing" textLength="23" x="297.25" y="188.8467">Cat</text><line style="stroke:#181818;stroke-width:0.5;" x1="210" x2="375" y1="200" y2="200"/><line style="stroke:#181818;stroke-width:0.5;" x1="210" x2="375" y1="208" y2="208"/><ellipse cx="220" cy="221.6484" fill="#84BE84" rx="3" ry="3" style="stroke:#038048;stroke-width:1.0;"/><text fill="#000000" font-family="sans-serif" font-size="14" lengthAdjust="spacing" textLength="90" x="229" y="224.9951">String sayHi()</text><ellipse cx="220" cy="237.9453" fill="#84BE84" rx="3" ry="3" style="stroke:#038048;stroke-width:1.0;"/><text fill="#000000" font-family="sans-serif" font-size="14" lengthAdjust="spacing" textLength="141" x="229" y="241.292">void performSound()</text></g><!--class SoundBehaviour--><g id="elem_SoundBehaviour"><rect codeLine="14" fill="#F1F1F1" height="64.2969" id="SoundBehaviour" rx="2.5" ry="2.5" style="stroke:#181818;stroke-width:0.5;" width="147" x="695" y="23"/><ellipse cx="710" cy="39" fill="#B4A7E5" rx="11" ry="11" style="stroke:#181818;stroke-width:1.0;"/><path d="M705.9219,34.7656 L705.9219,32.6094 L713.3125,32.6094 L713.3125,34.7656 L710.8438,34.7656 L710.8438,42.8438 L713.3125,42.8438 L713.3125,45 L705.9219,45 L705.9219,42.8438 L708.3906,42.8438 L708.3906,34.7656 L705.9219,34.7656 Z " fill="#000000"/><text fill="#000000" font-family="sans-serif" font-size="14" font-style="italic" lengthAdjust="spacing" textLength="115" x="724" y="43.8467">SoundBehaviour</text><line style="stroke:#181818;stroke-width:0.5;" x1="696" x2="841" y1="55" y2="55"/><line style="stroke:#181818;stroke-width:0.5;" x1="696" x2="841" y1="63" y2="63"/><text fill="#000000" font-family="sans-serif" font-size="14" lengthAdjust="spacing" textLength="125" x="701" y="79.9951">void makeSound()</text></g><!--class GermanShepherdBehaviour--><g id="elem_GermanShepherdBehaviour"><rect codeLine="17" fill="#F1F1F1" height="64.2969" id="GermanShepherdBehaviour" rx="2.5" ry="2.5" style="stroke:#181818;stroke-width:0.5;" width="224" x="410.5" y="176.5"/><ellipse cx="425.5" cy="192.5" fill="#ADD1B2" rx="11" ry="11" style="stroke:#181818;stroke-width:1.0;"/><path d="M428.4688,198.1406 Q427.8906,198.4375 427.25,198.5781 Q426.6094,198.7344 425.9063,198.7344 Q423.4063,198.7344 422.0781,197.0938 Q420.7656,195.4375 420.7656,192.3125 Q420.7656,189.1875 422.0781,187.5313 Q423.4063,185.875 425.9063,185.875 Q426.6094,185.875 427.25,186.0313 Q427.9063,186.1875 428.4688,186.4844 L428.4688,189.2031 Q427.8438,188.625 427.25,188.3594 Q426.6563,188.0781 426.0313,188.0781 Q424.6875,188.0781 424,189.1563 Q423.3125,190.2188 423.3125,192.3125 Q423.3125,194.4063 424,195.4844 Q424.6875,196.5469 426.0313,196.5469 Q426.6563,196.5469 427.25,196.2813 Q427.8438,196 428.4688,195.4219 L428.4688,198.1406 Z " fill="#000000"/><text fill="#000000" font-family="sans-serif" font-size="14" lengthAdjust="spacing" textLength="192" x="439.5" y="197.3467">GermanShepherdBehaviour</text><line style="stroke:#181818;stroke-width:0.5;" x1="411.5" x2="633.5" y1="208.5" y2="208.5"/><line style="stroke:#181818;stroke-width:0.5;" x1="411.5" x2="633.5" y1="216.5" y2="216.5"/><ellipse cx="421.5" cy="230.1484" fill="#84BE84" rx="3" ry="3" style="stroke:#038048;stroke-width:1.0;"/><text fill="#000000" font-family="sans-serif" font-size="14" lengthAdjust="spacing" textLength="125" x="430.5" y="233.4951">void makeSound()</text></g><!--class SiberianHuskyBehaviour--><g id="elem_SiberianHuskyBehaviour"><rect codeLine="20" fill="#F1F1F1" height="64.2969" id="SiberianHuskyBehaviour" rx="2.5" ry="2.5" style="stroke:#181818;stroke-width:0.5;" width="198" x="669.5" y="176.5"/><ellipse cx="684.5" cy="192.5" fill="#ADD1B2" rx="11" ry="11" style="stroke:#181818;stroke-width:1.0;"/><path d="M687.4688,198.1406 Q686.8906,198.4375 686.25,198.5781 Q685.6094,198.7344 684.9063,198.7344 Q682.4063,198.7344 681.0781,197.0938 Q679.7656,195.4375 679.7656,192.3125 Q679.7656,189.1875 681.0781,187.5313 Q682.4063,185.875 684.9063,185.875 Q685.6094,185.875 686.25,186.0313 Q686.9063,186.1875 687.4688,186.4844 L687.4688,189.2031 Q686.8438,188.625 686.25,188.3594 Q685.6563,188.0781 685.0313,188.0781 Q683.6875,188.0781 683,189.1563 Q682.3125,190.2188 682.3125,192.3125 Q682.3125,194.4063 683,195.4844 Q683.6875,196.5469 685.0313,196.5469 Q685.6563,196.5469 686.25,196.2813 Q686.8438,196 687.4688,195.4219 L687.4688,198.1406 Z " fill="#000000"/><text fill="#000000" font-family="sans-serif" font-size="14" lengthAdjust="spacing" textLength="166" x="698.5" y="197.3467">SiberianHuskyBehaviour</text><line style="stroke:#181818;stroke-width:0.5;" x1="670.5" x2="866.5" y1="208.5" y2="208.5"/><line style="stroke:#181818;stroke-width:0.5;" x1="670.5" x2="866.5" y1="216.5" y2="216.5"/><ellipse cx="680.5" cy="230.1484" fill="#84BE84" rx="3" ry="3" style="stroke:#038048;stroke-width:1.0;"/><text fill="#000000" font-family="sans-serif" font-size="14" lengthAdjust="spacing" textLength="125" x="689.5" y="233.4951">void makeSound()</text></g><!--class PersianCatBehaviour--><g id="elem_PersianCatBehaviour"><rect codeLine="23" fill="#F1F1F1" height="64.2969" id="PersianCatBehaviour" rx="2.5" ry="2.5" style="stroke:#181818;stroke-width:0.5;" width="175" x="903" y="176.5"/><ellipse cx="918" cy="192.5" fill="#ADD1B2" rx="11" ry="11" style="stroke:#181818;stroke-width:1.0;"/><path d="M920.9688,198.1406 Q920.3906,198.4375 919.75,198.5781 Q919.1094,198.7344 918.4063,198.7344 Q915.9063,198.7344 914.5781,197.0938 Q913.2656,195.4375 913.2656,192.3125 Q913.2656,189.1875 914.5781,187.5313 Q915.9063,185.875 918.4063,185.875 Q919.1094,185.875 919.75,186.0313 Q920.4063,186.1875 920.9688,186.4844 L920.9688,189.2031 Q920.3438,188.625 919.75,188.3594 Q919.1563,188.0781 918.5313,188.0781 Q917.1875,188.0781 916.5,189.1563 Q915.8125,190.2188 915.8125,192.3125 Q915.8125,194.4063 916.5,195.4844 Q917.1875,196.5469 918.5313,196.5469 Q919.1563,196.5469 919.75,196.2813 Q920.3438,196 920.9688,195.4219 L920.9688,198.1406 Z " fill="#000000"/><text fill="#000000" font-family="sans-serif" font-size="14" lengthAdjust="spacing" textLength="143" x="932" y="197.3467">PersianCatBehaviour</text><line style="stroke:#181818;stroke-width:0.5;" x1="904" x2="1077" y1="208.5" y2="208.5"/><line style="stroke:#181818;stroke-width:0.5;" x1="904" x2="1077" y1="216.5" y2="216.5"/><ellipse cx="914" cy="230.1484" fill="#84BE84" rx="3" ry="3" style="stroke:#038048;stroke-width:1.0;"/><text fill="#000000" font-family="sans-serif" font-size="14" lengthAdjust="spacing" textLength="125" x="923" y="233.4951">void makeSound()</text></g><!--class SiamesCatBehaviour--><g id="elem_SiamesCatBehaviour"><rect codeLine="26" fill="#F1F1F1" height="64.2969" id="SiamesCatBehaviour" rx="2.5" ry="2.5" style="stroke:#181818;stroke-width:0.5;" width="174" x="1113.5" y="176.5"/><ellipse cx="1128.5" cy="192.5" fill="#ADD1B2" rx="11" ry="11" style="stroke:#181818;stroke-width:1.0;"/><path d="M1131.4688,198.1406 Q1130.8906,198.4375 1130.25,198.5781 Q1129.6094,198.7344 1128.9063,198.7344 Q1126.4063,198.7344 1125.0781,197.0938 Q1123.7656,195.4375 1123.7656,192.3125 Q1123.7656,189.1875 1125.0781,187.5313 Q1126.4063,185.875 1128.9063,185.875 Q1129.6094,185.875 1130.25,186.0313 Q1130.9063,186.1875 1131.4688,186.4844 L1131.4688,189.2031 Q1130.8438,188.625 1130.25,188.3594 Q1129.6563,188.0781 1129.0313,188.0781 Q1127.6875,188.0781 1127,189.1563 Q1126.3125,190.2188 1126.3125,192.3125 Q1126.3125,194.4063 1127,195.4844 Q1127.6875,196.5469 1129.0313,196.5469 Q1129.6563,196.5469 1130.25,196.2813 Q1130.8438,196 1131.4688,195.4219 L1131.4688,198.1406 Z " fill="#000000"/><text fill="#000000" font-family="sans-serif" font-size="14" lengthAdjust="spacing" textLength="142" x="1142.5" y="197.3467">SiamesCatBehaviour</text><line style="stroke:#181818;stroke-width:0.5;" x1="1114.5" x2="1286.5" y1="208.5" y2="208.5"/><line style="stroke:#181818;stroke-width:0.5;" x1="1114.5" x2="1286.5" y1="216.5" y2="216.5"/><ellipse cx="1124.5" cy="230.1484" fill="#84BE84" rx="3" ry="3" style="stroke:#038048;stroke-width:1.0;"/><text fill="#000000" font-family="sans-serif" font-size="14" lengthAdjust="spacing" textLength="125" x="1133.5" y="233.4951">void makeSound()</text></g><!--class Main--><g id="elem_Main"><rect codeLine="29" fill="#F1F1F1" height="48" id="Main" rx="2.5" ry="2.5" style="stroke:#181818;stroke-width:0.5;" width="64" x="16.5" y="31"/><ellipse cx="31.5" cy="47" fill="#ADD1B2" rx="11" ry="11" style="stroke:#181818;stroke-width:1.0;"/><path d="M34.4688,52.6406 Q33.8906,52.9375 33.25,53.0781 Q32.6094,53.2344 31.9063,53.2344 Q29.4063,53.2344 28.0781,51.5938 Q26.7656,49.9375 26.7656,46.8125 Q26.7656,43.6875 28.0781,42.0313 Q29.4063,40.375 31.9063,40.375 Q32.6094,40.375 33.25,40.5313 Q33.9063,40.6875 34.4688,40.9844 L34.4688,43.7031 Q33.8438,43.125 33.25,42.8594 Q32.6563,42.5781 32.0313,42.5781 Q30.6875,42.5781 30,43.6563 Q29.3125,44.7188 29.3125,46.8125 Q29.3125,48.9063 30,49.9844 Q30.6875,51.0469 32.0313,51.0469 Q32.6563,51.0469 33.25,50.7813 Q33.8438,50.5 34.4688,49.9219 L34.4688,52.6406 Z " fill="#000000"/><text fill="#000000" font-family="sans-serif" font-size="14" lengthAdjust="spacing" textLength="32" x="45.5" y="51.8467">Main</text><line style="stroke:#181818;stroke-width:0.5;" x1="17.5" x2="79.5" y1="63" y2="63"/><line style="stroke:#181818;stroke-width:0.5;" x1="17.5" x2="79.5" y1="71" y2="71"/></g><!--reverse link Animal to Dog--><g id="link_Animal_Dog"><path d="M209.9907,117.8809 C183.5407,137.7209 168.1,149.3 143.31,167.89 " fill="none" id="Animal-backto-Dog" style="stroke:#181818;stroke-width:1.0;"/><polygon fill="none" points="224.39,107.08,206.3904,113.0811,213.5909,122.6807,224.39,107.08" style="stroke:#181818;stroke-width:1.0;"/></g><!--reverse link Animal to Cat--><g id="link_Animal_Cat"><path d="M292.5,125.29 C292.5,145.03 292.5,149.26 292.5,167.76 " fill="none" id="Animal-backto-Cat" style="stroke:#181818;stroke-width:1.0;"/><polygon fill="none" points="292.5,107.29,286.5,125.29,298.5,125.29,292.5,107.29" style="stroke:#181818;stroke-width:1.0;"/></g><!--reverse link SoundBehaviour to GermanShepherdBehaviour--><g id="link_SoundBehaviour_GermanShepherdBehaviour"><path d="M702.7939,96.4598 C660.4839,122.5198 615.64,150.14 573.23,176.26 " fill="none" id="SoundBehaviour-backto-GermanShepherdBehaviour" style="stroke:#181818;stroke-width:1.0;stroke-dasharray:7.0,7.0;"/><polygon fill="none" points="718.12,87.02,699.6473,91.3511,705.9405,101.5685,718.12,87.02" style="stroke:#181818;stroke-width:1.0;"/></g><!--reverse link SoundBehaviour to SiberianHuskyBehaviour--><g id="link_SoundBehaviour_SiberianHuskyBehaviour"><path d="M768.5,105.02 C768.5,131.08 768.5,150.14 768.5,176.26 " fill="none" id="SoundBehaviour-backto-SiberianHuskyBehaviour" style="stroke:#181818;stroke-width:1.0;stroke-dasharray:7.0,7.0;"/><polygon fill="none" points="768.5,87.02,762.5,105.02,774.5,105.02,768.5,87.02" style="stroke:#181818;stroke-width:1.0;"/></g><!--reverse link SoundBehaviour to PersianCatBehaviour--><g id="link_SoundBehaviour_PersianCatBehaviour"><path d="M828.827,97.1676 C867.007,123.2276 906.45,150.14 944.72,176.26 " fill="none" id="SoundBehaviour-backto-PersianCatBehaviour" style="stroke:#181818;stroke-width:1.0;stroke-dasharray:7.0,7.0;"/><polygon fill="none" points="813.96,87.02,825.4445,102.1232,832.2095,92.2119,813.96,87.02" style="stroke:#181818;stroke-width:1.0;"/></g><!--reverse link SoundBehaviour to SiamesCatBehaviour--><g id="link_SoundBehaviour_SiamesCatBehaviour"><path d="M859.1652,86.2352 C925.5752,108.5152 1008.81,136.86 1095.5,168 C1103.02,170.7 1110.82,173.55 1118.62,176.43 " fill="none" id="SoundBehaviour-backto-SiamesCatBehaviour" style="stroke:#181818;stroke-width:1.0;stroke-dasharray:7.0,7.0;"/><polygon fill="none" points="842.1,80.51,857.2568,91.9236,861.0736,80.5468,842.1,80.51" style="stroke:#181818;stroke-width:1.0;"/></g><!--link Main to Animal--><g id="link_Main_Animal"><path codeLine="30" d="M80.65,55 C99.54,55 118.89,55 145.47,55 " fill="none" id="Main-to-Animal" style="stroke:#181818;stroke-width:1.0;"/><polygon fill="#181818" points="151.47,55,142.47,51,146.47,55,142.47,59,151.47,55" style="stroke:#181818;stroke-width:1.0;"/><text fill="#000000" font-family="sans-serif" font-size="13" lengthAdjust="spacing" textLength="34" x="99" y="48.0669">leads</text></g><!--link Animal to SoundBehaviour--><g id="link_Animal_SoundBehaviour"><path codeLine="31" d="M438.5,51 C491.37,51 491.74,39.34 544.5,36 C561.36,34.93 565.63,35.14 582.5,36 C619.58,37.9 654.7183,41.2536 688.7383,45.1136 " fill="none" id="Animal-SoundBehaviour" style="stroke:#181818;stroke-width:1.0;"/><polygon fill="#181818" points="426.5,51,432.5,55,438.5,51,432.5,47,426.5,51" style="stroke:#181818;stroke-width:1.0;"/><polygon fill="#181818" points="694.7,45.79,686.2083,40.8008,689.7319,45.2263,685.3064,48.7498,694.7,45.79" style="stroke:#181818;stroke-width:1.0;"/><text fill="#000000" font-family="sans-serif" font-size="13" lengthAdjust="spacing" textLength="36" x="545.5" y="32.0669">has-a</text></g><!--SRC=[hPBDQiCm3CVlUGeTjnM_G0w3VS1wAGpy16gYnQAn7IIdh9I- -xmqAvjfOOVuOB0-VdzP4cur2JO9cXvLuIcmnnwE5UHZGECOscTokESu2jHW_nYcg1NO91mwEEBCEe7YOSrtzxD_7xc5WUGZYfy0sNEgpeAliGFwJ1JQGlo2_J_h1TC2B0ufcx2XuhCpQqhokADI_Ot4Ox2E1aVoAutzq9EdaFGwS7KRQNbBmXZMe-uEYn3VIJG3SwSMAX0zwLAq3NAelYymHhXpoJp-pB66dh3Lwloiws8n7oxnjjnOXshm2m00]--></g></svg>