<?xml version="1.0" encoding="us-ascii" standalone="no"?><svg xmlns="http://www.w3.org/2000/svg" xmlns:xlink="http://www.w3.org/1999/xlink" contentStyleType="text/css" height="469px" preserveAspectRatio="none" style="width:1180px;height:469px;background:#FFFFFF;" version="1.1" viewBox="0 0 1180 469" width="1180px" zoomAndPan="magnify"><defs/><g><!--class Game--><g id="elem_Game"><rect codeLine="1" fill="#F1F1F1" height="113.1875" id="Game" rx="2.5" ry="2.5" style="stroke:#181818;stroke-width:0.5;" width="362" x="141" y="93.77"/><ellipse cx="297.25" cy="109.77" fill="#ADD1B2" rx="11" ry="11" style="stroke:#181818;stroke-width:1.0;"/><path d="M300.2188,115.4106 Q299.6406,115.7075 299,115.8481 Q298.3594,116.0044 297.6563,116.0044 Q295.1563,116.0044 293.8281,114.3637 Q292.5156,112.7075 292.5156,109.5825 Q292.5156,106.4575 293.8281,104.8012 Q295.1563,103.145 297.6563,103.145 Q298.3594,103.145 299,103.3012 Q299.6563,103.4575 300.2188,103.7544 L300.2188,106.4731 Q299.5938,105.895 299,105.6294 Q298.4063,105.3481 297.7813,105.3481 Q296.4375,105.3481 295.75,106.4262 Q295.0625,107.4887 295.0625,109.5825 Q295.0625,111.6762 295.75,112.7544 Q296.4375,113.8169 297.7813,113.8169 Q298.4063,113.8169 299,113.5512 Q299.5938,113.27 300.2188,112.6919 L300.2188,115.4106 Z " fill="#000000"/><text fill="#000000" font-family="sans-serif" font-size="14" lengthAdjust="spacing" textLength="41" x="317.75" y="114.6167">Game</text><line style="stroke:#181818;stroke-width:0.5;" x1="142" x2="502" y1="125.77" y2="125.77"/><rect fill="none" height="6" style="stroke:#C82930;stroke-width:1.0;" width="6" x="149" y="136.4184"/><text fill="#000000" font-family="sans-serif" font-size="14" lengthAdjust="spacing" textLength="61" x="161" y="142.7651">level : int</text><rect fill="none" height="6" style="stroke:#C82930;stroke-width:1.0;" width="6" x="149" y="152.7153"/><text fill="#000000" font-family="sans-serif" font-size="14" lengthAdjust="spacing" textLength="116" x="161" y="159.062">healthPoints : int</text><line style="stroke:#181818;stroke-width:0.5;" x1="142" x2="502" y1="166.3637" y2="166.3637"/><ellipse cx="152" cy="180.0122" fill="#84BE84" rx="3" ry="3" style="stroke:#038048;stroke-width:1.0;"/><text fill="#000000" font-family="sans-serif" font-size="14" lengthAdjust="spacing" textLength="323" x="161" y="183.3589">void loadSavedGame(SavedGame savedGame)</text><ellipse cx="152" cy="196.3091" fill="#84BE84" rx="3" ry="3" style="stroke:#038048;stroke-width:1.0;"/><text fill="#000000" font-family="sans-serif" font-size="14" lengthAdjust="spacing" textLength="336" x="161" y="199.6557">SavedGame saveGame(String savedGameName)</text></g><!--class GameRunner--><g id="elem_GameRunner"><rect codeLine="7" fill="#F1F1F1" height="162.0781" id="GameRunner" rx="2.5" ry="2.5" style="stroke:#181818;stroke-width:0.5;" width="346" x="827" y="69.27"/><ellipse cx="949.75" cy="85.27" fill="#ADD1B2" rx="11" ry="11" style="stroke:#181818;stroke-width:1.0;"/><path d="M952.7188,90.9106 Q952.1406,91.2075 951.5,91.3481 Q950.8594,91.5044 950.1563,91.5044 Q947.6563,91.5044 946.3281,89.8637 Q945.0156,88.2075 945.0156,85.0825 Q945.0156,81.9575 946.3281,80.3012 Q947.6563,78.645 950.1563,78.645 Q950.8594,78.645 951.5,78.8012 Q952.1563,78.9575 952.7188,79.2544 L952.7188,81.9731 Q952.0938,81.395 951.5,81.1294 Q950.9063,80.8481 950.2813,80.8481 Q948.9375,80.8481 948.25,81.9262 Q947.5625,82.9887 947.5625,85.0825 Q947.5625,87.1762 948.25,88.2544 Q948.9375,89.3169 950.2813,89.3169 Q950.9063,89.3169 951.5,89.0512 Q952.0938,88.77 952.7188,88.1919 L952.7188,90.9106 Z " fill="#000000"/><text fill="#000000" font-family="sans-serif" font-size="14" lengthAdjust="spacing" textLength="92" x="970.25" y="90.1167">GameRunner</text><line style="stroke:#181818;stroke-width:0.5;" x1="828" x2="1172" y1="101.27" y2="101.27"/><rect fill="none" height="6" style="stroke:#C82930;stroke-width:1.0;" width="6" x="835" y="111.9184"/><text fill="#000000" font-family="sans-serif" font-size="14" lengthAdjust="spacing" textLength="233" x="847" y="118.2651">savedGames : List&lt;GameSaved&gt;</text><line style="stroke:#181818;stroke-width:0.5;" x1="828" x2="1172" y1="125.5669" y2="125.5669"/><ellipse cx="838" cy="139.2153" fill="#84BE84" rx="3" ry="3" style="stroke:#038048;stroke-width:1.0;"/><text fill="#000000" font-family="sans-serif" font-size="14" lengthAdjust="spacing" textLength="320" x="847" y="142.562">void loadSavedGame(String savedGameName)</text><ellipse cx="838" cy="155.5122" fill="#84BE84" rx="3" ry="3" style="stroke:#038048;stroke-width:1.0;"/><text fill="#000000" font-family="sans-serif" font-size="14" lengthAdjust="spacing" textLength="170" x="847" y="158.8589">void showSavedGames()</text><ellipse cx="838" cy="171.8091" fill="#84BE84" rx="3" ry="3" style="stroke:#038048;stroke-width:1.0;"/><text fill="#000000" font-family="sans-serif" font-size="14" lengthAdjust="spacing" textLength="284" x="847" y="175.1557">void saveGame(SavedGame savedGame)</text><ellipse cx="838" cy="188.1059" fill="#84BE84" rx="3" ry="3" style="stroke:#038048;stroke-width:1.0;"/><text fill="#000000" font-family="sans-serif" font-size="14" lengthAdjust="spacing" textLength="136" x="847" y="191.4526">void increaseLevel()</text><ellipse cx="838" cy="204.4028" fill="#84BE84" rx="3" ry="3" style="stroke:#038048;stroke-width:1.0;"/><text fill="#000000" font-family="sans-serif" font-size="14" lengthAdjust="spacing" textLength="194" x="847" y="207.7495">void decreaseHealthPoints()</text><ellipse cx="838" cy="220.6997" fill="#84BE84" rx="3" ry="3" style="stroke:#038048;stroke-width:1.0;"/><text fill="#000000" font-family="sans-serif" font-size="14" lengthAdjust="spacing" textLength="188" x="847" y="224.0464">void increaseHealthPoints()</text></g><!--class Memento--><g id="elem_Memento"><rect codeLine="16" fill="#F1F1F1" height="96.8906" id="Memento" rx="2.5" ry="2.5" style="stroke:#181818;stroke-width:0.5;" width="153" x="576.5" y="101.77"/><ellipse cx="616.25" cy="117.77" fill="#B4A7E5" rx="11" ry="11" style="stroke:#181818;stroke-width:1.0;"/><path d="M612.1719,113.5356 L612.1719,111.3794 L619.5625,111.3794 L619.5625,113.5356 L617.0938,113.5356 L617.0938,121.6137 L619.5625,121.6137 L619.5625,123.77 L612.1719,123.77 L612.1719,121.6137 L614.6406,121.6137 L614.6406,113.5356 L612.1719,113.5356 Z " fill="#000000"/><text fill="#000000" font-family="sans-serif" font-size="14" font-style="italic" lengthAdjust="spacing" textLength="66" x="635.75" y="122.6167">Memento</text><line style="stroke:#181818;stroke-width:0.5;" x1="577.5" x2="728.5" y1="133.77" y2="133.77"/><line style="stroke:#181818;stroke-width:0.5;" x1="577.5" x2="728.5" y1="141.77" y2="141.77"/><text fill="#000000" font-family="sans-serif" font-size="14" lengthAdjust="spacing" textLength="89" x="582.5" y="158.7651">int getLevel()</text><text fill="#000000" font-family="sans-serif" font-size="14" lengthAdjust="spacing" textLength="141" x="582.5" y="175.062">int getHealthPoints()</text><text fill="#000000" font-family="sans-serif" font-size="14" lengthAdjust="spacing" textLength="92" x="582.5" y="191.3589">void restore()</text></g><!--class SavedGame--><g id="elem_SavedGame"><rect codeLine="21" fill="#F1F1F1" height="145.7813" id="SavedGame" rx="2.5" ry="2.5" style="stroke:#181818;stroke-width:0.5;" width="167" x="339.5" y="316.27"/><ellipse cx="377.9" cy="332.27" fill="#ADD1B2" rx="11" ry="11" style="stroke:#181818;stroke-width:1.0;"/><path d="M380.8688,337.9106 Q380.2906,338.2075 379.65,338.3481 Q379.0094,338.5044 378.3063,338.5044 Q375.8063,338.5044 374.4781,336.8638 Q373.1656,335.2075 373.1656,332.0825 Q373.1656,328.9575 374.4781,327.3013 Q375.8063,325.645 378.3063,325.645 Q379.0094,325.645 379.65,325.8013 Q380.3063,325.9575 380.8688,326.2544 L380.8688,328.9731 Q380.2438,328.395 379.65,328.1294 Q379.0563,327.8481 378.4313,327.8481 Q377.0875,327.8481 376.4,328.9263 Q375.7125,329.9888 375.7125,332.0825 Q375.7125,334.1763 376.4,335.2544 Q377.0875,336.3169 378.4313,336.3169 Q379.0563,336.3169 379.65,336.0513 Q380.2438,335.77 380.8688,335.1919 L380.8688,337.9106 Z " fill="#000000"/><text fill="#000000" font-family="sans-serif" font-size="14" lengthAdjust="spacing" textLength="83" x="397.1" y="337.1167">SavedGame</text><line style="stroke:#181818;stroke-width:0.5;" x1="340.5" x2="505.5" y1="348.27" y2="348.27"/><rect fill="none" height="6" style="stroke:#C82930;stroke-width:1.0;" width="6" x="347.5" y="358.9184"/><text fill="#000000" font-family="sans-serif" font-size="14" lengthAdjust="spacing" textLength="92" x="359.5" y="365.2651">name : String</text><rect fill="none" height="6" style="stroke:#C82930;stroke-width:1.0;" width="6" x="347.5" y="375.2153"/><text fill="#000000" font-family="sans-serif" font-size="14" lengthAdjust="spacing" textLength="61" x="359.5" y="381.562">level : int</text><rect fill="none" height="6" style="stroke:#C82930;stroke-width:1.0;" width="6" x="347.5" y="391.5122"/><text fill="#000000" font-family="sans-serif" font-size="14" lengthAdjust="spacing" textLength="116" x="359.5" y="397.8589">healthPoints : int</text><rect fill="none" height="6" style="stroke:#C82930;stroke-width:1.0;" width="6" x="347.5" y="407.8091"/><text fill="#000000" font-family="sans-serif" font-size="14" lengthAdjust="spacing" textLength="93" x="359.5" y="414.1557">game : Game</text><line style="stroke:#181818;stroke-width:0.5;" x1="340.5" x2="505.5" y1="421.4575" y2="421.4575"/><ellipse cx="350.5" cy="435.1059" fill="#84BE84" rx="3" ry="3" style="stroke:#038048;stroke-width:1.0;"/><text fill="#000000" font-family="sans-serif" font-size="14" lengthAdjust="spacing" textLength="89" x="359.5" y="438.4526">int getLevel()</text><ellipse cx="350.5" cy="451.4028" fill="#84BE84" rx="3" ry="3" style="stroke:#038048;stroke-width:1.0;"/><text fill="#000000" font-family="sans-serif" font-size="14" lengthAdjust="spacing" textLength="141" x="359.5" y="454.7495">int getHealthPoints()</text></g><!--class Main--><g id="elem_Main"><rect codeLine="29" fill="#F1F1F1" height="48" id="Main" rx="2.5" ry="2.5" style="stroke:#181818;stroke-width:0.5;" width="64" x="7" y="126.27"/><ellipse cx="22" cy="142.27" fill="#ADD1B2" rx="11" ry="11" style="stroke:#181818;stroke-width:1.0;"/><path d="M24.9688,147.9106 Q24.3906,148.2075 23.75,148.3481 Q23.1094,148.5044 22.4063,148.5044 Q19.9063,148.5044 18.5781,146.8637 Q17.2656,145.2075 17.2656,142.0825 Q17.2656,138.9575 18.5781,137.3012 Q19.9063,135.645 22.4063,135.645 Q23.1094,135.645 23.75,135.8012 Q24.4063,135.9575 24.9688,136.2544 L24.9688,138.9731 Q24.3438,138.395 23.75,138.1294 Q23.1563,137.8481 22.5313,137.8481 Q21.1875,137.8481 20.5,138.9262 Q19.8125,139.9887 19.8125,142.0825 Q19.8125,144.1762 20.5,145.2544 Q21.1875,146.3169 22.5313,146.3169 Q23.1563,146.3169 23.75,146.0512 Q24.3438,145.77 24.9688,145.1919 L24.9688,147.9106 Z " fill="#000000"/><text fill="#000000" font-family="sans-serif" font-size="14" lengthAdjust="spacing" textLength="32" x="36" y="147.1167">Main</text><line style="stroke:#181818;stroke-width:0.5;" x1="8" x2="70" y1="158.27" y2="158.27"/><line style="stroke:#181818;stroke-width:0.5;" x1="8" x2="70" y1="166.27" y2="166.27"/></g><!--reverse link Memento to SavedGame--><g id="link_Memento_SavedGame"><path d="M594.1827,211.746 C562.7027,244.126 532.91,274.75 496.81,311.87 " fill="none" id="Memento-backto-SavedGame" style="stroke:#181818;stroke-width:1.0;stroke-dasharray:7.0,7.0;"/><polygon fill="none" points="606.73,198.84,589.8807,207.5636,598.4847,215.9285,606.73,198.84" style="stroke:#181818;stroke-width:1.0;"/></g><!--link Main to GameRunner--><g id="link_Main_GameRunner"><path codeLine="30" d="M55.21,126.26 C70.22,106.19 94.49,78.75 123,65.27 C248.36,6 611.42,36.17 747,65.27 C770.56,70.33 789.231,75.1227 813.201,82.2827 " fill="none" id="Main-to-GameRunner" style="stroke:#181818;stroke-width:1.0;stroke-dasharray:1.0,3.0;"/><polygon fill="#181818" points="818.95,84,811.4713,77.5914,814.1592,82.5689,809.1817,85.2568,818.95,84" style="stroke:#181818;stroke-width:1.0;"/><text fill="#000000" font-family="sans-serif" font-size="13" lengthAdjust="spacing" textLength="57" x="416.5" y="31.3369">operates</text></g><!--link Main to Game--><g id="link_Main_Game"><path codeLine="31" d="M71.19,150.27 C89.51,150.27 108.1,150.27 134.72,150.27 " fill="none" id="Main-to-Game" style="stroke:#181818;stroke-width:1.0;"/><polygon fill="#181818" points="140.72,150.27,131.72,146.27,135.72,150.27,131.72,154.27,140.72,150.27" style="stroke:#181818;stroke-width:1.0;"/><text fill="#000000" font-family="sans-serif" font-size="13" lengthAdjust="spacing" textLength="33" x="89.5" y="143.3369">plays</text></g><!--link Game to Memento--><g id="link_Game_Memento"><path codeLine="32" d="M503.48,150.27 C529.08,150.27 548.16,150.27 570.25,150.27 " fill="none" id="Game-to-Memento" style="stroke:#181818;stroke-width:1.0;stroke-dasharray:1.0,3.0;"/><polygon fill="#181818" points="576.25,150.27,567.25,146.27,571.25,150.27,567.25,154.27,576.25,150.27" style="stroke:#181818;stroke-width:1.0;"/><text fill="#000000" font-family="sans-serif" font-size="13" lengthAdjust="spacing" textLength="37" x="521.25" y="143.3369">saves</text></g><!--link Memento to GameRunner--><g id="link_Memento_GameRunner"><path codeLine="33" d="M735.7068,125.2988 C765.3868,118.0088 782.08,113.27 814,113.27 " fill="none" id="Memento-GameRunner" style="stroke:#181818;stroke-width:1.0;"/><polygon fill="#181818" points="729.88,126.73,739.5743,128.4678,734.7357,125.5373,737.6661,120.6987,729.88,126.73" style="stroke:#181818;stroke-width:1.0;"/><polygon fill="none" points="826,113.27,820,109.27,814,113.27,820,117.27,826,113.27" style="stroke:#181818;stroke-width:1.0;"/><text fill="#000000" font-family="sans-serif" font-size="13" lengthAdjust="spacing" textLength="53" x="748.5" y="111.3369">restores</text></g><!--reverse link Game to SavedGame--><g id="link_Game_SavedGame"><path codeLine="34" d="M302.3705,212.6017 C280.8705,288.2917 258.69,408.77 339,408.77 " fill="none" id="Game-backto-SavedGame" style="stroke:#181818;stroke-width:1.0;stroke-dasharray:1.0,3.0;"/><polygon fill="#181818" points="304.01,206.83,297.703,214.3945,302.6438,211.6397,305.3986,216.5805,304.01,206.83" style="stroke:#181818;stroke-width:1.0;"/><text fill="#000000" font-family="sans-serif" font-size="13" lengthAdjust="spacing" textLength="53" x="290" y="278.3369">restores</text></g><!--SRC=[bPB1ReGW48RlFiKSRJQy06dssXvscwOzDZqGdLKI1CDGcwRPTwyW8bgtIJqGcFcO-UUNIWaYU10TmdS1uyT0uO0AE4ZjOgH5eLpxRCO8POa334RMe8oeNyM0jQzIfXtGlBkBz3erqSvAtIpeKy2lHPLalNneZJQ9IwGNSfBaxlqXL3x-8MgtJOPJQpuJJkKwbyJU7Ys0KbSM1U796xYkKUEKUioSB7SlRuXhCMxGNaI5SCOEjJFHYp4E3RgyMGpjD0ajB98p5il5u6KYsVKgbATD6mRQvpbC7lxtZJ1efkk-IvntH_dXXlPPw5b8NVW56BEoQTrRRPp3-fqTyrV2mVHeXKDQmH4QqxqINrI4m-z2y-0y_Dy9cmfpdhqxmvZ2YrjTYDPIaHpbF0mUq8tOZFy1]--></g></svg>