<?xml version="1.0" encoding="us-ascii" standalone="no"?><svg xmlns="http://www.w3.org/2000/svg" xmlns:xlink="http://www.w3.org/1999/xlink" contentStyleType="text/css" height="269px" preserveAspectRatio="none" style="width:884px;height:269px;background:#FFFFFF;" version="1.1" viewBox="0 0 884 269" width="884px" zoomAndPan="magnify"><defs/><g><!--class UserApi--><g id="elem_UserApi"><rect codeLine="1" fill="#F1F1F1" height="80.5938" id="UserApi" rx="2.5" ry="2.5" style="stroke:#181818;stroke-width:0.5;" width="222" x="303" y="7"/><ellipse cx="383.25" cy="23" fill="#B4A7E5" rx="11" ry="11" style="stroke:#181818;stroke-width:1.0;"/><path d="M379.1719,18.7656 L379.1719,16.6094 L386.5625,16.6094 L386.5625,18.7656 L384.0938,18.7656 L384.0938,26.8438 L386.5625,26.8438 L386.5625,29 L379.1719,29 L379.1719,26.8438 L381.6406,26.8438 L381.6406,18.7656 L379.1719,18.7656 Z " fill="#000000"/><text fill="#000000" font-family="sans-serif" font-size="14" font-style="italic" lengthAdjust="spacing" textLength="53" x="403.75" y="27.8467">UserApi</text><line style="stroke:#181818;stroke-width:0.5;" x1="304" x2="524" y1="39" y2="39"/><line style="stroke:#181818;stroke-width:0.5;" x1="304" x2="524" y1="47" y2="47"/><text fill="#000000" font-family="sans-serif" font-size="14" lengthAdjust="spacing" textLength="117" x="309" y="63.9951">String getUsers()</text><text fill="#000000" font-family="sans-serif" font-size="14" lengthAdjust="spacing" textLength="210" x="309" y="80.292">String getUsersById(int userId)</text></g><!--class User--><g id="elem_User"><rect codeLine="5" fill="#F1F1F1" height="80.5938" id="User" rx="2.5" ry="2.5" style="stroke:#181818;stroke-width:0.5;" width="118" x="759" y="165"/><ellipse cx="798.3" cy="181" fill="#ADD1B2" rx="11" ry="11" style="stroke:#181818;stroke-width:1.0;"/><path d="M801.2688,186.6406 Q800.6906,186.9375 800.05,187.0781 Q799.4094,187.2344 798.7063,187.2344 Q796.2063,187.2344 794.8781,185.5938 Q793.5656,183.9375 793.5656,180.8125 Q793.5656,177.6875 794.8781,176.0313 Q796.2063,174.375 798.7063,174.375 Q799.4094,174.375 800.05,174.5313 Q800.7063,174.6875 801.2688,174.9844 L801.2688,177.7031 Q800.6438,177.125 800.05,176.8594 Q799.4563,176.5781 798.8313,176.5781 Q797.4875,176.5781 796.8,177.6563 Q796.1125,178.7188 796.1125,180.8125 Q796.1125,182.9063 796.8,183.9844 Q797.4875,185.0469 798.8313,185.0469 Q799.4563,185.0469 800.05,184.7813 Q800.6438,184.5 801.2688,183.9219 L801.2688,186.6406 Z " fill="#000000"/><text fill="#000000" font-family="sans-serif" font-size="14" lengthAdjust="spacing" textLength="32" x="817.7" y="185.8467">User</text><line style="stroke:#181818;stroke-width:0.5;" x1="760" x2="876" y1="197" y2="197"/><ellipse cx="770" cy="210.6484" fill="none" rx="3" ry="3" style="stroke:#038048;stroke-width:1.0;"/><text fill="#000000" font-family="sans-serif" font-size="14" lengthAdjust="spacing" textLength="42" x="779" y="213.9951">id : int</text><ellipse cx="770" cy="226.9453" fill="none" rx="3" ry="3" style="stroke:#038048;stroke-width:1.0;"/><text fill="#000000" font-family="sans-serif" font-size="14" lengthAdjust="spacing" textLength="92" x="779" y="230.292">name : String</text><line style="stroke:#181818;stroke-width:0.5;" x1="760" x2="876" y1="237.5938" y2="237.5938"/></g><!--class UserApiClient--><g id="elem_UserApiClient"><rect codeLine="9" fill="#F1F1F1" height="96.8906" id="UserApiClient" rx="2.5" ry="2.5" style="stroke:#181818;stroke-width:0.5;" width="236" x="455" y="157.5"/><ellipse cx="522.75" cy="173.5" fill="#ADD1B2" rx="11" ry="11" style="stroke:#181818;stroke-width:1.0;"/><path d="M525.7188,179.1406 Q525.1406,179.4375 524.5,179.5781 Q523.8594,179.7344 523.1563,179.7344 Q520.6563,179.7344 519.3281,178.0938 Q518.0156,176.4375 518.0156,173.3125 Q518.0156,170.1875 519.3281,168.5313 Q520.6563,166.875 523.1563,166.875 Q523.8594,166.875 524.5,167.0313 Q525.1563,167.1875 525.7188,167.4844 L525.7188,170.2031 Q525.0938,169.625 524.5,169.3594 Q523.9063,169.0781 523.2813,169.0781 Q521.9375,169.0781 521.25,170.1563 Q520.5625,171.2188 520.5625,173.3125 Q520.5625,175.4063 521.25,176.4844 Q521.9375,177.5469 523.2813,177.5469 Q523.9063,177.5469 524.5,177.2813 Q525.0938,177 525.7188,176.4219 L525.7188,179.1406 Z " fill="#000000"/><text fill="#000000" font-family="sans-serif" font-size="14" lengthAdjust="spacing" textLength="92" x="543.25" y="178.3467">UserApiClient</text><line style="stroke:#181818;stroke-width:0.5;" x1="456" x2="690" y1="189.5" y2="189.5"/><rect fill="none" height="6" style="stroke:#C82930;stroke-width:1.0;" width="6" x="463" y="200.1484"/><text fill="#000000" font-family="sans-serif" font-size="14" lengthAdjust="spacing" textLength="90" x="475" y="206.4951">users: User[]</text><line style="stroke:#181818;stroke-width:0.5;" x1="456" x2="690" y1="213.7969" y2="213.7969"/><ellipse cx="466" cy="227.4453" fill="#84BE84" rx="3" ry="3" style="stroke:#038048;stroke-width:1.0;"/><text fill="#000000" font-family="sans-serif" font-size="14" lengthAdjust="spacing" textLength="117" x="475" y="230.792">String getUsers()</text><ellipse cx="466" cy="243.7422" fill="#84BE84" rx="3" ry="3" style="stroke:#038048;stroke-width:1.0;"/><text fill="#000000" font-family="sans-serif" font-size="14" lengthAdjust="spacing" textLength="210" x="475" y="247.0889">String getUsersById(int userId)</text></g><!--class UserApiProxy--><g id="elem_UserApiProxy"><rect codeLine="14" fill="#F1F1F1" height="113.1875" id="UserApiProxy" rx="2.5" ry="2.5" style="stroke:#181818;stroke-width:0.5;" width="236" x="138" y="149"/><ellipse cx="206.75" cy="165" fill="#ADD1B2" rx="11" ry="11" style="stroke:#181818;stroke-width:1.0;"/><path d="M209.7188,170.6406 Q209.1406,170.9375 208.5,171.0781 Q207.8594,171.2344 207.1563,171.2344 Q204.6563,171.2344 203.3281,169.5938 Q202.0156,167.9375 202.0156,164.8125 Q202.0156,161.6875 203.3281,160.0313 Q204.6563,158.375 207.1563,158.375 Q207.8594,158.375 208.5,158.5313 Q209.1563,158.6875 209.7188,158.9844 L209.7188,161.7031 Q209.0938,161.125 208.5,160.8594 Q207.9063,160.5781 207.2813,160.5781 Q205.9375,160.5781 205.25,161.6563 Q204.5625,162.7188 204.5625,164.8125 Q204.5625,166.9063 205.25,167.9844 Q205.9375,169.0469 207.2813,169.0469 Q207.9063,169.0469 208.5,168.7813 Q209.0938,168.5 209.7188,167.9219 L209.7188,170.6406 Z " fill="#000000"/><text fill="#000000" font-family="sans-serif" font-size="14" lengthAdjust="spacing" textLength="90" x="227.25" y="169.8467">UserApiProxy</text><line style="stroke:#181818;stroke-width:0.5;" x1="139" x2="373" y1="181" y2="181"/><rect fill="none" height="6" style="stroke:#C82930;stroke-width:1.0;" width="6" x="146" y="191.6484"/><text fill="#000000" font-family="sans-serif" font-size="14" lengthAdjust="spacing" textLength="148" x="158" y="197.9951">requestsCounter : int</text><line style="stroke:#181818;stroke-width:0.5;" x1="139" x2="373" y1="205.2969" y2="205.2969"/><ellipse cx="149" cy="218.9453" fill="#84BE84" rx="3" ry="3" style="stroke:#038048;stroke-width:1.0;"/><text fill="#000000" font-family="sans-serif" font-size="14" lengthAdjust="spacing" textLength="117" x="158" y="222.292">String getUsers()</text><ellipse cx="149" cy="235.2422" fill="#84BE84" rx="3" ry="3" style="stroke:#038048;stroke-width:1.0;"/><text fill="#000000" font-family="sans-serif" font-size="14" lengthAdjust="spacing" textLength="210" x="158" y="238.5889">String getUsersById(int userId)</text><ellipse cx="149" cy="251.5391" fill="#84BE84" rx="3" ry="3" style="stroke:#038048;stroke-width:1.0;"/><text fill="#000000" font-family="sans-serif" font-size="14" lengthAdjust="spacing" textLength="169" x="158" y="254.8857">int getRequestCounter()</text></g><!--class Main--><g id="elem_Main"><rect codeLine="20" fill="#F1F1F1" height="48" id="Main" rx="2.5" ry="2.5" style="stroke:#181818;stroke-width:0.5;" width="64" x="7" y="181.5"/><ellipse cx="22" cy="197.5" fill="#ADD1B2" rx="11" ry="11" style="stroke:#181818;stroke-width:1.0;"/><path d="M24.9688,203.1406 Q24.3906,203.4375 23.75,203.5781 Q23.1094,203.7344 22.4063,203.7344 Q19.9063,203.7344 18.5781,202.0938 Q17.2656,200.4375 17.2656,197.3125 Q17.2656,194.1875 18.5781,192.5313 Q19.9063,190.875 22.4063,190.875 Q23.1094,190.875 23.75,191.0313 Q24.4063,191.1875 24.9688,191.4844 L24.9688,194.2031 Q24.3438,193.625 23.75,193.3594 Q23.1563,193.0781 22.5313,193.0781 Q21.1875,193.0781 20.5,194.1563 Q19.8125,195.2188 19.8125,197.3125 Q19.8125,199.4063 20.5,200.4844 Q21.1875,201.5469 22.5313,201.5469 Q23.1563,201.5469 23.75,201.2813 Q24.3438,201 24.9688,200.4219 L24.9688,203.1406 Z " fill="#000000"/><text fill="#000000" font-family="sans-serif" font-size="14" lengthAdjust="spacing" textLength="32" x="36" y="202.3467">Main</text><line style="stroke:#181818;stroke-width:0.5;" x1="8" x2="70" y1="213.5" y2="213.5"/><line style="stroke:#181818;stroke-width:0.5;" x1="8" x2="70" y1="221.5" y2="221.5"/></g><!--reverse link UserApi to UserApiClient--><g id="link_UserApi_UserApiClient"><path d="M467.3785,100.8762 C487.5285,120.6462 499.27,132.16 520.81,153.3 " fill="none" id="UserApi-backto-UserApiClient" style="stroke:#181818;stroke-width:1.0;stroke-dasharray:7.0,7.0;"/><polygon fill="none" points="454.53,88.27,463.1764,105.159,471.5806,96.5934,454.53,88.27" style="stroke:#181818;stroke-width:1.0;"/></g><!--reverse link UserApi to UserApiProxy--><g id="link_UserApi_UserApiProxy"><path d="M360.9099,100.9152 C342.2599,119.3252 332.59,128.88 312.3,148.91 " fill="none" id="UserApi-backto-UserApiProxy" style="stroke:#181818;stroke-width:1.0;stroke-dasharray:7.0,7.0;"/><polygon fill="none" points="373.72,88.27,356.6948,96.6452,365.125,105.1853,373.72,88.27" style="stroke:#181818;stroke-width:1.0;"/></g><!--link Main to UserApiProxy--><g id="link_Main_UserApiProxy"><path codeLine="21" d="M71.02,205.5 C89.17,205.5 107.14,205.5 131.79,205.5 " fill="none" id="Main-to-UserApiProxy" style="stroke:#181818;stroke-width:1.0;"/><polygon fill="#181818" points="137.79,205.5,128.79,201.5,132.79,205.5,128.79,209.5,137.79,205.5" style="stroke:#181818;stroke-width:1.0;"/><text fill="#000000" font-family="sans-serif" font-size="13" lengthAdjust="spacing" textLength="30" x="89.5" y="198.5669">uses</text></g><!--link UserApiProxy to UserApiClient--><g id="link_UserApiProxy_UserApiClient"><path codeLine="22" d="M386.04,205.5 C409.8,205.5 416.87,205.5 440.89,205.5 " fill="none" id="UserApiProxy-UserApiClient" style="stroke:#181818;stroke-width:1.0;"/><polygon fill="none" points="374.04,205.5,380.04,209.5,386.04,205.5,380.04,201.5,374.04,205.5" style="stroke:#181818;stroke-width:1.0;"/><polygon fill="#181818" points="446.89,205.5,437.89,201.5,441.89,205.5,437.89,209.5,446.89,205.5" style="stroke:#181818;stroke-width:1.0;"/><text fill="#000000" font-family="sans-serif" font-size="13" lengthAdjust="spacing" textLength="36" x="392.5" y="198.5669">has-a</text></g><!--link UserApiClient to User--><g id="link_UserApiClient_User"><path codeLine="23" d="M704,201.5 C716.77,201.5 704.21,189.96 716.5,186.5 C727.19,183.49 730.47,185.13 741.5,186.5 C747.13,187.2 747.065,187.0111 752.855,188.1611 " fill="none" id="UserApiClient-User" style="stroke:#181818;stroke-width:1.0;"/><polygon fill="none" points="692,201.5,698,205.5,704,201.5,698,197.5,692,201.5" style="stroke:#181818;stroke-width:1.0;"/><polygon fill="#181818" points="758.74,189.33,750.6917,183.6533,753.8358,188.3559,749.1332,191.5,758.74,189.33" style="stroke:#181818;stroke-width:1.0;"/><text fill="#000000" font-family="sans-serif" font-size="13" lengthAdjust="spacing" textLength="23" x="717.5" y="181.5669">0..*</text></g><!--SRC=[dL31Yi8m5BpdAnwUMgNYEOS5zUH1M1HFonv2-wmFsjJDIq6H_VTzRRDAf1VD8IIJUJEJ8UlH7KsES61qopF1JO6ilNTaIoZHTpWdwHYwkcwAXAo7LcwR8bM_AgyCSwyLX6P01MWGLhXQKwC0WrGq8UxhYb3qg3vNMClf_Z28PRqJwnxz-WwAurbdBwKLYq_NNAuZrl3lxV2dHVQyRjgkjUXNxsO85GaYbDrW4FIJHyAj8Qkw3J97vSbd7t5etUcnYh3ccHgwrJ0v6SxCH4MurdsrJsF2Nipdqpy0]--></g></svg>