<?xml version="1.0" encoding="us-ascii" standalone="no"?><svg xmlns="http://www.w3.org/2000/svg" xmlns:xlink="http://www.w3.org/1999/xlink" contentStyleType="text/css" height="778px" preserveAspectRatio="none" style="width:851px;height:778px;background:#FFFFFF;" version="1.1" viewBox="0 0 851 778" width="851px" zoomAndPan="magnify"><defs/><g><!--class GameMediator--><g id="elem_GameMediator"><rect codeLine="1" fill="#F1F1F1" height="96.8906" id="GameMediator" rx="2.5" ry="2.5" style="stroke:#181818;stroke-width:0.5;" width="365" x="234.5" y="7"/><ellipse cx="362.25" cy="23" fill="#B4A7E5" rx="11" ry="11" style="stroke:#181818;stroke-width:1.0;"/><path d="M358.1719,18.7656 L358.1719,16.6094 L365.5625,16.6094 L365.5625,18.7656 L363.0938,18.7656 L363.0938,26.8438 L365.5625,26.8438 L365.5625,29 L358.1719,29 L358.1719,26.8438 L360.6406,26.8438 L360.6406,18.7656 L358.1719,18.7656 Z " fill="#000000"/><text fill="#000000" font-family="sans-serif" font-size="14" font-style="italic" lengthAdjust="spacing" textLength="101" x="382.75" y="27.8467">GameMediator</text><line style="stroke:#181818;stroke-width:0.5;" x1="235.5" x2="598.5" y1="39" y2="39"/><line style="stroke:#181818;stroke-width:0.5;" x1="235.5" x2="598.5" y1="47" y2="47"/><text fill="#000000" font-family="sans-serif" font-size="14" lengthAdjust="spacing" textLength="295" x="240.5" y="63.9951">void attack(String playerId, int attackPoints)</text><text fill="#000000" font-family="sans-serif" font-size="14" lengthAdjust="spacing" textLength="303" x="240.5" y="80.292">void cure(String playerId, int lifePointsCured)</text><text fill="#000000" font-family="sans-serif" font-size="14" lengthAdjust="spacing" textLength="353" x="240.5" y="96.5889">void sendMessage(String playerId, String message)</text></g><!--class GameServer--><g id="elem_GameServer"><rect codeLine="6" fill="#F1F1F1" height="145.7813" id="GameServer" rx="2.5" ry="2.5" style="stroke:#181818;stroke-width:0.5;" width="379" x="19.5" y="169"/><ellipse cx="162.25" cy="185" fill="#ADD1B2" rx="11" ry="11" style="stroke:#181818;stroke-width:1.0;"/><path d="M165.2188,190.6406 Q164.6406,190.9375 164,191.0781 Q163.3594,191.2344 162.6563,191.2344 Q160.1563,191.2344 158.8281,189.5938 Q157.5156,187.9375 157.5156,184.8125 Q157.5156,181.6875 158.8281,180.0313 Q160.1563,178.375 162.6563,178.375 Q163.3594,178.375 164,178.5313 Q164.6563,178.6875 165.2188,178.9844 L165.2188,181.7031 Q164.5938,181.125 164,180.8594 Q163.4063,180.5781 162.7813,180.5781 Q161.4375,180.5781 160.75,181.6563 Q160.0625,182.7188 160.0625,184.8125 Q160.0625,186.9063 160.75,187.9844 Q161.4375,189.0469 162.7813,189.0469 Q163.4063,189.0469 164,188.7813 Q164.5938,188.5 165.2188,187.9219 L165.2188,190.6406 Z " fill="#000000"/><text fill="#000000" font-family="sans-serif" font-size="14" lengthAdjust="spacing" textLength="85" x="182.75" y="189.8467">GameServer</text><line style="stroke:#181818;stroke-width:0.5;" x1="20.5" x2="397.5" y1="201" y2="201"/><rect fill="none" height="6" style="stroke:#C82930;stroke-width:1.0;" width="6" x="27.5" y="211.6484"/><text fill="#000000" font-family="sans-serif" font-size="14" lengthAdjust="spacing" textLength="150" x="39.5" y="217.9951">players : List&lt;Player&gt;</text><line style="stroke:#181818;stroke-width:0.5;" x1="20.5" x2="397.5" y1="225.2969" y2="225.2969"/><rect fill="#F24D5C" height="6" style="stroke:#C82930;stroke-width:1.0;" width="6" x="27.5" y="235.9453"/><text fill="#000000" font-family="sans-serif" font-size="14" lengthAdjust="spacing" textLength="218" x="39.5" y="242.292">Player findPlayer(String playerId)</text><ellipse cx="30.5" cy="255.2422" fill="#84BE84" rx="3" ry="3" style="stroke:#038048;stroke-width:1.0;"/><text fill="#000000" font-family="sans-serif" font-size="14" lengthAdjust="spacing" textLength="222" x="39.5" y="258.5889">void registerPlayer(Player player)</text><ellipse cx="30.5" cy="271.5391" fill="#84BE84" rx="3" ry="3" style="stroke:#038048;stroke-width:1.0;"/><text fill="#000000" font-family="sans-serif" font-size="14" lengthAdjust="spacing" textLength="295" x="39.5" y="274.8857">void attack(String playerId, int attackPoints)</text><ellipse cx="30.5" cy="287.8359" fill="#84BE84" rx="3" ry="3" style="stroke:#038048;stroke-width:1.0;"/><text fill="#000000" font-family="sans-serif" font-size="14" lengthAdjust="spacing" textLength="303" x="39.5" y="291.1826">void cure(String playerId, int lifePointsCured)</text><ellipse cx="30.5" cy="304.1328" fill="#84BE84" rx="3" ry="3" style="stroke:#038048;stroke-width:1.0;"/><text fill="#000000" font-family="sans-serif" font-size="14" lengthAdjust="spacing" textLength="353" x="39.5" y="307.4795">void sendMessage(String playerId, String message)</text></g><!--class Player--><g id="elem_Player"><rect codeLine="14" fill="#F1F1F1" height="227.2656" id="Player" rx="2.5" ry="2.5" style="stroke:#181818;stroke-width:0.5;" width="379" x="352.5" y="399"/><ellipse cx="517.25" cy="415" fill="#A9DCDF" rx="11" ry="11" style="stroke:#181818;stroke-width:1.0;"/><path d="M517.3594,410.3438 L516.2031,415.4219 L518.5313,415.4219 L517.3594,410.3438 Z M515.875,408.1094 L518.8594,408.1094 L522.2188,420.5 L519.7656,420.5 L519,417.4375 L515.7188,417.4375 L514.9688,420.5 L512.5313,420.5 L515.875,408.1094 Z " fill="#000000"/><text fill="#000000" font-family="sans-serif" font-size="14" font-style="italic" lengthAdjust="spacing" textLength="41" x="537.75" y="419.8467">Player</text><line style="stroke:#181818;stroke-width:0.5;" x1="353.5" x2="730.5" y1="431" y2="431"/><polygon fill="none" points="363.5,440.6484,359.5,446.6484,367.5,446.6484" style="stroke:#1963A0;stroke-width:1.0;"/><text fill="#000000" font-family="sans-serif" font-size="14" lengthAdjust="spacing" textLength="197" x="372.5" y="447.9951">gameServer : GameMediator</text><polygon fill="none" points="363.5,456.9453,359.5,462.9453,367.5,462.9453" style="stroke:#1963A0;stroke-width:1.0;"/><text fill="#000000" font-family="sans-serif" font-size="14" lengthAdjust="spacing" textLength="65" x="372.5" y="464.292">id : String</text><polygon fill="none" points="363.5,473.2422,359.5,479.2422,367.5,479.2422" style="stroke:#1963A0;stroke-width:1.0;"/><text fill="#000000" font-family="sans-serif" font-size="14" lengthAdjust="spacing" textLength="92" x="372.5" y="480.5889">lifePoints : int</text><rect fill="none" height="6" style="stroke:#C82930;stroke-width:1.0;" width="6" x="360.5" y="490.5391"/><text fill="#000000" font-family="sans-serif" font-size="14" lengthAdjust="spacing" text-decoration="underline" textLength="159" x="372.5" y="496.8857">INITIAL_LIFEPOINTS : int</text><line style="stroke:#181818;stroke-width:0.5;" x1="353.5" x2="730.5" y1="504.1875" y2="504.1875"/><polygon fill="#4177AF" points="363.5,513.8359,359.5,519.8359,367.5,519.8359" style="stroke:#1963A0;stroke-width:1.0;"/><text fill="#000000" font-family="sans-serif" font-size="14" lengthAdjust="spacing" textLength="214" x="372.5" y="521.1826">void reduceLifePoints(int value)</text><polygon fill="#4177AF" points="363.5,530.1328,359.5,536.1328,367.5,536.1328" style="stroke:#1963A0;stroke-width:1.0;"/><text fill="#000000" font-family="sans-serif" font-size="14" lengthAdjust="spacing" textLength="191" x="372.5" y="537.4795">void addLifePoints(int value)</text><polygon fill="#4177AF" points="363.5,546.4297,359.5,552.4297,367.5,552.4297" style="stroke:#1963A0;stroke-width:1.0;"/><text fill="#000000" font-family="sans-serif" font-size="14" lengthAdjust="spacing" textLength="353" x="372.5" y="553.7764">void sendMessage(String playerId, String message)</text><polygon fill="#4177AF" points="363.5,562.7266,359.5,568.7266,367.5,568.7266" style="stroke:#1963A0;stroke-width:1.0;"/><text fill="#000000" font-family="sans-serif" font-size="14" font-style="italic" lengthAdjust="spacing" textLength="243" x="372.5" y="570.0732">void executeAction(String playerId)</text><ellipse cx="363.5" cy="583.0234" fill="#84BE84" rx="3" ry="3" style="stroke:#038048;stroke-width:1.0;"/><text fill="#000000" font-family="sans-serif" font-size="14" lengthAdjust="spacing" textLength="89" x="372.5" y="586.3701">String getId()</text><ellipse cx="363.5" cy="599.3203" fill="#84BE84" rx="3" ry="3" style="stroke:#038048;stroke-width:1.0;"/><text fill="#000000" font-family="sans-serif" font-size="14" lengthAdjust="spacing" textLength="120" x="372.5" y="602.667">int getLifePoints()</text><ellipse cx="363.5" cy="615.6172" fill="#84BE84" rx="3" ry="3" style="stroke:#038048;stroke-width:1.0;"/><text fill="#000000" font-family="sans-serif" font-size="14" lengthAdjust="spacing" textLength="118" x="372.5" y="618.9639">boolean isDead()</text></g><!--class Soldier--><g id="elem_Soldier"><rect codeLine="27" fill="#F1F1F1" height="80.5938" id="Soldier" rx="2.5" ry="2.5" style="stroke:#181818;stroke-width:0.5;" width="264" x="9" y="691"/><ellipse cx="113.25" cy="707" fill="#ADD1B2" rx="11" ry="11" style="stroke:#181818;stroke-width:1.0;"/><path d="M116.2188,712.6406 Q115.6406,712.9375 115,713.0781 Q114.3594,713.2344 113.6563,713.2344 Q111.1563,713.2344 109.8281,711.5938 Q108.5156,709.9375 108.5156,706.8125 Q108.5156,703.6875 109.8281,702.0313 Q111.1563,700.375 113.6563,700.375 Q114.3594,700.375 115,700.5313 Q115.6563,700.6875 116.2188,700.9844 L116.2188,703.7031 Q115.5938,703.125 115,702.8594 Q114.4063,702.5781 113.7813,702.5781 Q112.4375,702.5781 111.75,703.6563 Q111.0625,704.7188 111.0625,706.8125 Q111.0625,708.9063 111.75,709.9844 Q112.4375,711.0469 113.7813,711.0469 Q114.4063,711.0469 115,710.7813 Q115.5938,710.5 116.2188,709.9219 L116.2188,712.6406 Z " fill="#000000"/><text fill="#000000" font-family="sans-serif" font-size="14" lengthAdjust="spacing" textLength="47" x="133.75" y="711.8467">Soldier</text><line style="stroke:#181818;stroke-width:0.5;" x1="10" x2="272" y1="723" y2="723"/><rect fill="none" height="6" style="stroke:#C82930;stroke-width:1.0;" width="6" x="17" y="733.6484"/><text fill="#000000" font-family="sans-serif" font-size="14" lengthAdjust="spacing" text-decoration="underline" textLength="159" x="29" y="739.9951">INITIAL_LIFEPOINTS : int</text><line style="stroke:#181818;stroke-width:0.5;" x1="10" x2="272" y1="747.2969" y2="747.2969"/><polygon fill="#4177AF" points="20,756.9453,16,762.9453,24,762.9453" style="stroke:#1963A0;stroke-width:1.0;"/><text fill="#000000" font-family="sans-serif" font-size="14" lengthAdjust="spacing" textLength="238" x="29" y="764.292">void executeAction(String playerId)</text></g><!--class Paramedic--><g id="elem_Paramedic"><rect codeLine="31" fill="#F1F1F1" height="80.5938" id="Paramedic" rx="2.5" ry="2.5" style="stroke:#181818;stroke-width:0.5;" width="264" x="359" y="691"/><ellipse cx="450.75" cy="707" fill="#ADD1B2" rx="11" ry="11" style="stroke:#181818;stroke-width:1.0;"/><path d="M453.7188,712.6406 Q453.1406,712.9375 452.5,713.0781 Q451.8594,713.2344 451.1563,713.2344 Q448.6563,713.2344 447.3281,711.5938 Q446.0156,709.9375 446.0156,706.8125 Q446.0156,703.6875 447.3281,702.0313 Q448.6563,700.375 451.1563,700.375 Q451.8594,700.375 452.5,700.5313 Q453.1563,700.6875 453.7188,700.9844 L453.7188,703.7031 Q453.0938,703.125 452.5,702.8594 Q451.9063,702.5781 451.2813,702.5781 Q449.9375,702.5781 449.25,703.6563 Q448.5625,704.7188 448.5625,706.8125 Q448.5625,708.9063 449.25,709.9844 Q449.9375,711.0469 451.2813,711.0469 Q451.9063,711.0469 452.5,710.7813 Q453.0938,710.5 453.7188,709.9219 L453.7188,712.6406 Z " fill="#000000"/><text fill="#000000" font-family="sans-serif" font-size="14" lengthAdjust="spacing" textLength="72" x="471.25" y="711.8467">Paramedic</text><line style="stroke:#181818;stroke-width:0.5;" x1="360" x2="622" y1="723" y2="723"/><rect fill="none" height="6" style="stroke:#C82930;stroke-width:1.0;" width="6" x="367" y="733.6484"/><text fill="#000000" font-family="sans-serif" font-size="14" lengthAdjust="spacing" text-decoration="underline" textLength="159" x="379" y="739.9951">INITIAL_LIFEPOINTS : int</text><line style="stroke:#181818;stroke-width:0.5;" x1="360" x2="622" y1="747.2969" y2="747.2969"/><polygon fill="#4177AF" points="370,756.9453,366,762.9453,374,762.9453" style="stroke:#1963A0;stroke-width:1.0;"/><text fill="#000000" font-family="sans-serif" font-size="14" lengthAdjust="spacing" textLength="238" x="379" y="764.292">void executeAction(String playerId)</text></g><!--class Main--><g id="elem_Main"><rect codeLine="35" fill="#F1F1F1" height="48" id="Main" rx="2.5" ry="2.5" style="stroke:#181818;stroke-width:0.5;" width="64" x="491" y="217.5"/><ellipse cx="506" cy="233.5" fill="#ADD1B2" rx="11" ry="11" style="stroke:#181818;stroke-width:1.0;"/><path d="M508.9688,239.1406 Q508.3906,239.4375 507.75,239.5781 Q507.1094,239.7344 506.4063,239.7344 Q503.9063,239.7344 502.5781,238.0938 Q501.2656,236.4375 501.2656,233.3125 Q501.2656,230.1875 502.5781,228.5313 Q503.9063,226.875 506.4063,226.875 Q507.1094,226.875 507.75,227.0313 Q508.4063,227.1875 508.9688,227.4844 L508.9688,230.2031 Q508.3438,229.625 507.75,229.3594 Q507.1563,229.0781 506.5313,229.0781 Q505.1875,229.0781 504.5,230.1563 Q503.8125,231.2188 503.8125,233.3125 Q503.8125,235.4063 504.5,236.4844 Q505.1875,237.5469 506.5313,237.5469 Q507.1563,237.5469 507.75,237.2813 Q508.3438,237 508.9688,236.4219 L508.9688,239.1406 Z " fill="#000000"/><text fill="#000000" font-family="sans-serif" font-size="14" lengthAdjust="spacing" textLength="32" x="520" y="238.3467">Main</text><line style="stroke:#181818;stroke-width:0.5;" x1="492" x2="554" y1="249.5" y2="249.5"/><line style="stroke:#181818;stroke-width:0.5;" x1="492" x2="554" y1="257.5" y2="257.5"/></g><!--reverse link GameMediator to GameServer--><g id="link_GameMediator_GameServer"><path d="M349.68,116.0486 C328.74,134.5786 317.71,144.34 294.47,164.89 " fill="none" id="GameMediator-backto-GameServer" style="stroke:#181818;stroke-width:1.0;stroke-dasharray:7.0,7.0;"/><polygon fill="none" points="363.16,104.12,345.7038,111.5552,353.6562,120.5419,363.16,104.12" style="stroke:#181818;stroke-width:1.0;"/></g><!--reverse link Player to Soldier--><g id="link_Player_Soldier"><path d="M328.6091,628.9763 C282.1491,654.1163 251.31,670.81 214.41,690.77 " fill="none" id="Player-backto-Soldier" style="stroke:#181818;stroke-width:1.0;"/><polygon fill="none" points="344.44,620.41,325.7536,623.6993,331.4645,634.2533,344.44,620.41" style="stroke:#181818;stroke-width:1.0;"/></g><!--reverse link Player to Paramedic--><g id="link_Player_Paramedic"><path d="M510.4418,647.7826 C505.3018,669.6526 504.39,673.55 500.3,690.93 " fill="none" id="Player-backto-Paramedic" style="stroke:#181818;stroke-width:1.0;"/><polygon fill="none" points="514.56,630.26,504.6009,646.4098,516.2826,649.1553,514.56,630.26" style="stroke:#181818;stroke-width:1.0;"/></g><!--link Main to GameServer--><g id="link_Main_GameServer"><path codeLine="36" d="M490.8,241.5 C469.36,241.5 445.2,241.5 412.52,241.5 " fill="none" id="Main-to-GameServer" style="stroke:#181818;stroke-width:1.0;"/><polygon fill="#181818" points="406.52,241.5,415.52,245.5,411.52,241.5,415.52,237.5,406.52,241.5" style="stroke:#181818;stroke-width:1.0;"/><text fill="#000000" font-family="sans-serif" font-size="13" lengthAdjust="spacing" textLength="48" x="424.75" y="234.5669">creates</text></g><!--link Main to Player--><g id="link_Main_Player"><path codeLine="37" d="M524.65,265.9 C526.7,294.92 529.9173,340.4949 533.3373,388.9149 " fill="none" id="Main-to-Player" style="stroke:#181818;stroke-width:1.0;"/><polygon fill="#181818" points="533.76,394.9,537.116,385.6405,533.4077,389.9124,529.1358,386.2042,533.76,394.9" style="stroke:#181818;stroke-width:1.0;"/><text fill="#000000" font-family="sans-serif" font-size="13" lengthAdjust="spacing" textLength="48" x="532" y="361.0669">creates</text></g><!--link GameServer to Player--><g id="link_GameServer_Player"><path codeLine="38" d="M302.65,318.15 C332.17,342 360.8427,365.1596 393.0527,391.1796 " fill="none" id="GameServer-to-Player" style="stroke:#181818;stroke-width:1.0;stroke-dasharray:1.0,3.0;"/><polygon fill="#181818" points="397.72,394.95,393.2326,386.1828,393.8305,391.808,388.2054,392.406,397.72,394.95" style="stroke:#181818;stroke-width:1.0;"/><text fill="#000000" font-family="sans-serif" font-size="13" lengthAdjust="spacing" textLength="56" x="357" y="361.0669">registers</text></g><!--reverse link GameMediator to Player--><g id="link_GameMediator_Player"><path codeLine="39" d="M502.0065,107.4718 C527.7965,124.8418 550.52,142.46 573,165 C623.4,215.54 804.38,443.5 733,443.5 " fill="none" id="GameMediator-backto-Player" style="stroke:#181818;stroke-width:1.0;"/><polygon fill="#181818" points="497.03,104.12,502.2603,112.4653,501.1771,106.9131,506.7293,105.83,497.03,104.12" style="stroke:#181818;stroke-width:1.0;"/><text fill="#000000" font-family="sans-serif" font-size="13" lengthAdjust="spacing" textLength="150" x="693" y="246.0669">communicates-through</text></g><!--link GameServer to Soldier--><g id="link_GameServer_Soldier"><path codeLine="40" d="M117.27,318.12 C96.46,340.48 77.21,366.65 66,395 C27.59,492.12 33.09,530.88 66,630 C73.41,652.31 84.0808,669.0708 98.3808,686.3208 " fill="none" id="GameServer-to-Soldier" style="stroke:#181818;stroke-width:1.0;"/><polygon fill="#181818" points="102.21,690.94,99.5456,681.4584,99.019,687.0907,93.3867,686.564,102.21,690.94" style="stroke:#181818;stroke-width:1.0;"/><text fill="#000000" font-family="sans-serif" font-size="13" lengthAdjust="spacing" textLength="98" x="67" y="517.0669">attacks,cures...</text></g><!--link GameServer to Paramedic--><g id="link_GameServer_Paramedic"><path codeLine="41" d="M189.95,318.17 C173.4,402.58 161.23,539.18 227,630 C257.92,672.7 303.6619,695.6081 353.0019,709.7381 " fill="none" id="GameServer-to-Paramedic" style="stroke:#181818;stroke-width:1.0;"/><polygon fill="#181818" points="358.77,711.39,351.2191,705.0668,353.9632,710.0134,349.0166,712.7576,358.77,711.39" style="stroke:#181818;stroke-width:1.0;"/><text fill="#000000" font-family="sans-serif" font-size="13" lengthAdjust="spacing" textLength="98" x="228" y="517.0669">attacks,cures...</text></g><!--SRC=[lLJ1JkCm4BtdAtniLT8Fi10I0dOLgOLAvRPQeS6UfXQ9ZUn9nQegtxuEjebRkcBBWHmIU-QzcUTdEqeJsXK8P3-XnJbA1MGisnRCFnkZ90CY44-Z9LcbQ_RSm1-qbJnZIbFCBOmVk_504Pt5uuH6hJ30hpn6PXo7MixHEQYFK6EW3VbniIj40ywzQLwYtQ1bgdrki4LV-TXAobZCCSvcoj7vucrw4PDXnbPAop0yb124Je9KYxKlWJP28pb0zu2dMJVvadcJBza7Zuui26B1nxY4uDKhgmTR-PwRCU_xyLWqHWPfFkC_qTUj8o0bTgowhUwhozd3hFfnixYhRk-N6UursIexWRFtIgD-pHjeEXpdC93oKyn9RcIyRV9bn_05HKTuAKWP_Q_Z4CCrKYL7ATXByf5CPCey6jCWQARSDK9FIETuQHgflDluGbxvmNwSQECdmbFB1LY_iLA9xsmw1wMB_iLAg-erbHVv5UPCM0H2Tm29mePqnYb_IKE4ydUEInVK5I74UNQYomPNgV7xNyBNDctRQINw1YMjhUdgTTQ8yxqb3kBIrl5uezrPVu7TT3hz7_Qm2n_vVm40]--></g></svg>