<?xml version="1.0" encoding="us-ascii" standalone="no"?><svg xmlns="http://www.w3.org/2000/svg" xmlns:xlink="http://www.w3.org/1999/xlink" contentStyleType="text/css" height="224px" preserveAspectRatio="none" style="width:1011px;height:224px;background:#FFFFFF;" version="1.1" viewBox="0 0 1011 224" width="1011px" zoomAndPan="magnify"><defs/><g><!--class PizzaBuilder--><g id="elem_PizzaBuilder"><rect codeLine="1" fill="#F1F1F1" height="210.9688" id="PizzaBuilder" rx="2.5" ry="2.5" style="stroke:#181818;stroke-width:0.5;" width="304" x="138" y="7"/><ellipse cx="243.75" cy="23" fill="#ADD1B2" rx="11" ry="11" style="stroke:#181818;stroke-width:1.0;"/><path d="M246.7188,28.6406 Q246.1406,28.9375 245.5,29.0781 Q244.8594,29.2344 244.1563,29.2344 Q241.6563,29.2344 240.3281,27.5938 Q239.0156,25.9375 239.0156,22.8125 Q239.0156,19.6875 240.3281,18.0313 Q241.6563,16.375 244.1563,16.375 Q244.8594,16.375 245.5,16.5313 Q246.1563,16.6875 246.7188,16.9844 L246.7188,19.7031 Q246.0938,19.125 245.5,18.8594 Q244.9063,18.5781 244.2813,18.5781 Q242.9375,18.5781 242.25,19.6563 Q241.5625,20.7188 241.5625,22.8125 Q241.5625,24.9063 242.25,25.9844 Q242.9375,27.0469 244.2813,27.0469 Q244.9063,27.0469 245.5,26.7813 Q246.0938,26.5 246.7188,25.9219 L246.7188,28.6406 Z " fill="#000000"/><text fill="#000000" font-family="sans-serif" font-size="14" lengthAdjust="spacing" textLength="84" x="264.25" y="27.8467">PizzaBuilder</text><line style="stroke:#181818;stroke-width:0.5;" x1="139" x2="441" y1="39" y2="39"/><line style="stroke:#181818;stroke-width:0.5;" x1="139" x2="441" y1="47" y2="47"/><ellipse cx="149" cy="60.6484" fill="#84BE84" rx="3" ry="3" style="stroke:#038048;stroke-width:1.0;"/><text fill="#000000" font-family="sans-serif" font-size="14" lengthAdjust="spacing" textLength="172" x="158" y="63.9951">Pizza cookCheesyPizza()</text><ellipse cx="149" cy="76.9453" fill="#84BE84" rx="3" ry="3" style="stroke:#038048;stroke-width:1.0;"/><text fill="#000000" font-family="sans-serif" font-size="14" lengthAdjust="spacing" textLength="191" x="158" y="80.292">Pizza cookPepperoniPizza()</text><ellipse cx="149" cy="93.2422" fill="#84BE84" rx="3" ry="3" style="stroke:#038048;stroke-width:1.0;"/><text fill="#000000" font-family="sans-serif" font-size="14" lengthAdjust="spacing" textLength="191" x="158" y="96.5889">PizzaBuilder withThinBase()</text><ellipse cx="149" cy="109.5391" fill="#84BE84" rx="3" ry="3" style="stroke:#038048;stroke-width:1.0;"/><text fill="#000000" font-family="sans-serif" font-size="14" lengthAdjust="spacing" textLength="225" x="158" y="112.8857">PizzaBuilder withAmericanBase()</text><ellipse cx="149" cy="125.8359" fill="#84BE84" rx="3" ry="3" style="stroke:#038048;stroke-width:1.0;"/><text fill="#000000" font-family="sans-serif" font-size="14" lengthAdjust="spacing" textLength="234" x="158" y="129.1826">PizzaBuilder withNeapolitanBase()</text><ellipse cx="149" cy="142.1328" fill="#84BE84" rx="3" ry="3" style="stroke:#038048;stroke-width:1.0;"/><text fill="#000000" font-family="sans-serif" font-size="14" lengthAdjust="spacing" textLength="197" x="158" y="145.4795">PizzaBuilder withBbqSauce()</text><ellipse cx="149" cy="158.4297" fill="#84BE84" rx="3" ry="3" style="stroke:#038048;stroke-width:1.0;"/><text fill="#000000" font-family="sans-serif" font-size="14" lengthAdjust="spacing" textLength="222" x="158" y="161.7764">PizzaBuilder withTomatoSauce()</text><ellipse cx="149" cy="174.7266" fill="#84BE84" rx="3" ry="3" style="stroke:#038048;stroke-width:1.0;"/><text fill="#000000" font-family="sans-serif" font-size="14" lengthAdjust="spacing" textLength="209" x="158" y="178.0732">PizzaBuilder withPestoSauce()</text><ellipse cx="149" cy="191.0234" fill="#84BE84" rx="3" ry="3" style="stroke:#038048;stroke-width:1.0;"/><text fill="#000000" font-family="sans-serif" font-size="14" lengthAdjust="spacing" textLength="278" x="158" y="194.3701">PizzaBuilder addTopping(String topping)</text><ellipse cx="149" cy="207.3203" fill="#84BE84" rx="3" ry="3" style="stroke:#038048;stroke-width:1.0;"/><text fill="#000000" font-family="sans-serif" font-size="14" lengthAdjust="spacing" textLength="120" x="158" y="210.667">Pizza cookPizza()</text></g><!--class Pizza--><g id="elem_Pizza"><rect codeLine="13" fill="#F1F1F1" height="96.8906" id="Pizza" rx="2.5" ry="2.5" style="stroke:#181818;stroke-width:0.5;" width="183" x="537.5" y="64"/><ellipse cx="606.75" cy="80" fill="#ADD1B2" rx="11" ry="11" style="stroke:#181818;stroke-width:1.0;"/><path d="M609.7188,85.6406 Q609.1406,85.9375 608.5,86.0781 Q607.8594,86.2344 607.1563,86.2344 Q604.6563,86.2344 603.3281,84.5938 Q602.0156,82.9375 602.0156,79.8125 Q602.0156,76.6875 603.3281,75.0313 Q604.6563,73.375 607.1563,73.375 Q607.8594,73.375 608.5,73.5313 Q609.1563,73.6875 609.7188,73.9844 L609.7188,76.7031 Q609.0938,76.125 608.5,75.8594 Q607.9063,75.5781 607.2813,75.5781 Q605.9375,75.5781 605.25,76.6563 Q604.5625,77.7188 604.5625,79.8125 Q604.5625,81.9063 605.25,82.9844 Q605.9375,84.0469 607.2813,84.0469 Q607.9063,84.0469 608.5,83.7813 Q609.0938,83.5 609.7188,82.9219 L609.7188,85.6406 Z " fill="#000000"/><text fill="#000000" font-family="sans-serif" font-size="14" lengthAdjust="spacing" textLength="36" x="627.25" y="84.8467">Pizza</text><line style="stroke:#181818;stroke-width:0.5;" x1="538.5" x2="719.5" y1="96" y2="96"/><rect fill="none" height="6" style="stroke:#C82930;stroke-width:1.0;" width="6" x="545.5" y="106.6484"/><text fill="#000000" font-family="sans-serif" font-size="14" lengthAdjust="spacing" textLength="114" x="557.5" y="112.9951">PizzaBase base;</text><rect fill="none" height="6" style="stroke:#C82930;stroke-width:1.0;" width="6" x="545.5" y="122.9453"/><text fill="#000000" font-family="sans-serif" font-size="14" lengthAdjust="spacing" textLength="130" x="557.5" y="129.292">PizzaSauce sauce;</text><rect fill="none" height="6" style="stroke:#C82930;stroke-width:1.0;" width="6" x="545.5" y="139.2422"/><text fill="#000000" font-family="sans-serif" font-size="14" lengthAdjust="spacing" textLength="157" x="557.5" y="145.5889">List&lt;String&gt; toppings;</text><line style="stroke:#181818;stroke-width:0.5;" x1="538.5" x2="719.5" y1="152.8906" y2="152.8906"/></g><!--class PizzaBase--><g id="elem_PizzaBase"><rect codeLine="18" fill="#F1F1F1" height="113.1875" id="PizzaBase" rx="2.5" ry="2.5" style="stroke:#181818;stroke-width:0.5;" width="103" x="755.5" y="56"/><ellipse cx="770.5" cy="72" fill="#EB937F" rx="11" ry="11" style="stroke:#181818;stroke-width:1.0;"/><path d="M774.6094,78 L766.8906,78 L766.8906,65.6094 L774.6094,65.6094 L774.6094,67.7656 L769.3438,67.7656 L769.3438,70.4375 L774.1094,70.4375 L774.1094,72.5938 L769.3438,72.5938 L769.3438,75.8438 L774.6094,75.8438 L774.6094,78 Z " fill="#000000"/><text fill="#000000" font-family="sans-serif" font-size="14" lengthAdjust="spacing" textLength="71" x="784.5" y="76.8467">PizzaBase</text><line style="stroke:#181818;stroke-width:0.5;" x1="756.5" x2="857.5" y1="88" y2="88"/><text fill="#000000" font-family="sans-serif" font-size="14" lengthAdjust="spacing" textLength="82" x="761.5" y="104.9951">STANDARD,</text><text fill="#000000" font-family="sans-serif" font-size="14" lengthAdjust="spacing" textLength="36" x="761.5" y="121.292">THIN,</text><text fill="#000000" font-family="sans-serif" font-size="14" lengthAdjust="spacing" textLength="76" x="761.5" y="137.5889">AMERICAN,</text><text fill="#000000" font-family="sans-serif" font-size="14" lengthAdjust="spacing" textLength="86" x="761.5" y="153.8857">NEAPOLITAN</text><line style="stroke:#181818;stroke-width:0.5;" x1="756.5" x2="857.5" y1="161.1875" y2="161.1875"/></g><!--class PizzaSauce--><g id="elem_PizzaSauce"><rect codeLine="24" fill="#F1F1F1" height="113.1875" id="PizzaSauce" rx="2.5" ry="2.5" style="stroke:#181818;stroke-width:0.5;" width="111" x="893.5" y="56"/><ellipse cx="908.5" cy="72" fill="#EB937F" rx="11" ry="11" style="stroke:#181818;stroke-width:1.0;"/><path d="M912.6094,78 L904.8906,78 L904.8906,65.6094 L912.6094,65.6094 L912.6094,67.7656 L907.3438,67.7656 L907.3438,70.4375 L912.1094,70.4375 L912.1094,72.5938 L907.3438,72.5938 L907.3438,75.8438 L912.6094,75.8438 L912.6094,78 Z " fill="#000000"/><text fill="#000000" font-family="sans-serif" font-size="14" lengthAdjust="spacing" textLength="79" x="922.5" y="76.8467">PizzaSauce</text><line style="stroke:#181818;stroke-width:0.5;" x1="894.5" x2="1003.5" y1="88" y2="88"/><text fill="#000000" font-family="sans-serif" font-size="14" lengthAdjust="spacing" textLength="44" x="899.5" y="104.9951">NONE,</text><text fill="#000000" font-family="sans-serif" font-size="14" lengthAdjust="spacing" textLength="65" x="899.5" y="121.292">TOMATO,</text><text fill="#000000" font-family="sans-serif" font-size="14" lengthAdjust="spacing" textLength="35" x="899.5" y="137.5889">BBQ,</text><text fill="#000000" font-family="sans-serif" font-size="14" lengthAdjust="spacing" textLength="47" x="899.5" y="153.8857">PESTO</text><line style="stroke:#181818;stroke-width:0.5;" x1="894.5" x2="1003.5" y1="161.1875" y2="161.1875"/></g><!--class Main--><g id="elem_Main"><rect fill="#F1F1F1" height="48" id="Main" rx="2.5" ry="2.5" style="stroke:#181818;stroke-width:0.5;" width="64" x="7" y="88.5"/><ellipse cx="22" cy="104.5" fill="#ADD1B2" rx="11" ry="11" style="stroke:#181818;stroke-width:1.0;"/><path d="M24.9688,110.1406 Q24.3906,110.4375 23.75,110.5781 Q23.1094,110.7344 22.4063,110.7344 Q19.9063,110.7344 18.5781,109.0938 Q17.2656,107.4375 17.2656,104.3125 Q17.2656,101.1875 18.5781,99.5313 Q19.9063,97.875 22.4063,97.875 Q23.1094,97.875 23.75,98.0313 Q24.4063,98.1875 24.9688,98.4844 L24.9688,101.2031 Q24.3438,100.625 23.75,100.3594 Q23.1563,100.0781 22.5313,100.0781 Q21.1875,100.0781 20.5,101.1563 Q19.8125,102.2188 19.8125,104.3125 Q19.8125,106.4063 20.5,107.4844 Q21.1875,108.5469 22.5313,108.5469 Q23.1563,108.5469 23.75,108.2813 Q24.3438,108 24.9688,107.4219 L24.9688,110.1406 Z " fill="#000000"/><text fill="#000000" font-family="sans-serif" font-size="14" lengthAdjust="spacing" textLength="32" x="36" y="109.3467">Main</text><line style="stroke:#181818;stroke-width:0.5;" x1="8" x2="70" y1="120.5" y2="120.5"/><line style="stroke:#181818;stroke-width:0.5;" x1="8" x2="70" y1="128.5" y2="128.5"/></g><!--link Main to PizzaBuilder--><g id="link_Main_PizzaBuilder"><path codeLine="30" d="M71.04,112.5 C88.95,112.5 106.72,112.5 131.98,112.5 " fill="none" id="Main-to-PizzaBuilder" style="stroke:#181818;stroke-width:1.0;"/><polygon fill="#181818" points="137.98,112.5,128.98,108.5,132.98,112.5,128.98,116.5,137.98,112.5" style="stroke:#181818;stroke-width:1.0;"/><text fill="#000000" font-family="sans-serif" font-size="13" lengthAdjust="spacing" textLength="30" x="89.5" y="105.5669">uses</text></g><!--link PizzaBuilder to Pizza--><g id="link_PizzaBuilder_Pizza"><path codeLine="31" d="M442.15,112.5 C474.53,112.5 501.77,112.5 531.07,112.5 " fill="none" id="PizzaBuilder-to-Pizza" style="stroke:#181818;stroke-width:1.0;"/><polygon fill="#181818" points="537.07,112.5,528.07,108.5,532.07,112.5,528.07,116.5,537.07,112.5" style="stroke:#181818;stroke-width:1.0;"/><text fill="#000000" font-family="sans-serif" font-size="13" lengthAdjust="spacing" textLength="59" x="460.25" y="105.5669">produces</text></g><!--SRC=[XP3HJeCm58RlUOfUpYWluCoIif58CWgEla07pJWHQEqfCSxuxbOASSGvUj6US_hr_zE_R0GYoU5y5b4FJIKD-Go8M_T-I4gbNhUrbFWnzAkxFxUvr5eQrS4LOD9y1rlp6hf8eFoVeAqqK8e5YacXLGDsYOkERuNeoni4LwsmQW7A9TvaH5LnfJLqfrLXZJk8zUsLfCQ0leBoD_Onxt1KTLyYHxUjBwU3FS6VVPhl0UsJDznCZhXsqhBhsmijhrvmodRqi7iOElwSC5_HD3uaMpfsBAPvjaySEzFnxbw8PImUHRAKyipNKVJYYpmkUEOUfm8w4XeurJRSpFDw93rA36QpEUaGRLJbJF4R]--></g></svg>