<?xml version="1.0" encoding="us-ascii" standalone="no"?><svg xmlns="http://www.w3.org/2000/svg" xmlns:xlink="http://www.w3.org/1999/xlink" contentStyleType="text/css" height="269px" preserveAspectRatio="none" style="width:613px;height:269px;background:#FFFFFF;" version="1.1" viewBox="0 0 613 269" width="613px" zoomAndPan="magnify"><defs/><g><!--class Menu--><g id="elem_Menu"><rect codeLine="1" fill="#F1F1F1" height="129.4844" id="Menu" rx="2.5" ry="2.5" style="stroke:#181818;stroke-width:0.5;" width="140" x="466" y="15.5"/><ellipse cx="512.25" cy="31.5" fill="#ADD1B2" rx="11" ry="11" style="stroke:#181818;stroke-width:1.0;"/><path d="M515.2188,37.1406 Q514.6406,37.4375 514,37.5781 Q513.3594,37.7344 512.6563,37.7344 Q510.1563,37.7344 508.8281,36.0938 Q507.5156,34.4375 507.5156,31.3125 Q507.5156,28.1875 508.8281,26.5313 Q510.1563,24.875 512.6563,24.875 Q513.3594,24.875 514,25.0313 Q514.6563,25.1875 515.2188,25.4844 L515.2188,28.2031 Q514.5938,27.625 514,27.3594 Q513.4063,27.0781 512.7813,27.0781 Q511.4375,27.0781 510.75,28.1563 Q510.0625,29.2188 510.0625,31.3125 Q510.0625,33.4063 510.75,34.4844 Q511.4375,35.5469 512.7813,35.5469 Q513.4063,35.5469 514,35.2813 Q514.5938,35 515.2188,34.4219 L515.2188,37.1406 Z " fill="#000000"/><text fill="#000000" font-family="sans-serif" font-size="14" lengthAdjust="spacing" textLength="39" x="532.75" y="36.3467">Menu</text><line style="stroke:#181818;stroke-width:0.5;" x1="467" x2="605" y1="47.5" y2="47.5"/><rect fill="none" height="6" style="stroke:#C82930;stroke-width:1.0;" width="6" x="474" y="58.1484"/><text fill="#000000" font-family="sans-serif" font-size="14" lengthAdjust="spacing" textLength="114" x="486" y="64.4951">String appetizer;</text><rect fill="none" height="6" style="stroke:#C82930;stroke-width:1.0;" width="6" x="474" y="74.4453"/><text fill="#000000" font-family="sans-serif" font-size="14" lengthAdjust="spacing" textLength="82" x="486" y="80.792">String main;</text><rect fill="none" height="6" style="stroke:#C82930;stroke-width:1.0;" width="6" x="474" y="90.7422"/><text fill="#000000" font-family="sans-serif" font-size="14" lengthAdjust="spacing" textLength="78" x="486" y="97.0889">String side;</text><rect fill="none" height="6" style="stroke:#C82930;stroke-width:1.0;" width="6" x="474" y="107.0391"/><text fill="#000000" font-family="sans-serif" font-size="14" lengthAdjust="spacing" textLength="114" x="486" y="113.3857">String beverage;</text><rect fill="none" height="6" style="stroke:#C82930;stroke-width:1.0;" width="6" x="474" y="123.3359"/><text fill="#000000" font-family="sans-serif" font-size="14" lengthAdjust="spacing" textLength="102" x="486" y="129.6826">String dessert;</text><line style="stroke:#181818;stroke-width:0.5;" x1="467" x2="605" y1="136.9844" y2="136.9844"/></g><!--class MenuBuilder--><g id="elem_MenuBuilder"><rect codeLine="8" fill="#F1F1F1" height="145.7813" id="MenuBuilder" rx="2.5" ry="2.5" style="stroke:#181818;stroke-width:0.5;" width="233" x="137.5" y="7"/><ellipse cx="206.25" cy="23" fill="#B4A7E5" rx="11" ry="11" style="stroke:#181818;stroke-width:1.0;"/><path d="M202.1719,18.7656 L202.1719,16.6094 L209.5625,16.6094 L209.5625,18.7656 L207.0938,18.7656 L207.0938,26.8438 L209.5625,26.8438 L209.5625,29 L202.1719,29 L202.1719,26.8438 L204.6406,26.8438 L204.6406,18.7656 L202.1719,18.7656 Z " fill="#000000"/><text fill="#000000" font-family="sans-serif" font-size="14" font-style="italic" lengthAdjust="spacing" textLength="87" x="226.75" y="27.8467">MenuBuilder</text><line style="stroke:#181818;stroke-width:0.5;" x1="138.5" x2="369.5" y1="39" y2="39"/><line style="stroke:#181818;stroke-width:0.5;" x1="138.5" x2="369.5" y1="47" y2="47"/><text fill="#000000" font-family="sans-serif" font-size="14" lengthAdjust="spacing" textLength="221" x="143.5" y="63.9951">void appetizer(String appetizer);</text><text fill="#000000" font-family="sans-serif" font-size="14" lengthAdjust="spacing" textLength="157" x="143.5" y="80.292">void main(String main);</text><text fill="#000000" font-family="sans-serif" font-size="14" lengthAdjust="spacing" textLength="149" x="143.5" y="96.5889">void side(String side);</text><text fill="#000000" font-family="sans-serif" font-size="14" lengthAdjust="spacing" textLength="221" x="143.5" y="112.8857">void beverage(String beverage);</text><text fill="#000000" font-family="sans-serif" font-size="14" lengthAdjust="spacing" textLength="197" x="143.5" y="129.1826">void dessert(String dessert);</text><text fill="#000000" font-family="sans-serif" font-size="14" lengthAdjust="spacing" textLength="95" x="143.5" y="145.4795">Menu order();</text></g><!--class AmericanMenuBuilder--><g id="elem_AmericanMenuBuilder"><rect codeLine="16" fill="#F1F1F1" height="48" id="AmericanMenuBuilder" rx="2.5" ry="2.5" style="stroke:#181818;stroke-width:0.5;" width="183" x="59.5" y="214"/><ellipse cx="74.5" cy="230" fill="#ADD1B2" rx="11" ry="11" style="stroke:#181818;stroke-width:1.0;"/><path d="M77.4688,235.6406 Q76.8906,235.9375 76.25,236.0781 Q75.6094,236.2344 74.9063,236.2344 Q72.4063,236.2344 71.0781,234.5938 Q69.7656,232.9375 69.7656,229.8125 Q69.7656,226.6875 71.0781,225.0313 Q72.4063,223.375 74.9063,223.375 Q75.6094,223.375 76.25,223.5313 Q76.9063,223.6875 77.4688,223.9844 L77.4688,226.7031 Q76.8438,226.125 76.25,225.8594 Q75.6563,225.5781 75.0313,225.5781 Q73.6875,225.5781 73,226.6563 Q72.3125,227.7188 72.3125,229.8125 Q72.3125,231.9063 73,232.9844 Q73.6875,234.0469 75.0313,234.0469 Q75.6563,234.0469 76.25,233.7813 Q76.8438,233.5 77.4688,232.9219 L77.4688,235.6406 Z " fill="#000000"/><text fill="#000000" font-family="sans-serif" font-size="14" lengthAdjust="spacing" textLength="151" x="88.5" y="234.8467">AmericanMenuBuilder</text><line style="stroke:#181818;stroke-width:0.5;" x1="60.5" x2="241.5" y1="246" y2="246"/><line style="stroke:#181818;stroke-width:0.5;" x1="60.5" x2="241.5" y1="254" y2="254"/></g><!--class ItalianMenuBuilder--><g id="elem_ItalianMenuBuilder"><rect codeLine="19" fill="#F1F1F1" height="48" id="ItalianMenuBuilder" rx="2.5" ry="2.5" style="stroke:#181818;stroke-width:0.5;" width="158" x="278" y="214"/><ellipse cx="293" cy="230" fill="#ADD1B2" rx="11" ry="11" style="stroke:#181818;stroke-width:1.0;"/><path d="M295.9688,235.6406 Q295.3906,235.9375 294.75,236.0781 Q294.1094,236.2344 293.4063,236.2344 Q290.9063,236.2344 289.5781,234.5938 Q288.2656,232.9375 288.2656,229.8125 Q288.2656,226.6875 289.5781,225.0313 Q290.9063,223.375 293.4063,223.375 Q294.1094,223.375 294.75,223.5313 Q295.4063,223.6875 295.9688,223.9844 L295.9688,226.7031 Q295.3438,226.125 294.75,225.8594 Q294.1563,225.5781 293.5313,225.5781 Q292.1875,225.5781 291.5,226.6563 Q290.8125,227.7188 290.8125,229.8125 Q290.8125,231.9063 291.5,232.9844 Q292.1875,234.0469 293.5313,234.0469 Q294.1563,234.0469 294.75,233.7813 Q295.3438,233.5 295.9688,232.9219 L295.9688,235.6406 Z " fill="#000000"/><text fill="#000000" font-family="sans-serif" font-size="14" lengthAdjust="spacing" textLength="126" x="307" y="234.8467">ItalianMenuBuilder</text><line style="stroke:#181818;stroke-width:0.5;" x1="279" x2="435" y1="246" y2="246"/><line style="stroke:#181818;stroke-width:0.5;" x1="279" x2="435" y1="254" y2="254"/></g><!--class Main--><g id="elem_Main"><rect fill="#F1F1F1" height="48" id="Main" rx="2.5" ry="2.5" style="stroke:#181818;stroke-width:0.5;" width="64" x="7" y="56"/><ellipse cx="22" cy="72" fill="#ADD1B2" rx="11" ry="11" style="stroke:#181818;stroke-width:1.0;"/><path d="M24.9688,77.6406 Q24.3906,77.9375 23.75,78.0781 Q23.1094,78.2344 22.4063,78.2344 Q19.9063,78.2344 18.5781,76.5938 Q17.2656,74.9375 17.2656,71.8125 Q17.2656,68.6875 18.5781,67.0313 Q19.9063,65.375 22.4063,65.375 Q23.1094,65.375 23.75,65.5313 Q24.4063,65.6875 24.9688,65.9844 L24.9688,68.7031 Q24.3438,68.125 23.75,67.8594 Q23.1563,67.5781 22.5313,67.5781 Q21.1875,67.5781 20.5,68.6563 Q19.8125,69.7188 19.8125,71.8125 Q19.8125,73.9063 20.5,74.9844 Q21.1875,76.0469 22.5313,76.0469 Q23.1563,76.0469 23.75,75.7813 Q24.3438,75.5 24.9688,74.9219 L24.9688,77.6406 Z " fill="#000000"/><text fill="#000000" font-family="sans-serif" font-size="14" lengthAdjust="spacing" textLength="32" x="36" y="76.8467">Main</text><line style="stroke:#181818;stroke-width:0.5;" x1="8" x2="70" y1="88" y2="88"/><line style="stroke:#181818;stroke-width:0.5;" x1="8" x2="70" y1="96" y2="96"/></g><!--reverse link MenuBuilder to AmericanMenuBuilder--><g id="link_MenuBuilder_AmericanMenuBuilder"><path d="M196.5031,168.0818 C181.9531,190.1218 176.9,197.77 166.2,213.98 " fill="none" id="MenuBuilder-backto-AmericanMenuBuilder" style="stroke:#181818;stroke-width:1.0;stroke-dasharray:7.0,7.0;"/><polygon fill="none" points="206.42,153.06,191.4959,164.7762,201.5104,171.3875,206.42,153.06" style="stroke:#181818;stroke-width:1.0;"/></g><!--reverse link MenuBuilder to ItalianMenuBuilder--><g id="link_MenuBuilder_ItalianMenuBuilder"><path d="M311.4969,168.0818 C326.0469,190.1218 331.1,197.77 341.8,213.98 " fill="none" id="MenuBuilder-backto-ItalianMenuBuilder" style="stroke:#181818;stroke-width:1.0;stroke-dasharray:7.0,7.0;"/><polygon fill="none" points="301.58,153.06,306.4896,171.3875,316.5041,164.7762,301.58,153.06" style="stroke:#181818;stroke-width:1.0;"/></g><!--link Main to MenuBuilder--><g id="link_Main_MenuBuilder"><path codeLine="22" d="M71.19,80 C89.23,80 106.95,80 131.32,80 " fill="none" id="Main-to-MenuBuilder" style="stroke:#181818;stroke-width:1.0;"/><polygon fill="#181818" points="137.32,80,128.32,76,132.32,80,128.32,84,137.32,80" style="stroke:#181818;stroke-width:1.0;"/><text fill="#000000" font-family="sans-serif" font-size="13" lengthAdjust="spacing" textLength="30" x="89.25" y="73.0669">uses</text></g><!--link MenuBuilder to Menu--><g id="link_MenuBuilder_Menu"><path codeLine="23" d="M370.74,80 C403.01,80 431.03,80 459.76,80 " fill="none" id="MenuBuilder-to-Menu" style="stroke:#181818;stroke-width:1.0;"/><polygon fill="#181818" points="465.76,80,456.76,76,460.76,80,456.76,84,465.76,80" style="stroke:#181818;stroke-width:1.0;"/><text fill="#000000" font-family="sans-serif" font-size="13" lengthAdjust="spacing" textLength="59" x="388.75" y="73.0669">produces</text></g><!--SRC=[ZP0n3i8m34NtdY9ZElG2L4A2ZO694uJ454j9Mjbf1n1t9os59fdm-Fqjl_-rLSpY37uKpqh4QSGb4FfEg660W0-WDjUTGbz8Z0OAwGeJaEfAsG0pK6YhLuK-0DsKXkNxSKHhW3uCKuzc-ozBeBhTN3EDJCZItOmb4yHqz-MJ1M_gMM5bphuwbifwYioodkFefSY30qAjV199e1iiEF21qwInxj_LAIYB_n-TOqxH47RtqEopzKwC35obKkQBXe5wCshWDm00]--></g></svg>