<?xml version="1.0" encoding="us-ascii" standalone="no"?><svg xmlns="http://www.w3.org/2000/svg" xmlns:xlink="http://www.w3.org/1999/xlink" contentStyleType="text/css" height="305px" preserveAspectRatio="none" style="width:426px;height:305px;background:#FFFFFF;" version="1.1" viewBox="0 0 426 305" width="426px" zoomAndPan="magnify"><defs/><g><!--class Task--><g id="elem_Task"><rect codeLine="1" fill="#F1F1F1" height="96.8906" id="Task" rx="2.5" ry="2.5" style="stroke:#181818;stroke-width:0.5;" width="136" x="149.5" y="7"/><ellipse cx="197.25" cy="23" fill="#B4A7E5" rx="11" ry="11" style="stroke:#181818;stroke-width:1.0;"/><path d="M193.1719,18.7656 L193.1719,16.6094 L200.5625,16.6094 L200.5625,18.7656 L198.0938,18.7656 L198.0938,26.8438 L200.5625,26.8438 L200.5625,29 L193.1719,29 L193.1719,26.8438 L195.6406,26.8438 L195.6406,18.7656 L193.1719,18.7656 Z " fill="#000000"/><text fill="#000000" font-family="sans-serif" font-size="14" font-style="italic" lengthAdjust="spacing" textLength="32" x="217.75" y="27.8467">Task</text><line style="stroke:#181818;stroke-width:0.5;" x1="150.5" x2="284.5" y1="39" y2="39"/><line style="stroke:#181818;stroke-width:0.5;" x1="150.5" x2="284.5" y1="47" y2="47"/><ellipse cx="160.5" cy="60.6484" fill="#84BE84" rx="3" ry="3" style="stroke:#038048;stroke-width:1.0;"/><text fill="#000000" font-family="sans-serif" font-size="14" lengthAdjust="spacing" textLength="110" x="169.5" y="63.9951">String getTask()</text><ellipse cx="160.5" cy="76.9453" fill="#84BE84" rx="3" ry="3" style="stroke:#038048;stroke-width:1.0;"/><text fill="#000000" font-family="sans-serif" font-size="14" lengthAdjust="spacing" textLength="97" x="169.5" y="80.292">void setTask()</text><ellipse cx="160.5" cy="93.2422" fill="#84BE84" rx="3" ry="3" style="stroke:#038048;stroke-width:1.0;"/><text fill="#000000" font-family="sans-serif" font-size="14" lengthAdjust="spacing" textLength="89" x="169.5" y="96.5889">void display()</text></g><!--class SimpleTask--><g id="elem_SimpleTask"><rect codeLine="6" fill="#F1F1F1" height="64.2969" id="SimpleTask" rx="2.5" ry="2.5" style="stroke:#181818;stroke-width:0.5;" width="115" x="7" y="209.5"/><ellipse cx="23.8" cy="225.5" fill="#ADD1B2" rx="11" ry="11" style="stroke:#181818;stroke-width:1.0;"/><path d="M26.7688,231.1406 Q26.1906,231.4375 25.55,231.5781 Q24.9094,231.7344 24.2063,231.7344 Q21.7063,231.7344 20.3781,230.0938 Q19.0656,228.4375 19.0656,225.3125 Q19.0656,222.1875 20.3781,220.5313 Q21.7063,218.875 24.2063,218.875 Q24.9094,218.875 25.55,219.0313 Q26.2063,219.1875 26.7688,219.4844 L26.7688,222.2031 Q26.1438,221.625 25.55,221.3594 Q24.9563,221.0781 24.3313,221.0781 Q22.9875,221.0781 22.3,222.1563 Q21.6125,223.2188 21.6125,225.3125 Q21.6125,227.4063 22.3,228.4844 Q22.9875,229.5469 24.3313,229.5469 Q24.9563,229.5469 25.55,229.2813 Q26.1438,229 26.7688,228.4219 L26.7688,231.1406 Z " fill="#000000"/><text fill="#000000" font-family="sans-serif" font-size="14" lengthAdjust="spacing" textLength="79" x="38.2" y="230.3467">SimpleTask</text><line style="stroke:#181818;stroke-width:0.5;" x1="8" x2="121" y1="241.5" y2="241.5"/><line style="stroke:#181818;stroke-width:0.5;" x1="8" x2="121" y1="249.5" y2="249.5"/><ellipse cx="18" cy="263.1484" fill="#84BE84" rx="3" ry="3" style="stroke:#038048;stroke-width:1.0;"/><text fill="#000000" font-family="sans-serif" font-size="14" lengthAdjust="spacing" textLength="89" x="27" y="266.4951">void display()</text></g><!--class CompositeTask--><g id="elem_CompositeTask"><rect codeLine="9" fill="#F1F1F1" height="113.1875" id="CompositeTask" rx="2.5" ry="2.5" style="stroke:#181818;stroke-width:0.5;" width="219" x="165" y="185"/><ellipse cx="216.25" cy="201" fill="#ADD1B2" rx="11" ry="11" style="stroke:#181818;stroke-width:1.0;"/><path d="M219.2188,206.6406 Q218.6406,206.9375 218,207.0781 Q217.3594,207.2344 216.6563,207.2344 Q214.1563,207.2344 212.8281,205.5938 Q211.5156,203.9375 211.5156,200.8125 Q211.5156,197.6875 212.8281,196.0313 Q214.1563,194.375 216.6563,194.375 Q217.3594,194.375 218,194.5313 Q218.6563,194.6875 219.2188,194.9844 L219.2188,197.7031 Q218.5938,197.125 218,196.8594 Q217.4063,196.5781 216.7813,196.5781 Q215.4375,196.5781 214.75,197.6563 Q214.0625,198.7188 214.0625,200.8125 Q214.0625,202.9063 214.75,203.9844 Q215.4375,205.0469 216.7813,205.0469 Q217.4063,205.0469 218,204.7813 Q218.5938,204.5 219.2188,203.9219 L219.2188,206.6406 Z " fill="#000000"/><text fill="#000000" font-family="sans-serif" font-size="14" lengthAdjust="spacing" textLength="108" x="236.75" y="205.8467">CompositeTask</text><line style="stroke:#181818;stroke-width:0.5;" x1="166" x2="383" y1="217" y2="217"/><rect fill="none" height="6" style="stroke:#C82930;stroke-width:1.0;" width="6" x="173" y="227.6484"/><text fill="#000000" font-family="sans-serif" font-size="14" lengthAdjust="spacing" textLength="121" x="185" y="233.9951">List&lt;Task&gt; tasks</text><line style="stroke:#181818;stroke-width:0.5;" x1="166" x2="383" y1="241.2969" y2="241.2969"/><ellipse cx="176" cy="254.9453" fill="#84BE84" rx="3" ry="3" style="stroke:#038048;stroke-width:1.0;"/><text fill="#000000" font-family="sans-serif" font-size="14" lengthAdjust="spacing" textLength="167" x="185" y="258.292">void addTask(Task task)</text><ellipse cx="176" cy="271.2422" fill="#84BE84" rx="3" ry="3" style="stroke:#038048;stroke-width:1.0;"/><text fill="#000000" font-family="sans-serif" font-size="14" lengthAdjust="spacing" textLength="193" x="185" y="274.5889">void removeTask(Task task)</text><ellipse cx="176" cy="287.5391" fill="#84BE84" rx="3" ry="3" style="stroke:#038048;stroke-width:1.0;"/><text fill="#000000" font-family="sans-serif" font-size="14" lengthAdjust="spacing" textLength="89" x="185" y="290.8857">void display()</text></g><!--class Main--><g id="elem_Main"><rect codeLine="15" fill="#F1F1F1" height="48" id="Main" rx="2.5" ry="2.5" style="stroke:#181818;stroke-width:0.5;" width="64" x="18.5" y="31.5"/><ellipse cx="33.5" cy="47.5" fill="#ADD1B2" rx="11" ry="11" style="stroke:#181818;stroke-width:1.0;"/><path d="M36.4688,53.1406 Q35.8906,53.4375 35.25,53.5781 Q34.6094,53.7344 33.9063,53.7344 Q31.4063,53.7344 30.0781,52.0938 Q28.7656,50.4375 28.7656,47.3125 Q28.7656,44.1875 30.0781,42.5313 Q31.4063,40.875 33.9063,40.875 Q34.6094,40.875 35.25,41.0313 Q35.9063,41.1875 36.4688,41.4844 L36.4688,44.2031 Q35.8438,43.625 35.25,43.3594 Q34.6563,43.0781 34.0313,43.0781 Q32.6875,43.0781 32,44.1563 Q31.3125,45.2188 31.3125,47.3125 Q31.3125,49.4063 32,50.4844 Q32.6875,51.5469 34.0313,51.5469 Q34.6563,51.5469 35.25,51.2813 Q35.8438,51 36.4688,50.4219 L36.4688,53.1406 Z " fill="#000000"/><text fill="#000000" font-family="sans-serif" font-size="14" lengthAdjust="spacing" textLength="32" x="47.5" y="52.3467">Main</text><line style="stroke:#181818;stroke-width:0.5;" x1="19.5" x2="81.5" y1="63.5" y2="63.5"/><line style="stroke:#181818;stroke-width:0.5;" x1="19.5" x2="81.5" y1="71.5" y2="71.5"/></g><!--reverse link Task to SimpleTask--><g id="link_Task_SimpleTask"><path d="M166.1915,118.2003 C138.6515,151.3203 114.31,180.59 90.41,209.34 " fill="none" id="Task-backto-SimpleTask" style="stroke:#181818;stroke-width:1.0;stroke-dasharray:7.0,7.0;"/><polygon fill="none" points="177.7,104.36,161.578,114.3641,170.8049,122.0365,177.7,104.36" style="stroke:#181818;stroke-width:1.0;"/></g><!--reverse link Task to CompositeTask--><g id="link_Task_CompositeTask"><path d="M231.2685,121.9957 C234.7085,137.0157 234.86,136.04 239.5,151 C242.51,160.72 246.08,170.89 249.76,180.74 " fill="none" id="Task-backto-CompositeTask" style="stroke:#181818;stroke-width:1.0;stroke-dasharray:7.0,7.0;"/><polygon fill="none" points="227.25,104.45,225.4199,123.3352,237.117,120.6562,227.25,104.45" style="stroke:#181818;stroke-width:1.0;"/></g><!--link CompositeTask to Task--><g id="link_CompositeTask_Task"><path codeLine="17" d="M397.5,229.5 C419.06,229.5 394.37,200.17 384.5,181 C363.4,140 327.0958,111.9432 290.7458,91.1132 " fill="none" id="CompositeTask-Task" style="stroke:#181818;stroke-width:1.0;"/><polygon fill="none" points="385.5,229.5,391.5,233.5,397.5,229.5,391.5,225.5,385.5,229.5" style="stroke:#181818;stroke-width:1.0;"/><polygon fill="#181818" points="285.54,88.13,291.36,96.0753,289.8782,90.616,295.3375,89.1342,285.54,88.13" style="stroke:#181818;stroke-width:1.0;"/><text fill="#000000" font-family="sans-serif" font-size="13" lengthAdjust="spacing" textLength="23" x="362.5" y="147.0669">0..*</text></g><!--link Main to Task--><g id="link_Main_Task"><path codeLine="16" d="M82.7,55.5 C101.66,55.5 120.37,55.5 143.45,55.5 " fill="none" id="Main-to-Task" style="stroke:#181818;stroke-width:1.0;"/><polygon fill="#181818" points="149.45,55.5,140.45,51.5,144.45,55.5,140.45,59.5,149.45,55.5" style="stroke:#181818;stroke-width:1.0;"/><text fill="#000000" font-family="sans-serif" font-size="13" lengthAdjust="spacing" textLength="30" x="101" y="48.5669">uses</text></g><!--SRC=[VOvD2y8m38Rl_HKv-a67vo6xUDNJ_0DbZJEujgE90n7_ksiLTFYHGmXFywOFUS5uC0t2tl09hWh6Ma8jaNmBBKh2i_aJ3u4iy3TeYVlEN4PuKqrdcA4crtUOh-R9eHUU_l8ZkGck3qpoBwnXIophH2gGiVFxJMDjLio1z3fnZUZ2W7yMFfLsXhnA3NIazYYwUiYKS6PaDJ4ko-m3GR-sLaMnk0C0]--></g></svg>