<?xml version="1.0" encoding="us-ascii" standalone="no"?><svg xmlns="http://www.w3.org/2000/svg" xmlns:xlink="http://www.w3.org/1999/xlink" contentStyleType="text/css" height="337px" preserveAspectRatio="none" style="width:447px;height:337px;background:#FFFFFF;" version="1.1" viewBox="0 0 447 337" width="447px" zoomAndPan="magnify"><defs/><g><!--class Task--><g id="elem_Task"><rect codeLine="1" fill="#F1F1F1" height="96.8906" id="Task" rx="2.5" ry="2.5" style="stroke:#181818;stroke-width:0.5;" width="122" x="178" y="7"/><ellipse cx="219.1" cy="23" fill="#B4A7E5" rx="11" ry="11" style="stroke:#181818;stroke-width:1.0;"/><path d="M215.0219,18.7656 L215.0219,16.6094 L222.4125,16.6094 L222.4125,18.7656 L219.9438,18.7656 L219.9438,26.8438 L222.4125,26.8438 L222.4125,29 L215.0219,29 L215.0219,26.8438 L217.4906,26.8438 L217.4906,18.7656 L215.0219,18.7656 Z " fill="#000000"/><text fill="#000000" font-family="sans-serif" font-size="14" font-style="italic" lengthAdjust="spacing" textLength="32" x="238.9" y="27.8467">Task</text><line style="stroke:#181818;stroke-width:0.5;" x1="179" x2="299" y1="39" y2="39"/><line style="stroke:#181818;stroke-width:0.5;" x1="179" x2="299" y1="47" y2="47"/><text fill="#000000" font-family="sans-serif" font-size="14" lengthAdjust="spacing" textLength="110" x="184" y="63.9951">String getTask()</text><text fill="#000000" font-family="sans-serif" font-size="14" lengthAdjust="spacing" textLength="97" x="184" y="80.292">void setTask()</text><text fill="#000000" font-family="sans-serif" font-size="14" lengthAdjust="spacing" textLength="89" x="184" y="96.5889">void display()</text></g><!--class SimpleTask--><g id="elem_SimpleTask"><rect codeLine="6" fill="#F1F1F1" height="96.8906" id="SimpleTask" rx="2.5" ry="2.5" style="stroke:#181818;stroke-width:0.5;" width="136" x="7" y="209"/><ellipse cx="33.25" cy="225" fill="#ADD1B2" rx="11" ry="11" style="stroke:#181818;stroke-width:1.0;"/><path d="M36.2188,230.6406 Q35.6406,230.9375 35,231.0781 Q34.3594,231.2344 33.6563,231.2344 Q31.1563,231.2344 29.8281,229.5938 Q28.5156,227.9375 28.5156,224.8125 Q28.5156,221.6875 29.8281,220.0313 Q31.1563,218.375 33.6563,218.375 Q34.3594,218.375 35,218.5313 Q35.6563,218.6875 36.2188,218.9844 L36.2188,221.7031 Q35.5938,221.125 35,220.8594 Q34.4063,220.5781 33.7813,220.5781 Q32.4375,220.5781 31.75,221.6563 Q31.0625,222.7188 31.0625,224.8125 Q31.0625,226.9063 31.75,227.9844 Q32.4375,229.0469 33.7813,229.0469 Q34.4063,229.0469 35,228.7813 Q35.5938,228.5 36.2188,227.9219 L36.2188,230.6406 Z " fill="#000000"/><text fill="#000000" font-family="sans-serif" font-size="14" lengthAdjust="spacing" textLength="79" x="49.75" y="229.8467">SimpleTask</text><line style="stroke:#181818;stroke-width:0.5;" x1="8" x2="142" y1="241" y2="241"/><line style="stroke:#181818;stroke-width:0.5;" x1="8" x2="142" y1="249" y2="249"/><ellipse cx="18" cy="262.6484" fill="#84BE84" rx="3" ry="3" style="stroke:#038048;stroke-width:1.0;"/><text fill="#000000" font-family="sans-serif" font-size="14" lengthAdjust="spacing" textLength="110" x="27" y="265.9951">String getTask()</text><ellipse cx="18" cy="278.9453" fill="#84BE84" rx="3" ry="3" style="stroke:#038048;stroke-width:1.0;"/><text fill="#000000" font-family="sans-serif" font-size="14" lengthAdjust="spacing" textLength="97" x="27" y="282.292">void setTask()</text><ellipse cx="18" cy="295.2422" fill="#84BE84" rx="3" ry="3" style="stroke:#038048;stroke-width:1.0;"/><text fill="#000000" font-family="sans-serif" font-size="14" lengthAdjust="spacing" textLength="89" x="27" y="298.5889">void display()</text></g><!--class CompositeTask--><g id="elem_CompositeTask"><rect codeLine="11" fill="#F1F1F1" height="145.7813" id="CompositeTask" rx="2.5" ry="2.5" style="stroke:#181818;stroke-width:0.5;" width="219" x="186.5" y="185"/><ellipse cx="237.75" cy="201" fill="#ADD1B2" rx="11" ry="11" style="stroke:#181818;stroke-width:1.0;"/><path d="M240.7188,206.6406 Q240.1406,206.9375 239.5,207.0781 Q238.8594,207.2344 238.1563,207.2344 Q235.6563,207.2344 234.3281,205.5938 Q233.0156,203.9375 233.0156,200.8125 Q233.0156,197.6875 234.3281,196.0313 Q235.6563,194.375 238.1563,194.375 Q238.8594,194.375 239.5,194.5313 Q240.1563,194.6875 240.7188,194.9844 L240.7188,197.7031 Q240.0938,197.125 239.5,196.8594 Q238.9063,196.5781 238.2813,196.5781 Q236.9375,196.5781 236.25,197.6563 Q235.5625,198.7188 235.5625,200.8125 Q235.5625,202.9063 236.25,203.9844 Q236.9375,205.0469 238.2813,205.0469 Q238.9063,205.0469 239.5,204.7813 Q240.0938,204.5 240.7188,203.9219 L240.7188,206.6406 Z " fill="#000000"/><text fill="#000000" font-family="sans-serif" font-size="14" lengthAdjust="spacing" textLength="108" x="258.25" y="205.8467">CompositeTask</text><line style="stroke:#181818;stroke-width:0.5;" x1="187.5" x2="404.5" y1="217" y2="217"/><rect fill="none" height="6" style="stroke:#C82930;stroke-width:1.0;" width="6" x="194.5" y="227.6484"/><text fill="#000000" font-family="sans-serif" font-size="14" lengthAdjust="spacing" textLength="130" x="206.5" y="233.9951">tasks : List&lt;Task&gt;</text><line style="stroke:#181818;stroke-width:0.5;" x1="187.5" x2="404.5" y1="241.2969" y2="241.2969"/><ellipse cx="197.5" cy="254.9453" fill="#84BE84" rx="3" ry="3" style="stroke:#038048;stroke-width:1.0;"/><text fill="#000000" font-family="sans-serif" font-size="14" lengthAdjust="spacing" textLength="167" x="206.5" y="258.292">void addTask(Task task)</text><ellipse cx="197.5" cy="271.2422" fill="#84BE84" rx="3" ry="3" style="stroke:#038048;stroke-width:1.0;"/><text fill="#000000" font-family="sans-serif" font-size="14" lengthAdjust="spacing" textLength="193" x="206.5" y="274.5889">void removeTask(Task task)</text><ellipse cx="197.5" cy="287.5391" fill="#84BE84" rx="3" ry="3" style="stroke:#038048;stroke-width:1.0;"/><text fill="#000000" font-family="sans-serif" font-size="14" lengthAdjust="spacing" textLength="110" x="206.5" y="290.8857">String getTask()</text><ellipse cx="197.5" cy="303.8359" fill="#84BE84" rx="3" ry="3" style="stroke:#038048;stroke-width:1.0;"/><text fill="#000000" font-family="sans-serif" font-size="14" lengthAdjust="spacing" textLength="97" x="206.5" y="307.1826">void setTask()</text><ellipse cx="197.5" cy="320.1328" fill="#84BE84" rx="3" ry="3" style="stroke:#038048;stroke-width:1.0;"/><text fill="#000000" font-family="sans-serif" font-size="14" lengthAdjust="spacing" textLength="89" x="206.5" y="323.4795">void display()</text></g><!--class Main--><g id="elem_Main"><rect codeLine="19" fill="#F1F1F1" height="48" id="Main" rx="2.5" ry="2.5" style="stroke:#181818;stroke-width:0.5;" width="64" x="47" y="31.5"/><ellipse cx="62" cy="47.5" fill="#ADD1B2" rx="11" ry="11" style="stroke:#181818;stroke-width:1.0;"/><path d="M64.9688,53.1406 Q64.3906,53.4375 63.75,53.5781 Q63.1094,53.7344 62.4063,53.7344 Q59.9063,53.7344 58.5781,52.0938 Q57.2656,50.4375 57.2656,47.3125 Q57.2656,44.1875 58.5781,42.5313 Q59.9063,40.875 62.4063,40.875 Q63.1094,40.875 63.75,41.0313 Q64.4063,41.1875 64.9688,41.4844 L64.9688,44.2031 Q64.3438,43.625 63.75,43.3594 Q63.1563,43.0781 62.5313,43.0781 Q61.1875,43.0781 60.5,44.1563 Q59.8125,45.2188 59.8125,47.3125 Q59.8125,49.4063 60.5,50.4844 Q61.1875,51.5469 62.5313,51.5469 Q63.1563,51.5469 63.75,51.2813 Q64.3438,51 64.9688,50.4219 L64.9688,53.1406 Z " fill="#000000"/><text fill="#000000" font-family="sans-serif" font-size="14" lengthAdjust="spacing" textLength="32" x="76" y="52.3467">Main</text><line style="stroke:#181818;stroke-width:0.5;" x1="48" x2="110" y1="63.5" y2="63.5"/><line style="stroke:#181818;stroke-width:0.5;" x1="48" x2="110" y1="71.5" y2="71.5"/></g><!--reverse link Task to SimpleTask--><g id="link_Task_SimpleTask"><path d="M188.5169,118.0691 C162.5569,149.7291 140.01,177.21 114.06,208.87 " fill="none" id="Task-backto-SimpleTask" style="stroke:#181818;stroke-width:1.0;stroke-dasharray:7.0,7.0;"/><polygon fill="none" points="199.93,104.15,183.8772,114.2647,193.1566,121.8735,199.93,104.15" style="stroke:#181818;stroke-width:1.0;"/></g><!--reverse link Task to CompositeTask--><g id="link_Task_CompositeTask"><path d="M253.2706,121.8506 C256.7306,136.8706 256.75,135.92 261,151 C263.75,160.75 266.84,170.94 270.02,180.98 " fill="none" id="Task-backto-CompositeTask" style="stroke:#181818;stroke-width:1.0;stroke-dasharray:7.0,7.0;"/><polygon fill="none" points="249.23,104.31,247.4238,123.1975,259.1175,120.5037,249.23,104.31" style="stroke:#181818;stroke-width:1.0;"/></g><!--link CompositeTask to Task--><g id="link_CompositeTask_Task"><path codeLine="21" d="M419,229.5 C440.56,229.5 415.87,200.17 406,181 C383.57,137.43 343.3592,107.9981 305.5192,87.2181 " fill="none" id="CompositeTask-Task" style="stroke:#181818;stroke-width:1.0;"/><polygon fill="none" points="407,229.5,413,233.5,419,229.5,413,225.5,407,229.5" style="stroke:#181818;stroke-width:1.0;"/><polygon fill="#181818" points="300.26,84.33,306.2234,92.1683,304.6426,86.7367,310.0742,85.156,300.26,84.33" style="stroke:#181818;stroke-width:1.0;"/><text fill="#000000" font-family="sans-serif" font-size="13" lengthAdjust="spacing" textLength="23" x="384" y="147.0669">0..*</text></g><!--link Main to Task--><g id="link_Main_Task"><path codeLine="20" d="M111.38,55.5 C130.46,55.5 149.23,55.5 171.87,55.5 " fill="none" id="Main-to-Task" style="stroke:#181818;stroke-width:1.0;"/><polygon fill="#181818" points="177.87,55.5,168.87,51.5,172.87,55.5,168.87,59.5,177.87,55.5" style="stroke:#181818;stroke-width:1.0;"/><text fill="#000000" font-family="sans-serif" font-size="13" lengthAdjust="spacing" textLength="30" x="129.5" y="48.5669">uses</text></g><!--SRC=[hOyn3y8W48LtViMDQjF6cPWkhZhLFq0Arei56kviOep_tK87srYTP23mUFS-7ZesuQng0oT5LtW865R50Lq3ZU4ehjP9x3rge4z98tMjkW_IKzIj8e8ARTUQb9TErZYcQNwsJCYM6DatojxRpXFoBr0EF5m891oGU1TVoccgqZgXqaYqpfZ1MD-RPSCV2XmLEX4to0Cs5yxByUiIRcH8pFf9EHRn-TkrBOhD2m00]--></g></svg>