<?xml version="1.0" encoding="us-ascii" standalone="no"?><svg xmlns="http://www.w3.org/2000/svg" xmlns:xlink="http://www.w3.org/1999/xlink" contentStyleType="text/css" height="665px" preserveAspectRatio="none" style="width:755px;height:665px;background:#FFFFFF;" version="1.1" viewBox="0 0 755 665" width="755px" zoomAndPan="magnify"><defs/><g><!--class Shape--><g id="elem_Shape"><rect codeLine="1" fill="#F1F1F1" height="80.5938" id="Shape" rx="2.5" ry="2.5" style="stroke:#181818;stroke-width:0.5;" width="183" x="146" y="148"/><ellipse cx="211.25" cy="164" fill="#B4A7E5" rx="11" ry="11" style="stroke:#181818;stroke-width:1.0;"/><path d="M207.1719,159.7656 L207.1719,157.6094 L214.5625,157.6094 L214.5625,159.7656 L212.0938,159.7656 L212.0938,167.8438 L214.5625,167.8438 L214.5625,170 L207.1719,170 L207.1719,167.8438 L209.6406,167.8438 L209.6406,159.7656 L207.1719,159.7656 Z " fill="#000000"/><text fill="#000000" font-family="sans-serif" font-size="14" font-style="italic" lengthAdjust="spacing" textLength="44" x="231.75" y="168.8467">Shape</text><line style="stroke:#181818;stroke-width:0.5;" x1="147" x2="328" y1="180" y2="180"/><line style="stroke:#181818;stroke-width:0.5;" x1="147" x2="328" y1="188" y2="188"/><ellipse cx="157" cy="201.6484" fill="#84BE84" rx="3" ry="3" style="stroke:#038048;stroke-width:1.0;"/><text fill="#000000" font-family="sans-serif" font-size="14" lengthAdjust="spacing" textLength="121" x="166" y="204.9951">getArea(): double</text><ellipse cx="157" cy="217.9453" fill="#84BE84" rx="3" ry="3" style="stroke:#038048;stroke-width:1.0;"/><text fill="#000000" font-family="sans-serif" font-size="14" lengthAdjust="spacing" textLength="157" x="166" y="221.292">getPerimeter(): double</text></g><!--class Triangle--><g id="elem_Triangle"><rect codeLine="5" fill="#F1F1F1" height="129.4844" id="Triangle" rx="2.5" ry="2.5" style="stroke:#181818;stroke-width:0.5;" width="291" x="7" y="290"/><ellipse cx="120.75" cy="306" fill="#ADD1B2" rx="11" ry="11" style="stroke:#181818;stroke-width:1.0;"/><path d="M123.7188,311.6406 Q123.1406,311.9375 122.5,312.0781 Q121.8594,312.2344 121.1563,312.2344 Q118.6563,312.2344 117.3281,310.5938 Q116.0156,308.9375 116.0156,305.8125 Q116.0156,302.6875 117.3281,301.0313 Q118.6563,299.375 121.1563,299.375 Q121.8594,299.375 122.5,299.5313 Q123.1563,299.6875 123.7188,299.9844 L123.7188,302.7031 Q123.0938,302.125 122.5,301.8594 Q121.9063,301.5781 121.2813,301.5781 Q119.9375,301.5781 119.25,302.6563 Q118.5625,303.7188 118.5625,305.8125 Q118.5625,307.9063 119.25,308.9844 Q119.9375,310.0469 121.2813,310.0469 Q121.9063,310.0469 122.5,309.7813 Q123.0938,309.5 123.7188,308.9219 L123.7188,311.6406 Z " fill="#000000"/><text fill="#000000" font-family="sans-serif" font-size="14" lengthAdjust="spacing" textLength="55" x="141.25" y="310.8467">Triangle</text><line style="stroke:#181818;stroke-width:0.5;" x1="8" x2="297" y1="322" y2="322"/><rect fill="none" height="6" style="stroke:#C82930;stroke-width:1.0;" width="6" x="15" y="332.6484"/><text fill="#000000" font-family="sans-serif" font-size="14" lengthAdjust="spacing" textLength="91" x="27" y="338.9951">base: double</text><rect fill="none" height="6" style="stroke:#C82930;stroke-width:1.0;" width="6" x="15" y="348.9453"/><text fill="#000000" font-family="sans-serif" font-size="14" lengthAdjust="spacing" textLength="101" x="27" y="355.292">height: double</text><line style="stroke:#181818;stroke-width:0.5;" x1="8" x2="297" y1="362.5938" y2="362.5938"/><ellipse cx="18" cy="376.2422" fill="#84BE84" rx="3" ry="3" style="stroke:#038048;stroke-width:1.0;"/><text fill="#000000" font-family="sans-serif" font-size="14" lengthAdjust="spacing" textLength="265" x="27" y="379.5889">Triangle(base: double, height: double)</text><ellipse cx="18" cy="392.5391" fill="#84BE84" rx="3" ry="3" style="stroke:#038048;stroke-width:1.0;"/><text fill="#000000" font-family="sans-serif" font-size="14" lengthAdjust="spacing" textLength="121" x="27" y="395.8857">getArea(): double</text><ellipse cx="18" cy="408.8359" fill="#84BE84" rx="3" ry="3" style="stroke:#038048;stroke-width:1.0;"/><text fill="#000000" font-family="sans-serif" font-size="14" lengthAdjust="spacing" textLength="157" x="27" y="412.1826">getPerimeter(): double</text></g><!--class Rectangle--><g id="elem_Rectangle"><rect codeLine="12" fill="#F1F1F1" height="162.0781" id="Rectangle" rx="2.5" ry="2.5" style="stroke:#181818;stroke-width:0.5;" width="309" x="331" y="496"/><ellipse cx="446.25" cy="512" fill="#ADD1B2" rx="11" ry="11" style="stroke:#181818;stroke-width:1.0;"/><path d="M449.2188,517.6406 Q448.6406,517.9375 448,518.0781 Q447.3594,518.2344 446.6563,518.2344 Q444.1563,518.2344 442.8281,516.5938 Q441.5156,514.9375 441.5156,511.8125 Q441.5156,508.6875 442.8281,507.0313 Q444.1563,505.375 446.6563,505.375 Q447.3594,505.375 448,505.5313 Q448.6563,505.6875 449.2188,505.9844 L449.2188,508.7031 Q448.5938,508.125 448,507.8594 Q447.4063,507.5781 446.7813,507.5781 Q445.4375,507.5781 444.75,508.6563 Q444.0625,509.7188 444.0625,511.8125 Q444.0625,513.9063 444.75,514.9844 Q445.4375,516.0469 446.7813,516.0469 Q447.4063,516.0469 448,515.7813 Q448.5938,515.5 449.2188,514.9219 L449.2188,517.6406 Z " fill="#000000"/><text fill="#000000" font-family="sans-serif" font-size="14" lengthAdjust="spacing" textLength="70" x="466.75" y="516.8467">Rectangle</text><line style="stroke:#181818;stroke-width:0.5;" x1="332" x2="639" y1="528" y2="528"/><rect fill="none" height="6" style="stroke:#C82930;stroke-width:1.0;" width="6" x="339" y="538.6484"/><text fill="#000000" font-family="sans-serif" font-size="14" lengthAdjust="spacing" textLength="94" x="351" y="544.9951">width: double</text><rect fill="none" height="6" style="stroke:#C82930;stroke-width:1.0;" width="6" x="339" y="554.9453"/><text fill="#000000" font-family="sans-serif" font-size="14" lengthAdjust="spacing" textLength="101" x="351" y="561.292">height: double</text><line style="stroke:#181818;stroke-width:0.5;" x1="332" x2="639" y1="568.5938" y2="568.5938"/><ellipse cx="342" cy="582.2422" fill="#84BE84" rx="3" ry="3" style="stroke:#038048;stroke-width:1.0;"/><text fill="#000000" font-family="sans-serif" font-size="14" lengthAdjust="spacing" textLength="283" x="351" y="585.5889">Rectangle(width: double, height: double)</text><ellipse cx="342" cy="598.5391" fill="#84BE84" rx="3" ry="3" style="stroke:#038048;stroke-width:1.0;"/><text fill="#000000" font-family="sans-serif" font-size="14" lengthAdjust="spacing" textLength="129" x="351" y="601.8857">getWidth(): double</text><ellipse cx="342" cy="614.8359" fill="#84BE84" rx="3" ry="3" style="stroke:#038048;stroke-width:1.0;"/><text fill="#000000" font-family="sans-serif" font-size="14" lengthAdjust="spacing" textLength="135" x="351" y="618.1826">getHeight(): double</text><ellipse cx="342" cy="631.1328" fill="#84BE84" rx="3" ry="3" style="stroke:#038048;stroke-width:1.0;"/><text fill="#000000" font-family="sans-serif" font-size="14" lengthAdjust="spacing" textLength="121" x="351" y="634.4795">getArea(): double</text><ellipse cx="342" cy="647.4297" fill="#84BE84" rx="3" ry="3" style="stroke:#038048;stroke-width:1.0;"/><text fill="#000000" font-family="sans-serif" font-size="14" lengthAdjust="spacing" textLength="157" x="351" y="650.7764">getPerimeter(): double</text></g><!--class RectangleAdapter--><g id="elem_RectangleAdapter"><rect codeLine="21" fill="#F1F1F1" height="113.1875" id="RectangleAdapter" rx="2.5" ry="2.5" style="stroke:#181818;stroke-width:0.5;" width="304" x="333.5" y="298"/><ellipse cx="419.25" cy="314" fill="#ADD1B2" rx="11" ry="11" style="stroke:#181818;stroke-width:1.0;"/><path d="M422.2188,319.6406 Q421.6406,319.9375 421,320.0781 Q420.3594,320.2344 419.6563,320.2344 Q417.1563,320.2344 415.8281,318.5938 Q414.5156,316.9375 414.5156,313.8125 Q414.5156,310.6875 415.8281,309.0313 Q417.1563,307.375 419.6563,307.375 Q420.3594,307.375 421,307.5313 Q421.6563,307.6875 422.2188,307.9844 L422.2188,310.7031 Q421.5938,310.125 421,309.8594 Q420.4063,309.5781 419.7813,309.5781 Q418.4375,309.5781 417.75,310.6563 Q417.0625,311.7188 417.0625,313.8125 Q417.0625,315.9063 417.75,316.9844 Q418.4375,318.0469 419.7813,318.0469 Q420.4063,318.0469 421,317.7813 Q421.5938,317.5 422.2188,316.9219 L422.2188,319.6406 Z " fill="#000000"/><text fill="#000000" font-family="sans-serif" font-size="14" lengthAdjust="spacing" textLength="124" x="439.75" y="318.8467">RectangleAdapter</text><line style="stroke:#181818;stroke-width:0.5;" x1="334.5" x2="636.5" y1="330" y2="330"/><rect fill="none" height="6" style="stroke:#C82930;stroke-width:1.0;" width="6" x="341.5" y="340.6484"/><text fill="#000000" font-family="sans-serif" font-size="14" lengthAdjust="spacing" textLength="144" x="353.5" y="346.9951">rectangle: Rectangle</text><line style="stroke:#181818;stroke-width:0.5;" x1="334.5" x2="636.5" y1="354.2969" y2="354.2969"/><ellipse cx="344.5" cy="367.9453" fill="#84BE84" rx="3" ry="3" style="stroke:#038048;stroke-width:1.0;"/><text fill="#000000" font-family="sans-serif" font-size="14" lengthAdjust="spacing" textLength="278" x="353.5" y="371.292">RectangleAdapter(rectangle: Rectangle)</text><ellipse cx="344.5" cy="384.2422" fill="#84BE84" rx="3" ry="3" style="stroke:#038048;stroke-width:1.0;"/><text fill="#000000" font-family="sans-serif" font-size="14" lengthAdjust="spacing" textLength="121" x="353.5" y="387.5889">getArea(): double</text><ellipse cx="344.5" cy="400.5391" fill="#84BE84" rx="3" ry="3" style="stroke:#038048;stroke-width:1.0;"/><text fill="#000000" font-family="sans-serif" font-size="14" lengthAdjust="spacing" textLength="157" x="353.5" y="403.8857">getPerimeter(): double</text></g><g id="elem_GMN8"><path d="M449.5,176 L449.5,201.1328 A0,0 0 0 0 449.5,201.1328 L481.5,201.1328 L485.5,297.86 L489.5,201.1328 L521.5,201.1328 A0,0 0 0 0 521.5,201.1328 L521.5,186 L511.5,176 L449.5,176 A0,0 0 0 0 449.5,176 " fill="#FEFFDD" style="stroke:#181818;stroke-width:0.5;"/><path d="M511.5,176 L511.5,186 L521.5,186 L511.5,176 " fill="#FEFFDD" style="stroke:#181818;stroke-width:0.5;"/><text fill="#000000" font-family="sans-serif" font-size="13" lengthAdjust="spacing" textLength="51" x="455.5" y="193.0669">Adapter</text></g><path d="M673,337 L673,345.5664 L497.5,342.1484 L673,353.5664 L673,362.1328 A0,0 0 0 0 673,362.1328 L748,362.1328 A0,0 0 0 0 748,362.1328 L748,347 L738,337 L673,337 A0,0 0 0 0 673,337 " fill="#FEFFDD" style="stroke:#181818;stroke-width:0.5;"/><path d="M738,337 L738,347 L748,347 L738,337 " fill="#FEFFDD" style="stroke:#181818;stroke-width:0.5;"/><text fill="#000000" font-family="sans-serif" font-size="13" lengthAdjust="spacing" textLength="54" x="679" y="354.0669">Adaptee</text><!--class Main--><g id="elem_Main"><rect codeLine="31" fill="#F1F1F1" height="64.2969" id="Main" rx="2.5" ry="2.5" style="stroke:#181818;stroke-width:0.5;" width="177" x="149" y="7"/><ellipse cx="217.25" cy="23" fill="#ADD1B2" rx="11" ry="11" style="stroke:#181818;stroke-width:1.0;"/><path d="M220.2188,28.6406 Q219.6406,28.9375 219,29.0781 Q218.3594,29.2344 217.6563,29.2344 Q215.1563,29.2344 213.8281,27.5938 Q212.5156,25.9375 212.5156,22.8125 Q212.5156,19.6875 213.8281,18.0313 Q215.1563,16.375 217.6563,16.375 Q218.3594,16.375 219,16.5313 Q219.6563,16.6875 220.2188,16.9844 L220.2188,19.7031 Q219.5938,19.125 219,18.8594 Q218.4063,18.5781 217.7813,18.5781 Q216.4375,18.5781 215.75,19.6563 Q215.0625,20.7188 215.0625,22.8125 Q215.0625,24.9063 215.75,25.9844 Q216.4375,27.0469 217.7813,27.0469 Q218.4063,27.0469 219,26.7813 Q219.5938,26.5 220.2188,25.9219 L220.2188,28.6406 Z " fill="#000000"/><text fill="#000000" font-family="sans-serif" font-size="14" lengthAdjust="spacing" textLength="32" x="237.75" y="27.8467">Main</text><line style="stroke:#181818;stroke-width:0.5;" x1="150" x2="325" y1="39" y2="39"/><rect fill="none" height="6" style="stroke:#C82930;stroke-width:1.0;" width="6" x="157" y="49.6484"/><text fill="#000000" font-family="sans-serif" font-size="14" lengthAdjust="spacing" textLength="151" x="169" y="55.9951">shapes: List&lt;Shape&gt;</text><line style="stroke:#181818;stroke-width:0.5;" x1="150" x2="325" y1="63.2969" y2="63.2969"/></g><!--reverse link Shape to Triangle--><g id="link_Shape_Triangle"><path d="M208.6392,245.1821 C199.2092,263.3821 196.07,269.43 185.48,289.86 " fill="none" id="Shape-backto-Triangle" style="stroke:#181818;stroke-width:1.0;stroke-dasharray:7.0,7.0;"/><polygon fill="none" points="216.92,229.2,203.3118,242.4218,213.9665,247.9424,216.92,229.2" style="stroke:#181818;stroke-width:1.0;"/></g><!--reverse link Shape to RectangleAdapter--><g id="link_Shape_RectangleAdapter"><path d="M312.5447,239.1277 C343.6547,259.6977 367.14,275.23 401.19,297.74 " fill="none" id="Shape-backto-RectangleAdapter" style="stroke:#181818;stroke-width:1.0;stroke-dasharray:7.0,7.0;"/><polygon fill="none" points="297.53,229.2,309.2354,244.1326,315.8539,234.1228,297.53,229.2" style="stroke:#181818;stroke-width:1.0;"/></g><!--link RectangleAdapter to Rectangle--><g id="link_RectangleAdapter_Rectangle"><path codeLine="34" d="M485.5,411.14 C485.5,436.79 485.5,461.7 485.5,489.8 " fill="none" id="RectangleAdapter-to-Rectangle" style="stroke:#181818;stroke-width:1.0;"/><polygon fill="#181818" points="485.5,495.8,489.5,486.8,485.5,490.8,481.5,486.8,485.5,495.8" style="stroke:#181818;stroke-width:1.0;"/><text fill="#000000" font-family="sans-serif" font-size="13" lengthAdjust="spacing" textLength="157" x="486.5" y="462.0669">has-a rectangle adaptee</text></g><!--link Main to Shape--><g id="link_Main_Shape"><path codeLine="35" d="M237.5,71.28 C237.5,93.61 237.5,117.81 237.5,141.83 " fill="none" id="Main-to-Shape" style="stroke:#181818;stroke-width:1.0;"/><polygon fill="#181818" points="237.5,147.83,241.5,138.83,237.5,142.83,233.5,138.83,237.5,147.83" style="stroke:#181818;stroke-width:1.0;"/><text fill="#000000" font-family="sans-serif" font-size="13" lengthAdjust="spacing" textLength="30" x="238.5" y="114.0669">uses</text></g><!--SRC=[fPBDQiCm48JlVeeb9uTMBo1A8BSUMWXjeUUDlR44jcoq6teeVVTQbXt_n2sbqSb8CwDlnx9Eo9ym8tWrs11y9j2kEoX8zfumtMh8w_Enf77_GDvMrDecXrz9LY8pl7cBhYW9RDMKL94JdWKhE2BJB5E18LiOMLmq9ALJm_r2kxsDzeKoYRW3tOVDnVm5xs9DPvPV0D-3RetmiNEidTmqqpx7ffNy_2VyeDIZQJbT7vAkQVzTlgk5GEe6wjCrheR-Ayfyw6PDgBMVGCTDIiZb47nz6SzetMLU3jEpXYVByj1LiMjXhW2KsaqUXeQDGLOujWKOxzeaNNgGnrurd9du6m00]--></g></svg>