<?xml version="1.0" encoding="us-ascii" standalone="no"?><svg xmlns="http://www.w3.org/2000/svg" xmlns:xlink="http://www.w3.org/1999/xlink" contentStyleType="text/css" height="524px" preserveAspectRatio="none" style="width:828px;height:524px;background:#FFFFFF;" version="1.1" viewBox="0 0 828 524" width="828px" zoomAndPan="magnify"><defs/><g><!--class Shape--><g id="elem_Shape"><rect codeLine="1" fill="#F1F1F1" height="80.5938" id="Shape" rx="2.5" ry="2.5" style="stroke:#181818;stroke-width:0.5;" width="169" x="250" y="7"/><ellipse cx="308.25" cy="23" fill="#B4A7E5" rx="11" ry="11" style="stroke:#181818;stroke-width:1.0;"/><path d="M304.1719,18.7656 L304.1719,16.6094 L311.5625,16.6094 L311.5625,18.7656 L309.0938,18.7656 L309.0938,26.8438 L311.5625,26.8438 L311.5625,29 L304.1719,29 L304.1719,26.8438 L306.6406,26.8438 L306.6406,18.7656 L304.1719,18.7656 Z " fill="#000000"/><text fill="#000000" font-family="sans-serif" font-size="14" font-style="italic" lengthAdjust="spacing" textLength="44" x="328.75" y="27.8467">Shape</text><line style="stroke:#181818;stroke-width:0.5;" x1="251" x2="418" y1="39" y2="39"/><line style="stroke:#181818;stroke-width:0.5;" x1="251" x2="418" y1="47" y2="47"/><text fill="#000000" font-family="sans-serif" font-size="14" lengthAdjust="spacing" textLength="121" x="256" y="63.9951">getArea(): double</text><text fill="#000000" font-family="sans-serif" font-size="14" lengthAdjust="spacing" textLength="157" x="256" y="80.292">getPerimeter(): double</text></g><!--class Triangle--><g id="elem_Triangle"><rect codeLine="5" fill="#F1F1F1" height="129.4844" id="Triangle" rx="2.5" ry="2.5" style="stroke:#181818;stroke-width:0.5;" width="291" x="80" y="149"/><ellipse cx="193.75" cy="165" fill="#ADD1B2" rx="11" ry="11" style="stroke:#181818;stroke-width:1.0;"/><path d="M196.7188,170.6406 Q196.1406,170.9375 195.5,171.0781 Q194.8594,171.2344 194.1563,171.2344 Q191.6563,171.2344 190.3281,169.5938 Q189.0156,167.9375 189.0156,164.8125 Q189.0156,161.6875 190.3281,160.0313 Q191.6563,158.375 194.1563,158.375 Q194.8594,158.375 195.5,158.5313 Q196.1563,158.6875 196.7188,158.9844 L196.7188,161.7031 Q196.0938,161.125 195.5,160.8594 Q194.9063,160.5781 194.2813,160.5781 Q192.9375,160.5781 192.25,161.6563 Q191.5625,162.7188 191.5625,164.8125 Q191.5625,166.9063 192.25,167.9844 Q192.9375,169.0469 194.2813,169.0469 Q194.9063,169.0469 195.5,168.7813 Q196.0938,168.5 196.7188,167.9219 L196.7188,170.6406 Z " fill="#000000"/><text fill="#000000" font-family="sans-serif" font-size="14" lengthAdjust="spacing" textLength="55" x="214.25" y="169.8467">Triangle</text><line style="stroke:#181818;stroke-width:0.5;" x1="81" x2="370" y1="181" y2="181"/><rect fill="none" height="6" style="stroke:#C82930;stroke-width:1.0;" width="6" x="88" y="191.6484"/><text fill="#000000" font-family="sans-serif" font-size="14" lengthAdjust="spacing" textLength="91" x="100" y="197.9951">base: double</text><rect fill="none" height="6" style="stroke:#C82930;stroke-width:1.0;" width="6" x="88" y="207.9453"/><text fill="#000000" font-family="sans-serif" font-size="14" lengthAdjust="spacing" textLength="101" x="100" y="214.292">height: double</text><line style="stroke:#181818;stroke-width:0.5;" x1="81" x2="370" y1="221.5938" y2="221.5938"/><ellipse cx="91" cy="235.2422" fill="#84BE84" rx="3" ry="3" style="stroke:#038048;stroke-width:1.0;"/><text fill="#000000" font-family="sans-serif" font-size="14" lengthAdjust="spacing" textLength="265" x="100" y="238.5889">Triangle(base: double, height: double)</text><ellipse cx="91" cy="251.5391" fill="#84BE84" rx="3" ry="3" style="stroke:#038048;stroke-width:1.0;"/><text fill="#000000" font-family="sans-serif" font-size="14" lengthAdjust="spacing" textLength="121" x="100" y="254.8857">getArea(): double</text><ellipse cx="91" cy="267.8359" fill="#84BE84" rx="3" ry="3" style="stroke:#038048;stroke-width:1.0;"/><text fill="#000000" font-family="sans-serif" font-size="14" lengthAdjust="spacing" textLength="157" x="100" y="271.1826">getPerimeter(): double</text></g><!--class Rectangle--><g id="elem_Rectangle"><rect codeLine="12" fill="#F1F1F1" height="162.0781" id="Rectangle" rx="2.5" ry="2.5" style="stroke:#181818;stroke-width:0.5;" width="309" x="404" y="355"/><ellipse cx="519.25" cy="371" fill="#ADD1B2" rx="11" ry="11" style="stroke:#181818;stroke-width:1.0;"/><path d="M522.2188,376.6406 Q521.6406,376.9375 521,377.0781 Q520.3594,377.2344 519.6563,377.2344 Q517.1563,377.2344 515.8281,375.5938 Q514.5156,373.9375 514.5156,370.8125 Q514.5156,367.6875 515.8281,366.0313 Q517.1563,364.375 519.6563,364.375 Q520.3594,364.375 521,364.5313 Q521.6563,364.6875 522.2188,364.9844 L522.2188,367.7031 Q521.5938,367.125 521,366.8594 Q520.4063,366.5781 519.7813,366.5781 Q518.4375,366.5781 517.75,367.6563 Q517.0625,368.7188 517.0625,370.8125 Q517.0625,372.9063 517.75,373.9844 Q518.4375,375.0469 519.7813,375.0469 Q520.4063,375.0469 521,374.7813 Q521.5938,374.5 522.2188,373.9219 L522.2188,376.6406 Z " fill="#000000"/><text fill="#000000" font-family="sans-serif" font-size="14" lengthAdjust="spacing" textLength="70" x="539.75" y="375.8467">Rectangle</text><line style="stroke:#181818;stroke-width:0.5;" x1="405" x2="712" y1="387" y2="387"/><rect fill="none" height="6" style="stroke:#C82930;stroke-width:1.0;" width="6" x="412" y="397.6484"/><text fill="#000000" font-family="sans-serif" font-size="14" lengthAdjust="spacing" textLength="94" x="424" y="403.9951">width: double</text><rect fill="none" height="6" style="stroke:#C82930;stroke-width:1.0;" width="6" x="412" y="413.9453"/><text fill="#000000" font-family="sans-serif" font-size="14" lengthAdjust="spacing" textLength="101" x="424" y="420.292">height: double</text><line style="stroke:#181818;stroke-width:0.5;" x1="405" x2="712" y1="427.5938" y2="427.5938"/><ellipse cx="415" cy="441.2422" fill="#84BE84" rx="3" ry="3" style="stroke:#038048;stroke-width:1.0;"/><text fill="#000000" font-family="sans-serif" font-size="14" lengthAdjust="spacing" textLength="283" x="424" y="444.5889">Rectangle(width: double, height: double)</text><ellipse cx="415" cy="457.5391" fill="#84BE84" rx="3" ry="3" style="stroke:#038048;stroke-width:1.0;"/><text fill="#000000" font-family="sans-serif" font-size="14" lengthAdjust="spacing" textLength="129" x="424" y="460.8857">getWidth(): double</text><ellipse cx="415" cy="473.8359" fill="#84BE84" rx="3" ry="3" style="stroke:#038048;stroke-width:1.0;"/><text fill="#000000" font-family="sans-serif" font-size="14" lengthAdjust="spacing" textLength="135" x="424" y="477.1826">getHeight(): double</text><ellipse cx="415" cy="490.1328" fill="#84BE84" rx="3" ry="3" style="stroke:#038048;stroke-width:1.0;"/><text fill="#000000" font-family="sans-serif" font-size="14" lengthAdjust="spacing" textLength="121" x="424" y="493.4795">getArea(): double</text><ellipse cx="415" cy="506.4297" fill="#84BE84" rx="3" ry="3" style="stroke:#038048;stroke-width:1.0;"/><text fill="#000000" font-family="sans-serif" font-size="14" lengthAdjust="spacing" textLength="157" x="424" y="509.7764">getPerimeter(): double</text></g><!--class RectangleAdapter--><g id="elem_RectangleAdapter"><rect codeLine="21" fill="#F1F1F1" height="113.1875" id="RectangleAdapter" rx="2.5" ry="2.5" style="stroke:#181818;stroke-width:0.5;" width="304" x="406.5" y="157"/><ellipse cx="492.25" cy="173" fill="#ADD1B2" rx="11" ry="11" style="stroke:#181818;stroke-width:1.0;"/><path d="M495.2188,178.6406 Q494.6406,178.9375 494,179.0781 Q493.3594,179.2344 492.6563,179.2344 Q490.1563,179.2344 488.8281,177.5938 Q487.5156,175.9375 487.5156,172.8125 Q487.5156,169.6875 488.8281,168.0313 Q490.1563,166.375 492.6563,166.375 Q493.3594,166.375 494,166.5313 Q494.6563,166.6875 495.2188,166.9844 L495.2188,169.7031 Q494.5938,169.125 494,168.8594 Q493.4063,168.5781 492.7813,168.5781 Q491.4375,168.5781 490.75,169.6563 Q490.0625,170.7188 490.0625,172.8125 Q490.0625,174.9063 490.75,175.9844 Q491.4375,177.0469 492.7813,177.0469 Q493.4063,177.0469 494,176.7813 Q494.5938,176.5 495.2188,175.9219 L495.2188,178.6406 Z " fill="#000000"/><text fill="#000000" font-family="sans-serif" font-size="14" lengthAdjust="spacing" textLength="124" x="512.75" y="177.8467">RectangleAdapter</text><line style="stroke:#181818;stroke-width:0.5;" x1="407.5" x2="709.5" y1="189" y2="189"/><rect fill="none" height="6" style="stroke:#C82930;stroke-width:1.0;" width="6" x="414.5" y="199.6484"/><text fill="#000000" font-family="sans-serif" font-size="14" lengthAdjust="spacing" textLength="144" x="426.5" y="205.9951">rectangle: Rectangle</text><line style="stroke:#181818;stroke-width:0.5;" x1="407.5" x2="709.5" y1="213.2969" y2="213.2969"/><ellipse cx="417.5" cy="226.9453" fill="#84BE84" rx="3" ry="3" style="stroke:#038048;stroke-width:1.0;"/><text fill="#000000" font-family="sans-serif" font-size="14" lengthAdjust="spacing" textLength="278" x="426.5" y="230.292">RectangleAdapter(rectangle: Rectangle)</text><ellipse cx="417.5" cy="243.2422" fill="#84BE84" rx="3" ry="3" style="stroke:#038048;stroke-width:1.0;"/><text fill="#000000" font-family="sans-serif" font-size="14" lengthAdjust="spacing" textLength="121" x="426.5" y="246.5889">getArea(): double</text><ellipse cx="417.5" cy="259.5391" fill="#84BE84" rx="3" ry="3" style="stroke:#038048;stroke-width:1.0;"/><text fill="#000000" font-family="sans-serif" font-size="14" lengthAdjust="spacing" textLength="157" x="426.5" y="262.8857">getPerimeter(): double</text></g><g id="elem_GMN8"><path d="M522.5,35 L522.5,60.1328 A0,0 0 0 0 522.5,60.1328 L554.5,60.1328 L558.5,156.86 L562.5,60.1328 L594.5,60.1328 A0,0 0 0 0 594.5,60.1328 L594.5,45 L584.5,35 L522.5,35 A0,0 0 0 0 522.5,35 " fill="#FEFFDD" style="stroke:#181818;stroke-width:0.5;"/><path d="M584.5,35 L584.5,45 L594.5,45 L584.5,35 " fill="#FEFFDD" style="stroke:#181818;stroke-width:0.5;"/><text fill="#000000" font-family="sans-serif" font-size="13" lengthAdjust="spacing" textLength="51" x="528.5" y="52.0669">Adapter</text></g><path d="M746,196 L746,204.5664 L570.5,201.1484 L746,212.5664 L746,221.1328 A0,0 0 0 0 746,221.1328 L821,221.1328 A0,0 0 0 0 821,221.1328 L821,206 L811,196 L746,196 A0,0 0 0 0 746,196 " fill="#FEFFDD" style="stroke:#181818;stroke-width:0.5;"/><path d="M811,196 L811,206 L821,206 L811,196 " fill="#FEFFDD" style="stroke:#181818;stroke-width:0.5;"/><text fill="#000000" font-family="sans-serif" font-size="13" lengthAdjust="spacing" textLength="54" x="752" y="213.0669">Adaptee</text><!--class Main--><g id="elem_Main"><rect codeLine="31" fill="#F1F1F1" height="64.2969" id="Main" rx="2.5" ry="2.5" style="stroke:#181818;stroke-width:0.5;" width="177" x="7" y="15.5"/><ellipse cx="75.25" cy="31.5" fill="#ADD1B2" rx="11" ry="11" style="stroke:#181818;stroke-width:1.0;"/><path d="M78.2188,37.1406 Q77.6406,37.4375 77,37.5781 Q76.3594,37.7344 75.6563,37.7344 Q73.1563,37.7344 71.8281,36.0938 Q70.5156,34.4375 70.5156,31.3125 Q70.5156,28.1875 71.8281,26.5313 Q73.1563,24.875 75.6563,24.875 Q76.3594,24.875 77,25.0313 Q77.6563,25.1875 78.2188,25.4844 L78.2188,28.2031 Q77.5938,27.625 77,27.3594 Q76.4063,27.0781 75.7813,27.0781 Q74.4375,27.0781 73.75,28.1563 Q73.0625,29.2188 73.0625,31.3125 Q73.0625,33.4063 73.75,34.4844 Q74.4375,35.5469 75.7813,35.5469 Q76.4063,35.5469 77,35.2813 Q77.5938,35 78.2188,34.4219 L78.2188,37.1406 Z " fill="#000000"/><text fill="#000000" font-family="sans-serif" font-size="14" lengthAdjust="spacing" textLength="32" x="95.75" y="36.3467">Main</text><line style="stroke:#181818;stroke-width:0.5;" x1="8" x2="183" y1="47.5" y2="47.5"/><rect fill="none" height="6" style="stroke:#C82930;stroke-width:1.0;" width="6" x="15" y="58.1484"/><text fill="#000000" font-family="sans-serif" font-size="14" lengthAdjust="spacing" textLength="151" x="27" y="64.4951">shapes: List&lt;Shape&gt;</text><line style="stroke:#181818;stroke-width:0.5;" x1="8" x2="183" y1="71.7969" y2="71.7969"/></g><!--reverse link Shape to Triangle--><g id="link_Shape_Triangle"><path d="M298.1501,103.1934 C286.0601,121.3934 281.38,128.43 267.8,148.86 " fill="none" id="Shape-backto-Triangle" style="stroke:#181818;stroke-width:1.0;stroke-dasharray:7.0,7.0;"/><polygon fill="none" points="308.11,88.2,293.1523,99.8734,303.1479,106.5133,308.11,88.2" style="stroke:#181818;stroke-width:1.0;"/></g><!--reverse link Shape to RectangleAdapter--><g id="link_Shape_RectangleAdapter"><path d="M403.2443,98.8322 C431.3443,119.4022 451.6,134.23 482.35,156.74 " fill="none" id="Shape-backto-RectangleAdapter" style="stroke:#181818;stroke-width:1.0;stroke-dasharray:7.0,7.0;"/><polygon fill="none" points="388.72,88.2,399.7003,103.6737,406.7884,93.9908,388.72,88.2" style="stroke:#181818;stroke-width:1.0;"/></g><!--link RectangleAdapter to Rectangle--><g id="link_RectangleAdapter_Rectangle"><path codeLine="34" d="M558.5,270.14 C558.5,295.79 558.5,320.7 558.5,348.8 " fill="none" id="RectangleAdapter-to-Rectangle" style="stroke:#181818;stroke-width:1.0;"/><polygon fill="#181818" points="558.5,354.8,562.5,345.8,558.5,349.8,554.5,345.8,558.5,354.8" style="stroke:#181818;stroke-width:1.0;"/><text fill="#000000" font-family="sans-serif" font-size="13" lengthAdjust="spacing" textLength="157" x="559.5" y="321.0669">has-a rectangle adaptee</text></g><!--link Main to Shape--><g id="link_Main_Shape"><path codeLine="35" d="M184.16,47.5 C205.68,47.5 222.63,47.5 243.96,47.5 " fill="none" id="Main-to-Shape" style="stroke:#181818;stroke-width:1.0;"/><polygon fill="#181818" points="249.96,47.5,240.96,43.5,244.96,47.5,240.96,51.5,249.96,47.5" style="stroke:#181818;stroke-width:1.0;"/><text fill="#000000" font-family="sans-serif" font-size="13" lengthAdjust="spacing" textLength="30" x="202" y="40.5669">uses</text></g><!--SRC=[fPB1ReCm44JlVCKg9wBKFs15aNBBePMgDbBF6zXWIs2Grr4FKVyz1WE1n6chbXDQpupV3cZZo1un8tXNs12S4_1FGMvh2TEbXBm-7KeQfgzaTKNUCZdwIh8IcM5lDPgY9D1LKr95nl4iLC01cMQ90XJfGhdPS3KcfLF3qurssOlZhAkVQDyeSm5teFlKkLE_mHkjwSpo3U17guiHxZf7xEHVEsrpRBpayPUmWr9UJRVRzI5fJFldyatj25pTG7synvNGlmMPRRk92QMq4-Wmf8HC3gslB-C5jHdtvNPxbl2isQsxAZOUvWv0YCtanv2mKCW2hsq1XhiMIPSkEaBl2ULAE37n1G00]--></g></svg>