<?xml version="1.0" encoding="us-ascii" standalone="no"?><svg xmlns="http://www.w3.org/2000/svg" xmlns:xlink="http://www.w3.org/1999/xlink" contentStyleType="text/css" height="387px" preserveAspectRatio="none" style="width:1795px;height:387px;background:#FFFFFF;" version="1.1" viewBox="0 0 1795 387" width="1795px" zoomAndPan="magnify"><defs/><g><!--class MathOperation--><g id="elem_MathOperation"><rect codeLine="1" fill="#F1F1F1" height="145.7813" id="MathOperation" rx="2.5" ry="2.5" style="stroke:#181818;stroke-width:0.5;" width="181" x="479" y="60.49"/><ellipse cx="515.15" cy="76.49" fill="#ADD1B2" rx="11" ry="11" style="stroke:#181818;stroke-width:1.0;"/><path d="M518.1188,82.1306 Q517.5406,82.4275 516.9,82.5681 Q516.2594,82.7244 515.5563,82.7244 Q513.0563,82.7244 511.7281,81.0838 Q510.4156,79.4275 510.4156,76.3025 Q510.4156,73.1775 511.7281,71.5213 Q513.0563,69.865 515.5563,69.865 Q516.2594,69.865 516.9,70.0213 Q517.5563,70.1775 518.1188,70.4744 L518.1188,73.1931 Q517.4938,72.615 516.9,72.3494 Q516.3063,72.0681 515.6813,72.0681 Q514.3375,72.0681 513.65,73.1463 Q512.9625,74.2088 512.9625,76.3025 Q512.9625,78.3963 513.65,79.4744 Q514.3375,80.5369 515.6813,80.5369 Q516.3063,80.5369 516.9,80.2713 Q517.4938,79.99 518.1188,79.4119 L518.1188,82.1306 Z " fill="#000000"/><text fill="#000000" font-family="sans-serif" font-size="14" lengthAdjust="spacing" textLength="102" x="533.85" y="81.3367">MathOperation</text><line style="stroke:#181818;stroke-width:0.5;" x1="480" x2="659" y1="92.49" y2="92.49"/><rect fill="none" height="6" style="stroke:#C82930;stroke-width:1.0;" width="6" x="487" y="103.1384"/><text fill="#000000" font-family="sans-serif" font-size="14" lengthAdjust="spacing" textLength="129" x="499" y="109.4851">operator1 : double</text><rect fill="none" height="6" style="stroke:#C82930;stroke-width:1.0;" width="6" x="487" y="119.4353"/><text fill="#000000" font-family="sans-serif" font-size="14" lengthAdjust="spacing" textLength="129" x="499" y="125.782">operator2 : double</text><rect fill="none" height="6" style="stroke:#C82930;stroke-width:1.0;" width="6" x="487" y="135.7322"/><text fill="#000000" font-family="sans-serif" font-size="14" lengthAdjust="spacing" textLength="119" x="499" y="142.0789">operation : String</text><line style="stroke:#181818;stroke-width:0.5;" x1="480" x2="659" y1="149.3806" y2="149.3806"/><ellipse cx="490" cy="163.0291" fill="#84BE84" rx="3" ry="3" style="stroke:#038048;stroke-width:1.0;"/><text fill="#000000" font-family="sans-serif" font-size="14" lengthAdjust="spacing" textLength="155" x="499" y="166.3757">double getOperator1()</text><ellipse cx="490" cy="179.3259" fill="#84BE84" rx="3" ry="3" style="stroke:#038048;stroke-width:1.0;"/><text fill="#000000" font-family="sans-serif" font-size="14" lengthAdjust="spacing" textLength="155" x="499" y="182.6726">double getOperator2()</text><ellipse cx="490" cy="195.6228" fill="#84BE84" rx="3" ry="3" style="stroke:#038048;stroke-width:1.0;"/><text fill="#000000" font-family="sans-serif" font-size="14" lengthAdjust="spacing" textLength="138" x="499" y="198.9695">String getOperator()</text></g><!--class OperationChain--><g id="elem_OperationChain"><rect codeLine="9" fill="#F1F1F1" height="80.5938" id="OperationChain" rx="2.5" ry="2.5" style="stroke:#181818;stroke-width:0.5;" width="405" x="695" y="92.99"/><ellipse cx="839.75" cy="108.99" fill="#B4A7E5" rx="11" ry="11" style="stroke:#181818;stroke-width:1.0;"/><path d="M835.6719,104.7556 L835.6719,102.5994 L843.0625,102.5994 L843.0625,104.7556 L840.5938,104.7556 L840.5938,112.8338 L843.0625,112.8338 L843.0625,114.99 L835.6719,114.99 L835.6719,112.8338 L838.1406,112.8338 L838.1406,104.7556 L835.6719,104.7556 Z " fill="#000000"/><text fill="#000000" font-family="sans-serif" font-size="14" font-style="italic" lengthAdjust="spacing" textLength="107" x="860.25" y="113.8367">OperationChain</text><line style="stroke:#181818;stroke-width:0.5;" x1="696" x2="1099" y1="124.99" y2="124.99"/><line style="stroke:#181818;stroke-width:0.5;" x1="696" x2="1099" y1="132.99" y2="132.99"/><text fill="#000000" font-family="sans-serif" font-size="14" lengthAdjust="spacing" textLength="393" x="701" y="149.9851">OperationChain setNextChain(OperationChain nextChain)</text><text fill="#000000" font-family="sans-serif" font-size="14" lengthAdjust="spacing" textLength="275" x="701" y="166.282">void calculate(MathOperation operation)</text></g><!--class AddOperation--><g id="elem_AddOperation"><rect codeLine="13" fill="#F1F1F1" height="113.1875" id="AddOperation" rx="2.5" ry="2.5" style="stroke:#181818;stroke-width:0.5;" width="419" x="1143" y="76.99"/><ellipse cx="1300.75" cy="92.99" fill="#ADD1B2" rx="11" ry="11" style="stroke:#181818;stroke-width:1.0;"/><path d="M1303.7188,98.6306 Q1303.1406,98.9275 1302.5,99.0681 Q1301.8594,99.2244 1301.1563,99.2244 Q1298.6563,99.2244 1297.3281,97.5838 Q1296.0156,95.9275 1296.0156,92.8025 Q1296.0156,89.6775 1297.3281,88.0213 Q1298.6563,86.365 1301.1563,86.365 Q1301.8594,86.365 1302.5,86.5213 Q1303.1563,86.6775 1303.7188,86.9744 L1303.7188,89.6931 Q1303.0938,89.115 1302.5,88.8494 Q1301.9063,88.5681 1301.2813,88.5681 Q1299.9375,88.5681 1299.25,89.6463 Q1298.5625,90.7088 1298.5625,92.8025 Q1298.5625,94.8963 1299.25,95.9744 Q1299.9375,97.0369 1301.2813,97.0369 Q1301.9063,97.0369 1302.5,96.7713 Q1303.0938,96.49 1303.7188,95.9119 L1303.7188,98.6306 Z " fill="#000000"/><text fill="#000000" font-family="sans-serif" font-size="14" lengthAdjust="spacing" textLength="95" x="1321.25" y="97.8367">AddOperation</text><line style="stroke:#181818;stroke-width:0.5;" x1="1144" x2="1561" y1="108.99" y2="108.99"/><rect fill="none" height="6" style="stroke:#C82930;stroke-width:1.0;" width="6" x="1151" y="119.6384"/><text fill="#000000" font-family="sans-serif" font-size="14" lengthAdjust="spacing" text-decoration="underline" textLength="84" x="1163" y="125.9851">ADD : String</text><rect fill="none" height="6" style="stroke:#C82930;stroke-width:1.0;" width="6" x="1151" y="135.9353"/><text fill="#000000" font-family="sans-serif" font-size="14" lengthAdjust="spacing" textLength="189" x="1163" y="142.282">nextChain : OperationChain</text><line style="stroke:#181818;stroke-width:0.5;" x1="1144" x2="1561" y1="149.5838" y2="149.5838"/><ellipse cx="1154" cy="163.2322" fill="#84BE84" rx="3" ry="3" style="stroke:#038048;stroke-width:1.0;"/><text fill="#000000" font-family="sans-serif" font-size="14" lengthAdjust="spacing" textLength="103" x="1163" y="166.5789">void calculate()</text><ellipse cx="1154" cy="179.5291" fill="#84BE84" rx="3" ry="3" style="stroke:#038048;stroke-width:1.0;"/><text fill="#000000" font-family="sans-serif" font-size="14" lengthAdjust="spacing" textLength="393" x="1163" y="182.8757">OperationChain setNextChain(OperationChain nextChain)</text></g><!--class SubtractOperation--><g id="elem_SubtractOperation"><rect codeLine="19" fill="#F1F1F1" height="113.1875" id="SubtractOperation" rx="2.5" ry="2.5" style="stroke:#181818;stroke-width:0.5;" width="419" x="7" y="267.49"/><ellipse cx="149.25" cy="283.49" fill="#ADD1B2" rx="11" ry="11" style="stroke:#181818;stroke-width:1.0;"/><path d="M152.2188,289.1306 Q151.6406,289.4275 151,289.5681 Q150.3594,289.7244 149.6563,289.7244 Q147.1563,289.7244 145.8281,288.0838 Q144.5156,286.4275 144.5156,283.3025 Q144.5156,280.1775 145.8281,278.5213 Q147.1563,276.865 149.6563,276.865 Q150.3594,276.865 151,277.0213 Q151.6563,277.1775 152.2188,277.4744 L152.2188,280.1931 Q151.5938,279.615 151,279.3494 Q150.4063,279.0681 149.7813,279.0681 Q148.4375,279.0681 147.75,280.1463 Q147.0625,281.2088 147.0625,283.3025 Q147.0625,285.3963 147.75,286.4744 Q148.4375,287.5369 149.7813,287.5369 Q150.4063,287.5369 151,287.2713 Q151.5938,286.99 152.2188,286.4119 L152.2188,289.1306 Z " fill="#000000"/><text fill="#000000" font-family="sans-serif" font-size="14" lengthAdjust="spacing" textLength="126" x="169.75" y="288.3367">SubtractOperation</text><line style="stroke:#181818;stroke-width:0.5;" x1="8" x2="425" y1="299.49" y2="299.49"/><rect fill="none" height="6" style="stroke:#C82930;stroke-width:1.0;" width="6" x="15" y="310.1384"/><text fill="#000000" font-family="sans-serif" font-size="14" lengthAdjust="spacing" text-decoration="underline" textLength="129" x="27" y="316.4851">SUBTRACT : String</text><rect fill="none" height="6" style="stroke:#C82930;stroke-width:1.0;" width="6" x="15" y="326.4353"/><text fill="#000000" font-family="sans-serif" font-size="14" lengthAdjust="spacing" textLength="189" x="27" y="332.782">nextChain : OperationChain</text><line style="stroke:#181818;stroke-width:0.5;" x1="8" x2="425" y1="340.0838" y2="340.0838"/><ellipse cx="18" cy="353.7322" fill="#84BE84" rx="3" ry="3" style="stroke:#038048;stroke-width:1.0;"/><text fill="#000000" font-family="sans-serif" font-size="14" lengthAdjust="spacing" textLength="103" x="27" y="357.0789">void calculate()</text><ellipse cx="18" cy="370.0291" fill="#84BE84" rx="3" ry="3" style="stroke:#038048;stroke-width:1.0;"/><text fill="#000000" font-family="sans-serif" font-size="14" lengthAdjust="spacing" textLength="393" x="27" y="373.3757">OperationChain setNextChain(OperationChain nextChain)</text></g><!--class MultiplyOperation--><g id="elem_MultiplyOperation"><rect codeLine="25" fill="#F1F1F1" height="113.1875" id="MultiplyOperation" rx="2.5" ry="2.5" style="stroke:#181818;stroke-width:0.5;" width="419" x="461" y="267.49"/><ellipse cx="606.75" cy="283.49" fill="#ADD1B2" rx="11" ry="11" style="stroke:#181818;stroke-width:1.0;"/><path d="M609.7188,289.1306 Q609.1406,289.4275 608.5,289.5681 Q607.8594,289.7244 607.1563,289.7244 Q604.6563,289.7244 603.3281,288.0838 Q602.0156,286.4275 602.0156,283.3025 Q602.0156,280.1775 603.3281,278.5213 Q604.6563,276.865 607.1563,276.865 Q607.8594,276.865 608.5,277.0213 Q609.1563,277.1775 609.7188,277.4744 L609.7188,280.1931 Q609.0938,279.615 608.5,279.3494 Q607.9063,279.0681 607.2813,279.0681 Q605.9375,279.0681 605.25,280.1463 Q604.5625,281.2088 604.5625,283.3025 Q604.5625,285.3963 605.25,286.4744 Q605.9375,287.5369 607.2813,287.5369 Q607.9063,287.5369 608.5,287.2713 Q609.0938,286.99 609.7188,286.4119 L609.7188,289.1306 Z " fill="#000000"/><text fill="#000000" font-family="sans-serif" font-size="14" lengthAdjust="spacing" textLength="119" x="627.25" y="288.3367">MultiplyOperation</text><line style="stroke:#181818;stroke-width:0.5;" x1="462" x2="879" y1="299.49" y2="299.49"/><rect fill="none" height="6" style="stroke:#C82930;stroke-width:1.0;" width="6" x="469" y="310.1384"/><text fill="#000000" font-family="sans-serif" font-size="14" lengthAdjust="spacing" text-decoration="underline" textLength="119" x="481" y="316.4851">MULTIPLY : String</text><rect fill="none" height="6" style="stroke:#C82930;stroke-width:1.0;" width="6" x="469" y="326.4353"/><text fill="#000000" font-family="sans-serif" font-size="14" lengthAdjust="spacing" textLength="189" x="481" y="332.782">nextChain : OperationChain</text><line style="stroke:#181818;stroke-width:0.5;" x1="462" x2="879" y1="340.0838" y2="340.0838"/><ellipse cx="472" cy="353.7322" fill="#84BE84" rx="3" ry="3" style="stroke:#038048;stroke-width:1.0;"/><text fill="#000000" font-family="sans-serif" font-size="14" lengthAdjust="spacing" textLength="103" x="481" y="357.0789">void calculate()</text><ellipse cx="472" cy="370.0291" fill="#84BE84" rx="3" ry="3" style="stroke:#038048;stroke-width:1.0;"/><text fill="#000000" font-family="sans-serif" font-size="14" lengthAdjust="spacing" textLength="393" x="481" y="373.3757">OperationChain setNextChain(OperationChain nextChain)</text></g><!--class DivideOperation--><g id="elem_DivideOperation"><rect codeLine="31" fill="#F1F1F1" height="113.1875" id="DivideOperation" rx="2.5" ry="2.5" style="stroke:#181818;stroke-width:0.5;" width="419" x="915" y="267.49"/><ellipse cx="1065.25" cy="283.49" fill="#ADD1B2" rx="11" ry="11" style="stroke:#181818;stroke-width:1.0;"/><path d="M1068.2188,289.1306 Q1067.6406,289.4275 1067,289.5681 Q1066.3594,289.7244 1065.6563,289.7244 Q1063.1563,289.7244 1061.8281,288.0838 Q1060.5156,286.4275 1060.5156,283.3025 Q1060.5156,280.1775 1061.8281,278.5213 Q1063.1563,276.865 1065.6563,276.865 Q1066.3594,276.865 1067,277.0213 Q1067.6563,277.1775 1068.2188,277.4744 L1068.2188,280.1931 Q1067.5938,279.615 1067,279.3494 Q1066.4063,279.0681 1065.7813,279.0681 Q1064.4375,279.0681 1063.75,280.1463 Q1063.0625,281.2088 1063.0625,283.3025 Q1063.0625,285.3963 1063.75,286.4744 Q1064.4375,287.5369 1065.7813,287.5369 Q1066.4063,287.5369 1067,287.2713 Q1067.5938,286.99 1068.2188,286.4119 L1068.2188,289.1306 Z " fill="#000000"/><text fill="#000000" font-family="sans-serif" font-size="14" lengthAdjust="spacing" textLength="110" x="1085.75" y="288.3367">DivideOperation</text><line style="stroke:#181818;stroke-width:0.5;" x1="916" x2="1333" y1="299.49" y2="299.49"/><rect fill="none" height="6" style="stroke:#C82930;stroke-width:1.0;" width="6" x="923" y="310.1384"/><text fill="#000000" font-family="sans-serif" font-size="14" lengthAdjust="spacing" text-decoration="underline" textLength="99" x="935" y="316.4851">DIVIDE : String</text><rect fill="none" height="6" style="stroke:#C82930;stroke-width:1.0;" width="6" x="923" y="326.4353"/><text fill="#000000" font-family="sans-serif" font-size="14" lengthAdjust="spacing" textLength="189" x="935" y="332.782">nextChain : OperationChain</text><line style="stroke:#181818;stroke-width:0.5;" x1="916" x2="1333" y1="340.0838" y2="340.0838"/><ellipse cx="926" cy="353.7322" fill="#84BE84" rx="3" ry="3" style="stroke:#038048;stroke-width:1.0;"/><text fill="#000000" font-family="sans-serif" font-size="14" lengthAdjust="spacing" textLength="103" x="935" y="357.0789">void calculate()</text><ellipse cx="926" cy="370.0291" fill="#84BE84" rx="3" ry="3" style="stroke:#038048;stroke-width:1.0;"/><text fill="#000000" font-family="sans-serif" font-size="14" lengthAdjust="spacing" textLength="393" x="935" y="373.3757">OperationChain setNextChain(OperationChain nextChain)</text></g><!--class UnsupportedOperation--><g id="elem_UnsupportedOperation"><rect codeLine="37" fill="#F1F1F1" height="96.8906" id="UnsupportedOperation" rx="2.5" ry="2.5" style="stroke:#181818;stroke-width:0.5;" width="419" x="1369" y="275.49"/><ellipse cx="1494.75" cy="291.49" fill="#ADD1B2" rx="11" ry="11" style="stroke:#181818;stroke-width:1.0;"/><path d="M1497.7188,297.1306 Q1497.1406,297.4275 1496.5,297.5681 Q1495.8594,297.7244 1495.1563,297.7244 Q1492.6563,297.7244 1491.3281,296.0838 Q1490.0156,294.4275 1490.0156,291.3025 Q1490.0156,288.1775 1491.3281,286.5213 Q1492.6563,284.865 1495.1563,284.865 Q1495.8594,284.865 1496.5,285.0213 Q1497.1563,285.1775 1497.7188,285.4744 L1497.7188,288.1931 Q1497.0938,287.615 1496.5,287.3494 Q1495.9063,287.0681 1495.2813,287.0681 Q1493.9375,287.0681 1493.25,288.1463 Q1492.5625,289.2088 1492.5625,291.3025 Q1492.5625,293.3963 1493.25,294.4744 Q1493.9375,295.5369 1495.2813,295.5369 Q1495.9063,295.5369 1496.5,295.2713 Q1497.0938,294.99 1497.7188,294.4119 L1497.7188,297.1306 Z " fill="#000000"/><text fill="#000000" font-family="sans-serif" font-size="14" lengthAdjust="spacing" textLength="159" x="1515.25" y="296.3367">UnsupportedOperation</text><line style="stroke:#181818;stroke-width:0.5;" x1="1370" x2="1787" y1="307.49" y2="307.49"/><rect fill="none" height="6" style="stroke:#C82930;stroke-width:1.0;" width="6" x="1377" y="318.1384"/><text fill="#000000" font-family="sans-serif" font-size="14" lengthAdjust="spacing" textLength="189" x="1389" y="324.4851">nextChain : OperationChain</text><line style="stroke:#181818;stroke-width:0.5;" x1="1370" x2="1787" y1="331.7869" y2="331.7869"/><ellipse cx="1380" cy="345.4353" fill="#84BE84" rx="3" ry="3" style="stroke:#038048;stroke-width:1.0;"/><text fill="#000000" font-family="sans-serif" font-size="14" lengthAdjust="spacing" textLength="103" x="1389" y="348.782">void calculate()</text><ellipse cx="1380" cy="361.7322" fill="#84BE84" rx="3" ry="3" style="stroke:#038048;stroke-width:1.0;"/><text fill="#000000" font-family="sans-serif" font-size="14" lengthAdjust="spacing" textLength="393" x="1389" y="365.0789">OperationChain setNextChain(OperationChain nextChain)</text></g><!--class Main--><g id="elem_Main"><rect codeLine="42" fill="#F1F1F1" height="48" id="Main" rx="2.5" ry="2.5" style="stroke:#181818;stroke-width:0.5;" width="64" x="330.5" y="109.49"/><ellipse cx="345.5" cy="125.49" fill="#ADD1B2" rx="11" ry="11" style="stroke:#181818;stroke-width:1.0;"/><path d="M348.4688,131.1306 Q347.8906,131.4275 347.25,131.5681 Q346.6094,131.7244 345.9063,131.7244 Q343.4063,131.7244 342.0781,130.0838 Q340.7656,128.4275 340.7656,125.3025 Q340.7656,122.1775 342.0781,120.5213 Q343.4063,118.865 345.9063,118.865 Q346.6094,118.865 347.25,119.0213 Q347.9063,119.1775 348.4688,119.4744 L348.4688,122.1931 Q347.8438,121.615 347.25,121.3494 Q346.6563,121.0681 346.0313,121.0681 Q344.6875,121.0681 344,122.1463 Q343.3125,123.2088 343.3125,125.3025 Q343.3125,127.3963 344,128.4744 Q344.6875,129.5369 346.0313,129.5369 Q346.6563,129.5369 347.25,129.2713 Q347.8438,128.99 348.4688,128.4119 L348.4688,131.1306 Z " fill="#000000"/><text fill="#000000" font-family="sans-serif" font-size="14" lengthAdjust="spacing" textLength="32" x="359.5" y="130.3367">Main</text><line style="stroke:#181818;stroke-width:0.5;" x1="331.5" x2="393.5" y1="141.49" y2="141.49"/><line style="stroke:#181818;stroke-width:0.5;" x1="331.5" x2="393.5" y1="149.49" y2="149.49"/></g><!--reverse link OperationChain to AddOperation--><g id="link_OperationChain_AddOperation"><path d="M1118.16,133.49 C1129.61,133.49 1123.15,133.49 1134.65,133.49 " fill="none" id="OperationChain-backto-AddOperation" style="stroke:#181818;stroke-width:1.0;stroke-dasharray:7.0,7.0;"/><polygon fill="none" points="1100.16,133.49,1118.16,139.49,1118.16,127.49,1100.16,133.49" style="stroke:#181818;stroke-width:1.0;"/></g><!--link OperationChain to AddOperation--><g id="link_OperationChain_AddOperation"><path codeLine="45" d="M1106.2198,137.3603 C1120.5298,137.4803 1116.73,137.49 1130.5,137.49 " fill="none" id="OperationChain-AddOperation" style="stroke:#181818;stroke-width:1.0;"/><polygon fill="#181818" points="1100.22,137.31,1109.1861,141.3853,1105.2198,137.3519,1109.2532,133.3856,1100.22,137.31" style="stroke:#181818;stroke-width:1.0;"/><polygon fill="none" points="1142.5,137.49,1136.5,133.49,1130.5,137.49,1136.5,141.49,1142.5,137.49" style="stroke:#181818;stroke-width:1.0;"/></g><!--reverse link OperationChain to SubtractOperation--><g id="link_OperationChain_SubtractOperation"><path d="M764.6868,179.6209 C731.1868,190.6109 711.57,196.62 677.5,206.49 C629.58,220.37 524.13,247.11 426.17,271.48 " fill="none" id="OperationChain-backto-SubtractOperation" style="stroke:#181818;stroke-width:1.0;stroke-dasharray:7.0,7.0;"/><polygon fill="none" points="781.79,174.01,762.8165,173.9198,766.5571,185.3219,781.79,174.01" style="stroke:#181818;stroke-width:1.0;"/></g><!--reverse link OperationChain to MultiplyOperation--><g id="link_OperationChain_MultiplyOperation"><path d="M836.0608,185.5078 C803.4308,212.5978 773.53,237.44 737.4,267.44 " fill="none" id="OperationChain-backto-MultiplyOperation" style="stroke:#181818;stroke-width:1.0;stroke-dasharray:7.0,7.0;"/><polygon fill="none" points="849.91,174.01,832.2282,180.8914,839.8934,190.1242,849.91,174.01" style="stroke:#181818;stroke-width:1.0;"/></g><!--reverse link OperationChain to DivideOperation--><g id="link_OperationChain_DivideOperation"><path d="M958.9392,185.5078 C991.5692,212.5978 1021.47,237.44 1057.6,267.44 " fill="none" id="OperationChain-backto-DivideOperation" style="stroke:#181818;stroke-width:1.0;stroke-dasharray:7.0,7.0;"/><polygon fill="none" points="945.09,174.01,955.1066,190.1242,962.7718,180.8914,945.09,174.01" style="stroke:#181818;stroke-width:1.0;"/></g><!--reverse link OperationChain to UnsupportedOperation--><g id="link_OperationChain_UnsupportedOperation"><path d="M1030.3132,179.6209 C1063.8132,190.6109 1083.43,196.62 1117.5,206.49 C1168.05,221.13 1282.6,250.09 1384.86,275.46 " fill="none" id="OperationChain-backto-UnsupportedOperation" style="stroke:#181818;stroke-width:1.0;stroke-dasharray:7.0,7.0;"/><polygon fill="none" points="1013.21,174.01,1028.4429,185.3219,1032.1835,173.9198,1013.21,174.01" style="stroke:#181818;stroke-width:1.0;"/></g><!--link Main to MathOperation--><g id="link_Main_MathOperation"><path codeLine="43" d="M394.84,133.49 C417.47,133.49 442.89,133.49 472.86,133.49 " fill="none" id="Main-to-MathOperation" style="stroke:#181818;stroke-width:1.0;"/><polygon fill="#181818" points="478.86,133.49,469.86,129.49,473.86,133.49,469.86,137.49,478.86,133.49" style="stroke:#181818;stroke-width:1.0;"/><text fill="#000000" font-family="sans-serif" font-size="13" lengthAdjust="spacing" textLength="48" x="412.75" y="126.5569">creates</text></g><!--link Main to OperationChain--><g id="link_Main_OperationChain"><path codeLine="44" d="M387.34,109.37 C416.26,83.33 466.83,43.92 519.5,31.49 C627.5,6 746.1222,51.7795 821.7822,90.2695 " fill="none" id="Main-to-OperationChain" style="stroke:#181818;stroke-width:1.0;"/><polygon fill="#181818" points="827.13,92.99,820.922,85.344,822.6735,90.7229,817.2946,92.4744,827.13,92.99" style="stroke:#181818;stroke-width:1.0;"/><text fill="#000000" font-family="sans-serif" font-size="13" lengthAdjust="spacing" textLength="48" x="520.5" y="26.5569">creates</text></g><!--SRC=[pPGnRuCm48Nt_8eRgIg6PcIeH4C7fD1KXLJgw9XBiEHWP1zHgoZ_lK0213STob8OB77V-Vcz4vXBPWn4ZB9LWPgHK3aSPr0zBgYcelG3U92gSYFH0lFReDRm82Ojybq3xYzTi4DQjQBEtQzith6po3Mhq6acSaAzPHoXSxt8c6YjMqM3z8AVrBmu5ijRS3xne4GAd4bUIaRe3EVIfQijy6PmVfhsNEmBYNlCoTosvSBHK5Nb9_23O3WYjtTIWU7soomiR-s8neLj0yJbXZJZD2f5l7vAtln5CeqeKIb95F9hL9HelKp2r-N7DA84uY1I71Ka2D_3u7aQCTQvAOj2QS8__IN_zFdK-lK2hXQxZDn7wrhqW6kipZDMboNTjrrV3fxNfrAknEtFdTy0]--></g></svg>