<?xml version="1.0" encoding="us-ascii" standalone="no"?><svg xmlns="http://www.w3.org/2000/svg" xmlns:xlink="http://www.w3.org/1999/xlink" contentStyleType="text/css" height="531px" preserveAspectRatio="none" style="width:2216px;height:531px;background:#FFFFFF;" version="1.1" viewBox="0 0 2216 531" width="2216px" zoomAndPan="magnify"><defs/><g><!--class MathOperation--><g id="elem_MathOperation"><rect codeLine="1" fill="#F1F1F1" height="145.7813" id="MathOperation" rx="2.5" ry="2.5" style="stroke:#181818;stroke-width:0.5;" width="181" x="511.5" y="7"/><ellipse cx="547.65" cy="23" fill="#ADD1B2" rx="11" ry="11" style="stroke:#181818;stroke-width:1.0;"/><path d="M550.6188,28.6406 Q550.0406,28.9375 549.4,29.0781 Q548.7594,29.2344 548.0563,29.2344 Q545.5563,29.2344 544.2281,27.5938 Q542.9156,25.9375 542.9156,22.8125 Q542.9156,19.6875 544.2281,18.0313 Q545.5563,16.375 548.0563,16.375 Q548.7594,16.375 549.4,16.5313 Q550.0563,16.6875 550.6188,16.9844 L550.6188,19.7031 Q549.9938,19.125 549.4,18.8594 Q548.8063,18.5781 548.1813,18.5781 Q546.8375,18.5781 546.15,19.6563 Q545.4625,20.7188 545.4625,22.8125 Q545.4625,24.9063 546.15,25.9844 Q546.8375,27.0469 548.1813,27.0469 Q548.8063,27.0469 549.4,26.7813 Q549.9938,26.5 550.6188,25.9219 L550.6188,28.6406 Z " fill="#000000"/><text fill="#000000" font-family="sans-serif" font-size="14" lengthAdjust="spacing" textLength="102" x="566.35" y="27.8467">MathOperation</text><line style="stroke:#181818;stroke-width:0.5;" x1="512.5" x2="691.5" y1="39" y2="39"/><rect fill="none" height="6" style="stroke:#C82930;stroke-width:1.0;" width="6" x="519.5" y="49.6484"/><text fill="#000000" font-family="sans-serif" font-size="14" lengthAdjust="spacing" textLength="129" x="531.5" y="55.9951">operator1 : double</text><rect fill="none" height="6" style="stroke:#C82930;stroke-width:1.0;" width="6" x="519.5" y="65.9453"/><text fill="#000000" font-family="sans-serif" font-size="14" lengthAdjust="spacing" textLength="129" x="531.5" y="72.292">operator2 : double</text><rect fill="none" height="6" style="stroke:#C82930;stroke-width:1.0;" width="6" x="519.5" y="82.2422"/><text fill="#000000" font-family="sans-serif" font-size="14" lengthAdjust="spacing" textLength="119" x="531.5" y="88.5889">operation : String</text><line style="stroke:#181818;stroke-width:0.5;" x1="512.5" x2="691.5" y1="95.8906" y2="95.8906"/><ellipse cx="522.5" cy="109.5391" fill="#84BE84" rx="3" ry="3" style="stroke:#038048;stroke-width:1.0;"/><text fill="#000000" font-family="sans-serif" font-size="14" lengthAdjust="spacing" textLength="155" x="531.5" y="112.8857">double getOperator1()</text><ellipse cx="522.5" cy="125.8359" fill="#84BE84" rx="3" ry="3" style="stroke:#038048;stroke-width:1.0;"/><text fill="#000000" font-family="sans-serif" font-size="14" lengthAdjust="spacing" textLength="155" x="531.5" y="129.1826">double getOperator2()</text><ellipse cx="522.5" cy="142.1328" fill="#84BE84" rx="3" ry="3" style="stroke:#038048;stroke-width:1.0;"/><text fill="#000000" font-family="sans-serif" font-size="14" lengthAdjust="spacing" textLength="138" x="531.5" y="145.4795">String getOperator()</text></g><!--class OperationChain--><g id="elem_OperationChain"><rect codeLine="9" fill="#F1F1F1" height="80.5938" id="OperationChain" rx="2.5" ry="2.5" style="stroke:#181818;stroke-width:0.5;" width="405" x="907.5" y="39.5"/><ellipse cx="1052.25" cy="55.5" fill="#B4A7E5" rx="11" ry="11" style="stroke:#181818;stroke-width:1.0;"/><path d="M1048.1719,51.2656 L1048.1719,49.1094 L1055.5625,49.1094 L1055.5625,51.2656 L1053.0938,51.2656 L1053.0938,59.3438 L1055.5625,59.3438 L1055.5625,61.5 L1048.1719,61.5 L1048.1719,59.3438 L1050.6406,59.3438 L1050.6406,51.2656 L1048.1719,51.2656 Z " fill="#000000"/><text fill="#000000" font-family="sans-serif" font-size="14" font-style="italic" lengthAdjust="spacing" textLength="107" x="1072.75" y="60.3467">OperationChain</text><line style="stroke:#181818;stroke-width:0.5;" x1="908.5" x2="1311.5" y1="71.5" y2="71.5"/><line style="stroke:#181818;stroke-width:0.5;" x1="908.5" x2="1311.5" y1="79.5" y2="79.5"/><text fill="#000000" font-family="sans-serif" font-size="14" lengthAdjust="spacing" textLength="393" x="913.5" y="96.4951">OperationChain setNextChain(OperationChain nextChain)</text><text fill="#000000" font-family="sans-serif" font-size="14" lengthAdjust="spacing" textLength="275" x="913.5" y="112.792">void calculate(MathOperation operation)</text></g><!--class BaseOperation--><g id="elem_BaseOperation"><rect codeLine="13" fill="#F1F1F1" height="145.7813" id="BaseOperation" rx="2.5" ry="2.5" style="stroke:#181818;stroke-width:0.5;" width="419" x="899.5" y="218"/><ellipse cx="1053.75" cy="234" fill="#A9DCDF" rx="11" ry="11" style="stroke:#181818;stroke-width:1.0;"/><path d="M1053.8594,229.3438 L1052.7031,234.4219 L1055.0313,234.4219 L1053.8594,229.3438 Z M1052.375,227.1094 L1055.3594,227.1094 L1058.7188,239.5 L1056.2656,239.5 L1055.5,236.4375 L1052.2188,236.4375 L1051.4688,239.5 L1049.0313,239.5 L1052.375,227.1094 Z " fill="#000000"/><text fill="#000000" font-family="sans-serif" font-size="14" font-style="italic" lengthAdjust="spacing" textLength="102" x="1074.25" y="238.8467">BaseOperation</text><line style="stroke:#181818;stroke-width:0.5;" x1="900.5" x2="1317.5" y1="250" y2="250"/><rect fill="none" height="6" style="stroke:#C82930;stroke-width:1.0;" width="6" x="907.5" y="260.6484"/><text fill="#000000" font-family="sans-serif" font-size="14" lengthAdjust="spacing" text-decoration="underline" textLength="84" x="919.5" y="266.9951">ADD : String</text><rect fill="none" height="6" style="stroke:#C82930;stroke-width:1.0;" width="6" x="907.5" y="276.9453"/><text fill="#000000" font-family="sans-serif" font-size="14" lengthAdjust="spacing" textLength="189" x="919.5" y="283.292">nextChain : OperationChain</text><line style="stroke:#181818;stroke-width:0.5;" x1="900.5" x2="1317.5" y1="290.5938" y2="290.5938"/><ellipse cx="910.5" cy="304.2422" fill="#84BE84" rx="3" ry="3" style="stroke:#038048;stroke-width:1.0;"/><text fill="#000000" font-family="sans-serif" font-size="14" lengthAdjust="spacing" textLength="393" x="919.5" y="307.5889">OperationChain setNextChain(OperationChain nextChain)</text><ellipse cx="910.5" cy="320.5391" fill="#84BE84" rx="3" ry="3" style="stroke:#038048;stroke-width:1.0;"/><text fill="#000000" font-family="sans-serif" font-size="14" lengthAdjust="spacing" textLength="103" x="919.5" y="323.8857">void calculate()</text><polygon fill="#4177AF" points="910.5,332.8359,906.5,338.8359,914.5,338.8359" style="stroke:#1963A0;stroke-width:1.0;"/><text fill="#000000" font-family="sans-serif" font-size="14" font-style="italic" lengthAdjust="spacing" textLength="388" x="919.5" y="340.1826">boolean canIHandleOperation(MathOperation operation)</text><polygon fill="#4177AF" points="910.5,349.1328,906.5,355.1328,914.5,355.1328" style="stroke:#1963A0;stroke-width:1.0;"/><text fill="#000000" font-family="sans-serif" font-size="14" font-style="italic" lengthAdjust="spacing" textLength="330" x="919.5" y="356.4795">void handleOperation(MathOperation operation)</text></g><!--class AddOperation--><g id="elem_AddOperation"><rect codeLine="21" fill="#F1F1F1" height="96.8906" id="AddOperation" rx="2.5" ry="2.5" style="stroke:#181818;stroke-width:0.5;" width="412" x="9" y="428"/><ellipse cx="163.25" cy="444" fill="#ADD1B2" rx="11" ry="11" style="stroke:#181818;stroke-width:1.0;"/><path d="M166.2188,449.6406 Q165.6406,449.9375 165,450.0781 Q164.3594,450.2344 163.6563,450.2344 Q161.1563,450.2344 159.8281,448.5938 Q158.5156,446.9375 158.5156,443.8125 Q158.5156,440.6875 159.8281,439.0313 Q161.1563,437.375 163.6563,437.375 Q164.3594,437.375 165,437.5313 Q165.6563,437.6875 166.2188,437.9844 L166.2188,440.7031 Q165.5938,440.125 165,439.8594 Q164.4063,439.5781 163.7813,439.5781 Q162.4375,439.5781 161.75,440.6563 Q161.0625,441.7188 161.0625,443.8125 Q161.0625,445.9063 161.75,446.9844 Q162.4375,448.0469 163.7813,448.0469 Q164.4063,448.0469 165,447.7813 Q165.5938,447.5 166.2188,446.9219 L166.2188,449.6406 Z " fill="#000000"/><text fill="#000000" font-family="sans-serif" font-size="14" lengthAdjust="spacing" textLength="95" x="183.75" y="448.8467">AddOperation</text><line style="stroke:#181818;stroke-width:0.5;" x1="10" x2="420" y1="460" y2="460"/><rect fill="none" height="6" style="stroke:#C82930;stroke-width:1.0;" width="6" x="17" y="470.6484"/><text fill="#000000" font-family="sans-serif" font-size="14" lengthAdjust="spacing" text-decoration="underline" textLength="84" x="29" y="476.9951">ADD : String</text><line style="stroke:#181818;stroke-width:0.5;" x1="10" x2="420" y1="484.2969" y2="484.2969"/><polygon fill="#4177AF" points="20,493.9453,16,499.9453,24,499.9453" style="stroke:#1963A0;stroke-width:1.0;"/><text fill="#000000" font-family="sans-serif" font-size="14" lengthAdjust="spacing" textLength="386" x="29" y="501.292">boolean canIHandleOperation(MathOperation operation)</text><polygon fill="#4177AF" points="20,510.2422,16,516.2422,24,516.2422" style="stroke:#1963A0;stroke-width:1.0;"/><text fill="#000000" font-family="sans-serif" font-size="14" lengthAdjust="spacing" textLength="329" x="29" y="517.5889">void handleOperation(MathOperation operation)</text></g><!--class SubtractOperation--><g id="elem_SubtractOperation"><rect codeLine="26" fill="#F1F1F1" height="96.8906" id="SubtractOperation" rx="2.5" ry="2.5" style="stroke:#181818;stroke-width:0.5;" width="412" x="456" y="428"/><ellipse cx="594.75" cy="444" fill="#ADD1B2" rx="11" ry="11" style="stroke:#181818;stroke-width:1.0;"/><path d="M597.7188,449.6406 Q597.1406,449.9375 596.5,450.0781 Q595.8594,450.2344 595.1563,450.2344 Q592.6563,450.2344 591.3281,448.5938 Q590.0156,446.9375 590.0156,443.8125 Q590.0156,440.6875 591.3281,439.0313 Q592.6563,437.375 595.1563,437.375 Q595.8594,437.375 596.5,437.5313 Q597.1563,437.6875 597.7188,437.9844 L597.7188,440.7031 Q597.0938,440.125 596.5,439.8594 Q595.9063,439.5781 595.2813,439.5781 Q593.9375,439.5781 593.25,440.6563 Q592.5625,441.7188 592.5625,443.8125 Q592.5625,445.9063 593.25,446.9844 Q593.9375,448.0469 595.2813,448.0469 Q595.9063,448.0469 596.5,447.7813 Q597.0938,447.5 597.7188,446.9219 L597.7188,449.6406 Z " fill="#000000"/><text fill="#000000" font-family="sans-serif" font-size="14" lengthAdjust="spacing" textLength="126" x="615.25" y="448.8467">SubtractOperation</text><line style="stroke:#181818;stroke-width:0.5;" x1="457" x2="867" y1="460" y2="460"/><rect fill="none" height="6" style="stroke:#C82930;stroke-width:1.0;" width="6" x="464" y="470.6484"/><text fill="#000000" font-family="sans-serif" font-size="14" lengthAdjust="spacing" text-decoration="underline" textLength="129" x="476" y="476.9951">SUBTRACT : String</text><line style="stroke:#181818;stroke-width:0.5;" x1="457" x2="867" y1="484.2969" y2="484.2969"/><polygon fill="#4177AF" points="467,493.9453,463,499.9453,471,499.9453" style="stroke:#1963A0;stroke-width:1.0;"/><text fill="#000000" font-family="sans-serif" font-size="14" lengthAdjust="spacing" textLength="386" x="476" y="501.292">boolean canIHandleOperation(MathOperation operation)</text><polygon fill="#4177AF" points="467,510.2422,463,516.2422,471,516.2422" style="stroke:#1963A0;stroke-width:1.0;"/><text fill="#000000" font-family="sans-serif" font-size="14" lengthAdjust="spacing" textLength="329" x="476" y="517.5889">void handleOperation(MathOperation operation)</text></g><!--class MultiplyOperation--><g id="elem_MultiplyOperation"><rect codeLine="31" fill="#F1F1F1" height="96.8906" id="MultiplyOperation" rx="2.5" ry="2.5" style="stroke:#181818;stroke-width:0.5;" width="412" x="903" y="428"/><ellipse cx="1045.25" cy="444" fill="#ADD1B2" rx="11" ry="11" style="stroke:#181818;stroke-width:1.0;"/><path d="M1048.2188,449.6406 Q1047.6406,449.9375 1047,450.0781 Q1046.3594,450.2344 1045.6563,450.2344 Q1043.1563,450.2344 1041.8281,448.5938 Q1040.5156,446.9375 1040.5156,443.8125 Q1040.5156,440.6875 1041.8281,439.0313 Q1043.1563,437.375 1045.6563,437.375 Q1046.3594,437.375 1047,437.5313 Q1047.6563,437.6875 1048.2188,437.9844 L1048.2188,440.7031 Q1047.5938,440.125 1047,439.8594 Q1046.4063,439.5781 1045.7813,439.5781 Q1044.4375,439.5781 1043.75,440.6563 Q1043.0625,441.7188 1043.0625,443.8125 Q1043.0625,445.9063 1043.75,446.9844 Q1044.4375,448.0469 1045.7813,448.0469 Q1046.4063,448.0469 1047,447.7813 Q1047.5938,447.5 1048.2188,446.9219 L1048.2188,449.6406 Z " fill="#000000"/><text fill="#000000" font-family="sans-serif" font-size="14" lengthAdjust="spacing" textLength="119" x="1065.75" y="448.8467">MultiplyOperation</text><line style="stroke:#181818;stroke-width:0.5;" x1="904" x2="1314" y1="460" y2="460"/><rect fill="none" height="6" style="stroke:#C82930;stroke-width:1.0;" width="6" x="911" y="470.6484"/><text fill="#000000" font-family="sans-serif" font-size="14" lengthAdjust="spacing" text-decoration="underline" textLength="119" x="923" y="476.9951">MULTIPLY : String</text><line style="stroke:#181818;stroke-width:0.5;" x1="904" x2="1314" y1="484.2969" y2="484.2969"/><polygon fill="#4177AF" points="914,493.9453,910,499.9453,918,499.9453" style="stroke:#1963A0;stroke-width:1.0;"/><text fill="#000000" font-family="sans-serif" font-size="14" lengthAdjust="spacing" textLength="386" x="923" y="501.292">boolean canIHandleOperation(MathOperation operation)</text><polygon fill="#4177AF" points="914,510.2422,910,516.2422,918,516.2422" style="stroke:#1963A0;stroke-width:1.0;"/><text fill="#000000" font-family="sans-serif" font-size="14" lengthAdjust="spacing" textLength="329" x="923" y="517.5889">void handleOperation(MathOperation operation)</text></g><!--class DivideOperation--><g id="elem_DivideOperation"><rect codeLine="36" fill="#F1F1F1" height="96.8906" id="DivideOperation" rx="2.5" ry="2.5" style="stroke:#181818;stroke-width:0.5;" width="412" x="1350" y="428"/><ellipse cx="1496.75" cy="444" fill="#ADD1B2" rx="11" ry="11" style="stroke:#181818;stroke-width:1.0;"/><path d="M1499.7188,449.6406 Q1499.1406,449.9375 1498.5,450.0781 Q1497.8594,450.2344 1497.1563,450.2344 Q1494.6563,450.2344 1493.3281,448.5938 Q1492.0156,446.9375 1492.0156,443.8125 Q1492.0156,440.6875 1493.3281,439.0313 Q1494.6563,437.375 1497.1563,437.375 Q1497.8594,437.375 1498.5,437.5313 Q1499.1563,437.6875 1499.7188,437.9844 L1499.7188,440.7031 Q1499.0938,440.125 1498.5,439.8594 Q1497.9063,439.5781 1497.2813,439.5781 Q1495.9375,439.5781 1495.25,440.6563 Q1494.5625,441.7188 1494.5625,443.8125 Q1494.5625,445.9063 1495.25,446.9844 Q1495.9375,448.0469 1497.2813,448.0469 Q1497.9063,448.0469 1498.5,447.7813 Q1499.0938,447.5 1499.7188,446.9219 L1499.7188,449.6406 Z " fill="#000000"/><text fill="#000000" font-family="sans-serif" font-size="14" lengthAdjust="spacing" textLength="110" x="1517.25" y="448.8467">DivideOperation</text><line style="stroke:#181818;stroke-width:0.5;" x1="1351" x2="1761" y1="460" y2="460"/><rect fill="none" height="6" style="stroke:#C82930;stroke-width:1.0;" width="6" x="1358" y="470.6484"/><text fill="#000000" font-family="sans-serif" font-size="14" lengthAdjust="spacing" text-decoration="underline" textLength="99" x="1370" y="476.9951">DIVIDE : String</text><line style="stroke:#181818;stroke-width:0.5;" x1="1351" x2="1761" y1="484.2969" y2="484.2969"/><polygon fill="#4177AF" points="1361,493.9453,1357,499.9453,1365,499.9453" style="stroke:#1963A0;stroke-width:1.0;"/><text fill="#000000" font-family="sans-serif" font-size="14" lengthAdjust="spacing" textLength="386" x="1370" y="501.292">boolean canIHandleOperation(MathOperation operation)</text><polygon fill="#4177AF" points="1361,510.2422,1357,516.2422,1365,516.2422" style="stroke:#1963A0;stroke-width:1.0;"/><text fill="#000000" font-family="sans-serif" font-size="14" lengthAdjust="spacing" textLength="329" x="1370" y="517.5889">void handleOperation(MathOperation operation)</text></g><!--class UnsupportedOperation--><g id="elem_UnsupportedOperation"><rect codeLine="41" fill="#F1F1F1" height="80.5938" id="UnsupportedOperation" rx="2.5" ry="2.5" style="stroke:#181818;stroke-width:0.5;" width="412" x="1797" y="436"/><ellipse cx="1919.25" cy="452" fill="#ADD1B2" rx="11" ry="11" style="stroke:#181818;stroke-width:1.0;"/><path d="M1922.2188,457.6406 Q1921.6406,457.9375 1921,458.0781 Q1920.3594,458.2344 1919.6563,458.2344 Q1917.1563,458.2344 1915.8281,456.5938 Q1914.5156,454.9375 1914.5156,451.8125 Q1914.5156,448.6875 1915.8281,447.0313 Q1917.1563,445.375 1919.6563,445.375 Q1920.3594,445.375 1921,445.5313 Q1921.6563,445.6875 1922.2188,445.9844 L1922.2188,448.7031 Q1921.5938,448.125 1921,447.8594 Q1920.4063,447.5781 1919.7813,447.5781 Q1918.4375,447.5781 1917.75,448.6563 Q1917.0625,449.7188 1917.0625,451.8125 Q1917.0625,453.9063 1917.75,454.9844 Q1918.4375,456.0469 1919.7813,456.0469 Q1920.4063,456.0469 1921,455.7813 Q1921.5938,455.5 1922.2188,454.9219 L1922.2188,457.6406 Z " fill="#000000"/><text fill="#000000" font-family="sans-serif" font-size="14" lengthAdjust="spacing" textLength="159" x="1939.75" y="456.8467">UnsupportedOperation</text><line style="stroke:#181818;stroke-width:0.5;" x1="1798" x2="2208" y1="468" y2="468"/><line style="stroke:#181818;stroke-width:0.5;" x1="1798" x2="2208" y1="476" y2="476"/><polygon fill="#4177AF" points="1808,485.6484,1804,491.6484,1812,491.6484" style="stroke:#1963A0;stroke-width:1.0;"/><text fill="#000000" font-family="sans-serif" font-size="14" lengthAdjust="spacing" textLength="386" x="1817" y="492.9951">boolean canIHandleOperation(MathOperation operation)</text><polygon fill="#4177AF" points="1808,501.9453,1804,507.9453,1812,507.9453" style="stroke:#1963A0;stroke-width:1.0;"/><text fill="#000000" font-family="sans-serif" font-size="14" lengthAdjust="spacing" textLength="329" x="1817" y="509.292">void handleOperation(MathOperation operation)</text></g><!--class Main--><g id="elem_Main"><rect codeLine="45" fill="#F1F1F1" height="48" id="Main" rx="2.5" ry="2.5" style="stroke:#181818;stroke-width:0.5;" width="64" x="759" y="56"/><ellipse cx="774" cy="72" fill="#ADD1B2" rx="11" ry="11" style="stroke:#181818;stroke-width:1.0;"/><path d="M776.9688,77.6406 Q776.3906,77.9375 775.75,78.0781 Q775.1094,78.2344 774.4063,78.2344 Q771.9063,78.2344 770.5781,76.5938 Q769.2656,74.9375 769.2656,71.8125 Q769.2656,68.6875 770.5781,67.0313 Q771.9063,65.375 774.4063,65.375 Q775.1094,65.375 775.75,65.5313 Q776.4063,65.6875 776.9688,65.9844 L776.9688,68.7031 Q776.3438,68.125 775.75,67.8594 Q775.1563,67.5781 774.5313,67.5781 Q773.1875,67.5781 772.5,68.6563 Q771.8125,69.7188 771.8125,71.8125 Q771.8125,73.9063 772.5,74.9844 Q773.1875,76.0469 774.5313,76.0469 Q775.1563,76.0469 775.75,75.7813 Q776.3438,75.5 776.9688,74.9219 L776.9688,77.6406 Z " fill="#000000"/><text fill="#000000" font-family="sans-serif" font-size="14" lengthAdjust="spacing" textLength="32" x="788" y="76.8467">Main</text><line style="stroke:#181818;stroke-width:0.5;" x1="760" x2="822" y1="88" y2="88"/><line style="stroke:#181818;stroke-width:0.5;" x1="760" x2="822" y1="96" y2="96"/></g><!--reverse link OperationChain to BaseOperation--><g id="link_OperationChain_BaseOperation"><path d="M1109.7208,138.7098 C1109.5908,164.9398 1109.51,182.16 1109.36,213.63 " fill="none" id="OperationChain-backto-BaseOperation" style="stroke:#181818;stroke-width:1.0;stroke-dasharray:7.0,7.0;"/><polygon fill="none" points="1109.81,120.71,1103.7209,138.68,1115.7207,138.7395,1109.81,120.71" style="stroke:#181818;stroke-width:1.0;"/></g><!--link BaseOperation to OperationChain--><g id="link_BaseOperation_OperationChain"><path codeLine="48" d="M1332,278.5 C1360.67,278.5 1332.99,239.02 1319,214 C1295.7,172.33 1258.6361,144.5719 1218.0861,123.3519 " fill="none" id="BaseOperation-OperationChain" style="stroke:#181818;stroke-width:1.0;"/><polygon fill="none" points="1320,278.5,1326,282.5,1332,278.5,1326,274.5,1320,278.5" style="stroke:#181818;stroke-width:1.0;"/><polygon fill="#181818" points="1212.77,120.57,1218.8895,128.287,1217.2001,122.8883,1222.5988,121.1988,1212.77,120.57" style="stroke:#181818;stroke-width:1.0;"/></g><!--reverse link BaseOperation to AddOperation--><g id="link_BaseOperation_AddOperation"><path d="M873.6763,338.8237 C742.3263,365.3537 589.3,396.5 438,428 C432.48,429.15 426.88,430.32 421.23,431.5 " fill="none" id="BaseOperation-backto-AddOperation" style="stroke:#181818;stroke-width:1.0;"/><polygon fill="none" points="891.32,335.26,872.4884,332.9424,874.8642,344.7049,891.32,335.26" style="stroke:#181818;stroke-width:1.0;"/></g><!--reverse link BaseOperation to SubtractOperation--><g id="link_BaseOperation_SubtractOperation"><path d="M908.9349,373.8513 C858.8149,394.4813 822.56,409.41 777.41,427.99 " fill="none" id="BaseOperation-backto-SubtractOperation" style="stroke:#181818;stroke-width:1.0;"/><polygon fill="none" points="925.58,367,906.6511,368.303,911.2187,379.3997,925.58,367" style="stroke:#181818;stroke-width:1.0;"/></g><!--reverse link BaseOperation to MultiplyOperation--><g id="link_BaseOperation_MultiplyOperation"><path d="M1109,385.14 C1109,405.65 1109,409.29 1109,427.8 " fill="none" id="BaseOperation-backto-MultiplyOperation" style="stroke:#181818;stroke-width:1.0;"/><polygon fill="none" points="1109,367.14,1103,385.14,1115,385.14,1109,367.14" style="stroke:#181818;stroke-width:1.0;"/></g><!--reverse link BaseOperation to DivideOperation--><g id="link_BaseOperation_DivideOperation"><path d="M1309.0651,373.8513 C1359.1851,394.4813 1395.44,409.41 1440.59,427.99 " fill="none" id="BaseOperation-backto-DivideOperation" style="stroke:#181818;stroke-width:1.0;"/><polygon fill="none" points="1292.42,367,1306.7813,379.3997,1311.3489,368.303,1292.42,367" style="stroke:#181818;stroke-width:1.0;"/></g><!--reverse link BaseOperation to UnsupportedOperation--><g id="link_BaseOperation_UnsupportedOperation"><path d="M1344.3237,338.8237 C1475.6737,365.3537 1628.7,396.5 1780,428 C1792.4,430.58 1805.19,433.26 1818.07,435.97 " fill="none" id="BaseOperation-backto-UnsupportedOperation" style="stroke:#181818;stroke-width:1.0;"/><polygon fill="none" points="1326.68,335.26,1343.1358,344.7049,1345.5116,332.9424,1326.68,335.26" style="stroke:#181818;stroke-width:1.0;"/></g><!--reverse link MathOperation to Main--><g id="link_MathOperation_Main"><path codeLine="46" d="M698.62,80 C722.31,80 740.32,80 758.69,80 " fill="none" id="MathOperation-backto-Main" style="stroke:#181818;stroke-width:1.0;"/><polygon fill="#181818" points="692.62,80,701.62,84,697.62,80,701.62,76,692.62,80" style="stroke:#181818;stroke-width:1.0;"/><text fill="#000000" font-family="sans-serif" font-size="13" lengthAdjust="spacing" textLength="30" x="710.75" y="73.0669">uses</text></g><!--link Main to OperationChain--><g id="link_Main_OperationChain"><path codeLine="47" d="M823.05,80 C844.46,80 868.63,80 901.43,80 " fill="none" id="Main-to-OperationChain" style="stroke:#181818;stroke-width:1.0;"/><polygon fill="#181818" points="907.43,80,898.43,76,902.43,80,898.43,84,907.43,80" style="stroke:#181818;stroke-width:1.0;"/><text fill="#000000" font-family="sans-serif" font-size="13" lengthAdjust="spacing" textLength="48" x="841.25" y="73.0669">creates</text></g><!--SRC=[nLN1Re904Btp5NEqCHpgaKCJbIObqTfKRTBZieoooRfBTXVJnj1lxm8YGZKLBt0WOTxCuxqNcAMSQ0rpOk95WeeO9WKS7B2N2xAeIFK87aGo3JcsWD5b8EVmO6aK4zi261wxO8jcKP4E7gvYenDMafnZ5ieS9Wog3Q489zNJcB1AUgkeqRpYboaU1YrCL43vnhra4L32QSg9mK4pbvExN089jL646g15WXEYiUvakuJZ3eNHbmMwSD36Lca6OzzlXkNMcYpG73-cSh-_OTjXMVw1K4gEnEghV6MsIGGlH4IyDdOza9Ab83-ZY6yTpvmond4KrRYLZY9gP_j_WhMRUorqrhrCmy9oP_7BzMJrFfwkUdSmJxbX2V_kx62-dgs2jzbdxmvyjcSHTjRl1n-1_zox-hNGQP98PV36Fw2FRoHVGVaDN8uRupwr3WuFKetwsA7ODivRMWl90whGRXxjD4nvNhtrfFjdx1S0]--></g></svg>