<?xml version="1.0" encoding="us-ascii" standalone="no"?><svg xmlns="http://www.w3.org/2000/svg" xmlns:xlink="http://www.w3.org/1999/xlink" contentStyleType="text/css" height="220px" preserveAspectRatio="none" style="width:1410px;height:220px;background:#FFFFFF;" version="1.1" viewBox="0 0 1410 220" width="1410px" zoomAndPan="magnify"><defs/><g><!--class TreeNode--><g id="elem_TreeNode"><rect codeLine="1" fill="#F1F1F1" height="96.8906" id="TreeNode" rx="2.5" ry="2.5" style="stroke:#181818;stroke-width:0.5;" width="130" x="156" y="7"/><ellipse cx="184.05" cy="23" fill="#ADD1B2" rx="11" ry="11" style="stroke:#181818;stroke-width:1.0;"/><path d="M187.0188,28.6406 Q186.4406,28.9375 185.8,29.0781 Q185.1594,29.2344 184.4563,29.2344 Q181.9563,29.2344 180.6281,27.5938 Q179.3156,25.9375 179.3156,22.8125 Q179.3156,19.6875 180.6281,18.0313 Q181.9563,16.375 184.4563,16.375 Q185.1594,16.375 185.8,16.5313 Q186.4563,16.6875 187.0188,16.9844 L187.0188,19.7031 Q186.3938,19.125 185.8,18.8594 Q185.2063,18.5781 184.5813,18.5781 Q183.2375,18.5781 182.55,19.6563 Q181.8625,20.7188 181.8625,22.8125 Q181.8625,24.9063 182.55,25.9844 Q183.2375,27.0469 184.5813,27.0469 Q185.2063,27.0469 185.8,26.7813 Q186.3938,26.5 187.0188,25.9219 L187.0188,28.6406 Z " fill="#000000"/><text fill="#000000" font-family="sans-serif" font-size="14" lengthAdjust="spacing" textLength="69" x="200.95" y="27.8467">TreeNode</text><line style="stroke:#181818;stroke-width:0.5;" x1="157" x2="285" y1="39" y2="39"/><rect fill="none" height="6" style="stroke:#C82930;stroke-width:1.0;" width="6" x="164" y="49.6484"/><text fill="#000000" font-family="sans-serif" font-size="14" lengthAdjust="spacing" textLength="80" x="176" y="55.9951">String value</text><rect fill="none" height="6" style="stroke:#C82930;stroke-width:1.0;" width="6" x="164" y="65.9453"/><text fill="#000000" font-family="sans-serif" font-size="14" lengthAdjust="spacing" textLength="94" x="176" y="72.292">TreeNode left</text><rect fill="none" height="6" style="stroke:#C82930;stroke-width:1.0;" width="6" x="164" y="82.2422"/><text fill="#000000" font-family="sans-serif" font-size="14" lengthAdjust="spacing" textLength="104" x="176" y="88.5889">TreeNode right</text><line style="stroke:#181818;stroke-width:0.5;" x1="157" x2="285" y1="95.8906" y2="95.8906"/></g><!--class TreeIterable--><g id="elem_TreeIterable"><rect codeLine="6" fill="#F1F1F1" height="64.2969" id="TreeIterable" rx="2.5" ry="2.5" style="stroke:#181818;stroke-width:0.5;" width="211" x="713.5" y="23.5"/><ellipse cx="772.75" cy="39.5" fill="#B4A7E5" rx="11" ry="11" style="stroke:#181818;stroke-width:1.0;"/><path d="M768.6719,35.2656 L768.6719,33.1094 L776.0625,33.1094 L776.0625,35.2656 L773.5938,35.2656 L773.5938,43.3438 L776.0625,43.3438 L776.0625,45.5 L768.6719,45.5 L768.6719,43.3438 L771.1406,43.3438 L771.1406,35.2656 L768.6719,35.2656 Z " fill="#000000"/><text fill="#000000" font-family="sans-serif" font-size="14" font-style="italic" lengthAdjust="spacing" textLength="84" x="793.25" y="44.3467">TreeIterable</text><line style="stroke:#181818;stroke-width:0.5;" x1="714.5" x2="923.5" y1="55.5" y2="55.5"/><line style="stroke:#181818;stroke-width:0.5;" x1="714.5" x2="923.5" y1="63.5" y2="63.5"/><text fill="#000000" font-family="sans-serif" font-size="14" lengthAdjust="spacing" textLength="199" x="719.5" y="80.4951">TreeIterator getTreeIterator()</text></g><!--class InorderTreeIterable--><g id="elem_InorderTreeIterable"><rect codeLine="9" fill="#F1F1F1" height="48" id="InorderTreeIterable" rx="2.5" ry="2.5" style="stroke:#181818;stroke-width:0.5;" width="164" x="7" y="165"/><ellipse cx="22" cy="181" fill="#ADD1B2" rx="11" ry="11" style="stroke:#181818;stroke-width:1.0;"/><path d="M24.9688,186.6406 Q24.3906,186.9375 23.75,187.0781 Q23.1094,187.2344 22.4063,187.2344 Q19.9063,187.2344 18.5781,185.5938 Q17.2656,183.9375 17.2656,180.8125 Q17.2656,177.6875 18.5781,176.0313 Q19.9063,174.375 22.4063,174.375 Q23.1094,174.375 23.75,174.5313 Q24.4063,174.6875 24.9688,174.9844 L24.9688,177.7031 Q24.3438,177.125 23.75,176.8594 Q23.1563,176.5781 22.5313,176.5781 Q21.1875,176.5781 20.5,177.6563 Q19.8125,178.7188 19.8125,180.8125 Q19.8125,182.9063 20.5,183.9844 Q21.1875,185.0469 22.5313,185.0469 Q23.1563,185.0469 23.75,184.7813 Q24.3438,184.5 24.9688,183.9219 L24.9688,186.6406 Z " fill="#000000"/><text fill="#000000" font-family="sans-serif" font-size="14" lengthAdjust="spacing" textLength="132" x="36" y="185.8467">InorderTreeIterable</text><line style="stroke:#181818;stroke-width:0.5;" x1="8" x2="170" y1="197" y2="197"/><line style="stroke:#181818;stroke-width:0.5;" x1="8" x2="170" y1="205" y2="205"/></g><!--class PreorderTreeIterable--><g id="elem_PreorderTreeIterable"><rect codeLine="10" fill="#F1F1F1" height="48" id="PreorderTreeIterable" rx="2.5" ry="2.5" style="stroke:#181818;stroke-width:0.5;" width="175" x="464.5" y="165"/><ellipse cx="479.5" cy="181" fill="#ADD1B2" rx="11" ry="11" style="stroke:#181818;stroke-width:1.0;"/><path d="M482.4688,186.6406 Q481.8906,186.9375 481.25,187.0781 Q480.6094,187.2344 479.9063,187.2344 Q477.4063,187.2344 476.0781,185.5938 Q474.7656,183.9375 474.7656,180.8125 Q474.7656,177.6875 476.0781,176.0313 Q477.4063,174.375 479.9063,174.375 Q480.6094,174.375 481.25,174.5313 Q481.9063,174.6875 482.4688,174.9844 L482.4688,177.7031 Q481.8438,177.125 481.25,176.8594 Q480.6563,176.5781 480.0313,176.5781 Q478.6875,176.5781 478,177.6563 Q477.3125,178.7188 477.3125,180.8125 Q477.3125,182.9063 478,183.9844 Q478.6875,185.0469 480.0313,185.0469 Q480.6563,185.0469 481.25,184.7813 Q481.8438,184.5 482.4688,183.9219 L482.4688,186.6406 Z " fill="#000000"/><text fill="#000000" font-family="sans-serif" font-size="14" lengthAdjust="spacing" textLength="143" x="493.5" y="185.8467">PreorderTreeIterable</text><line style="stroke:#181818;stroke-width:0.5;" x1="465.5" x2="638.5" y1="197" y2="197"/><line style="stroke:#181818;stroke-width:0.5;" x1="465.5" x2="638.5" y1="205" y2="205"/></g><!--class PostorderTreeIterable--><g id="elem_PostorderTreeIterable"><rect codeLine="11" fill="#F1F1F1" height="48" id="PostorderTreeIterable" rx="2.5" ry="2.5" style="stroke:#181818;stroke-width:0.5;" width="183" x="943.5" y="165"/><ellipse cx="958.5" cy="181" fill="#ADD1B2" rx="11" ry="11" style="stroke:#181818;stroke-width:1.0;"/><path d="M961.4688,186.6406 Q960.8906,186.9375 960.25,187.0781 Q959.6094,187.2344 958.9063,187.2344 Q956.4063,187.2344 955.0781,185.5938 Q953.7656,183.9375 953.7656,180.8125 Q953.7656,177.6875 955.0781,176.0313 Q956.4063,174.375 958.9063,174.375 Q959.6094,174.375 960.25,174.5313 Q960.9063,174.6875 961.4688,174.9844 L961.4688,177.7031 Q960.8438,177.125 960.25,176.8594 Q959.6563,176.5781 959.0313,176.5781 Q957.6875,176.5781 957,177.6563 Q956.3125,178.7188 956.3125,180.8125 Q956.3125,182.9063 957,183.9844 Q957.6875,185.0469 959.0313,185.0469 Q959.6563,185.0469 960.25,184.7813 Q960.8438,184.5 961.4688,183.9219 L961.4688,186.6406 Z " fill="#000000"/><text fill="#000000" font-family="sans-serif" font-size="14" lengthAdjust="spacing" textLength="151" x="972.5" y="185.8467">PostorderTreeIterable</text><line style="stroke:#181818;stroke-width:0.5;" x1="944.5" x2="1125.5" y1="197" y2="197"/><line style="stroke:#181818;stroke-width:0.5;" x1="944.5" x2="1125.5" y1="205" y2="205"/></g><!--class TreeIterator--><g id="elem_TreeIterator"><rect codeLine="12" fill="#F1F1F1" height="96.8906" id="TreeIterator" rx="2.5" ry="2.5" style="stroke:#181818;stroke-width:0.5;" width="145" x="371.5" y="7"/><ellipse cx="400.45" cy="23" fill="#B4A7E5" rx="11" ry="11" style="stroke:#181818;stroke-width:1.0;"/><path d="M396.3719,18.7656 L396.3719,16.6094 L403.7625,16.6094 L403.7625,18.7656 L401.2938,18.7656 L401.2938,26.8438 L403.7625,26.8438 L403.7625,29 L396.3719,29 L396.3719,26.8438 L398.8406,26.8438 L398.8406,18.7656 L396.3719,18.7656 Z " fill="#000000"/><text fill="#000000" font-family="sans-serif" font-size="14" font-style="italic" lengthAdjust="spacing" textLength="82" x="417.55" y="27.8467">TreeIterator</text><line style="stroke:#181818;stroke-width:0.5;" x1="372.5" x2="515.5" y1="39" y2="39"/><line style="stroke:#181818;stroke-width:0.5;" x1="372.5" x2="515.5" y1="47" y2="47"/><text fill="#000000" font-family="sans-serif" font-size="14" lengthAdjust="spacing" textLength="126" x="377.5" y="63.9951">boolean hasNext()</text><text fill="#000000" font-family="sans-serif" font-size="14" lengthAdjust="spacing" textLength="113" x="377.5" y="80.292">TreeNode next()</text><text fill="#000000" font-family="sans-serif" font-size="14" lengthAdjust="spacing" textLength="133" x="377.5" y="96.5889">TreeNode current()</text></g><!--class InorderTreeIterator--><g id="elem_InorderTreeIterator"><rect codeLine="17" fill="#F1F1F1" height="48" id="InorderTreeIterator" rx="2.5" ry="2.5" style="stroke:#181818;stroke-width:0.5;" width="162" x="267" y="165"/><ellipse cx="282" cy="181" fill="#ADD1B2" rx="11" ry="11" style="stroke:#181818;stroke-width:1.0;"/><path d="M284.9688,186.6406 Q284.3906,186.9375 283.75,187.0781 Q283.1094,187.2344 282.4063,187.2344 Q279.9063,187.2344 278.5781,185.5938 Q277.2656,183.9375 277.2656,180.8125 Q277.2656,177.6875 278.5781,176.0313 Q279.9063,174.375 282.4063,174.375 Q283.1094,174.375 283.75,174.5313 Q284.4063,174.6875 284.9688,174.9844 L284.9688,177.7031 Q284.3438,177.125 283.75,176.8594 Q283.1563,176.5781 282.5313,176.5781 Q281.1875,176.5781 280.5,177.6563 Q279.8125,178.7188 279.8125,180.8125 Q279.8125,182.9063 280.5,183.9844 Q281.1875,185.0469 282.5313,185.0469 Q283.1563,185.0469 283.75,184.7813 Q284.3438,184.5 284.9688,183.9219 L284.9688,186.6406 Z " fill="#000000"/><text fill="#000000" font-family="sans-serif" font-size="14" lengthAdjust="spacing" textLength="130" x="296" y="185.8467">InorderTreeIterator</text><line style="stroke:#181818;stroke-width:0.5;" x1="268" x2="428" y1="197" y2="197"/><line style="stroke:#181818;stroke-width:0.5;" x1="268" x2="428" y1="205" y2="205"/></g><!--class PreorderTreeIterator--><g id="elem_PreorderTreeIterator"><rect codeLine="18" fill="#F1F1F1" height="48" id="PreorderTreeIterator" rx="2.5" ry="2.5" style="stroke:#181818;stroke-width:0.5;" width="173" x="735.5" y="165"/><ellipse cx="750.5" cy="181" fill="#ADD1B2" rx="11" ry="11" style="stroke:#181818;stroke-width:1.0;"/><path d="M753.4688,186.6406 Q752.8906,186.9375 752.25,187.0781 Q751.6094,187.2344 750.9063,187.2344 Q748.4063,187.2344 747.0781,185.5938 Q745.7656,183.9375 745.7656,180.8125 Q745.7656,177.6875 747.0781,176.0313 Q748.4063,174.375 750.9063,174.375 Q751.6094,174.375 752.25,174.5313 Q752.9063,174.6875 753.4688,174.9844 L753.4688,177.7031 Q752.8438,177.125 752.25,176.8594 Q751.6563,176.5781 751.0313,176.5781 Q749.6875,176.5781 749,177.6563 Q748.3125,178.7188 748.3125,180.8125 Q748.3125,182.9063 749,183.9844 Q749.6875,185.0469 751.0313,185.0469 Q751.6563,185.0469 752.25,184.7813 Q752.8438,184.5 753.4688,183.9219 L753.4688,186.6406 Z " fill="#000000"/><text fill="#000000" font-family="sans-serif" font-size="14" lengthAdjust="spacing" textLength="141" x="764.5" y="185.8467">PreorderTreeIterator</text><line style="stroke:#181818;stroke-width:0.5;" x1="736.5" x2="907.5" y1="197" y2="197"/><line style="stroke:#181818;stroke-width:0.5;" x1="736.5" x2="907.5" y1="205" y2="205"/></g><!--class PostorderTreeIterator--><g id="elem_PostorderTreeIterator"><rect codeLine="19" fill="#F1F1F1" height="48" id="PostorderTreeIterator" rx="2.5" ry="2.5" style="stroke:#181818;stroke-width:0.5;" width="181" x="1222.5" y="165"/><ellipse cx="1237.5" cy="181" fill="#ADD1B2" rx="11" ry="11" style="stroke:#181818;stroke-width:1.0;"/><path d="M1240.4688,186.6406 Q1239.8906,186.9375 1239.25,187.0781 Q1238.6094,187.2344 1237.9063,187.2344 Q1235.4063,187.2344 1234.0781,185.5938 Q1232.7656,183.9375 1232.7656,180.8125 Q1232.7656,177.6875 1234.0781,176.0313 Q1235.4063,174.375 1237.9063,174.375 Q1238.6094,174.375 1239.25,174.5313 Q1239.9063,174.6875 1240.4688,174.9844 L1240.4688,177.7031 Q1239.8438,177.125 1239.25,176.8594 Q1238.6563,176.5781 1238.0313,176.5781 Q1236.6875,176.5781 1236,177.6563 Q1235.3125,178.7188 1235.3125,180.8125 Q1235.3125,182.9063 1236,183.9844 Q1236.6875,185.0469 1238.0313,185.0469 Q1238.6563,185.0469 1239.25,184.7813 Q1239.8438,184.5 1240.4688,183.9219 L1240.4688,186.6406 Z " fill="#000000"/><text fill="#000000" font-family="sans-serif" font-size="14" lengthAdjust="spacing" textLength="149" x="1251.5" y="185.8467">PostorderTreeIterator</text><line style="stroke:#181818;stroke-width:0.5;" x1="1223.5" x2="1402.5" y1="197" y2="197"/><line style="stroke:#181818;stroke-width:0.5;" x1="1223.5" x2="1402.5" y1="205" y2="205"/></g><!--class Main--><g id="elem_Main"><rect codeLine="20" fill="#F1F1F1" height="48" id="Main" rx="2.5" ry="2.5" style="stroke:#181818;stroke-width:0.5;" width="64" x="583" y="31.5"/><ellipse cx="598" cy="47.5" fill="#ADD1B2" rx="11" ry="11" style="stroke:#181818;stroke-width:1.0;"/><path d="M600.9688,53.1406 Q600.3906,53.4375 599.75,53.5781 Q599.1094,53.7344 598.4063,53.7344 Q595.9063,53.7344 594.5781,52.0938 Q593.2656,50.4375 593.2656,47.3125 Q593.2656,44.1875 594.5781,42.5313 Q595.9063,40.875 598.4063,40.875 Q599.1094,40.875 599.75,41.0313 Q600.4063,41.1875 600.9688,41.4844 L600.9688,44.2031 Q600.3438,43.625 599.75,43.3594 Q599.1563,43.0781 598.5313,43.0781 Q597.1875,43.0781 596.5,44.1563 Q595.8125,45.2188 595.8125,47.3125 Q595.8125,49.4063 596.5,50.4844 Q597.1875,51.5469 598.5313,51.5469 Q599.1563,51.5469 599.75,51.2813 Q600.3438,51 600.9688,50.4219 L600.9688,53.1406 Z " fill="#000000"/><text fill="#000000" font-family="sans-serif" font-size="14" lengthAdjust="spacing" textLength="32" x="612" y="52.3467">Main</text><line style="stroke:#181818;stroke-width:0.5;" x1="584" x2="646" y1="63.5" y2="63.5"/><line style="stroke:#181818;stroke-width:0.5;" x1="584" x2="646" y1="71.5" y2="71.5"/></g><!--reverse link TreeIterable to InorderTreeIterable--><g id="link_TreeIterable_InorderTreeIterable"><path d="M708.5114,92.7264 C688.3014,98.7564 684.18,99.46 664,104 C652.05,106.69 327.17,153.66 171.14,176.16 " fill="none" id="TreeIterable-backto-InorderTreeIterable" style="stroke:#181818;stroke-width:1.0;stroke-dasharray:7.0,7.0;"/><polygon fill="none" points="725.76,87.58,706.7959,86.9769,710.2269,98.476,725.76,87.58" style="stroke:#181818;stroke-width:1.0;"/></g><!--reverse link TreeIterable to PreorderTreeIterable--><g id="link_TreeIterable_PreorderTreeIterable"><path d="M739.5729,95.6144 C691.4629,119.3144 642.49,143.44 598.95,164.88 " fill="none" id="TreeIterable-backto-PreorderTreeIterable" style="stroke:#181818;stroke-width:1.0;stroke-dasharray:7.0,7.0;"/><polygon fill="none" points="755.72,87.66,736.9215,90.232,742.2244,100.9967,755.72,87.66" style="stroke:#181818;stroke-width:1.0;"/></g><!--reverse link TreeIterable to PostorderTreeIterable--><g id="link_TreeIterable_PostorderTreeIterable"><path d="M885.5639,97.0218 C924.4839,120.7218 961.8,143.44 997.02,164.88 " fill="none" id="TreeIterable-backto-PostorderTreeIterable" style="stroke:#181818;stroke-width:1.0;stroke-dasharray:7.0,7.0;"/><polygon fill="none" points="870.19,87.66,882.4433,102.1464,888.6845,91.8972,870.19,87.66" style="stroke:#181818;stroke-width:1.0;"/></g><!--reverse link TreeIterator to InorderTreeIterator--><g id="link_TreeIterator_InorderTreeIterator"><path d="M398.4564,118.888 C383.4464,139.448 377.2,148 365.01,164.7 " fill="none" id="TreeIterator-backto-InorderTreeIterator" style="stroke:#181818;stroke-width:1.0;stroke-dasharray:7.0,7.0;"/><polygon fill="none" points="409.07,104.35,393.6105,115.3501,403.3024,122.4258,409.07,104.35" style="stroke:#181818;stroke-width:1.0;"/></g><!--reverse link TreeIterator to PreorderTreeIterator--><g id="link_TreeIterator_PreorderTreeIterator"><path d="M533.4517,92.3553 C549.3117,98.5353 549.28,98.35 565,104 C626.07,125.95 696.13,148.69 747.66,164.96 " fill="none" id="TreeIterator-backto-PreorderTreeIterator" style="stroke:#181818;stroke-width:1.0;stroke-dasharray:7.0,7.0;"/><polygon fill="none" points="516.68,85.82,531.2733,97.9458,535.6301,86.7647,516.68,85.82" style="stroke:#181818;stroke-width:1.0;"/></g><!--reverse link TreeIterator to PostorderTreeIterator--><g id="link_TreeIterator_PostorderTreeIterator"><path d="M533.4016,94.9731 C549.1216,100.9031 549,100.09 565,104 C816.37,165.39 887.11,133.99 1144,165 C1169.43,168.07 1196.97,171.69 1222.29,175.14 " fill="none" id="TreeIterator-backto-PostorderTreeIterator" style="stroke:#181818;stroke-width:1.0;stroke-dasharray:7.0,7.0;"/><polygon fill="none" points="516.56,88.62,531.2839,100.5869,535.5193,89.3592,516.56,88.62" style="stroke:#181818;stroke-width:1.0;"/></g><!--link Main to TreeIterable--><g id="link_Main_TreeIterable"><path codeLine="21" d="M647.32,55.5 C665.41,55.5 683.1,55.5 707.08,55.5 " fill="none" id="Main-to-TreeIterable" style="stroke:#181818;stroke-width:1.0;"/><polygon fill="#181818" points="713.08,55.5,704.08,51.5,708.08,55.5,704.08,59.5,713.08,55.5" style="stroke:#181818;stroke-width:1.0;"/><text fill="#000000" font-family="sans-serif" font-size="13" lengthAdjust="spacing" textLength="30" x="665.25" y="48.5669">uses</text></g><!--reverse link TreeIterator to Main--><g id="link_TreeIterator_Main"><path codeLine="22" d="M522.52,55.5 C545.64,55.5 564.06,55.5 582.8,55.5 " fill="none" id="TreeIterator-backto-Main" style="stroke:#181818;stroke-width:1.0;"/><polygon fill="#181818" points="516.52,55.5,525.52,59.5,521.52,55.5,525.52,51.5,516.52,55.5" style="stroke:#181818;stroke-width:1.0;"/><text fill="#000000" font-family="sans-serif" font-size="13" lengthAdjust="spacing" textLength="30" x="534.75" y="48.5669">uses</text></g><!--reverse link TreeNode to TreeIterator--><g id="link_TreeNode_TreeIterator"><path codeLine="23" d="M292.1,55.5 C318.84,55.5 343.91,55.5 371.39,55.5 " fill="none" id="TreeNode-backto-TreeIterator" style="stroke:#181818;stroke-width:1.0;"/><polygon fill="#181818" points="286.1,55.5,295.1,59.5,291.1,55.5,295.1,51.5,286.1,55.5" style="stroke:#181818;stroke-width:1.0;"/><text fill="#000000" font-family="sans-serif" font-size="13" lengthAdjust="spacing" textLength="49" x="304.25" y="48.5669">iterates</text></g><!--link InorderTreeIterable to InorderTreeIterator--><g id="link_InorderTreeIterable_InorderTreeIterator"><path codeLine="24" d="M171.31,189 C201.82,189 230.38,189 260.8,189 " fill="none" id="InorderTreeIterable-to-InorderTreeIterator" style="stroke:#FF0000;stroke-width:1.0;stroke-dasharray:1.0,3.0;"/><polygon fill="#FF0000" points="266.8,189,257.8,185,261.8,189,257.8,193,266.8,189" style="stroke:#FF0000;stroke-width:1.0;"/><text fill="#000000" font-family="sans-serif" font-size="13" lengthAdjust="spacing" textLength="59" x="189.5" y="182.0669">produces</text></g><!--link PreorderTreeIterable to PreorderTreeIterator--><g id="link_PreorderTreeIterable_PreorderTreeIterator"><path codeLine="25" d="M639.66,189 C670.3,189 698.67,189 729.24,189 " fill="none" id="PreorderTreeIterable-to-PreorderTreeIterator" style="stroke:#008000;stroke-width:1.0;stroke-dasharray:1.0,3.0;"/><polygon fill="#008000" points="735.24,189,726.24,185,730.24,189,726.24,193,735.24,189" style="stroke:#008000;stroke-width:1.0;"/><text fill="#000000" font-family="sans-serif" font-size="13" lengthAdjust="spacing" textLength="59" x="658" y="182.0669">produces</text></g><!--link PostorderTreeIterable to PostorderTreeIterator--><g id="link_PostorderTreeIterable_PostorderTreeIterator"><path codeLine="26" d="M1126.8,189 C1157.48,189 1185.64,189 1216.25,189 " fill="none" id="PostorderTreeIterable-to-PostorderTreeIterator" style="stroke:#0000FF;stroke-width:1.0;stroke-dasharray:1.0,3.0;"/><polygon fill="#0000FF" points="1222.25,189,1213.25,185,1217.25,189,1213.25,193,1222.25,189" style="stroke:#0000FF;stroke-width:1.0;"/><text fill="#000000" font-family="sans-serif" font-size="13" lengthAdjust="spacing" textLength="59" x="1145" y="182.0669">produces</text></g><!--SRC=[bLD1JiCm4Bpd5Ijn0Oby80VkFL0XmQtYuDZRr99hL-iDgbJnTzPkKXmmK7AmvF7CsBExqKx522-4k0u6uTI0V2qyCra_m9jo8qxGXUDmoryniiEEc_V6UaRQAetvQ2KRrRlPzW9n81YGo_tjdQXrVipA1p982mExFpZSe-UuC9uKJuJ_beJ8rsigiLA6Swm-18VAmqx5DHvPainXSsby1TCZaTpoI-XaNtkDu3-5laBoBVJVcaTbVPCMQ7EJsuTbQpiO8yQ9aKQZ92JxYR30Ic8kI0SsdmcnrlxprPiRGdDl0ZEQLr7NQjR1WO8PjHXLfs9s6WJqXLUrcgLPTLvcjrv-azAiMkTFjmy0]--></g></svg>