<?xml version="1.0" encoding="us-ascii" standalone="no"?><svg xmlns="http://www.w3.org/2000/svg" xmlns:xlink="http://www.w3.org/1999/xlink" contentStyleType="text/css" height="187px" preserveAspectRatio="none" style="width:810px;height:187px;background:#FFFFFF;" version="1.1" viewBox="0 0 810 187" width="810px" zoomAndPan="magnify"><defs/><g><!--class Shape--><g id="elem_Shape"><rect codeLine="1" fill="#F1F1F1" height="64.2969" id="Shape" rx="2.5" ry="2.5" style="stroke:#181818;stroke-width:0.5;" width="101" x="547.5" y="7"/><ellipse cx="573.75" cy="23" fill="#A9DCDF" rx="11" ry="11" style="stroke:#181818;stroke-width:1.0;"/><path d="M573.8594,18.3438 L572.7031,23.4219 L575.0313,23.4219 L573.8594,18.3438 Z M572.375,16.1094 L575.3594,16.1094 L578.7188,28.5 L576.2656,28.5 L575.5,25.4375 L572.2188,25.4375 L571.4688,28.5 L569.0313,28.5 L572.375,16.1094 Z " fill="#000000"/><text fill="#000000" font-family="sans-serif" font-size="14" font-style="italic" lengthAdjust="spacing" textLength="44" x="590.25" y="27.8467">Shape</text><line style="stroke:#181818;stroke-width:0.5;" x1="548.5" x2="647.5" y1="39" y2="39"/><line style="stroke:#181818;stroke-width:0.5;" x1="548.5" x2="647.5" y1="47" y2="47"/><ellipse cx="558.5" cy="60.6484" fill="#84BE84" rx="3" ry="3" style="stroke:#038048;stroke-width:1.0;"/><text fill="#000000" font-family="sans-serif" font-size="14" lengthAdjust="spacing" textLength="75" x="567.5" y="63.9951">void draw()</text></g><!--class Rectangle--><g id="elem_Rectangle"><rect codeLine="4" fill="#F1F1F1" height="48" id="Rectangle" rx="2.5" ry="2.5" style="stroke:#181818;stroke-width:0.5;" width="102" x="477" y="132"/><ellipse cx="492" cy="148" fill="#ADD1B2" rx="11" ry="11" style="stroke:#181818;stroke-width:1.0;"/><path d="M494.9688,153.6406 Q494.3906,153.9375 493.75,154.0781 Q493.1094,154.2344 492.4063,154.2344 Q489.9063,154.2344 488.5781,152.5938 Q487.2656,150.9375 487.2656,147.8125 Q487.2656,144.6875 488.5781,143.0313 Q489.9063,141.375 492.4063,141.375 Q493.1094,141.375 493.75,141.5313 Q494.4063,141.6875 494.9688,141.9844 L494.9688,144.7031 Q494.3438,144.125 493.75,143.8594 Q493.1563,143.5781 492.5313,143.5781 Q491.1875,143.5781 490.5,144.6563 Q489.8125,145.7188 489.8125,147.8125 Q489.8125,149.9063 490.5,150.9844 Q491.1875,152.0469 492.5313,152.0469 Q493.1563,152.0469 493.75,151.7813 Q494.3438,151.5 494.9688,150.9219 L494.9688,153.6406 Z " fill="#000000"/><text fill="#000000" font-family="sans-serif" font-size="14" lengthAdjust="spacing" textLength="70" x="506" y="152.8467">Rectangle</text><line style="stroke:#181818;stroke-width:0.5;" x1="478" x2="578" y1="164" y2="164"/><line style="stroke:#181818;stroke-width:0.5;" x1="478" x2="578" y1="172" y2="172"/></g><!--class Triange--><g id="elem_Triange"><rect codeLine="5" fill="#F1F1F1" height="48" id="Triange" rx="2.5" ry="2.5" style="stroke:#181818;stroke-width:0.5;" width="84" x="614" y="132"/><ellipse cx="629" cy="148" fill="#ADD1B2" rx="11" ry="11" style="stroke:#181818;stroke-width:1.0;"/><path d="M631.9688,153.6406 Q631.3906,153.9375 630.75,154.0781 Q630.1094,154.2344 629.4063,154.2344 Q626.9063,154.2344 625.5781,152.5938 Q624.2656,150.9375 624.2656,147.8125 Q624.2656,144.6875 625.5781,143.0313 Q626.9063,141.375 629.4063,141.375 Q630.1094,141.375 630.75,141.5313 Q631.4063,141.6875 631.9688,141.9844 L631.9688,144.7031 Q631.3438,144.125 630.75,143.8594 Q630.1563,143.5781 629.5313,143.5781 Q628.1875,143.5781 627.5,144.6563 Q626.8125,145.7188 626.8125,147.8125 Q626.8125,149.9063 627.5,150.9844 Q628.1875,152.0469 629.5313,152.0469 Q630.1563,152.0469 630.75,151.7813 Q631.3438,151.5 631.9688,150.9219 L631.9688,153.6406 Z " fill="#000000"/><text fill="#000000" font-family="sans-serif" font-size="14" lengthAdjust="spacing" textLength="52" x="643" y="152.8467">Triange</text><line style="stroke:#181818;stroke-width:0.5;" x1="615" x2="697" y1="164" y2="164"/><line style="stroke:#181818;stroke-width:0.5;" x1="615" x2="697" y1="172" y2="172"/></g><!--class Circle--><g id="elem_Circle"><rect codeLine="6" fill="#F1F1F1" height="48" id="Circle" rx="2.5" ry="2.5" style="stroke:#181818;stroke-width:0.5;" width="70" x="733" y="132"/><ellipse cx="748" cy="148" fill="#ADD1B2" rx="11" ry="11" style="stroke:#181818;stroke-width:1.0;"/><path d="M750.9688,153.6406 Q750.3906,153.9375 749.75,154.0781 Q749.1094,154.2344 748.4063,154.2344 Q745.9063,154.2344 744.5781,152.5938 Q743.2656,150.9375 743.2656,147.8125 Q743.2656,144.6875 744.5781,143.0313 Q745.9063,141.375 748.4063,141.375 Q749.1094,141.375 749.75,141.5313 Q750.4063,141.6875 750.9688,141.9844 L750.9688,144.7031 Q750.3438,144.125 749.75,143.8594 Q749.1563,143.5781 748.5313,143.5781 Q747.1875,143.5781 746.5,144.6563 Q745.8125,145.7188 745.8125,147.8125 Q745.8125,149.9063 746.5,150.9844 Q747.1875,152.0469 748.5313,152.0469 Q749.1563,152.0469 749.75,151.7813 Q750.3438,151.5 750.9688,150.9219 L750.9688,153.6406 Z " fill="#000000"/><text fill="#000000" font-family="sans-serif" font-size="14" lengthAdjust="spacing" textLength="38" x="762" y="152.8467">Circle</text><line style="stroke:#181818;stroke-width:0.5;" x1="734" x2="802" y1="164" y2="164"/><line style="stroke:#181818;stroke-width:0.5;" x1="734" x2="802" y1="172" y2="172"/></g><!--class ShapesFactory--><g id="elem_ShapesFactory"><rect codeLine="7" fill="#F1F1F1" height="64.2969" id="ShapesFactory" rx="2.5" ry="2.5" style="stroke:#181818;stroke-width:0.5;" width="134" x="271" y="7"/><ellipse cx="286" cy="23" fill="#B4A7E5" rx="11" ry="11" style="stroke:#181818;stroke-width:1.0;"/><path d="M281.9219,18.7656 L281.9219,16.6094 L289.3125,16.6094 L289.3125,18.7656 L286.8438,18.7656 L286.8438,26.8438 L289.3125,26.8438 L289.3125,29 L281.9219,29 L281.9219,26.8438 L284.3906,26.8438 L284.3906,18.7656 L281.9219,18.7656 Z " fill="#000000"/><text fill="#000000" font-family="sans-serif" font-size="14" font-style="italic" lengthAdjust="spacing" textLength="102" x="300" y="27.8467">ShapesFactory</text><line style="stroke:#181818;stroke-width:0.5;" x1="272" x2="404" y1="39" y2="39"/><line style="stroke:#181818;stroke-width:0.5;" x1="272" x2="404" y1="47" y2="47"/><text fill="#000000" font-family="sans-serif" font-size="14" lengthAdjust="spacing" textLength="102" x="277" y="63.9951">Shape create()</text></g><!--class RandomShapesFactory--><g id="elem_RandomShapesFactory"><rect codeLine="10" fill="#F1F1F1" height="48" id="RandomShapesFactory" rx="2.5" ry="2.5" style="stroke:#181818;stroke-width:0.5;" width="192" x="7" y="132"/><ellipse cx="22" cy="148" fill="#ADD1B2" rx="11" ry="11" style="stroke:#181818;stroke-width:1.0;"/><path d="M24.9688,153.6406 Q24.3906,153.9375 23.75,154.0781 Q23.1094,154.2344 22.4063,154.2344 Q19.9063,154.2344 18.5781,152.5938 Q17.2656,150.9375 17.2656,147.8125 Q17.2656,144.6875 18.5781,143.0313 Q19.9063,141.375 22.4063,141.375 Q23.1094,141.375 23.75,141.5313 Q24.4063,141.6875 24.9688,141.9844 L24.9688,144.7031 Q24.3438,144.125 23.75,143.8594 Q23.1563,143.5781 22.5313,143.5781 Q21.1875,143.5781 20.5,144.6563 Q19.8125,145.7188 19.8125,147.8125 Q19.8125,149.9063 20.5,150.9844 Q21.1875,152.0469 22.5313,152.0469 Q23.1563,152.0469 23.75,151.7813 Q24.3438,151.5 24.9688,150.9219 L24.9688,153.6406 Z " fill="#000000"/><text fill="#000000" font-family="sans-serif" font-size="14" lengthAdjust="spacing" textLength="160" x="36" y="152.8467">RandomShapesFactory</text><line style="stroke:#181818;stroke-width:0.5;" x1="8" x2="198" y1="164" y2="164"/><line style="stroke:#181818;stroke-width:0.5;" x1="8" x2="198" y1="172" y2="172"/></g><!--class SequentialShapesFactory--><g id="elem_SequentialShapesFactory"><rect codeLine="11" fill="#F1F1F1" height="48" id="SequentialShapesFactory" rx="2.5" ry="2.5" style="stroke:#181818;stroke-width:0.5;" width="207" x="234.5" y="132"/><ellipse cx="249.5" cy="148" fill="#ADD1B2" rx="11" ry="11" style="stroke:#181818;stroke-width:1.0;"/><path d="M252.4688,153.6406 Q251.8906,153.9375 251.25,154.0781 Q250.6094,154.2344 249.9063,154.2344 Q247.4063,154.2344 246.0781,152.5938 Q244.7656,150.9375 244.7656,147.8125 Q244.7656,144.6875 246.0781,143.0313 Q247.4063,141.375 249.9063,141.375 Q250.6094,141.375 251.25,141.5313 Q251.9063,141.6875 252.4688,141.9844 L252.4688,144.7031 Q251.8438,144.125 251.25,143.8594 Q250.6563,143.5781 250.0313,143.5781 Q248.6875,143.5781 248,144.6563 Q247.3125,145.7188 247.3125,147.8125 Q247.3125,149.9063 248,150.9844 Q248.6875,152.0469 250.0313,152.0469 Q250.6563,152.0469 251.25,151.7813 Q251.8438,151.5 252.4688,150.9219 L252.4688,153.6406 Z " fill="#000000"/><text fill="#000000" font-family="sans-serif" font-size="14" lengthAdjust="spacing" textLength="175" x="263.5" y="152.8467">SequentialShapesFactory</text><line style="stroke:#181818;stroke-width:0.5;" x1="235.5" x2="440.5" y1="164" y2="164"/><line style="stroke:#181818;stroke-width:0.5;" x1="235.5" x2="440.5" y1="172" y2="172"/></g><!--class Main--><g id="elem_Main"><rect codeLine="13" fill="#F1F1F1" height="48" id="Main" rx="2.5" ry="2.5" style="stroke:#181818;stroke-width:0.5;" width="64" x="140" y="15"/><ellipse cx="155" cy="31" fill="#ADD1B2" rx="11" ry="11" style="stroke:#181818;stroke-width:1.0;"/><path d="M157.9688,36.6406 Q157.3906,36.9375 156.75,37.0781 Q156.1094,37.2344 155.4063,37.2344 Q152.9063,37.2344 151.5781,35.5938 Q150.2656,33.9375 150.2656,30.8125 Q150.2656,27.6875 151.5781,26.0313 Q152.9063,24.375 155.4063,24.375 Q156.1094,24.375 156.75,24.5313 Q157.4063,24.6875 157.9688,24.9844 L157.9688,27.7031 Q157.3438,27.125 156.75,26.8594 Q156.1563,26.5781 155.5313,26.5781 Q154.1875,26.5781 153.5,27.6563 Q152.8125,28.7188 152.8125,30.8125 Q152.8125,32.9063 153.5,33.9844 Q154.1875,35.0469 155.5313,35.0469 Q156.1563,35.0469 156.75,34.7813 Q157.3438,34.5 157.9688,33.9219 L157.9688,36.6406 Z " fill="#000000"/><text fill="#000000" font-family="sans-serif" font-size="14" lengthAdjust="spacing" textLength="32" x="169" y="35.8467">Main</text><line style="stroke:#181818;stroke-width:0.5;" x1="141" x2="203" y1="47" y2="47"/><line style="stroke:#181818;stroke-width:0.5;" x1="141" x2="203" y1="55" y2="55"/></g><!--reverse link Shape to Rectangle--><g id="link_Shape_Rectangle"><path d="M569.7025,86.4965 C558.0425,105.6565 552.7,114.42 542.07,131.88 " fill="none" id="Shape-backto-Rectangle" style="stroke:#181818;stroke-width:1.0;"/><polygon fill="none" points="579.06,71.12,564.577,83.3773,574.828,89.6157,579.06,71.12" style="stroke:#181818;stroke-width:1.0;"/></g><!--reverse link Shape to Triange--><g id="link_Shape_Triange"><path d="M621.8035,87.1928 C631.4635,106.3528 635.54,114.42 644.34,131.88 " fill="none" id="Shape-backto-Triange" style="stroke:#181818;stroke-width:1.0;"/><polygon fill="none" points="613.7,71.12,616.4459,89.8939,627.1611,84.4916,613.7,71.12" style="stroke:#181818;stroke-width:1.0;"/></g><!--reverse link Shape to Circle--><g id="link_Shape_Circle"><path d="M658.9085,81.2064 C687.2285,100.3664 708.02,114.42 733.83,131.88 " fill="none" id="Shape-backto-Circle" style="stroke:#181818;stroke-width:1.0;"/><polygon fill="none" points="644,71.12,655.5464,86.1759,662.2707,76.2369,644,71.12" style="stroke:#181818;stroke-width:1.0;"/></g><!--reverse link ShapesFactory to RandomShapesFactory--><g id="link_ShapesFactory_RandomShapesFactory"><path d="M258.2423,79.0324 C219.0923,98.1924 185.92,114.42 150.24,131.88 " fill="none" id="ShapesFactory-backto-RandomShapesFactory" style="stroke:#181818;stroke-width:1.0;stroke-dasharray:7.0,7.0;"/><polygon fill="none" points="274.41,71.12,255.6049,73.6432,260.8798,84.4217,274.41,71.12" style="stroke:#181818;stroke-width:1.0;"/></g><!--reverse link ShapesFactory to SequentialShapesFactory--><g id="link_ShapesFactory_SequentialShapesFactory"><path d="M338,89.12 C338,108.28 338,114.42 338,131.88 " fill="none" id="ShapesFactory-backto-SequentialShapesFactory" style="stroke:#181818;stroke-width:1.0;stroke-dasharray:7.0,7.0;"/><polygon fill="none" points="338,71.12,332,89.12,344,89.12,338,71.12" style="stroke:#181818;stroke-width:1.0;"/></g><!--link ShapesFactory to Shape--><g id="link_ShapesFactory_Shape"><path codeLine="12" d="M405.29,39 C449.68,39 500.89,39 541.41,39 " fill="none" id="ShapesFactory-to-Shape" style="stroke:#181818;stroke-width:1.0;"/><polygon fill="#181818" points="547.41,39,538.41,35,542.41,39,538.41,43,547.41,39" style="stroke:#181818;stroke-width:1.0;"/><text fill="#000000" font-family="sans-serif" font-size="13" lengthAdjust="spacing" textLength="48" x="452.25" y="32.0669">creates</text></g><!--link Main to ShapesFactory--><g id="link_Main_ShapesFactory"><path codeLine="14" d="M204.01,39 C222.94,39 241.66,39 264.71,39 " fill="none" id="Main-to-ShapesFactory" style="stroke:#181818;stroke-width:1.0;"/><polygon fill="#181818" points="270.71,39,261.71,35,265.71,39,261.71,43,270.71,39" style="stroke:#181818;stroke-width:1.0;"/><text fill="#000000" font-family="sans-serif" font-size="13" lengthAdjust="spacing" textLength="30" x="222.5" y="32.0669">uses</text></g><!--SRC=[ZOuz3i8m34RtdC8Z2FK27LYGs5We5p29QIsbQN5SVeIuEq6D40K6F5YolkzP3_TH1Qs2zHWZL0ts13S3QHPmwjY14ppFvkPkniQMh6AeFG5Tb8BBJ4vtmYdydQrOx1V6GKaEQ6cyupgvT7BD2gEE5KAbTmSChckd0BUzfvQ2nkcdZ5Hq75B8wF_4fhL2k6wqM6QZCZl5_7s37CnpVHHVV0b3fFW0]--></g></svg>