<?xml version="1.0" encoding="us-ascii" standalone="no"?><svg xmlns="http://www.w3.org/2000/svg" xmlns:xlink="http://www.w3.org/1999/xlink" contentStyleType="text/css" height="377px" preserveAspectRatio="none" style="width:300px;height:377px;background:#FFFFFF;" version="1.1" viewBox="0 0 300 377" width="300px" zoomAndPan="magnify"><defs/><g><!--class Cloneable--><g id="elem_Cloneable"><rect codeLine="1" fill="#F1F1F1" height="64.2969" id="Cloneable" rx="2.5" ry="2.5" style="stroke:#181818;stroke-width:0.5;" width="144" x="149" y="7"/><ellipse cx="183.35" cy="23" fill="#B4A7E5" rx="11" ry="11" style="stroke:#181818;stroke-width:1.0;"/><path d="M179.2719,18.7656 L179.2719,16.6094 L186.6625,16.6094 L186.6625,18.7656 L184.1938,18.7656 L184.1938,26.8438 L186.6625,26.8438 L186.6625,29 L179.2719,29 L179.2719,26.8438 L181.7406,26.8438 L181.7406,18.7656 L179.2719,18.7656 Z " fill="#000000"/><text fill="#000000" font-family="sans-serif" font-size="14" font-style="italic" lengthAdjust="spacing" textLength="69" x="201.65" y="27.8467">Cloneable</text><line style="stroke:#181818;stroke-width:0.5;" x1="150" x2="292" y1="39" y2="39"/><line style="stroke:#181818;stroke-width:0.5;" x1="150" x2="292" y1="47" y2="47"/><text fill="#000000" font-family="sans-serif" font-size="14" lengthAdjust="spacing" textLength="132" x="155" y="63.9951">Animal makeCopy()</text></g><!--class Animal--><g id="elem_Animal"><rect codeLine="4" fill="#F1F1F1" height="96.8906" id="Animal" rx="2.5" ry="2.5" style="stroke:#181818;stroke-width:0.5;" width="160" x="49" y="148"/><ellipse cx="101.75" cy="164" fill="#A9DCDF" rx="11" ry="11" style="stroke:#181818;stroke-width:1.0;"/><path d="M101.8594,159.3438 L100.7031,164.4219 L103.0313,164.4219 L101.8594,159.3438 Z M100.375,157.1094 L103.3594,157.1094 L106.7188,169.5 L104.2656,169.5 L103.5,166.4375 L100.2188,166.4375 L99.4688,169.5 L97.0313,169.5 L100.375,157.1094 Z " fill="#000000"/><text fill="#000000" font-family="sans-serif" font-size="14" font-style="italic" lengthAdjust="spacing" textLength="46" x="122.25" y="168.8467">Animal</text><line style="stroke:#181818;stroke-width:0.5;" x1="50" x2="208" y1="180" y2="180"/><rect fill="none" height="6" style="stroke:#C82930;stroke-width:1.0;" width="6" x="57" y="190.6484"/><text fill="#000000" font-family="sans-serif" font-size="14" lengthAdjust="spacing" textLength="88" x="69" y="196.9951">name: String</text><line style="stroke:#181818;stroke-width:0.5;" x1="50" x2="208" y1="204.2969" y2="204.2969"/><ellipse cx="60" cy="217.9453" fill="#84BE84" rx="3" ry="3" style="stroke:#038048;stroke-width:1.0;"/><text fill="#000000" font-family="sans-serif" font-size="14" lengthAdjust="spacing" textLength="117" x="69" y="221.292">String getName()</text><ellipse cx="60" cy="234.2422" fill="#84BE84" rx="3" ry="3" style="stroke:#038048;stroke-width:1.0;"/><text fill="#000000" font-family="sans-serif" font-size="14" font-style="italic" lengthAdjust="spacing" textLength="134" x="69" y="237.5889">Animal makeCopy()</text></g><!--class Sheep--><g id="elem_Sheep"><rect codeLine="9" fill="#F1F1F1" height="64.2969" id="Sheep" rx="2.5" ry="2.5" style="stroke:#181818;stroke-width:0.5;" width="158" x="50" y="306"/><ellipse cx="102.25" cy="322" fill="#ADD1B2" rx="11" ry="11" style="stroke:#181818;stroke-width:1.0;"/><path d="M105.2188,327.6406 Q104.6406,327.9375 104,328.0781 Q103.3594,328.2344 102.6563,328.2344 Q100.1563,328.2344 98.8281,326.5938 Q97.5156,324.9375 97.5156,321.8125 Q97.5156,318.6875 98.8281,317.0313 Q100.1563,315.375 102.6563,315.375 Q103.3594,315.375 104,315.5313 Q104.6563,315.6875 105.2188,315.9844 L105.2188,318.7031 Q104.5938,318.125 104,317.8594 Q103.4063,317.5781 102.7813,317.5781 Q101.4375,317.5781 100.75,318.6563 Q100.0625,319.7188 100.0625,321.8125 Q100.0625,323.9063 100.75,324.9844 Q101.4375,326.0469 102.7813,326.0469 Q103.4063,326.0469 104,325.7813 Q104.5938,325.5 105.2188,324.9219 L105.2188,327.6406 Z " fill="#000000"/><text fill="#000000" font-family="sans-serif" font-size="14" lengthAdjust="spacing" textLength="45" x="122.75" y="326.8467">Sheep</text><line style="stroke:#181818;stroke-width:0.5;" x1="51" x2="207" y1="338" y2="338"/><line style="stroke:#181818;stroke-width:0.5;" x1="51" x2="207" y1="346" y2="346"/><ellipse cx="61" cy="359.6484" fill="#84BE84" rx="3" ry="3" style="stroke:#038048;stroke-width:1.0;"/><text fill="#000000" font-family="sans-serif" font-size="14" lengthAdjust="spacing" textLength="132" x="70" y="362.9951">Animal makeCopy()</text></g><!--class Main--><g id="elem_Main"><rect fill="#F1F1F1" height="48" id="Main" rx="2.5" ry="2.5" style="stroke:#181818;stroke-width:0.5;" width="64" x="7" y="15"/><ellipse cx="22" cy="31" fill="#ADD1B2" rx="11" ry="11" style="stroke:#181818;stroke-width:1.0;"/><path d="M24.9688,36.6406 Q24.3906,36.9375 23.75,37.0781 Q23.1094,37.2344 22.4063,37.2344 Q19.9063,37.2344 18.5781,35.5938 Q17.2656,33.9375 17.2656,30.8125 Q17.2656,27.6875 18.5781,26.0313 Q19.9063,24.375 22.4063,24.375 Q23.1094,24.375 23.75,24.5313 Q24.4063,24.6875 24.9688,24.9844 L24.9688,27.7031 Q24.3438,27.125 23.75,26.8594 Q23.1563,26.5781 22.5313,26.5781 Q21.1875,26.5781 20.5,27.6563 Q19.8125,28.7188 19.8125,30.8125 Q19.8125,32.9063 20.5,33.9844 Q21.1875,35.0469 22.5313,35.0469 Q23.1563,35.0469 23.75,34.7813 Q24.3438,34.5 24.9688,33.9219 L24.9688,36.6406 Z " fill="#000000"/><text fill="#000000" font-family="sans-serif" font-size="14" lengthAdjust="spacing" textLength="32" x="36" y="35.8467">Main</text><line style="stroke:#181818;stroke-width:0.5;" x1="8" x2="70" y1="47" y2="47"/><line style="stroke:#181818;stroke-width:0.5;" x1="8" x2="70" y1="55" y2="55"/></g><!--reverse link Cloneable to Animal--><g id="link_Cloneable_Animal"><path d="M193.4367,86.583 C180.4367,108.563 171.92,122.95 157.15,147.91 " fill="none" id="Cloneable-backto-Animal" style="stroke:#181818;stroke-width:1.0;stroke-dasharray:7.0,7.0;"/><polygon fill="none" points="202.6,71.09,188.2724,83.5286,198.601,89.6375,202.6,71.09" style="stroke:#181818;stroke-width:1.0;"/></g><!--reverse link Animal to Sheep--><g id="link_Animal_Sheep"><path d="M129,263.12 C129,283.17 129,287.94 129,305.79 " fill="none" id="Animal-backto-Sheep" style="stroke:#181818;stroke-width:1.0;"/><polygon fill="none" points="129,245.12,123,263.12,135,263.12,129,245.12" style="stroke:#181818;stroke-width:1.0;"/></g><!--link Main to Animal--><g id="link_Main_Animal"><path codeLine="12" d="M52.47,63.28 C65.37,85.56 82.2039,114.6474 98.4539,142.7174 " fill="none" id="Main-to-Animal" style="stroke:#181818;stroke-width:1.0;stroke-dasharray:1.0,3.0;"/><polygon fill="#181818" points="101.46,147.91,100.4127,138.117,98.9549,143.5828,93.4891,142.1251,101.46,147.91" style="stroke:#181818;stroke-width:1.0;"/><text fill="#000000" font-family="sans-serif" font-size="13" lengthAdjust="spacing" textLength="48" x="85" y="114.0669">creates</text></g><!--link Main to Cloneable--><g id="link_Main_Cloneable"><path codeLine="13" d="M71.12,39 C92.65,39 115.89,39 142.83,39 " fill="none" id="Main-to-Cloneable" style="stroke:#181818;stroke-width:1.0;"/><polygon fill="#181818" points="148.83,39,139.83,35,143.83,39,139.83,43,148.83,39" style="stroke:#181818;stroke-width:1.0;"/><text fill="#000000" font-family="sans-serif" font-size="13" lengthAdjust="spacing" textLength="41" x="89.5" y="32.0669">clones</text></g><!--SRC=[PKyn3i8m3Dpx2eyWr0ym8A7Ei7H436vxj169MoKUG5N_Jg2DeCAJVNU-iuqe_8rhK65x0LSMD6OKwoZ6iIN7TnJzyDniiodZAgZdMgcs74AI63TOE8Y6FvESX1tsLAetqdwWtJ9G2pr7CXhFyE8sff1fdJr7bXqm41uAQT81uzfWjNLY8vHxqtPwQNfLDDVya9HxgZrO4NvbaVv-4HNlFhm0]--></g></svg>